<svg width="95" height="193" viewBox="0 0 95 193" fill="none" xmlns="http://www.w3.org/2000/svg">
<path d="M69.9358 192.914C69.8436 192.889 69.6824 192.753 69.5903 192.729C62.1785 180.949 62.1216 162.362 62.7776 145.907L62.8722 142.236C63.5056 125.128 64.1854 107.478 59.0332 93.5317C58.8951 93.3099 59.0566 93.076 59.2871 92.953C59.5176 92.8299 59.7709 92.9902 59.909 93.212C65.1072 107.355 64.4043 125.092 63.7709 142.2L63.6763 145.87C63.0434 162.239 63.0543 180.629 70.328 192.187C70.4661 192.409 70.3968 192.668 70.1663 192.791C70.1432 192.877 70.0279 192.938 69.9358 192.914Z" fill="#E4CB66"/>
<path d="M70.3135 66.783C76.2937 54.6976 79.0503 40.7551 74.8937 28.4924C70.7371 16.2298 58.3862 6.40763 44.3169 7.38434C28.1634 8.46487 14.5181 23.5741 12.5733 38.5069C10.6837 53.2337 18.2742 67.2996 29.4288 76.47C38.913 84.1994 50.7145 89.1277 63.2041 92.5847C65.3969 93.1723 65.2276 95.9969 62.9777 96.7187C55.3231 98.9727 46.81 100.776 52.9397 92.1525C59.0781 83.8626 65.3801 76.0581 70.3135 66.783Z" fill="#E9DED0"/>
<path d="M56.6685 31.8846H55.1685V30.4423C55.1685 29.5769 54.5685 29 53.6685 29C52.7685 29 52.1685 29.5769 52.1685 30.4423V31.8846H40.1685V30.4423C40.1685 29.5769 39.5685 29 38.6685 29C37.7685 29 37.1685 29.5769 37.1685 30.4423V31.8846H35.6685C33.1185 31.8846 31.1685 33.7596 31.1685 36.2115V37.6538H61.1685V36.2115C61.1685 33.7596 59.2185 31.8846 56.6685 31.8846ZM31.1685 53.5192C31.1685 55.9712 33.1185 57.8462 35.6685 57.8462H56.6685C59.2185 57.8462 61.1685 55.9712 61.1685 53.5192V40.5385H31.1685V53.5192ZM53.6685 43.4231C54.5685 43.4231 55.1685 44 55.1685 44.8654C55.1685 45.7308 54.5685 46.3077 53.6685 46.3077C52.7685 46.3077 52.1685 45.7308 52.1685 44.8654C52.1685 44 52.7685 43.4231 53.6685 43.4231ZM53.6685 49.1923C54.5685 49.1923 55.1685 49.7692 55.1685 50.6346C55.1685 51.5 54.5685 52.0769 53.6685 52.0769C52.7685 52.0769 52.1685 51.5 52.1685 50.6346C52.1685 49.7692 52.7685 49.1923 53.6685 49.1923ZM46.1685 43.4231C47.0685 43.4231 47.6685 44 47.6685 44.8654C47.6685 45.7308 47.0685 46.3077 46.1685 46.3077C45.2685 46.3077 44.6685 45.7308 44.6685 44.8654C44.6685 44 45.2685 43.4231 46.1685 43.4231ZM46.1685 49.1923C47.0685 49.1923 47.6685 49.7692 47.6685 50.6346C47.6685 51.5 47.0685 52.0769 46.1685 52.0769C45.2685 52.0769 44.6685 51.5 44.6685 50.6346C44.6685 49.7692 45.2685 49.1923 46.1685 49.1923ZM38.6685 43.4231C39.5685 43.4231 40.1685 44 40.1685 44.8654C40.1685 45.7308 39.5685 46.3077 38.6685 46.3077C37.7685 46.3077 37.1685 45.7308 37.1685 44.8654C37.1685 44 37.7685 43.4231 38.6685 43.4231ZM38.6685 49.1923C39.5685 49.1923 40.1685 49.7692 40.1685 50.6346C40.1685 51.5 39.5685 52.0769 38.6685 52.0769C37.7685 52.0769 37.1685 51.5 37.1685 50.6346C37.1685 49.7692 37.7685 49.1923 38.6685 49.1923Z" fill="#121B43"/>
</svg>
