<svg width="42" height="36" viewBox="0 0 42 36" fill="none" xmlns="http://www.w3.org/2000/svg">
<path d="M26.6248 34.0832C27.1541 34.0832 27.5832 33.6541 27.5832 33.1248C27.5832 32.5956 27.1541 32.1665 26.6248 32.1665C26.0956 32.1665 25.6665 32.5956 25.6665 33.1248C25.6665 33.6541 26.0956 34.0832 26.6248 34.0832Z" stroke="white" stroke-width="2" stroke-linecap="round" stroke-linejoin="round"/>
<path d="M37.1668 34.0832C37.6961 34.0832 38.1252 33.6541 38.1252 33.1248C38.1252 32.5956 37.6961 32.1665 37.1668 32.1665C36.6376 32.1665 36.2085 32.5956 36.2085 33.1248C36.2085 33.6541 36.6376 34.0832 37.1668 34.0832Z" stroke="white" stroke-width="2" stroke-linecap="round" stroke-linejoin="round"/>
<path d="M18.9585 13.9585H22.7918L25.3602 26.7906C25.4478 27.2318 25.6878 27.6281 26.0382 27.9102C26.3886 28.1923 26.8271 28.3421 27.2768 28.3335H36.5918C37.0416 28.3421 37.48 28.1923 37.8304 27.9102C38.1808 27.6281 38.4209 27.2318 38.5085 26.7906L40.0418 18.7502H23.7502" stroke="white" stroke-width="2" stroke-linecap="round" stroke-linejoin="round"/>
<path d="M19.3078 13.4074C19.7125 13.6108 20.0043 14.0075 20.1078 14.4652C20.3808 14.2516 20.6725 14.0278 21.002 13.9566C21.3314 13.8854 21.7361 14.0177 21.8773 14.3431C22.009 14.6279 21.9149 14.9737 21.7361 15.228C21.5573 15.4823 21.3031 15.645 21.049 15.7975C21.2655 15.9094 21.3502 16.2247 21.2467 16.4586C21.1337 16.6926 20.9267 16.8451 20.682 16.8655C19.8631 16.9672 18.6866 15.9501 18.2725 15.2178C18.0654 14.8618 18.0372 14.4448 18.0278 14.0278C18.0184 13.6108 17.9807 13.4176 18.3854 13.2955C18.696 13.2243 19.016 13.265 19.3078 13.4074Z" fill="white"/>
<path d="M20.5779 16.9574C19.7308 16.9574 18.6202 15.9709 18.2155 15.2691C17.999 14.8826 17.9708 14.4554 17.952 14.0486V13.9774C17.9426 13.6112 17.9331 13.3672 18.3661 13.2349C18.6955 13.1434 19.0343 13.1841 19.3355 13.3366C19.7214 13.5299 20.0226 13.896 20.1544 14.3435C20.3991 14.1503 20.6814 13.9571 21.0015 13.8859C21.3497 13.8147 21.7826 13.9367 21.9521 14.313C22.0838 14.5978 22.0179 14.9741 21.8015 15.2691C21.6321 15.4827 21.425 15.6657 21.1897 15.798C21.3685 15.9709 21.4156 16.2556 21.3215 16.4896C21.1991 16.7438 20.9638 16.9167 20.7003 16.9371C20.6626 16.9574 20.625 16.9574 20.5779 16.9574ZM18.7049 13.3366C18.6014 13.3366 18.5073 13.3468 18.4037 13.3773C18.0837 13.479 18.0837 13.6011 18.0931 13.9672V14.0384C18.1026 14.4249 18.1308 14.8419 18.3379 15.1877C18.7426 15.8997 19.9097 16.8964 20.6814 16.8049C20.8979 16.7845 21.0956 16.6523 21.1897 16.4387C21.2744 16.2353 21.2085 15.9912 21.0203 15.8793C20.992 15.8692 20.9826 15.8386 20.9826 15.8183C20.9826 15.7878 20.992 15.7674 21.0203 15.7471C21.265 15.5945 21.5097 15.4318 21.6885 15.1979C21.8297 15.0046 21.9521 14.6792 21.8203 14.3944C21.6791 14.0893 21.312 13.9876 21.0203 14.0486C20.7003 14.1198 20.4085 14.3435 20.1544 14.5368C20.1355 14.547 20.1073 14.5571 20.0885 14.547C20.0697 14.5368 20.0508 14.5164 20.0414 14.4961C19.9473 14.0486 19.6649 13.6824 19.2791 13.4892C19.1002 13.3875 18.9026 13.3366 18.7049 13.3366Z" fill="#121B43"/>
<path d="M20.5117 16.2961C20.4929 16.2961 20.4835 16.2859 20.4741 16.2757C20.3988 16.1435 20.3799 15.9909 20.4176 15.8384C20.267 15.9299 20.107 15.9808 19.9376 15.9909H19.9282C19.7117 15.9909 19.467 15.8486 19.4387 15.6045C19.4199 15.4417 19.4858 15.279 19.5987 15.1671C19.7023 15.0654 19.8246 14.984 19.9564 14.9332C19.9752 14.923 20.0035 14.9332 20.0129 14.9535C20.0223 14.9739 20.0129 15.0044 19.994 15.0146C19.8717 15.0654 19.7587 15.1468 19.6552 15.2383C19.5611 15.3298 19.514 15.4519 19.5234 15.5943C19.5517 15.7875 19.7587 15.9096 19.9376 15.9096C20.1352 15.9096 20.3235 15.7977 20.4835 15.7062C20.5023 15.696 20.5211 15.696 20.5399 15.7163C20.5494 15.7367 20.5588 15.757 20.5494 15.7774C20.4646 15.9198 20.4646 16.1028 20.5494 16.2452C20.5588 16.2656 20.5588 16.2961 20.5399 16.3062C20.5211 16.2961 20.5117 16.2961 20.5117 16.2961Z" fill="#121B43"/>
<path d="M17.9985 16.4382C17.8385 16.0924 17.8009 15.7059 17.7256 15.3296C17.5561 14.4854 17.2079 13.6413 16.5491 13.1531C15.8902 12.6649 14.8831 12.6852 14.3843 13.3565C14.1114 13.7328 14.0266 14.2413 14.0925 14.7194C14.1584 15.1974 14.3372 15.6449 14.5443 16.0721C15.0149 17.0485 15.5984 17.9537 16.2761 18.7775C16.6432 19.2148 17.0479 19.6318 17.5373 19.8861C18.0267 20.1404 18.6291 20.2014 19.1185 19.937C19.5421 19.7132 19.8338 19.2657 19.9844 18.7775C20.135 18.2893 20.1727 17.7808 20.1821 17.2722C20.1915 16.601 19.9938 15.889 19.4856 16.5806C18.9962 17.201 18.3562 17.2417 17.9985 16.4382Z" fill="white"/>
<path d="M18.4129 20.1809C18.0929 20.1809 17.7823 20.0995 17.5 19.947C16.9729 19.6724 16.5494 19.2249 16.2105 18.8282C15.5235 18.0044 14.9305 17.089 14.4599 16.1024C14.2717 15.7058 14.0646 15.2379 14.0081 14.7294C13.9422 14.1802 14.0552 13.6716 14.3187 13.3055C14.8552 12.5732 15.9188 12.6037 16.5776 13.0817C17.3212 13.6309 17.6506 14.5972 17.7823 15.3091C17.8012 15.3905 17.8106 15.4718 17.8294 15.543C17.867 15.838 17.9423 16.1228 18.0553 16.3974C18.2059 16.733 18.4129 16.9263 18.6577 16.9568C18.9024 16.9873 19.1847 16.8347 19.4106 16.5296C19.5989 16.2753 19.7777 16.1736 19.9189 16.2347C20.1636 16.3262 20.2389 16.8347 20.2295 17.2721C20.22 17.7704 20.1918 18.3095 20.0318 18.7977C19.853 19.3571 19.533 19.7741 19.1283 19.9978C18.9118 20.1199 18.6577 20.1809 18.4129 20.1809ZM15.5141 12.8986C15.0999 12.8783 14.7046 13.0715 14.4411 13.4072C14.1964 13.7326 14.1023 14.2107 14.1587 14.7192C14.2152 15.1972 14.4128 15.6549 14.6011 16.0414C15.0623 17.0178 15.6458 17.9128 16.3235 18.7265C16.6529 19.1231 17.0576 19.5605 17.5659 19.8148C18.0741 20.069 18.6577 20.0995 19.0812 19.8656C19.4483 19.6622 19.7494 19.2655 19.9189 18.757C20.0695 18.279 20.0977 17.7603 20.1071 17.2721C20.1165 16.8144 20.0224 16.4381 19.8812 16.377C19.7965 16.3465 19.6742 16.4279 19.5236 16.6211C19.26 16.9669 18.94 17.15 18.6388 17.1093C18.4412 17.089 18.1494 16.9568 17.9329 16.4686C17.82 16.1838 17.7353 15.8787 17.6976 15.5736C17.6882 15.4922 17.6694 15.421 17.6506 15.3396C17.5188 14.6582 17.2082 13.7326 16.5023 13.2139C16.2105 13.0004 15.8623 12.8885 15.5141 12.8986Z" fill="#121B43"/>
<path d="M12.9634 11.3329C13.161 11.5668 13.3963 11.8109 13.6975 11.8007C14.1211 11.7804 14.347 11.2617 14.4505 10.8142C14.8646 9.01393 14.7611 7.112 14.3564 5.31178C14.2811 4.98632 14.1587 4.61 13.8669 4.49812C13.6316 4.40659 13.3681 4.52863 13.1516 4.66085C12.3516 5.11854 11.1281 5.92202 10.7233 6.84756C10.5445 7.26456 10.7986 7.69173 10.9586 8.06805C11.4669 9.25803 12.1446 10.3565 12.9634 11.3329Z" fill="white"/>
<path d="M13.6693 11.8713C13.3587 11.8713 13.114 11.6272 12.907 11.3831C12.474 10.8644 12.0787 10.305 11.721 9.72525C11.4105 9.20655 11.1281 8.6675 10.8834 8.10811C10.8646 8.05725 10.8363 8.0064 10.8175 7.95554C10.6575 7.60974 10.4787 7.21308 10.6481 6.82659C10.9587 6.11464 11.7869 5.362 13.1046 4.5992C13.3399 4.46698 13.6223 4.33476 13.8858 4.43647C14.2152 4.55852 14.347 4.96535 14.4223 5.30098C14.8647 7.29445 14.9023 9.16586 14.5164 10.844C14.3658 11.495 14.0646 11.8713 13.6976 11.8815L13.6693 11.8713ZM13.6882 4.53817C13.5093 4.55852 13.3305 4.61954 13.1799 4.72125C11.8905 5.46371 11.081 6.19601 10.7893 6.87745C10.6481 7.20291 10.7987 7.54871 10.9587 7.87418C10.9869 7.92503 11.0057 7.97589 11.034 8.02674C11.2787 8.57596 11.5516 9.11501 11.8622 9.62355C12.2105 10.2033 12.6058 10.7525 13.0293 11.261C13.2176 11.4848 13.4434 11.7085 13.707 11.6984C14.1399 11.678 14.3282 11.0475 14.3941 10.7728C14.7705 9.11501 14.7423 7.28427 14.2999 5.30098C14.2341 5.00603 14.1211 4.65005 13.8576 4.54835C13.7917 4.54835 13.7352 4.53817 13.6882 4.53817Z" fill="#121B43"/>
<path d="M12.8414 7.1828C12.8131 7.15229 12.7567 7.12177 12.7284 7.15229C12.7096 7.17263 12.7002 7.19297 12.7002 7.21331C12.7002 7.23365 12.7096 7.26417 12.719 7.28451C12.7473 7.36587 12.8508 7.73202 12.9637 7.60997C13.0767 7.48792 12.9167 7.26417 12.8414 7.1828Z" fill="#121B43"/>
<path d="M13.8669 7.45727C13.8857 7.47761 13.9045 7.48778 13.9327 7.48778C13.9516 7.47761 13.961 7.45727 13.9704 7.43693C13.9986 7.35556 14.0174 6.90805 13.8669 6.96908C13.6974 7.01993 13.7821 7.35556 13.8669 7.45727Z" fill="#121B43"/>
<path d="M14.4598 5.74875C14.8645 5.68773 15.2504 5.46397 15.4198 5.13851C15.5704 4.83338 15.4669 4.4469 15.1751 4.28416C15.1468 4.26382 15.1186 4.25365 15.081 4.24348C15.9186 3.9587 16.4175 3.06367 16.1728 2.33138C15.928 1.59909 14.9586 1.13123 14.0927 1.32448C14.0739 0.643038 13.415 0.0429637 12.6338 0.00228073C11.8526 -0.0384022 11.062 0.470135 10.8832 1.13123C10.3467 0.724403 9.47141 0.693892 8.86905 1.04987C8.26668 1.40584 7.9655 2.13814 8.19138 2.72804C7.78667 3.11453 7.58902 3.65358 7.6549 4.16211C7.72078 4.67065 8.05962 5.13851 8.54904 5.40295C8.31374 5.09782 7.7302 5.10799 7.39136 5.36226C7.05253 5.61653 6.90194 6.00302 6.83606 6.37934C6.74194 6.92856 6.79841 7.52863 7.16548 7.97614C7.53254 8.42366 8.27609 8.64741 8.84081 8.3728C8.5208 8.66775 8.47374 9.17629 8.73728 9.53227C9.00081 9.8679 9.5373 10.0205 9.98907 9.8679C10.3938 10.234 11.1938 10.1629 11.5421 9.72551C11.8903 9.29834 11.6832 8.62707 11.1467 8.42366C11.0526 8.30161 10.9114 8.24058 10.7703 8.25075C10.9397 8.09819 10.9585 7.82358 10.8173 7.65068C10.7797 7.61 10.7326 7.56931 10.6856 7.5388C11.1373 7.43709 11.4009 6.91839 11.1656 6.57258C11.2691 6.72514 11.8621 6.49121 11.975 6.42002C12.2103 6.2878 12.3891 6.05387 12.4644 5.77926C12.7844 5.96234 12.9915 5.77926 13.3021 5.73858C13.6974 5.68773 14.0645 5.80978 14.4598 5.74875Z" fill="#121B43"/>
<path d="M11.4014 7.76235C11.2696 7.66064 11.119 7.55894 10.9496 7.57928C10.8179 7.59962 10.7049 7.68098 10.6296 7.79286C10.4884 8.00645 10.479 8.29123 10.6108 8.50482C10.6861 8.61669 10.8084 8.69806 10.9402 8.7184C11.1379 8.74891 11.3355 8.65738 11.5143 8.55567" fill="#121B43"/>
<path d="M11.0244 8.44425C10.8644 8.43408 10.7421 8.29169 10.7515 8.12896C10.7609 7.96623 10.8927 7.82384 11.0433 7.83401C11.0715 7.83401 11.0809 7.85435 11.0809 7.88486C11.0809 7.91538 11.0621 7.92555 11.0338 7.92555C10.9209 7.91537 10.8268 7.99674 10.8174 8.11879C10.808 8.24084 10.8833 8.34255 10.9962 8.35272C11.0338 8.35272 11.0621 8.35272 11.0997 8.33238C11.128 8.3222 11.1468 8.34255 11.1562 8.36289C11.1656 8.38323 11.1562 8.40357 11.1374 8.41374C11.0997 8.43408 11.0621 8.43408 11.0244 8.44425Z" fill="#121B43"/>
<path d="M11.4292 13.9157L8.52089 19.4181C8.05971 20.2826 7.60793 21.4014 8.135 22.2151C8.41736 22.6626 8.92561 22.866 9.39621 23.0389C10.9868 23.5983 12.6339 23.9339 14.3093 24.056C14.9399 24.1068 15.5893 24.117 16.2011 23.9339C16.8129 23.7508 17.4058 23.3745 17.7258 22.7846C18.1211 22.0422 18.0552 21.1268 17.9423 20.2826C17.7635 18.9604 17.5093 17.6382 16.954 16.4482C16.1258 14.6684 12.9728 10.9866 11.4292 13.9157Z" fill="white"/>
<path d="M15.0062 24.1579C14.7709 24.1579 14.5356 24.1477 14.3003 24.1274C12.625 24.0053 10.9685 23.6595 9.37785 23.1001C8.90725 22.9374 8.38018 22.7238 8.079 22.2458C7.51428 21.3711 8.03194 20.1811 8.46489 19.3675L11.3732 13.8651C11.7779 13.0921 12.3238 12.7158 12.9921 12.7361C13.8862 12.7565 14.7803 13.4888 15.3827 14.099C16.0415 14.7805 16.691 15.6755 17.0298 16.3976C17.6322 17.6893 17.8769 19.1335 18.0275 20.2625C18.1404 21.0863 18.2251 22.0424 17.8016 22.8153C17.5004 23.3747 16.9263 23.8019 16.2392 24.0053C15.8251 24.1172 15.4204 24.1681 15.0062 24.1579ZM11.4297 13.9159L11.4861 13.9566L8.57783 19.459C8.16371 20.2421 7.67428 21.3711 8.19194 22.1746C8.4743 22.6018 8.97314 22.8153 9.4155 22.9679C11.0061 23.5273 12.6438 23.8629 14.3097 23.985C14.9215 24.0257 15.5709 24.046 16.1827 23.8731C16.8416 23.69 17.378 23.273 17.6604 22.7543C18.0557 22.022 17.9804 21.0965 17.8675 20.293C17.7169 19.1844 17.4722 17.7503 16.8792 16.479C16.2863 15.2076 14.4792 12.9395 12.9732 12.8989C12.3615 12.8785 11.8626 13.2345 11.4767 13.9566L11.4297 13.9159Z" fill="#121B43"/>
<path d="M17.9425 23.8732C17.5566 24.2394 17.0672 24.4326 16.5589 24.5343C16.2766 26.8532 15.7589 29.1213 15.0154 31.308C14.9871 31.4301 14.9212 31.542 14.8365 31.6335C14.7518 31.725 14.6107 31.7352 14.5165 31.6538C14.7048 30.2299 14.5542 28.7857 14.0742 27.4533C13.82 26.7515 13.3683 25.9989 12.6718 25.9277C12.1447 25.8667 11.6553 26.2328 11.2506 26.6092C10.8459 26.9855 10.4505 27.4228 9.9423 27.5652C9.29287 27.7483 8.59639 27.4126 8.11637 26.8939C7.63636 26.3752 7.354 25.704 7.08105 25.0429L7.46695 24.7377C8.04108 25.3378 8.90698 25.4497 9.60347 25.0225C10.027 24.7479 10.187 24.3207 10.3188 23.8732C9.97054 23.7817 9.62229 23.68 9.27405 23.5681C8.61521 23.3647 7.89049 23.0697 7.57989 22.4086C7.25047 21.717 7.48577 20.8729 7.84343 20.1914C8.20108 19.51 8.68109 18.8997 8.86933 18.1573C9.56582 18.6455 10.5447 18.5336 11.2035 17.9844C12.4835 16.9164 12.1635 15.3705 12.0976 13.8754C12.0882 13.5703 11.9941 12.8583 12.3894 13.0414C12.8506 13.255 12.8318 15.2688 13.1518 15.2993L15.0907 15.4417C15.2413 15.4518 15.3636 15.3298 15.373 15.1671C15.373 15.0959 15.3636 15.0348 15.326 14.9738L14.2059 13.316C15.3636 13.4279 16.1919 14.5365 16.8319 15.5841C17.8672 17.2928 18.799 19.1947 18.8366 21.2492C18.8272 22.195 18.6107 23.2325 17.9425 23.8732Z" fill="#E4CB66"/>
<path d="M2.77946 24.9005C2.23357 24.6361 1.65003 24.2089 1.08531 24.4429C0.482938 24.687 0.332346 25.6328 0.671178 26.2227C1.01001 26.8126 1.66885 27.1178 2.29945 27.25C4.06891 27.606 5.90425 26.9042 7.13722 25.5006C7.36311 25.2463 8.08783 24.4734 7.72076 24.0869C7.30663 23.6495 6.1019 24.8599 5.65953 25.0226C4.71834 25.3786 3.69243 25.3379 2.77946 24.9005Z" fill="#121B43"/>
<path d="M16.0693 33.9728C16.3328 34.2677 16.6057 34.5729 16.954 34.7559C17.3587 34.9695 17.8293 35 18.2905 35C18.7893 35 19.2976 34.9593 19.7964 34.8983C20.1541 34.8475 20.5588 34.7559 20.7282 34.4101C20.9541 33.9728 20.6058 33.4032 20.1729 33.2202C19.7399 33.0371 19.2599 33.1083 18.7987 33.1083C17.9893 33.0981 17.1987 32.8743 16.4928 32.4573C15.9281 32.1217 15.4951 31.6335 14.8457 31.481C14.5257 31.3996 14.0174 31.2877 14.1022 31.7454C14.1586 32.0403 14.8457 32.5896 15.0434 32.8133L16.0693 33.9728Z" fill="#121B43"/>
<path d="M5.88597 9.68479C5.72597 9.59325 5.54714 9.53223 5.36831 9.53223C5.18949 9.5424 5.00125 9.67462 4.98242 9.86786C4.98242 10.0103 5.02948 10.1425 5.10478 10.2442C6.21539 12.1563 7.32601 14.0684 8.63428 15.8177C8.99193 16.2958 9.41547 16.7941 9.97078 16.8857C10.6202 16.9874 11.232 16.489 11.6179 15.9195C11.8438 15.6042 11.9944 15.2278 12.0602 14.8312C12.2391 13.4073 10.6673 12.6546 9.7543 12.0139C8.52133 11.1392 7.22248 10.3662 5.88597 9.68479Z" fill="white"/>
<path d="M10.1489 16.9771C10.0925 16.9771 10.0266 16.9771 9.97012 16.9669C9.37717 16.8754 8.94421 16.3567 8.58656 15.8787C7.27829 14.1191 6.13944 12.1765 5.05706 10.2949C4.97235 10.1729 4.92529 10.0203 4.92529 9.86777C4.94412 9.62367 5.17 9.47111 5.37707 9.46094C5.57472 9.46094 5.76296 9.52196 5.92296 9.62367C7.26888 10.3051 8.56773 11.0781 9.81012 11.9528C9.94189 12.0443 10.0925 12.146 10.2525 12.2477C11.1654 12.8478 12.3043 13.5801 12.1443 14.8514C12.0784 15.2583 11.9278 15.6448 11.6831 15.9702C11.2502 16.611 10.6854 16.9771 10.1489 16.9771ZM5.39589 9.60333H5.36766C5.22648 9.6135 5.06647 9.71521 5.04765 9.86777C5.04765 9.98982 5.09471 10.1017 5.16059 10.1932C6.25238 12.0646 7.38182 14.0073 8.69009 15.7668C9.02892 16.2245 9.44305 16.7228 9.98895 16.8042C10.5348 16.8856 11.1184 16.5398 11.5702 15.8685C11.796 15.5634 11.9372 15.1972 12.0031 14.8209C12.1443 13.6615 11.0525 12.9495 10.1772 12.3698C10.0172 12.2681 9.86659 12.1664 9.73482 12.0748C8.49244 11.2001 7.203 10.4272 5.86649 9.75589C5.7159 9.66435 5.5559 9.6135 5.39589 9.60333Z" fill="#121B43"/>
<path d="M2.67649 8.67769C2.82709 8.75905 2.98709 8.80991 3.15651 8.83025C2.19648 9.1252 1.33058 9.70493 0.652915 10.4881C0.351731 10.8339 0.0881952 11.2305 0.0693713 11.7187C0.0599593 11.9425 0.116431 12.1561 0.229375 12.3392C0.605855 12.8985 1.33999 12.7358 1.90471 12.4815C2.50708 12.2069 3.08121 11.8713 3.61769 11.4746C3.98476 11.2 4.97302 10.5898 5.07655 10.0914C5.18008 9.56254 4.36124 8.96247 4.00358 8.73871C3.63652 8.50479 3.2318 8.35223 2.80826 8.2912C2.69532 8.27086 2.6012 8.35222 2.58237 8.47427C2.57296 8.54547 2.61061 8.62683 2.67649 8.67769Z" fill="white"/>
<path d="M0.991436 12.7868C0.633781 12.7868 0.351421 12.6444 0.172593 12.38C0.0502372 12.1867 -0.0156468 11.9528 0.00317718 11.7087C0.0314132 11.1595 0.342009 10.7425 0.605545 10.4272C1.22674 9.70506 2.00793 9.16601 2.87384 8.84054C2.79854 8.81003 2.72324 8.77952 2.64795 8.73884C2.535 8.67781 2.47853 8.52525 2.52559 8.39303C2.56324 8.25064 2.6856 8.16928 2.81736 8.18962C3.25031 8.26081 3.66444 8.41337 4.04092 8.65747C4.4174 8.8914 5.26448 9.50164 5.15154 10.0915C5.05742 10.5492 4.34211 11.0476 3.87151 11.3731C3.79621 11.4341 3.72091 11.4748 3.66444 11.5154C3.11855 11.9121 2.54442 12.2579 1.93264 12.5325C1.63145 12.6851 1.31144 12.7665 0.991436 12.7868ZM2.77972 8.34218C2.72324 8.34218 2.67618 8.38286 2.65736 8.44389C2.63854 8.50491 2.66677 8.5761 2.71383 8.60662C2.85501 8.68798 3.0056 8.72867 3.16561 8.73884C3.20326 8.73884 3.23149 8.76935 3.23149 8.81003C3.23149 8.85071 3.21267 8.88123 3.18443 8.8914C2.23382 9.18635 1.37733 9.74574 0.709077 10.5289C0.454953 10.8238 0.163181 11.2205 0.144357 11.7189C0.134945 11.9223 0.182005 12.1257 0.294949 12.2884C0.671429 12.8478 1.45262 12.6037 1.88558 12.4105C2.47853 12.1359 3.05266 11.8002 3.58915 11.4036C3.64562 11.3629 3.72091 11.312 3.79621 11.251C4.21975 10.9561 4.93506 10.4577 5.01977 10.061C5.10448 9.66437 4.53976 9.14567 3.98445 8.78969C3.6268 8.56593 3.23149 8.41337 2.81736 8.34218H2.77972Z" fill="#121B43"/>
<path d="M13.9136 7.4982C13.6406 7.59991 13.4147 7.81349 13.2735 8.0881C13.1606 8.29152 13.123 8.53562 13.1606 8.75937C13.2359 9.15603 13.6124 9.44081 13.9889 9.42047C14.3653 9.38996 14.6948 9.12552 14.8359 8.73903C14.9489 8.43391 14.9677 7.96605 14.7983 7.6711C14.6289 7.37615 14.1771 7.39649 13.9136 7.4982Z" fill="#FFB0CC"/>
<path d="M13.0952 9.62367C12.9728 9.62367 12.8599 9.66435 12.7563 9.73555C12.681 9.81691 12.6434 9.91862 12.6528 10.0305C12.6622 10.1424 12.681 10.2441 12.7281 10.3458C12.8316 10.6306 13.0104 10.8645 13.2552 11.0171C13.4999 11.1595 13.8293 11.1493 14.0269 10.956C14.1587 10.8136 14.2434 10.6306 14.2717 10.4373C14.3187 10.1932 14.3375 9.93896 14.3093 9.69486C14.2999 9.59316 14.2717 9.46094 14.1493 9.46094C14.074 9.46094 14.0081 9.52196 13.9328 9.5423C13.6505 9.58299 13.3775 9.6135 13.0952 9.62367Z" fill="white"/>
<path d="M13.6033 11.2C13.4715 11.2 13.3303 11.1695 13.2174 11.0983C12.9632 10.9356 12.7656 10.6813 12.6621 10.3864C12.615 10.2745 12.5868 10.1626 12.5774 10.0406C12.5679 9.90836 12.615 9.77614 12.7091 9.6846C12.8221 9.59306 12.9538 9.55238 13.0856 9.55238C13.1797 9.54221 13.2738 9.54221 13.368 9.53204C13.5562 9.52187 13.735 9.50153 13.9139 9.47101C13.9421 9.46084 13.9609 9.45067 13.9892 9.4405C14.0362 9.40999 14.0927 9.38965 14.1397 9.38965C14.215 9.38965 14.3468 9.43033 14.375 9.69477C14.3939 9.94904 14.3845 10.2135 14.3374 10.4677C14.3092 10.6813 14.215 10.8746 14.0739 11.0373C13.9421 11.1492 13.7727 11.2102 13.6033 11.2ZM13.1044 9.70494C13.0009 9.70494 12.8974 9.73545 12.8127 9.79648C12.7562 9.8575 12.7185 9.94904 12.7279 10.0406C12.7374 10.1423 12.7562 10.244 12.8032 10.3355C12.8974 10.6 13.0668 10.8237 13.2927 10.9661C13.5091 11.0983 13.7915 11.078 13.9892 10.9153C14.1115 10.783 14.1868 10.6101 14.2056 10.4271C14.2527 10.1931 14.2621 9.94904 14.2433 9.70494C14.2245 9.54221 14.168 9.54221 14.1492 9.54221C14.1209 9.54221 14.0833 9.56255 14.0644 9.57272C14.0268 9.59306 13.9892 9.61341 13.9515 9.62358C13.7633 9.65409 13.575 9.6846 13.3868 9.6846C13.2833 9.6846 13.1891 9.69477 13.1044 9.70494Z" fill="#121B43"/>
<path d="M14.0079 10.2752C13.9703 10.4481 13.8856 10.6007 13.7538 10.7126C13.622 10.8244 13.4432 10.8346 13.2926 10.7532C13.1891 10.6719 13.1044 10.5498 13.0573 10.4176C13.0103 10.3261 12.9726 10.204 13.0197 10.1125C13.0667 10.0413 13.1326 10.0006 13.2079 9.98027C13.3962 9.90907 13.7162 9.76668 13.9138 9.79719C14.1303 9.81753 14.055 10.0718 14.0079 10.2752Z" fill="#121B43"/>
<path d="M8.94489 22.9572C8.559 21.5638 8.76606 20.0585 9.51902 18.8584L9.59432 18.9194C8.86018 20.0992 8.65312 21.5638 9.0296 22.9267L8.94489 22.9572Z" fill="#121B43"/>
<path d="M10.9023 23.4053C10.5728 21.6051 10.7234 19.7438 11.3352 18.0352L11.4199 18.0758C10.8175 19.7642 10.667 21.6051 10.9964 23.385L10.9023 23.4053Z" fill="#121B43"/>
<path d="M13.3894 15.5921L12.7075 23.7358L12.8013 23.745L13.4831 15.6013L13.3894 15.5921Z" fill="#121B43"/>
<path d="M14.6859 23.9752L14.5918 23.9549C15.053 21.2291 15.1565 18.4423 14.8836 15.6962L14.9777 15.686C15.2412 18.4525 15.1471 21.2393 14.6859 23.9752Z" fill="#121B43"/>
<path d="M16.9824 23.6695L16.8883 23.6491C17.4436 20.781 17.1518 17.7908 16.0601 15.1159L16.1448 15.0752C17.246 17.7704 17.5377 20.781 16.9824 23.6695Z" fill="#121B43"/>
<path d="M18.1211 22.9771L18.027 22.9567C18.2811 21.5125 18.2528 20.0174 17.9517 18.5833L18.0458 18.563C18.3564 20.0072 18.3846 21.5125 18.1211 22.9771Z" fill="#121B43"/>
<path d="M9.20822 26.07C8.57761 26.07 7.98466 25.7649 7.58936 25.2462L7.66465 25.1851C8.3329 26.0903 9.56587 26.2429 10.4035 25.5106C10.7706 25.1953 11.0153 24.7376 11.1 24.2393L11.1941 24.2596C11.0436 25.1038 10.46 25.7852 9.68823 26.009C9.52823 26.0598 9.36822 26.0802 9.20822 26.07Z" fill="#121B43"/>
<path d="M9.63193 26.9341C9.02015 26.9341 8.43661 26.5781 8.19189 26.039L8.2766 25.9984C8.52131 26.5272 9.11427 26.873 9.72605 26.8324C10.2531 26.8018 10.8084 26.5069 11.279 26.0187C11.712 25.5712 12.0414 25.022 12.352 24.4829L12.4273 24.5338C12.1073 25.0728 11.7779 25.6322 11.3355 26.0899C10.8461 26.5984 10.2719 26.9035 9.72605 26.9341C9.69781 26.9341 9.66958 26.9341 9.63193 26.9341Z" fill="#121B43"/>
<path d="M14.8834 30.5553C14.8457 28.5618 14.4504 26.5887 13.7163 24.758L13.801 24.7173C14.5446 26.5582 14.9493 28.5415 14.9775 30.5553H14.8834Z" fill="#121B43"/>
<path d="M15.5326 28.2258L15.4385 28.2156C15.4949 27.0562 15.3161 25.8967 14.8926 24.8288L14.9773 24.7881C15.4008 25.8764 15.5891 27.0562 15.5326 28.2258Z" fill="#121B43"/>
<path d="M15.846 25.0121L15.752 25.0151L15.7867 26.2656L15.8808 26.2626L15.846 25.0121Z" fill="#121B43"/>
<path d="M0.493038 12.3701C0.483626 12.3701 0.474214 12.3599 0.464802 12.3599C0.445978 12.3396 0.445978 12.3091 0.464802 12.2887C1.1707 11.4751 2.01778 10.8343 2.95898 10.3868C2.9778 10.3766 3.00604 10.3868 3.01545 10.4071C3.02486 10.4275 3.01545 10.458 2.99663 10.4682C2.06484 10.9055 1.22717 11.5463 0.540098 12.3498C0.511862 12.3701 0.50245 12.3701 0.493038 12.3701Z" fill="#121B43"/>
<path d="M3.68357 10.7528C3.06238 10.6816 2.55413 10.1934 2.42236 9.5323C2.42236 9.50179 2.44119 9.48145 2.46001 9.48145C2.47884 9.48145 2.49766 9.49162 2.50707 9.51196C2.62943 10.1324 3.10944 10.5901 3.68357 10.6613C3.71181 10.6613 3.72122 10.6816 3.72122 10.7121C3.73063 10.7426 3.70239 10.7528 3.68357 10.7528Z" fill="#121B43"/>
</svg>
