<svg width="22" height="26" viewBox="0 0 22 26" fill="none" xmlns="http://www.w3.org/2000/svg">
<path opacity="0.9" d="M11 0C4.92525 0 0 4.36556 0 9.75C0 11.8702 0.784208 13.8157 2.08771 15.4091C2.11108 15.4472 2.11475 15.4899 2.14133 15.5265L9.47467 25.2765C9.81475 25.7286 10.3877 26 11 26C11.6123 26 12.1853 25.7286 12.5253 25.2765L19.8587 15.5265C19.8857 15.4899 19.8889 15.4472 19.9123 15.4091C21.2158 13.8157 22 11.8702 22 9.75C22 4.36556 17.0748 0 11 0ZM11 13C8.97508 13 7.33333 11.5448 7.33333 9.75C7.33333 7.95519 8.97508 6.5 11 6.5C13.0249 6.5 14.6667 7.95519 14.6667 9.75C14.6667 11.5448 13.0249 13 11 13Z" fill="white"/>
</svg>
