<svg width="27" height="27" viewBox="0 0 27 27" fill="none" xmlns="http://www.w3.org/2000/svg">
<path d="M22.95 2.7H21.6V1.35C21.6 0.54 21.06 0 20.25 0C19.44 0 18.9 0.54 18.9 1.35V2.7H8.1V1.35C8.1 0.54 7.56 0 6.75 0C5.94 0 5.4 0.54 5.4 1.35V2.7H4.05C1.755 2.7 0 4.455 0 6.75V8.1H27V6.75C27 4.455 25.245 2.7 22.95 2.7ZM0 22.95C0 25.245 1.755 27 4.05 27H22.95C25.245 27 27 25.245 27 22.95V10.8H0V22.95ZM20.25 13.5C21.06 13.5 21.6 14.04 21.6 14.85C21.6 15.66 21.06 16.2 20.25 16.2C19.44 16.2 18.9 15.66 18.9 14.85C18.9 14.04 19.44 13.5 20.25 13.5ZM20.25 18.9C21.06 18.9 21.6 19.44 21.6 20.25C21.6 21.06 21.06 21.6 20.25 21.6C19.44 21.6 18.9 21.06 18.9 20.25C18.9 19.44 19.44 18.9 20.25 18.9ZM13.5 13.5C14.31 13.5 14.85 14.04 14.85 14.85C14.85 15.66 14.31 16.2 13.5 16.2C12.69 16.2 12.15 15.66 12.15 14.85C12.15 14.04 12.69 13.5 13.5 13.5ZM13.5 18.9C14.31 18.9 14.85 19.44 14.85 20.25C14.85 21.06 14.31 21.6 13.5 21.6C12.69 21.6 12.15 21.06 12.15 20.25C12.15 19.44 12.69 18.9 13.5 18.9ZM6.75 13.5C7.56 13.5 8.1 14.04 8.1 14.85C8.1 15.66 7.56 16.2 6.75 16.2C5.94 16.2 5.4 15.66 5.4 14.85C5.4 14.04 5.94 13.5 6.75 13.5ZM6.75 18.9C7.56 18.9 8.1 19.44 8.1 20.25C8.1 21.06 7.56 21.6 6.75 21.6C5.94 21.6 5.4 21.06 5.4 20.25C5.4 19.44 5.94 18.9 6.75 18.9Z" fill="white"/>
</svg>
