<svg width="217" height="293" viewBox="0 0 217 293" fill="none" xmlns="http://www.w3.org/2000/svg">
<path d="M211.443 155.537L211.924 155.4L211.924 155.401L211.924 155.402L211.926 155.409L211.933 155.435L211.963 155.537C211.989 155.626 212.027 155.758 212.076 155.925C212.174 156.259 212.317 156.735 212.492 157.302C212.843 158.436 213.325 159.931 213.852 161.379C214.382 162.834 214.947 164.217 215.462 165.141C215.725 165.612 215.947 165.913 216.111 166.054C216.113 166.055 216.115 166.057 216.117 166.058C216.138 166.014 216.165 165.948 216.195 165.854C216.258 165.654 216.318 165.378 216.368 165.023C216.468 164.316 216.52 163.343 216.499 162.147C216.455 159.756 216.115 156.512 215.286 152.782C213.639 145.373 210.071 136.081 203.108 127.763H190.65C190.707 127.953 190.773 128.181 190.845 128.442C191.076 129.286 191.373 130.485 191.632 131.913C192.15 134.763 192.525 138.552 191.927 142.247C191.783 143.132 191.748 143.766 191.784 144.203C191.821 144.657 191.926 144.814 191.97 144.856C191.97 144.856 191.97 144.857 191.971 144.857C191.982 144.868 192.019 144.904 192.181 144.862C192.361 144.815 192.604 144.687 192.896 144.475C193.473 144.055 194.103 143.41 194.601 142.852C194.847 142.576 195.055 142.327 195.201 142.148C195.274 142.058 195.332 141.986 195.371 141.936L195.415 141.88L195.426 141.866L195.429 141.863L195.429 141.862L195.429 141.862L195.429 141.862L195.875 141.283L196.253 141.908L195.825 142.167C196.253 141.908 196.253 141.908 196.253 141.908L196.253 141.908L196.254 141.91L196.257 141.914L196.268 141.933L196.311 142.004C196.349 142.067 196.404 142.16 196.477 142.281C196.621 142.523 196.832 142.879 197.097 143.332C197.628 144.239 198.377 145.536 199.251 147.101C200.999 150.23 203.25 154.433 205.258 158.722C205.755 159.782 206.146 160.506 206.448 160.968C206.53 161.094 206.603 161.196 206.667 161.278C206.689 161.067 206.695 160.79 206.685 160.457C206.655 159.528 206.503 158.327 206.356 157.344C206.283 156.855 206.211 156.426 206.158 156.118C206.132 155.965 206.11 155.842 206.094 155.758L206.077 155.661L206.072 155.637L206.071 155.631L206.071 155.629L206.071 155.629L206.562 155.537M211.443 155.537L210.955 155.649L210.955 155.649L210.956 155.65L210.957 155.655L210.961 155.676L210.98 155.757C210.996 155.827 211.019 155.932 211.049 156.066C211.107 156.333 211.191 156.717 211.287 157.181C211.48 158.11 211.725 159.36 211.937 160.645C212.15 161.934 212.326 163.245 212.384 164.302C212.414 164.832 212.412 165.281 212.375 165.625C212.361 165.752 212.343 165.858 212.322 165.943C212.143 165.762 211.911 165.453 211.637 165.023C211.037 164.079 210.324 162.695 209.637 161.253C208.951 159.815 208.298 158.339 207.816 157.221C207.575 156.662 207.377 156.193 207.239 155.864C207.171 155.7 207.117 155.57 207.08 155.482L207.039 155.381L207.028 155.356L207.026 155.349L207.025 155.348L207.025 155.347L206.562 155.537M211.443 155.537L211.924 155.4L210.955 155.649L211.443 155.537ZM206.562 155.537L207.025 155.347L206.071 155.629L206.562 155.537Z" fill="white" stroke="black"/>
<path d="M203.344 145.563C203.539 147.097 203.832 148.631 204.223 150.056C204.613 151.481 204.906 152.905 205.296 154.33C205.687 155.755 206.077 157.179 206.468 158.604C206.663 159.261 206.76 160.028 206.858 160.686C207.053 161.344 206.956 162.111 206.565 162.768C206.956 162.659 207.248 162.33 207.444 162.001C207.639 161.672 207.737 161.234 207.834 160.796C207.932 160.028 208.029 159.152 207.932 158.385C207.834 156.85 207.541 155.316 207.151 153.782C206.76 152.357 206.272 150.933 205.589 149.508C205.004 148.083 204.223 146.768 203.344 145.563Z" fill="#000001"/>
<path d="M208.417 145.563C208.612 147.426 208.905 149.289 209.296 151.042C209.686 152.796 210.077 154.659 210.565 156.412L211.931 161.672C212.126 162.549 212.321 163.426 212.517 164.302C212.614 164.741 212.614 165.179 212.614 165.508C212.614 165.727 212.517 165.837 212.419 165.946C212.321 165.946 212.224 166.056 212.224 166.056H211.931L212.224 166.275C212.321 166.275 212.517 166.385 212.614 166.385C212.907 166.275 213.102 166.165 213.2 165.837C213.395 165.398 213.493 164.85 213.59 164.302C213.688 163.316 213.688 162.33 213.59 161.453C213.395 159.59 213.102 157.727 212.614 155.864C212.126 154.111 211.638 152.248 210.955 150.604C210.174 148.851 209.393 147.207 208.417 145.563Z" fill="#000001"/>
<path d="M89.6272 72.5789C76.8406 68.1954 48.437 37.1823 48.437 37.1823L56.5384 28.5249C64.3469 35.1001 72.6435 41.1274 81.2329 46.3876C94.3123 54.1683 113.443 51.5382 113.443 51.5382C113.834 51.2094 114.419 50.9903 114.907 51.0999C122.911 52.3053 170.543 73.7844 203.339 127.263C203.339 127.263 197.971 132.414 192.798 132.414C187.625 132.414 167.322 99.3182 143.116 93.6197C143.116 93.6197 154.731 132.852 139.309 152.468L107.001 120.688C107.001 120.688 117.738 111.592 117.738 102.606C117.738 98.8799 115.786 89.017 114.224 78.935C106.025 77.4008 97.7285 75.3186 89.6272 72.5789Z" fill="#5F977F"/>
<path d="M84.753 157.948C84.753 157.948 71.2832 149.729 66.11 153.235C60.9368 156.742 21.9916 184.687 20.918 184.249C19.8443 183.81 17.7945 172.084 17.7945 172.084C17.7945 172.084 51.7618 127.702 60.156 124.524C68.5502 121.346 107.105 120.688 107.105 120.688L84.753 157.948Z" fill="#000001"/>
<path d="M0.60737 126.277C0.60737 126.277 -0.759129 145.236 0.60737 156.852C1.97387 168.468 18.079 188.632 19.0551 188.632C20.0312 188.632 20.812 184.358 20.812 184.358L17.6886 172.085C17.6886 172.085 13.0035 169.235 12.2226 164.523C11.4417 159.811 22.8618 138.441 17.6886 129.893C12.5154 121.346 0.60737 126.277 0.60737 126.277Z" fill="#5F977F"/>
<path d="M46.977 14.7171C46.5702 15.0077 46.5701 15.0077 46.5701 15.0076L46.5698 15.0072L46.5688 15.0058L46.5649 15.0003L46.5494 14.9786L46.4892 14.8941C46.4365 14.8199 46.3591 14.7109 46.2602 14.5711C46.0624 14.2915 45.7785 13.8888 45.434 13.3956C44.745 12.4093 43.8128 11.0608 42.8406 9.61223C41.8688 8.16431 40.8549 6.61342 40.0033 5.22326C39.1577 3.84282 38.4533 2.59071 38.1184 1.752C37.9785 1.40158 37.8242 1.19348 37.7016 1.0882C37.6421 1.03704 37.5979 1.01673 37.5731 1.00916C37.551 1.00241 37.5412 1.00449 37.5369 1.00557C37.5304 1.00717 37.4478 1.03254 37.3495 1.22738C37.2526 1.41933 37.1671 1.73045 37.1421 2.18323C37.0411 4.00935 37.9475 7.67905 41.6348 13.2351L40.8302 13.8271L41.2182 13.5116C40.8302 13.8271 40.8302 13.827 40.8302 13.827L40.83 13.8268L40.8294 13.8261L40.8271 13.8232L40.8181 13.8122L40.7832 13.7691L40.6496 13.6038C40.5338 13.4602 40.3667 13.2524 40.161 12.9949C39.7497 12.4798 39.1839 11.7656 38.5659 10.9687C37.3344 9.38077 35.8807 7.44539 35.0365 6.10728C34.6525 5.49864 34.2708 5.21189 34.0195 5.13218C33.9029 5.0952 33.836 5.1082 33.8011 5.1228C33.7677 5.1368 33.7093 5.17487 33.6512 5.29334C33.524 5.55305 33.4523 6.10218 33.6555 7.02779C33.8546 7.9347 34.3033 9.13659 35.1183 10.6437C36.7722 13.7021 38.2067 16.1041 39.2267 17.7401C39.7367 18.5581 40.143 19.1845 40.4213 19.6057C40.5605 19.8163 40.6676 19.9755 40.7397 20.0817C40.7758 20.1348 40.803 20.1747 40.8212 20.2011L40.8415 20.2305L40.8464 20.2376L40.8475 20.2392L40.8477 20.2396L40.8477 20.2396L40.8478 20.2396L40.8471 20.2401L40.0572 20.8499L40.4373 20.5252C40.0572 20.8499 40.0571 20.8499 40.0571 20.8498L40.0569 20.8496L40.0562 20.8488L40.0536 20.8458L40.0435 20.8339L40.0044 20.7879C39.9701 20.7476 39.9199 20.6883 39.8558 20.6122C39.7275 20.4599 39.5431 20.2401 39.3187 19.9692C38.87 19.4275 38.2602 18.6809 37.6162 17.8616C36.3435 16.2422 34.8888 14.2781 34.323 13.0655C34.0772 12.5387 33.8318 12.4307 33.7778 12.4246C33.7775 12.4246 33.7771 12.4245 33.7767 12.4243C33.773 12.4234 33.7653 12.4213 33.7403 12.4453C33.7009 12.4833 33.6306 12.583 33.5777 12.7964C33.4714 13.2251 33.4711 13.9727 33.7512 15.0903C34.029 16.198 34.5731 17.6329 35.5114 19.4156C39.0409 26.1217 46.6594 34.5679 48.4369 36.5386C48.508 36.6174 48.5697 36.6858 48.6214 36.7433C48.652 36.7305 48.6891 36.7125 48.733 36.6881C48.969 36.5568 49.2952 36.2999 49.6952 35.9265C50.4862 35.188 51.4646 34.091 52.4257 32.9436C53.3837 31.7999 54.3127 30.6207 55.0028 29.7264C55.3477 29.2795 55.6325 28.9043 55.8309 28.641C55.8696 28.5897 55.905 28.5427 55.9368 28.5002C55.9145 28.4641 55.8903 28.4248 55.8644 28.3824C55.7021 28.1174 55.471 27.7324 55.1939 27.2502C54.64 26.2863 53.9013 24.9318 53.1623 23.369C51.6936 20.2635 50.1861 16.2599 50.1861 12.8541C50.1861 11.2195 49.9741 10.3298 49.7348 9.93858C49.6258 9.7602 49.552 9.74975 49.5446 9.7487L49.5444 9.74868C49.5262 9.74607 49.4429 9.74454 49.2815 9.86787C48.9499 10.1213 48.5402 10.7154 48.1858 11.6058C47.8388 12.4775 47.5692 13.5722 47.4754 14.7565L47.3672 16.1233L46.5702 15.0077L46.977 14.7171Z" fill="white" stroke="black"/>
<path d="M46.9761 25.1274C46.3905 23.4836 46.0977 21.7302 46.1953 19.9768C46.1953 19.1001 46.2929 18.333 46.4881 17.5658C46.5857 17.1275 46.6833 16.6892 46.7809 16.2508C46.8785 15.8125 46.9761 15.2645 47.0737 14.8262C46.6833 15.0453 46.2929 15.3741 45.9025 15.7029C45.6096 16.0316 45.3168 16.47 45.024 16.9083C44.536 17.785 44.2431 18.8809 44.1455 19.9768C44.0479 21.0726 44.3407 22.1685 44.7312 23.1548C45.3168 24.0315 46.0977 24.689 46.9761 25.1274Z" fill="#000001"/>
<path d="M105.542 149.839C105.542 149.839 88.3636 135.702 84.9474 130.003C81.5311 124.305 81.1407 140.414 81.1407 144.14C81.1407 147.866 101.248 155.866 103.395 155.428C105.542 154.989 105.542 149.839 105.542 149.839Z" fill="#F2EBEB"/>
<path d="M99.2886 149.947C99.2886 149.947 90.7968 254.055 89.7231 254.822C88.6494 255.589 96.3604 149.947 96.3604 149.947H99.2886Z" fill="#000001"/>
<path d="M56.2444 245.068C61.7104 227.315 81.2318 223.918 81.2318 223.918C81.2318 223.918 102.022 219.315 113.247 245.068C124.472 270.821 103.193 295.588 81.2318 292.191C59.2702 288.793 50.8761 262.821 56.2444 245.068ZM82.2079 284.3C98.9963 286.93 115.297 267.862 106.707 248.137C98.1178 228.411 82.2079 231.918 82.2079 231.918C82.2079 231.918 67.274 234.548 63.0769 248.137C58.8798 261.725 65.4195 281.67 82.2079 284.3Z" fill="#000001"/>
<path d="M87.7729 256.685C87.7729 256.685 78.4027 267.096 78.4027 267.534C78.4027 267.972 81.8189 273.013 81.8189 273.013H80.7452C80.7452 273.013 68.9348 266.219 69.13 264.794C69.3252 263.37 71.9606 262.383 71.9606 262.383L77.2314 266.767C77.2314 266.767 85.9184 255.041 86.7969 255.808L87.7729 256.685Z" fill="#000001"/>
<path d="M90.117 253.289C90.117 253.289 109.346 228.522 109.15 227.864C108.955 227.207 104.075 223.042 104.075 223.042C104.075 223.042 101.732 224.796 102.415 225.673C103.099 226.549 106.32 228.193 106.32 228.193C106.32 228.193 88.5553 251.754 90.117 253.289Z" fill="#000001"/>
<path d="M107.099 120.688C107.099 120.688 144.873 154.77 143.116 158.715C141.359 162.66 97.9238 181.947 81.3306 181.07C81.3306 181.07 104.951 212.084 105.635 214.056C106.318 216.029 99.5831 219.974 99.5831 219.974C99.5831 219.974 59.7594 192.796 60.0523 183.81C60.3451 174.824 107.099 120.688 107.099 120.688Z" fill="#000001"/>
<path d="M105.542 216.029C105.542 216.029 112.277 223.919 112.081 225.563C111.886 227.207 91.5838 246.494 89.9245 246.494C88.2652 246.494 58.6902 244.521 57.6166 241.672C56.5429 238.823 54.3955 222.385 61.9113 223.042C69.427 223.7 76.7475 237.508 81.2375 238.165C84.7513 238.494 88.2652 238.494 91.6814 238.165L99.49 220.084L105.542 216.029Z" fill="#5F977F"/>
<path d="M130.038 34.8813C131.014 35.1005 144.484 44.9633 144.484 54.2782C144.484 63.5931 124.279 97.2364 111.493 96.9076C98.7062 96.5789 91.3856 67.5383 105.636 48.9085C119.887 30.2787 130.038 34.8813 130.038 34.8813Z" fill="#000001"/>
<path d="M143.117 54.2778C139.993 57.5654 136.772 60.6339 133.454 63.5927C131.794 65.0174 130.037 66.3324 128.183 67.5379C126.426 68.7433 124.571 69.8392 122.619 70.6063C120.765 71.483 118.715 71.9214 116.763 71.8118C114.811 71.8118 112.859 71.2638 111.102 70.0584C109.345 68.8529 108.076 67.0995 107.197 65.0174C106.319 62.8256 105.733 60.5243 105.636 58.223C105.44 60.6339 105.636 63.1544 106.319 65.4557C107.002 67.8666 108.369 70.0584 110.223 71.483C112.175 72.9076 114.323 73.7843 116.665 73.8939C118.91 74.0035 121.155 73.5652 123.302 72.5789C127.402 70.7159 131.111 68.0858 134.332 64.7982C137.651 61.7298 140.579 58.223 143.117 54.2778Z" fill="#F2EBEB"/>
<path d="M127.304 45.4011C127.304 45.4011 127.889 52.3051 127.889 52.7435C127.889 53.1818 116.762 57.0174 116.762 57.0174L117.055 53.0722C117.055 53.0722 105.635 56.2503 109.051 42.1135C109.051 42.1135 103.195 41.2368 103.683 40.6889C104.171 40.1409 111.589 32.1411 115.591 28.9631C119.593 25.785 134.819 34.552 134.527 37.0725C134.234 39.593 132.086 46.8258 127.304 45.4011Z" fill="white"/>
<path d="M125.74 43.3185C125.74 43.3185 129.352 35.5378 130.914 36.4145C132.475 37.2912 132.768 43.0993 127.302 45.4006L127.693 50.1129C132.378 48.469 135.989 44.4143 137.453 39.1541C139.991 30.168 134.916 23.9215 120.86 21.6202C120.86 21.6202 130.426 15.3737 123.984 10.1136C117.541 4.85338 107.488 18.5518 108.366 22.6065C109.245 26.6612 112.466 29.6201 116.37 31.1543C120.274 32.6885 122.324 33.0173 122.129 34.2227C121.934 35.4282 119.689 40.9075 117.541 41.8938C115.394 42.8801 108.952 42.113 108.952 42.113C108.952 42.113 101.632 48.469 99.3865 53.4005C97.1416 58.3319 100.558 56.9073 100.558 56.9073C100.558 56.9073 98.8009 58.5511 102.608 59.7565C106.414 60.962 121.055 54.9347 125.74 43.3185Z" fill="#A04040"/>
<path d="M120.574 35.5391C120.574 35.5391 115.108 32.2515 112.57 37.5117C112.57 37.5117 118.329 40.7993 120.574 35.5391Z" fill="#F2EBEB"/>
<path d="M120.867 35.5387C120.183 34.9908 119.5 34.5524 118.719 34.2237C117.939 33.8949 117.06 33.8949 116.279 34.0045C115.401 34.1141 114.62 34.4429 113.937 35.1004C113.253 35.7579 112.863 36.525 112.668 37.5113C113.546 36.1962 114.913 35.3196 116.377 35.1004C117.158 34.9908 117.841 34.9908 118.622 35.1004C119.305 35.21 120.086 35.3196 120.867 35.5387Z" fill="#000001"/>
<path d="M115.493 34.7709C115.493 34.7709 116.957 35.538 115.883 38.6064C115.883 38.6064 113.248 38.6064 112.662 37.5106C112.662 37.5106 114.224 34.5517 115.493 34.7709Z" fill="#000001"/>
<path d="M117.058 44.9639C116.668 45.6214 116.18 46.1693 115.497 46.3885C115.204 46.4981 114.813 46.6077 114.521 46.7173C114.13 46.8268 113.74 46.9364 113.349 47.046C114.033 47.7035 115.009 47.8131 115.789 47.4844C116.277 47.2652 116.57 46.9364 116.863 46.4981C117.156 45.9502 117.156 45.4022 117.058 44.9639Z" fill="#000001"/>
<path d="M113.347 8.68945C112.078 10.0045 111.005 11.4291 110.126 13.0729C109.15 14.7167 108.467 16.4701 108.076 18.3331C107.881 19.3194 107.784 20.3057 107.881 21.292C107.979 22.2783 108.174 23.2645 108.662 24.1412C109.638 25.785 111.2 26.8809 112.957 27.2097C111.493 26.5522 110.224 25.3467 109.345 23.7029C108.662 22.0591 108.564 20.3057 109.052 18.5523C109.443 16.7989 110.126 15.0455 110.907 13.5113C111.493 11.8675 112.371 10.3333 113.347 8.68945Z" fill="#A04040"/>
<path d="M117.646 29.401C118.232 29.0722 118.915 28.9627 119.598 29.1818C119.891 29.2914 120.281 29.401 120.574 29.5106C120.965 29.7298 121.258 29.8394 121.648 29.9489C121.55 29.5106 121.258 29.0722 120.965 28.7435C120.672 28.4147 120.281 28.1955 119.793 28.086C119.305 27.9764 118.817 28.086 118.427 28.3051C118.036 28.5243 117.744 28.9627 117.646 29.401Z" fill="#000001"/>
<path d="M128.85 32.8586C128.845 32.8111 128.838 32.7423 128.827 32.6546C128.803 32.4644 128.759 32.1856 128.684 31.8403C128.532 31.1489 128.251 30.1959 127.736 29.1574C126.709 27.0879 124.749 24.6689 120.985 23.2954C117.191 21.911 113.394 22.044 110.419 22.8691C108.931 23.2817 107.661 23.8641 106.707 24.5045C105.74 25.1534 105.149 25.8272 104.933 26.3992C104.402 27.8074 102.7 32.804 101.289 38.2521C100.584 40.9757 99.9539 43.8026 99.5792 46.3451C99.2025 48.9014 99.0922 51.1182 99.3922 52.6467C100.025 55.8697 100.816 58.614 102.058 60.5861C103.28 62.5285 104.927 63.7076 107.327 63.8602C112.334 64.1784 119.415 61.6303 122.249 53.9936C123.707 50.0647 125.362 44.7629 126.655 40.4357C127.301 38.2736 127.856 36.3578 128.249 34.9826C128.445 34.295 128.602 33.7426 128.709 33.3622C128.762 33.172 128.803 33.0249 128.831 32.9253L128.85 32.8586Z" fill="#F2EBEB" stroke="black"/>
<path d="M121.871 44.18C121.992 43.915 122.129 43.6051 122.275 43.2602C122.767 42.1012 123.355 40.5587 123.749 39.0041C124.147 37.4339 124.329 35.9195 124.072 34.7853C123.946 34.2281 123.72 33.7887 123.385 33.4722C123.054 33.1588 122.579 32.9299 121.887 32.8571C118.975 32.5506 116.63 34.0279 115.093 35.6614C114.326 36.4763 113.781 37.3104 113.483 37.9372C113.361 38.1944 113.29 38.3982 113.256 38.5405C113.385 38.5895 113.536 38.6526 113.698 38.7238C114.01 38.8611 114.402 39.0458 114.845 39.2668C115.731 39.7088 116.83 40.3013 117.906 40.9608C118.979 41.6183 120.045 42.3522 120.855 43.0781C121.258 43.4393 121.611 43.8102 121.871 44.18Z" fill="#E4CB66" stroke="black"/>
<path d="M125.549 33.3469C125.647 32.799 125.744 32.251 125.647 31.7031C125.549 31.1552 125.451 30.6072 125.159 30.0593C124.866 29.5114 124.475 29.073 123.987 28.8538C123.499 28.6347 122.914 28.6347 122.426 28.8538C122.816 29.073 123.206 29.2922 123.597 29.6209C123.89 29.9497 124.182 30.2785 124.378 30.7168C124.768 31.4839 125.061 32.3606 125.549 33.3469Z" fill="#000001"/>
<path d="M113.542 51.1C112.664 51.8671 111.688 52.415 110.712 52.963C109.833 53.5109 108.76 53.5109 107.881 53.1821C107.003 52.6342 106.222 51.8671 105.832 50.7712C105.343 49.6754 104.855 48.5795 104.465 47.374C104.465 48.6891 104.758 49.8945 105.148 51.1C105.539 52.415 106.417 53.5109 107.491 54.1684C108.662 54.6068 110.029 54.4972 111.102 53.7301C112.078 53.0726 112.957 52.0863 113.542 51.1Z" fill="#000001"/>
<path d="M111.783 40.2506C111.783 40.2506 116.273 41.8944 113.442 46.3875C110.611 50.8806 104.853 45.8395 105.731 43.2095C106.61 40.5794 110.319 39.3739 111.783 40.2506Z" fill="#EA8383"/>
<path d="M121.746 37.8382C121.648 37.3998 121.355 36.9615 120.965 36.7423C120.574 36.4135 120.086 36.3039 119.598 36.1944C119.013 36.0848 118.525 36.1944 117.939 36.4135C117.451 36.6327 117.06 36.9615 116.865 37.5094C117.256 37.3998 117.744 37.3998 118.134 37.3998C118.525 37.3998 118.817 37.3998 119.11 37.5094C119.989 37.5094 120.672 37.7286 121.746 37.8382Z" fill="#000001"/>
<path d="M103.818 38.8074C104.048 38.6825 104.294 38.5766 104.544 38.4859C105.308 38.2077 106.219 38.0305 107.096 37.9187C107.978 37.8064 108.847 37.7576 109.539 37.7436C110.006 37.7342 110.412 37.7402 110.691 37.7564C110.733 37.6114 110.774 37.3951 110.803 37.1124C110.87 36.4527 110.862 35.5252 110.715 34.5288C110.416 32.499 109.573 30.3896 107.849 29.5187C107.475 29.3299 107.185 29.336 106.934 29.4393C106.659 29.5524 106.369 29.8086 106.077 30.2351C105.49 31.0916 105.019 32.4487 104.656 33.9311C104.296 35.3991 104.055 36.9336 103.903 38.1054C103.871 38.3582 103.842 38.5936 103.818 38.8074Z" fill="#E4CB66" stroke="black"/>
<path d="M106.709 27.4281C107.587 26.8802 108.271 26.2226 108.954 25.7843C109.247 25.5651 109.637 25.3459 110.027 25.2363C110.418 25.1268 110.906 25.1268 111.296 25.2363C111.004 24.798 110.516 24.4692 109.93 24.4692C109.344 24.4692 108.856 24.5788 108.368 24.9076C107.978 25.2363 107.587 25.5651 107.294 26.0035C107.002 26.4418 106.806 26.8802 106.709 27.4281Z" fill="#000001"/>
<path d="M106.71 33.3471C107.003 33.1279 107.393 33.1279 107.686 33.1279C108.077 33.1279 108.369 33.3471 108.662 33.5663C108.955 33.895 109.248 34.2238 109.346 34.6622C109.443 35.1005 109.443 35.5389 109.248 35.9772C109.053 35.6484 108.858 35.4293 108.662 35.1005C108.467 34.8813 108.272 34.7717 108.174 34.5526C107.686 34.2238 107.296 33.895 106.71 33.3471Z" fill="#000001"/>
<path d="M92.0614 255.224L92.0621 255.215L92.0631 255.205C92.148 254.443 91.9827 253.763 91.7043 253.033C91.021 251.348 90.0989 250.723 89.4092 250.487C89.0537 250.366 88.7381 250.34 88.5143 250.345C88.4026 250.347 88.315 250.356 88.2583 250.365C88.23 250.369 88.2097 250.372 88.1982 250.375L88.1912 250.376L88.1912 250.376L88.1797 250.379C86.9117 250.664 85.867 251.613 85.3285 252.996C85.0697 254.147 85.1838 255.586 85.6773 256.782C86.1735 257.985 87.0085 258.851 88.1342 259.038C90.0444 259.215 91.8836 257.62 92.0614 255.224Z" fill="#EA8383" stroke="black"/>
<path d="M140.97 63.5923C140.97 63.5923 145.558 142.495 129.355 152.467L125.548 149.947C125.548 149.947 134.626 137.564 138.042 114.989C141.458 92.4137 138.53 69.9483 138.53 69.9483L140.97 63.5923Z" fill="#000001"/>
<path d="M46.2879 246.822C46.5807 247.48 46.9711 248.137 47.5568 248.576C48.4353 249.562 49.6066 250.219 50.7778 250.658C51.3635 250.877 52.0467 250.987 52.73 250.877C52.4372 250.219 52.0467 249.562 51.5587 249.124C50.6802 248.137 49.5089 247.48 48.3377 247.041C47.6544 246.822 46.9712 246.713 46.2879 246.822Z" fill="#3299F5"/>
<path d="M53.3159 254.164C52.3398 253.835 51.3638 253.726 50.3877 253.726C48.4356 253.726 46.581 253.945 44.7265 254.493C43.7504 254.821 42.872 255.15 41.9935 255.698C42.9696 256.027 43.9456 256.137 44.9217 256.137C46.8738 256.246 48.7284 255.917 50.5829 255.369C51.559 255.041 52.4375 254.712 53.3159 254.164Z" fill="#3299F5"/>
<path d="M47.8497 263.699C48.4353 263.699 49.0209 263.479 49.6066 263.26C50.0946 263.041 50.5827 262.712 50.9731 262.274C51.3635 261.836 51.7539 261.397 52.0468 260.959C52.4372 260.411 52.6324 259.754 52.8276 259.206C52.242 259.206 51.6563 259.425 51.0707 259.644C50.0946 260.192 49.2162 260.959 48.5329 261.945C48.2401 262.493 48.0449 263.041 47.8497 263.699Z" fill="#3299F5"/>
</svg>
