<svg width="26" height="32" viewBox="0 0 26 32" fill="none" xmlns="http://www.w3.org/2000/svg">
<path d="M25.9973 17.8535C19.8905 17.8535 14.7699 11.3714 13.3505 6.07468V3.76244C14.6014 2.11986 15.8505 4.33432 17.0984 2.69174C15.8501 3.62052 14.6009 0.6912 13.3505 1.61946V1.32458C13.5381 1.19738 13.6637 0.973988 13.6637 0.718007C13.6637 0.321158 13.3661 0 12.9986 0C12.6303 0 12.3327 0.321158 12.3327 0.717482C12.3327 0.980295 12.4648 1.20737 12.6602 1.33247V6.02422C11.2598 11.3304 6.12539 17.8535 0 17.8535C0 18.9457 0.923336 19.8487 2.12918 20.0148L0 31.5376H3.54169L5.01184 18.2577C5.04 18.1263 5.0569 17.9912 5.0569 17.8529C9.39324 17.8529 12.139 8.70807 12.827 6.12934H12.9852C12.837 14.2829 10.1043 17.8529 10.1043 17.8529H5.0569C5.0569 19.0635 6.18865 20.0448 7.58513 20.0448C8.98162 20.0448 10.1129 19.0635 10.1129 17.8529L9.68311 25.6191C7.51234 28.7933 6.60764 28.9421 6.60764 28.9421C7.33209 31.5376 8.39321 31.5376 8.39321 31.5376C10.7195 31.5376 12.9882 20.0443 12.9882 20.0443L12.9648 20.0879L12.9921 20.0185L13.0125 20.0685C13.1139 20.5762 15.3297 31.5376 17.6032 31.5376C17.6032 31.5376 18.6643 31.5376 19.3888 28.9421C19.3888 28.9421 18.4845 28.7933 16.3137 25.6201L15.8843 17.8535C15.8843 19.064 17.0148 20.0453 18.4113 20.0453C19.8077 20.0453 20.9399 19.064 20.9399 17.8535H15.893C15.893 17.8535 13.1607 14.2834 13.0129 6.12987H13.1711C13.8591 8.70807 16.6036 17.8535 20.9399 17.8535C20.9399 17.9917 20.9568 18.1268 20.9854 18.2582L22.4556 31.5376H25.9973L23.8672 20.0148C25.0739 19.8487 25.9973 18.9457 25.9973 17.8535Z" fill="white" fill-opacity="0.5"/>
</svg>
