<svg width="585" height="535" viewBox="0 0 585 535" fill="none" xmlns="http://www.w3.org/2000/svg">
<path d="M99.7802 117.216C54.8993 -335.269 224.333 -36.6663 469.547 -107.088C853.457 -49.2291 909.916 81.941 790.771 214.526C647.661 270.206 520.487 328.696 452.364 271.068C339.1 113.22 119.663 317.668 99.7802 117.216Z" fill="#E4CB66"/>
<path d="M328.773 493.477C328.483 493.477 328.194 493.322 328.049 492.856C323.123 475.302 324.862 453.554 326.455 438.641C327.18 432.272 328.049 425.903 328.773 419.69C330.512 406.486 332.25 392.971 332.829 379.301C333.843 355.378 330.222 335.805 322.834 323.999C322.544 323.688 322.544 323.222 322.834 322.912C323.123 322.601 323.558 322.601 323.848 322.912C323.848 322.912 323.848 323.067 323.992 323.067C331.67 335.184 335.292 355.067 334.278 379.301C333.699 392.971 331.96 406.641 330.222 419.845C329.353 426.059 328.483 432.583 327.904 438.797C326.31 453.554 324.717 475.147 329.497 492.39C329.642 492.856 329.353 493.166 329.063 493.322C328.773 493.322 328.773 493.322 328.773 493.477Z" fill="#E4CB66"/>
<path d="M365.872 502.586C365.44 502.629 365.102 502.193 365.051 501.73C365.515 480.446 368.045 459.429 372.517 438.846C373.865 432.467 375.391 426.383 376.79 420.468C379.288 409.917 381.881 398.888 384.239 385.695C387.437 366.799 390.847 335.076 389.666 308.019C389.616 307.555 390.015 307.204 390.303 307.176C390.736 307.133 391.074 307.569 391.107 307.878C392.305 335.089 388.911 366.966 385.586 386.032C383.245 399.379 380.652 410.408 378.153 420.959C376.755 426.875 375.229 432.958 374.008 439.168C369.537 459.751 366.989 480.614 366.509 501.743C366.559 502.207 366.16 502.558 365.872 502.586Z" fill="#E4CB66"/>
<path d="M238.841 534.549C238.977 534.501 239.193 534.26 239.328 534.212C247.893 513.665 243.485 481.936 238.494 453.888L237.461 447.628C232.347 418.464 227.03 388.377 231.591 364.266C231.751 363.88 231.445 363.49 231.061 363.294C230.676 363.097 230.324 363.386 230.165 363.773C225.581 388.223 230.954 418.455 236.068 447.619L237.101 453.879C242.036 481.782 246.467 513.172 238.061 533.332C237.902 533.719 238.072 534.156 238.456 534.352C238.513 534.498 238.705 534.596 238.841 534.549Z" fill="#E4CB66"/>
<path d="M210.591 326.759C199.788 310.016 193.643 290.152 198.276 271.81C202.908 253.468 220.379 237.582 241.973 237.136C266.761 236.565 289.676 256.679 294.721 278.088C299.653 299.204 290.034 320.617 274.297 335.4C260.908 347.87 243.594 356.583 225.026 363.253C221.763 364.395 222.415 368.471 225.947 369.22C237.935 371.477 251.17 372.966 240.621 361.266C230.105 350.051 219.407 339.562 210.591 326.759Z" fill="#121B43"/>
<path d="M278.648 328.502C266.624 318.715 257.932 305.045 257.208 289.356C256.484 273.511 265.176 255.647 280.821 246.326C300.379 234.676 326.165 238.87 339.927 253.161C353.69 267.453 355.863 288.89 350.358 308.463C345.722 325.395 335.871 340.929 324.571 355.221C323.123 357.085 325.006 359.26 327.324 358.483L337.899 355.065C341.666 353.823 342.245 349.162 338.624 348.23C336.306 347.454 333.843 346.832 331.38 346.677C326.02 346.832 321.529 348.386 316.169 347.454C302.841 345.124 288.355 336.424 278.648 328.502Z" fill="#5F977F"/>
<path d="M334.9 248.734C330.022 239.998 326.069 230.39 325.508 219.826C324.813 208.026 328.237 196.603 335.132 187.651C346.503 172.951 366.625 166.451 383.437 168.396C409.097 171.348 427.502 192.033 430.178 216.757C432.787 240.863 421.214 267.139 402.624 286.45C396.088 293.337 388.459 299.55 383.287 306.928C381.282 309.935 379.877 314.445 382.927 315.708C384.612 316.48 386.851 315.636 388.802 314.82C393.135 313.146 411.839 308.347 408.117 303.558C406.586 301.522 400.256 300.893 397.689 300.051C394.063 298.845 390.404 297.329 386.872 295.645C373.099 289.498 360.467 280.429 349.906 268.97C344.304 262.96 339.194 256.121 334.9 248.734Z" fill="#192657"/>
</svg>
