<svg width="24" height="26" viewBox="0 0 24 26" fill="none" xmlns="http://www.w3.org/2000/svg">
<g clip-path="url(#clip0_0_7875)">
<path d="M21.0058 20.8592L19.6334 19.178L18.2605 17.4953L16.8882 15.8147V15.814L15.54 14.1618V14.1611C13.5681 13.019 12.624 14.7276 11.6821 14.8734L12.0004 15.8077L14.5981 18.2949L16.1501 19.7816H16.1507L17.7027 21.269H17.7033L19.2546 22.7557H19.2553L20.7373 24.1759L21.9277 23.9885L22.316 22.4656L21.0058 20.8592Z" fill="#192657"/>
<path d="M12.0005 7.41673C11.8953 7.56958 11.8013 7.7302 11.7163 7.89722C10.7333 9.82193 10.9985 12.5823 10.8202 13.9395L9.66405 14.2926L8.46091 14.161C8.04743 13.8999 7.6255 13.6048 7.20025 13.2779C6.28516 12.5745 5.35502 11.7261 4.45624 10.7524C0.784753 6.77495 -0.967716 2.22429 0.543066 0.587563C0.767128 0.344829 1.04993 0.179993 1.38175 0.0879774C1.38438 0.0879774 1.38635 0.0872664 1.38893 0.0865555C3.29622 -0.436339 6.80247 1.44308 9.92599 4.82688C10.3088 5.24085 10.6706 5.66188 11.0096 6.08504C11.0122 6.0886 11.0148 6.09139 11.0174 6.09494C11.3708 6.53435 11.6981 6.97661 12.0005 7.41673Z" fill="white"/>
<path d="M12.3063 8.53617C11.222 10.2394 10.9939 12.6204 10.8202 13.9393L9.66405 14.2924L8.99585 14.7642C8.99322 14.7621 8.82597 14.4688 8.82335 14.4674L8.46091 14.1608C8.04743 13.8997 7.6255 13.6046 7.20025 13.2777C6.28516 12.5743 5.35502 11.7259 4.45624 10.7523C0.784753 6.77482 -0.967716 2.22416 0.543066 0.587434C0.767128 0.344699 1.04993 0.179863 1.38175 0.0878477C1.38438 0.0878477 1.38635 0.0871367 1.38893 0.0864258C0.906206 2.15266 2.64044 5.9511 5.76391 9.33562C6.50721 10.1409 7.27211 10.8591 8.03242 11.4818C8.40016 10.218 9.12128 8.76596 10.135 7.29061C10.408 6.89223 10.7026 6.49243 11.0175 6.09476C11.3709 6.53417 11.6981 6.97643 12.0005 7.4166C11.8953 7.56945 12.3912 8.3692 12.3063 8.53617Z" fill="white"/>
<path d="M12.8676 14.2783L15.6018 17.2078L14.5978 18.2954L13.072 16.8342L11.7114 15.5308L12.8676 14.2783Z" fill="#192657"/>
<path d="M23.7576 22.4195C24.081 22.7698 24.081 23.3387 23.7576 23.689L21.8673 25.7368C21.5434 26.0878 21.0188 26.0878 20.6949 25.7368L20.5819 25.6144C20.2579 25.2634 20.2579 24.6952 20.5819 24.3442L20.7373 24.1758L22.3161 22.4655L22.4721 22.2964C22.7955 21.9461 23.3206 21.9461 23.644 22.2964L23.7576 22.4195Z" fill="white"/>
<path d="M9.66399 12.687L8.4608 14.1609L7.11197 15.8139L5.73966 17.4952L4.36735 19.1779L2.99433 20.8592L1.68408 22.4655L2.09396 24.0341L3.26278 24.1758L4.74554 22.7556L6.29747 21.2689L7.85007 19.7822L9.40271 18.2955L12.0004 15.8076L12.2891 15.5309L11.8156 14.1158L9.66399 12.687Z" fill="#192657"/>
<path d="M19.6337 19.1777L21.0061 20.859L19.2556 22.7554H19.2549L17.7036 21.2687L19.6337 19.1777Z" fill="white"/>
<path d="M16.8882 15.8145L18.2605 17.4951L16.1507 19.7813H16.1501L14.5981 18.2947L16.8882 15.8145Z" fill="white"/>
<path d="M19.2554 22.7564L20.0131 21.9355L21.4167 23.4406L20.7381 24.1758L19.2554 22.7564Z" fill="#192657"/>
<path d="M16.1499 19.7822L17.0722 18.7837L18.5425 20.3595L17.7032 21.2688L16.1499 19.7822Z" fill="#192657"/>
<path d="M20.738 24.1756L21.4167 23.4404L22.7086 24.8252L21.8674 25.7367C21.544 26.0877 21.0189 26.0877 20.6955 25.7367L20.5819 25.6142C20.2585 25.2632 20.2585 24.695 20.5819 24.3441L20.738 24.1756Z" fill="white"/>
<path d="M17.7036 21.2692L18.5429 20.3599L20.0132 21.9358L19.2556 22.7566L17.7036 21.2692Z" fill="white"/>
<path d="M15.6021 17.208L17.0724 18.7839L16.1501 19.7823L14.5981 18.2956L15.6021 17.208Z" fill="white"/>
<path d="M2.99433 20.8594L3.75202 21.6802L2.36274 23.2008L1.68408 22.4657L2.99433 20.8594Z" fill="#192657"/>
<path d="M5.7395 17.4951L6.66116 18.4942L5.20648 20.0871L4.36719 19.1778L5.7395 17.4951Z" fill="#192657"/>
<path d="M10.82 13.9395L8.11579 16.9015L7.11182 15.8139L8.46064 14.1609L9.66383 12.687L10.82 13.9395Z" fill="#192657"/>
<path d="M3.41813 25.6145L3.30511 25.7369C2.98177 26.0879 2.45663 26.0879 2.13328 25.7369L0.243 23.689C-0.081 23.3387 -0.081 22.7698 0.243 22.4196L0.356016 22.2964C0.680016 21.9461 1.2045 21.9461 1.52845 22.2964L1.68389 22.4655L3.41808 24.3442C3.74208 24.6953 3.74208 25.2635 3.41813 25.6145Z" fill="white"/>
<path d="M6.29728 21.2687L4.74534 22.7554L3.75183 21.6798L2.99414 20.859L4.36716 19.1777L5.20645 20.087L6.29728 21.2687Z" fill="white"/>
<path d="M9.40279 18.2955L7.85015 19.7823L6.6614 18.4944L5.73975 17.4953L7.11206 15.814L8.11603 16.9015L9.40279 18.2955Z" fill="white"/>
<path d="M1.68394 22.4656L2.36259 23.2008L1.08431 24.6005L0.243 23.689C-0.081 23.3387 -0.081 22.7698 0.243 22.4196L0.356016 22.2964C0.680016 21.9461 1.2045 21.9461 1.52845 22.2964L1.68394 22.4656Z" fill="white"/>
<path d="M4.36716 19.1777L5.20645 20.087L3.75183 21.6798L2.99414 20.859L4.36716 19.1777Z" fill="white"/>
<path d="M8.11603 16.9015L6.6614 18.4944L5.73975 17.4953L7.11206 15.814L8.11603 16.9015Z" fill="white"/>
<path d="M23.4576 0.588195C24.9678 2.22421 23.2159 6.77482 19.5444 10.7523C18.2282 12.1782 16.8435 13.3372 15.5398 14.1609C14.3516 14.9117 13.2308 15.3851 12.2889 15.5308L9.66374 12.6869H9.66309C9.8571 11.2122 10.6834 9.33354 12.0002 7.41665C12.5952 6.54981 13.2915 5.67521 14.0747 4.8268C17.7462 0.849312 21.9468 -1.0492 23.4576 0.588195Z" fill="white"/>
<path d="M13.434 8.96978C14.029 8.10295 14.7253 7.22834 15.5085 6.37994C18.5828 3.0495 22.0276 1.17725 23.954 1.61727C23.8752 1.21203 23.7164 0.868398 23.4708 0.602355C21.96 -1.03504 17.7594 0.863473 14.0879 4.84096C13.3047 5.68937 12.6084 6.56402 12.0134 7.43081C10.6966 9.34775 9.87029 11.2265 9.67627 12.7011H9.67693L11.097 14.2395C11.2911 12.7649 12.1173 10.8864 13.434 8.96978Z" fill="white"/>
</g>
<defs>
<clipPath id="clip0_0_7875">
<rect width="24" height="26" fill="white"/>
</clipPath>
</defs>
</svg>
