<svg width="1440" height="530" viewBox="0 0 1440 530" fill="none" xmlns="http://www.w3.org/2000/svg">
<path d="M299.7 157.489C298.686 156.231 299.273 153.954 300.554 153.055C301.835 152.156 303.596 152.396 304.983 153.115C307.278 154.313 308.985 156.591 309.572 159.347C308.772 158.029 310.32 156.231 311.707 156.411C313.094 156.591 314.162 157.849 315.016 159.107C316.296 160.785 317.257 162.703 317.897 164.8C318.431 166.897 318.324 169.294 317.203 171.092C319.231 173.549 319.071 177.444 316.883 179.721C314.695 181.998 311.227 181.819 309.199 179.362C311.494 180.32 312.294 184.036 310.853 186.193C309.412 188.35 306.264 188.71 304.289 187.152C303.169 189.189 300.287 189.069 298.686 187.511C297.085 185.953 296.338 183.556 295.751 181.279C293.67 181.878 291.482 181.639 289.561 180.74C290.895 183.736 289.828 187.391 287.16 188.95C287.106 188.95 287.106 189.009 287.053 189.009C287.747 190.208 288.174 191.586 288.28 193.024C288.334 194.463 287.693 195.961 286.519 196.56C285.345 197.159 283.744 196.32 283.584 194.882C285.292 196.62 286.039 199.676 284.865 201.953C283.691 204.23 280.382 204.71 279.048 202.552C280.116 202.372 281.023 203.811 280.756 204.949C280.382 206.148 279.368 206.867 278.301 206.807C277.234 206.687 276.22 206.208 275.42 205.309C273.872 203.631 272.751 201.474 272.218 199.137C273.338 198.777 274.459 200.215 274.139 201.474C273.819 202.732 272.538 203.451 271.417 203.271C270.297 203.032 269.283 202.253 268.642 201.174C267.415 199.256 266.935 196.859 267.362 194.522C267.949 195.361 266.988 196.68 266.028 196.56C265.067 196.44 264.427 195.421 264 194.463C262.932 191.766 262.986 188.71 264.16 186.073C264.854 186.253 264.533 187.631 263.84 187.691C263.146 187.751 262.559 187.032 262.185 186.373C260.851 183.916 260.371 180.98 260.851 178.163C260.905 177.444 261.225 176.845 261.705 176.425C262.239 176.126 263.093 176.665 262.879 177.264C261.278 177.384 259.837 175.586 259.837 173.729C259.837 171.871 261.011 170.253 262.452 169.414C263.946 168.695 265.601 168.456 267.255 168.755C267.949 165.639 270.777 163.722 273.552 164.56C274.886 164.92 276.007 165.879 276.7 167.197C276.22 165.999 277.074 164.501 278.194 164.081C279.368 163.722 280.596 163.961 281.61 164.68C282.624 165.339 283.531 166.238 284.545 166.778C285.665 164.74 287.053 163.062 287.853 160.845C288.494 159.047 288.921 157.37 289.988 155.812C292.709 151.857 298.686 151.797 299.7 157.489Z" fill="#121B43"/>
<path d="M308.454 336.725C308.081 337.983 307.601 339.361 306.747 340.26C305.893 341.159 304.399 341.578 303.438 340.739C302.371 339.781 302.478 337.983 302.691 336.485C304.666 322.762 308.561 309.04 306.907 295.257C306.587 292.501 306 289.744 306.106 286.988C306.213 284.231 307.014 281.295 308.935 279.557C311.923 276.861 316.032 278.239 316.673 282.314C317.526 287.946 316.299 294.958 315.712 300.59C314.485 312.935 312.083 325.039 308.454 336.725Z" fill="white"/>
<path d="M304.717 341.639C305.57 341.639 306.424 341.279 307.011 340.56C307.918 339.601 308.399 338.223 308.826 336.845C312.401 325.1 314.856 312.935 316.136 300.591C316.243 299.452 316.403 298.194 316.563 296.995C317.15 292.201 317.791 286.748 317.097 282.194C316.83 280.276 315.71 278.658 314.109 277.999C312.241 277.28 310.213 277.7 308.719 279.138C306.905 280.756 305.837 283.572 305.731 286.928C305.731 289.025 305.891 291.123 306.264 293.16C306.371 293.879 306.478 294.598 306.531 295.257C307.758 305.444 305.891 315.871 304.076 325.879C303.436 329.294 302.796 332.83 302.315 336.365C302.102 337.983 301.995 339.961 303.222 341.039C303.649 341.459 304.183 341.639 304.717 341.639ZM312.294 278.599C312.828 278.599 313.308 278.718 313.788 278.898C315.123 279.497 316.083 280.816 316.297 282.374C316.99 286.748 316.35 292.141 315.763 296.875C315.603 298.134 315.496 299.332 315.336 300.531C314.109 312.815 311.654 324.86 308.079 336.545C307.652 337.863 307.278 339.062 306.478 339.901C305.677 340.74 304.503 341.039 303.703 340.32C302.796 339.541 302.902 337.863 303.116 336.485C303.596 333.009 304.236 329.474 304.877 326.058C306.691 315.931 308.612 305.504 307.331 295.138C307.225 294.418 307.118 293.699 307.065 292.98C306.691 291.003 306.531 288.965 306.531 286.928C306.638 283.872 307.598 281.295 309.199 279.857C310.053 279.078 311.174 278.658 312.294 278.599Z" fill="#121B43"/>
<path d="M309.093 305.863C309.36 307.001 309.466 308.2 309.413 309.398C309.306 310.597 308.666 311.675 307.705 312.214C306.478 312.754 305.037 311.975 304.237 310.776C303.436 309.578 303.169 308.02 302.956 306.582L300.074 288.724C299.114 282.852 304.557 283.93 305.731 288.305C307.278 293.938 307.972 300.05 309.093 305.863Z" fill="#121B43"/>
<path d="M324.89 310.657C331.88 319.106 333.641 331.93 329.159 342.117C324.303 353.143 311.922 360.274 300.609 357.517C290.096 354.941 282.252 344.214 281.398 332.949C280.651 322.821 284.92 313.713 291.324 306.462C296.874 300.11 304.024 299.571 311.869 302.088C316.885 303.466 321.368 306.462 324.89 310.657Z" fill="#121B43"/>
<path d="M320.674 314.312C326.17 320.963 327.558 331.03 324.036 339C320.247 347.689 310.481 353.262 301.623 351.105C293.351 349.067 287.161 340.618 286.521 331.749C285.934 323.78 289.296 316.649 294.312 310.896C298.688 305.922 304.291 305.503 310.481 307.48C314.377 308.679 317.899 311.076 320.674 314.312Z" fill="white"/>
<path d="M318.698 342.356C318.805 342.356 318.965 342.296 319.018 342.236C319.232 341.996 319.285 341.637 319.072 341.397C312.028 331.809 304.076 323.18 295.271 315.69C295.058 315.45 294.684 315.51 294.524 315.75C294.364 315.989 294.364 316.409 294.578 316.589C294.578 316.589 294.578 316.589 294.631 316.648C303.329 324.139 311.281 332.708 318.271 342.176C318.431 342.236 318.591 342.356 318.698 342.356Z" fill="#E4CB66"/>
<path d="M296.339 343.555C296.499 343.555 296.606 343.495 296.713 343.375C304.237 334.206 311.121 324.439 317.364 314.132C317.525 313.832 317.471 313.473 317.258 313.293C316.991 313.113 316.671 313.173 316.511 313.413C310.267 323.66 303.436 333.427 295.966 342.536C295.752 342.776 295.805 343.135 296.019 343.375C296.072 343.555 296.179 343.555 296.339 343.555Z" fill="#E4CB66"/>
<path d="M294.046 328.935C303.865 328.935 313.684 328.276 323.45 327.017C323.77 326.957 323.93 326.658 323.93 326.358C323.877 325.999 323.61 325.819 323.343 325.819C312.457 327.257 301.517 327.856 290.524 327.676C290.204 327.676 289.991 327.916 289.991 328.276C289.991 328.635 290.204 328.875 290.524 328.875C291.698 328.935 292.872 328.935 294.046 328.935Z" fill="#E4CB66"/>
<path d="M307.12 348.768C307.387 348.768 307.654 348.528 307.654 348.168C308.294 334.745 308.08 321.262 306.906 307.84C306.853 307.54 306.64 307.24 306.319 307.3C306.053 307.36 305.786 307.6 305.839 307.959C307.013 321.322 307.227 334.745 306.586 348.108C306.586 348.468 306.8 348.708 307.12 348.768Z" fill="#E4CB66"/>
<path d="M323.019 286.028C323.339 288.065 322.432 290.162 320.777 291.061C318.216 292.32 315.441 290.402 312.72 289.623C309.304 288.604 305.729 289.503 302.314 290.402C298.898 291.301 295.376 292.32 291.908 291.541C288.439 290.762 285.13 287.765 284.97 283.81C284.864 280.814 286.625 277.998 288.919 276.44C291.214 274.882 293.989 274.462 296.657 274.342C301.993 274.163 307.276 275.181 312.239 277.399C315.281 278.837 322.218 281.833 323.019 286.028Z" fill="#121B43"/>
<path d="M327.453 331.212C328.306 332.41 328.893 333.788 329.16 335.287C329.427 336.785 329 338.343 328.093 339.481C326.866 340.8 324.838 340.8 323.344 339.901C321.849 339.002 320.729 337.504 319.768 335.946C318.808 334.388 317.954 332.65 316.78 331.332C315.659 330.073 314.325 329.174 313.258 327.856C312.191 326.538 311.39 324.74 311.924 323.062C313.525 317.13 325.745 328.575 327.453 331.212Z" fill="white"/>
<path d="M325.477 340.979C326.544 340.979 327.558 340.62 328.305 339.841C329.372 338.642 329.799 336.905 329.533 335.227C329.212 333.669 328.625 332.171 327.718 330.972C326.491 329.054 317.632 320.306 313.363 321.085C312.403 321.264 311.656 322.043 311.389 323.062C310.909 324.68 311.442 326.658 312.83 328.275C313.417 328.935 314.057 329.594 314.697 330.133C316.352 331.451 317.686 333.189 318.646 335.167C318.86 335.526 319.073 335.886 319.287 336.305C320.14 337.743 321.368 339.481 323.022 340.44C323.876 340.74 324.676 340.979 325.477 340.979ZM327.078 331.451C327.878 332.59 328.465 333.908 328.732 335.346C328.999 336.725 328.625 338.163 327.772 339.182C326.598 340.44 324.676 340.26 323.449 339.541C321.955 338.702 320.888 337.144 320.034 335.706C319.82 335.346 319.607 334.987 319.393 334.627C318.7 333.309 317.899 332.111 316.992 331.032C316.458 330.433 315.871 329.893 315.284 329.354C314.644 328.815 314.057 328.216 313.47 327.556C312.563 326.478 311.762 324.8 312.189 323.242C312.349 322.523 312.883 321.983 313.523 321.864C317.205 321.204 325.744 329.294 327.078 331.451Z" fill="#121B43"/>
<path d="M235.236 165.581C233.902 163.783 231.928 161.925 229.953 162.824C227.979 163.723 227.819 167.019 229.099 168.936C230.38 170.854 232.568 171.633 234.543 172.352C230.167 171.753 225.737 171.633 221.308 171.933C220.188 171.933 219.067 172.172 218.053 172.712C217.093 173.311 216.292 174.509 216.452 175.708C216.612 177.326 218.16 178.225 219.494 178.884C223.123 180.502 226.858 181.76 230.7 182.599C231.928 186.914 234.703 190.509 238.331 192.487C240.359 193.565 245.642 195.363 247.723 193.565C249.965 191.708 247.243 187.213 246.283 184.876C243.348 177.865 239.665 171.393 235.236 165.581Z" fill="white"/>
<path d="M245.111 194.705C246.125 194.765 247.086 194.466 247.94 193.866C250.074 192.069 248.42 188.533 247.193 185.956C246.979 185.477 246.766 184.998 246.606 184.638C243.724 177.627 239.988 171.095 235.506 165.283C233.478 162.586 231.504 161.627 229.796 162.346C228.889 162.766 228.248 163.665 227.982 164.743C227.608 166.241 227.875 167.859 228.729 169.178C229.476 170.196 230.383 171.035 231.45 171.575C228.035 171.275 224.62 171.275 221.258 171.455C220.084 171.455 218.91 171.754 217.842 172.294C216.828 172.893 215.815 174.211 216.028 175.769C216.241 177.687 218.002 178.706 219.337 179.305C222.912 180.923 226.594 182.121 230.383 183.02C231.664 187.335 234.492 190.93 238.174 192.907C240.362 193.986 242.71 194.585 245.111 194.705ZM230.97 163.005C232.411 163.005 233.905 164.504 234.919 165.822C239.348 171.634 243.03 178.046 245.912 184.998C246.072 185.417 246.285 185.836 246.499 186.376C247.566 188.653 249.06 191.769 247.459 193.147C245.645 194.705 240.629 193.147 238.494 192.009C234.919 190.091 232.251 186.615 231.077 182.421C231.023 182.241 230.917 182.121 230.756 182.121C226.968 181.282 223.232 180.024 219.657 178.406C217.842 177.627 216.989 176.728 216.882 175.589C216.775 174.451 217.522 173.492 218.323 173.013C219.283 172.533 220.35 172.294 221.418 172.294C225.794 171.994 230.223 172.114 234.545 172.713C234.759 172.713 234.919 172.593 234.972 172.354C235.026 172.114 234.919 171.874 234.705 171.814C232.517 171.035 230.596 170.256 229.422 168.578C228.782 167.56 228.515 166.241 228.835 164.983C228.995 164.204 229.476 163.485 230.169 163.185C230.383 163.065 230.65 163.005 230.97 163.005Z" fill="#121B43"/>
<path d="M240.576 188.471L241.11 188.352C240.523 185.355 238.922 182.719 236.627 180.981C236.841 180.921 237.054 180.801 237.214 180.681C237.908 180.202 238.335 179.363 238.388 178.464C238.388 176.786 237.108 175.528 235.934 175.048C234.653 174.629 233.319 174.569 232.038 174.749L232.091 175.348C233.319 175.168 234.599 175.228 235.773 175.588C236.787 176.007 237.855 177.026 237.908 178.404C237.855 179.123 237.534 179.723 237.001 180.142C236.627 180.442 236.147 180.502 235.72 180.262L235.453 180.801C238.068 182.419 239.936 185.236 240.576 188.471Z" fill="#121B43"/>
<path d="M247.564 198.958C253.274 215.197 263.467 228.98 276.701 238.208C278.676 239.646 280.863 240.785 283.105 241.564L282.518 243.781C280.543 251.332 278.889 259.901 282.304 266.792C285.079 272.545 290.736 275.781 296.286 277.638C305.891 280.874 316.137 280.994 325.796 278.058C330.118 276.739 334.654 274.402 336.415 269.788C337.749 266.253 337.162 262.178 336.202 258.463C334.921 253.189 333.053 248.036 330.759 243.182C328.731 238.867 326.329 234.793 323.555 231.017C325.742 230.478 327.824 229.519 329.691 228.141C338.283 222.089 342.712 210.224 342.766 198.778C342.819 187.333 339.03 176.367 334.174 166.359C332.2 162.285 329.158 157.85 325.049 158.389C329.745 168.577 330.759 180.382 327.824 191.408C325.369 200.216 320.566 207.887 314.056 213.52C312.562 214.778 311.334 215.737 310.587 216.995C305.197 212.261 298.527 207.947 292.977 214.418C292.443 215.078 291.91 215.797 291.483 216.516C288.708 215.437 284.652 215.797 282.144 215.197C273.553 213.1 265.601 208.606 258.931 202.194C255.142 198.539 251.834 194.284 249.112 189.55C247.564 190.029 246.657 191.827 246.497 193.625C246.337 195.422 246.977 197.28 247.564 198.958Z" fill="white"/>
<path d="M311.761 280.636C316.564 280.636 321.313 279.917 325.903 278.538C331.719 276.801 335.295 273.984 336.789 270.029C338.23 266.254 337.536 262.059 336.629 258.404C335.295 253.071 333.48 247.917 331.186 243.063C329.211 238.929 326.916 235.034 324.355 231.378C326.329 230.779 328.251 229.88 330.012 228.622C338.123 222.869 343.192 211.483 343.246 198.899C343.299 189.012 340.471 178.345 334.601 166.241C331.719 160.308 328.517 157.552 325.102 158.091C324.995 158.091 324.835 158.211 324.782 158.331C324.729 158.451 324.729 158.63 324.782 158.75C329.478 168.818 330.439 180.563 327.504 191.409C325.102 200.098 320.353 207.768 313.896 213.281L313.202 213.88C312.241 214.659 311.388 215.498 310.587 216.517C305.251 211.903 298.474 207.648 292.764 214.3C292.283 214.899 291.803 215.498 291.376 216.217C289.615 215.738 287.747 215.438 285.933 215.378C284.706 215.319 283.478 215.199 282.251 214.959C273.766 212.862 265.815 208.427 259.198 202.075C255.409 198.48 252.1 194.225 249.432 189.491C249.325 189.312 249.165 189.252 249.005 189.312C247.191 189.911 246.23 192.008 246.124 193.746C246.017 195.604 246.551 197.401 247.138 199.079C252.847 215.438 263.147 229.281 276.434 238.569C278.355 239.947 280.437 241.086 282.571 241.865L282.091 243.663C279.956 251.692 278.515 260.082 281.877 267.033C284.279 272.007 289.082 275.722 296.072 278.119C301.248 279.857 306.478 280.696 311.761 280.636ZM325.849 158.93C328.678 158.93 331.399 161.567 333.854 166.72C339.67 178.645 342.445 189.192 342.392 198.959C342.339 211.244 337.429 222.33 329.531 227.903C327.664 229.221 325.636 230.18 323.501 230.719C323.341 230.779 323.234 230.839 323.234 231.019C323.181 231.138 323.234 231.318 323.288 231.438C326.009 235.213 328.411 239.288 330.439 243.543C332.733 248.337 334.548 253.43 335.828 258.704C336.682 262.179 337.376 266.254 336.042 269.73C334.654 273.385 331.239 276.022 325.689 277.699C316.084 280.576 305.944 280.456 296.392 277.28C289.615 275.003 284.973 271.407 282.625 266.673C279.369 260.022 280.81 251.812 282.891 244.022L283.478 241.805C283.532 241.685 283.478 241.565 283.425 241.445C283.372 241.326 283.265 241.266 283.158 241.206C280.917 240.427 278.782 239.288 276.808 237.85C263.68 228.682 253.488 214.959 247.831 198.78C247.298 197.222 246.764 195.544 246.871 193.806C246.977 192.428 247.618 190.81 248.899 190.21C251.567 194.884 254.875 199.079 258.611 202.675C265.335 209.146 273.393 213.641 282.037 215.738C283.265 215.978 284.546 216.157 285.826 216.157C287.747 216.277 289.775 216.397 291.376 217.056C291.536 217.116 291.75 217.056 291.856 216.877C292.283 216.157 292.764 215.438 293.351 214.839C298.74 208.547 305.304 212.922 310.427 217.416C310.534 217.476 310.641 217.536 310.747 217.476C310.854 217.476 310.961 217.416 311.014 217.296C311.601 216.277 312.562 215.498 313.682 214.48C313.896 214.3 314.109 214.12 314.376 213.88C320.94 208.248 325.796 200.457 328.251 191.589C331.186 180.742 330.278 168.997 325.742 158.87L325.849 158.93Z" fill="#121B43"/>
<path d="M328.249 145.327C326.648 139.454 323.713 133.821 319.177 130.465C317.843 129.447 316.242 128.608 314.641 128.788C313.04 128.967 311.386 130.286 311.279 132.143C311.172 133.761 312.24 135.14 313.2 136.338L323.606 149.222C321.899 148.023 319.444 146.945 318.11 148.622C316.882 150.121 317.683 152.458 318.643 154.135C320.138 156.652 326.008 165.221 329.103 162.884C332.411 160.308 329.103 148.563 328.249 145.327Z" fill="white"/>
<path d="M327.875 163.662C328.409 163.662 328.889 163.482 329.316 163.183C332.411 160.846 330.436 151.917 328.675 145.445L328.622 145.206C327.341 140.531 324.727 134.06 319.39 130.105C317.629 128.786 316.028 128.187 314.587 128.307C312.88 128.427 310.959 129.925 310.852 132.082C310.745 133.82 311.812 135.258 312.88 136.576L321.898 147.722C320.137 147.003 318.75 147.183 317.843 148.262C316.188 150.299 317.843 153.415 318.376 154.374C319.764 156.711 324.033 162.883 327.341 163.662C327.448 163.602 327.662 163.662 327.875 163.662ZM327.875 145.445L327.928 145.685C330.543 155.333 330.863 160.906 328.889 162.464C328.462 162.763 327.928 162.883 327.395 162.703C324.406 162.044 320.191 155.932 318.963 153.835C318.483 153.056 317.095 150.359 318.376 148.861C319.657 147.363 322.058 148.621 323.392 149.58C323.553 149.7 323.819 149.64 323.926 149.46C324.033 149.28 324.033 149.041 323.873 148.921L313.467 136.037C312.506 134.839 311.599 133.58 311.652 132.202C311.759 130.524 313.253 129.386 314.641 129.266C316.028 129.146 317.309 129.685 318.963 130.884C324.086 134.659 326.648 140.891 327.875 145.445Z" fill="#121B43"/>
<path d="M231.394 153.356C240.786 126.75 267.628 113.687 291.321 124.233C295.003 125.851 298.525 128.069 301.727 130.705L302.047 130.226C281.289 113.028 252.045 118.001 236.73 141.312C234.329 144.967 232.408 148.922 230.913 153.117L231.394 153.356Z" fill="#121B43"/>
<path d="M245.858 139.275C264.055 126.511 288.976 125.792 307.706 137.537L307.973 136.998C288.389 125.133 264.642 125.792 245.591 138.735L245.858 139.275Z" fill="#121B43"/>
<path d="M238.548 162.705C240.309 155.334 244.632 149.042 250.555 145.207L250.288 144.668C244.258 148.563 239.829 154.975 238.015 162.525L238.548 162.705Z" fill="#121B43"/>
<path d="M295.27 120.219C295.91 121.417 296.337 122.915 296.017 124.293C295.536 125.732 294.469 126.81 293.135 127.11C291.801 127.409 290.467 127.409 289.133 127.11C284.116 126.211 279.26 124.293 274.885 121.417C273.124 120.278 271.256 118.601 271.362 116.383C271.523 114.765 272.43 113.387 273.764 112.788C275.045 112.189 276.432 111.949 277.82 112.009C283.956 112.009 291.854 113.687 295.27 120.219Z" fill="#E4CB66"/>
<path d="M268.803 134.122C269.763 133.942 270.777 134.122 271.684 134.601C272.752 135.44 273.285 136.818 273.178 138.256C273.018 139.635 272.538 141.013 271.791 142.151C268.162 148.024 262.132 151.44 255.729 151.14C253.968 151.02 251.993 150.421 251.246 148.623C250.499 146.825 251.406 144.848 252.473 143.35C256.102 138.137 263.039 134.661 268.803 134.122Z" fill="#E4CB66"/>
<path d="M230.81 142.751C232.411 142.032 234.385 142.152 235.613 143.53C237.107 145.088 237.16 147.665 236.787 149.882C235.88 154.736 233.265 158.99 229.422 161.567C228.675 162.166 227.768 162.466 226.861 162.406C225.047 162.166 224.086 159.889 223.873 157.912C223.286 152.579 226.167 144.968 230.81 142.751Z" fill="#E4CB66"/>
<path d="M297.62 213.16C299.274 214.418 300.448 216.336 301.516 218.253C307.386 228.92 311.281 240.844 312.989 253.249C317.792 253.848 322.648 253.369 327.237 251.751C324.836 236.77 317.845 223.227 307.439 213.519C310.908 214.178 313.629 217.115 315.977 220.051C323.181 229.219 328.518 240.005 331.613 251.691L335.562 251.031C337.003 254.507 338.444 257.983 339.084 261.698C339.724 265.413 339.564 269.488 337.857 272.784C335.562 277.278 330.919 279.615 326.437 280.934C315.871 283.99 304.504 283.031 294.365 278.597C289.776 276.619 285.293 273.863 282.305 269.488C279.316 265.114 278.036 258.941 280.117 253.968L306.799 251.331C307.813 251.211 300.769 229.279 299.915 227.421C298.261 223.646 296.339 220.051 294.152 216.635C293.351 215.317 291.377 213.639 292.604 212.261C293.725 211.122 296.606 212.381 297.62 213.16Z" fill="#5F977F"/>
<path d="M321.207 263.855C323.235 262.717 325.583 261.878 327.717 262.777C331.186 264.215 332.04 269.248 332.04 273.383C331.986 287.645 327.984 301.607 320.62 313.233L317.685 311.495C320.513 307.12 322.434 302.147 323.288 296.813C323.715 294.656 323.715 292.439 323.288 290.342C322.754 288.244 321.367 286.327 319.499 285.728C317.738 285.188 315.87 285.847 314.003 286.027C308.613 286.626 305.945 280.874 309.04 276.14C312.135 271.406 316.564 266.492 321.207 263.855Z" fill="white"/>
<path d="M320.513 313.654C320.62 313.654 320.78 313.594 320.833 313.474C328.251 301.729 332.253 287.767 332.36 273.385C332.36 269.97 331.773 264.037 327.824 262.359C325.956 261.58 323.715 261.94 320.993 263.498C316.831 265.835 312.188 270.509 308.613 275.902C307.065 278.299 306.745 281.116 307.866 283.393C308.986 285.67 311.228 286.808 313.896 286.509C314.43 286.449 314.963 286.329 315.497 286.269C316.831 286.029 318.058 285.79 319.232 286.149C320.833 286.629 322.167 288.306 322.701 290.464C323.235 292.621 323.021 294.958 322.701 296.756C321.847 301.969 319.979 306.943 317.205 311.257C317.151 311.377 317.098 311.497 317.151 311.617C317.151 311.737 317.258 311.856 317.365 311.916L320.3 313.654C320.406 313.654 320.46 313.654 320.513 313.654ZM325.796 262.839C326.383 262.839 326.97 262.959 327.557 263.198C331.079 264.696 331.613 270.209 331.613 273.385C331.506 287.467 327.61 301.13 320.406 312.636L318.165 311.317C320.887 307.003 322.701 302.089 323.555 296.876C323.875 295.018 324.142 292.561 323.555 290.164C322.968 287.767 321.367 285.849 319.499 285.25C318.165 284.831 316.778 285.07 315.444 285.31C314.91 285.37 314.376 285.49 313.896 285.55C311.548 285.79 309.627 284.831 308.613 282.853C307.599 280.876 307.866 278.479 309.307 276.382C312.829 271.048 317.311 266.554 321.367 264.217C322.701 263.438 324.249 262.959 325.796 262.839Z" fill="#121B43"/>
<path d="M339.083 338.4C339.616 340.378 340.097 342.535 339.776 344.573C339.456 346.61 338.229 348.647 336.468 349.247C334.813 349.666 333.106 349.187 331.932 347.868C330.758 346.61 329.851 344.992 329.317 343.254C327.503 337.801 327.343 331.389 323.767 327.195C321.633 324.738 318.698 323.479 316.189 321.502C313.681 319.524 311.493 316.169 312.347 312.873C313.041 309.996 316.883 307.18 319.551 308.079C322.113 308.918 324.888 313.832 326.595 315.989C331.878 322.521 336.681 329.891 339.083 338.4Z" fill="#192657"/>
<path d="M290.307 205.612C291.481 207.05 292.922 208.608 294.683 208.488C297.245 208.368 298.579 205.132 299.219 202.376C301.674 191.23 301.087 179.365 298.685 168.159C298.259 166.122 297.511 163.845 295.75 163.125C294.31 162.586 292.762 163.305 291.428 164.084C286.625 166.961 279.368 171.934 276.913 177.687C275.846 180.264 277.34 182.9 278.3 185.297C281.396 192.728 285.451 199.559 290.307 205.612Z" fill="white"/>
<path d="M294.525 208.966H294.686C297.834 208.846 299.168 204.412 299.542 202.494C301.836 192.068 301.676 180.502 299.008 168.098C298.581 166.001 297.781 163.544 295.86 162.765C294.312 162.166 292.658 162.945 291.217 163.784C283.372 168.518 278.41 173.132 276.542 177.626C275.528 180.083 276.595 182.48 277.556 184.637C277.716 184.937 277.823 185.296 277.983 185.596C281.078 193.026 285.133 199.918 290.043 205.97C291.217 207.408 292.711 208.966 294.525 208.966ZM294.632 163.424C294.952 163.424 295.273 163.484 295.539 163.604C297.14 164.203 297.781 166.48 298.208 168.338C300.822 180.622 301.036 192.068 298.741 202.315C298.368 203.993 297.194 207.948 294.579 208.067C293.031 208.127 291.644 206.749 290.523 205.311C287.962 202.135 285.614 198.719 283.533 195.124C281.665 191.948 280.064 188.592 278.623 185.176C278.516 184.877 278.356 184.517 278.196 184.218C277.289 182.18 276.328 180.023 277.182 177.986C278.997 173.731 283.799 169.237 291.537 164.563C292.498 163.903 293.565 163.544 294.632 163.424Z" fill="#121B43"/>
<path d="M289.561 179.842C289.347 179.663 289.08 179.483 288.867 179.603C288.76 179.723 288.707 179.842 288.707 179.962C288.707 180.142 288.76 180.262 288.814 180.382C288.974 180.861 289.614 183.138 290.308 182.419C291.002 181.7 290.041 180.322 289.561 179.842Z" fill="#121B43"/>
<path d="M295.698 181.521C295.805 181.641 295.912 181.701 296.072 181.701C296.178 181.641 296.285 181.521 296.285 181.401C296.445 180.862 296.552 178.105 295.698 178.465C294.738 178.884 295.218 180.922 295.698 181.521Z" fill="#121B43"/>
<path d="M280.968 183.438C280.168 182.778 279.261 182.179 278.3 182.299C277.5 182.419 276.806 182.898 276.379 183.617C275.525 184.936 275.472 186.733 276.272 188.052C276.753 188.771 277.446 189.25 278.247 189.37C279.421 189.55 280.595 188.951 281.715 188.411" fill="white"/>
<path d="M278.728 189.911C279.849 189.791 280.916 189.431 281.877 188.832C282.09 188.712 282.144 188.413 282.037 188.233C281.93 188.053 281.717 187.933 281.503 188.053C280.329 188.652 279.315 189.192 278.301 189.012C277.608 188.892 277.021 188.473 276.594 187.873C275.9 186.675 275.953 185.117 276.701 183.978C277.074 183.319 277.661 182.9 278.355 182.84C279.209 182.72 280.116 183.379 280.756 183.918C280.916 184.038 281.183 184.038 281.343 183.858C281.45 183.679 281.45 183.379 281.29 183.199C280.489 182.54 279.476 181.821 278.355 181.941C277.448 182.061 276.647 182.6 276.114 183.439C275.153 184.877 275.1 186.915 276.007 188.413C276.54 189.252 277.341 189.791 278.195 189.911C278.355 189.911 278.515 189.911 278.728 189.911Z" fill="#121B43"/>
<path d="M278.729 187.632C278.942 187.632 279.156 187.572 279.369 187.512C279.476 187.452 279.583 187.272 279.529 187.152C279.476 187.032 279.316 186.913 279.209 186.972C278.622 187.272 277.875 186.913 277.662 186.253C277.555 185.894 277.555 185.534 277.662 185.175C277.875 184.695 278.355 184.336 278.836 184.396C278.996 184.396 279.102 184.276 279.102 184.156C279.102 183.976 278.996 183.856 278.889 183.856C277.982 183.737 277.128 184.516 277.021 185.534C276.914 186.553 277.608 187.512 278.515 187.632C278.569 187.632 278.675 187.632 278.729 187.632Z" fill="#121B43"/>
<path d="M296.019 181.761C294.364 182.42 293.03 183.738 292.23 185.416C291.589 186.675 291.323 188.173 291.536 189.611C291.963 192.068 294.258 193.865 296.446 193.746C298.74 193.566 300.715 191.888 301.515 189.491C302.209 187.633 302.316 184.637 301.248 182.839C300.181 181.042 297.566 181.162 296.019 181.761Z" fill="#FFB0CC"/>
<path d="M291.109 195.003C290.362 195.003 289.668 195.242 289.081 195.722C288.654 196.201 288.387 196.86 288.441 197.579C288.494 198.239 288.654 198.958 288.921 199.557C289.508 201.295 290.628 202.793 292.069 203.752C293.51 204.591 295.485 204.591 296.712 203.332C297.459 202.433 297.993 201.295 298.153 200.096C298.473 198.598 298.526 197.04 298.366 195.482C298.313 194.823 298.099 194.044 297.406 194.044C296.979 194.044 296.552 194.463 296.125 194.583C294.417 194.763 292.763 194.943 291.109 195.003Z" fill="white"/>
<path d="M294.15 204.833C295.164 204.833 296.125 204.473 296.925 203.694C297.779 202.735 298.313 201.537 298.473 200.218C298.793 198.66 298.846 197.042 298.74 195.425C298.58 193.807 297.832 193.567 297.406 193.567C297.085 193.567 296.765 193.687 296.498 193.867C296.338 193.986 296.178 194.046 296.018 194.106C294.951 194.346 293.83 194.466 292.763 194.466C292.176 194.526 291.642 194.526 291.109 194.586C290.308 194.586 289.508 194.885 288.867 195.425C288.334 196.024 288.067 196.803 288.067 197.642C288.12 198.361 288.28 199.14 288.547 199.799C289.081 201.237 290.095 203.155 291.856 204.173C292.549 204.533 293.35 204.773 294.15 204.833ZM297.352 194.466C297.459 194.466 297.832 194.466 297.939 195.544C298.046 197.042 297.993 198.541 297.726 200.039C297.566 201.177 297.139 202.196 296.392 203.035C295.378 204.054 293.617 204.233 292.229 203.394C290.682 202.496 289.774 200.758 289.294 199.439C289.081 198.9 288.921 198.241 288.867 197.642C288.814 197.102 289.027 196.503 289.401 196.144C289.935 195.724 290.575 195.544 291.215 195.544C291.749 195.484 292.283 195.484 292.87 195.425C293.99 195.365 295.164 195.245 296.285 195.065C296.498 195.005 296.712 194.885 296.925 194.765C296.979 194.526 297.139 194.466 297.352 194.466Z" fill="#121B43"/>
<path d="M296.554 199.017C296.34 200.096 295.806 201.055 295.006 201.774C294.206 202.433 293.138 202.553 292.231 202.014C291.591 201.474 291.11 200.755 290.844 199.976C290.577 199.377 290.31 198.658 290.577 198.059C290.844 197.639 291.217 197.4 291.697 197.28C292.871 196.86 294.686 195.961 295.913 196.141C297.247 196.201 296.82 197.759 296.554 199.017Z" fill="#121B43"/>
<path d="M288.39 153.057C292.126 153.177 295.968 154.315 298.903 156.952C300.824 158.69 302.372 161.266 302.372 164.023C302.318 167.618 299.65 170.615 296.662 171.873C293.673 173.131 290.365 172.892 287.163 172.712C284.975 174.45 282.68 176.247 280.119 177.146C277.557 178.045 274.516 177.925 272.381 176.128C269.339 173.551 268.912 168.397 270.407 164.502C271.741 160.967 274.622 157.311 277.344 155.034C280.065 152.757 285.188 152.877 288.39 153.057Z" fill="#5F977F"/>
<path d="M1161.72 161.357C1161.89 161.357 1162.06 161.281 1162.14 161.054C1165.02 152.492 1164.01 141.884 1163.08 134.61C1162.65 131.504 1162.14 128.397 1161.72 125.366C1160.71 118.926 1159.69 112.334 1159.35 105.666C1158.76 93.9974 1160.88 84.4504 1165.19 78.6919C1165.36 78.5404 1165.36 78.313 1165.19 78.1615C1165.02 78.01 1164.77 78.01 1164.6 78.1615C1164.6 78.1615 1164.6 78.2373 1164.51 78.2373C1160.03 84.1473 1157.91 93.8459 1158.51 105.666C1158.85 112.334 1159.86 119.001 1160.88 125.442C1161.38 128.473 1161.89 131.655 1162.23 134.686C1163.16 141.884 1164.09 152.416 1161.3 160.826C1161.21 161.054 1161.38 161.205 1161.55 161.281C1161.72 161.281 1161.72 161.281 1161.72 161.357Z" fill="#E4CB66"/>
<path d="M1163.33 161.886C1163.59 161.886 1163.75 161.659 1163.75 161.432C1162.15 151.127 1159.36 141.05 1155.46 131.275C1154.28 128.245 1153.01 125.365 1151.83 122.562C1149.71 117.561 1147.51 112.333 1145.31 106.044C1142.27 97.0274 1138.29 81.7977 1137.28 68.6137C1137.28 68.3864 1137.02 68.2349 1136.85 68.2349C1136.6 68.2349 1136.43 68.4622 1136.43 68.6137C1137.44 81.8734 1141.42 97.179 1144.55 106.271C1146.75 112.636 1148.95 117.864 1151.06 122.865C1152.25 125.668 1153.52 128.548 1154.62 131.503C1158.51 141.277 1161.3 151.279 1162.91 161.508C1162.91 161.735 1163.16 161.886 1163.33 161.886Z" fill="#E4CB66"/>
<path d="M1158.09 162.496C1158.17 162.496 1158.34 162.42 1158.42 162.42C1167.48 154.388 1171.79 139.158 1175.01 125.52L1175.77 122.489C1179.15 108.32 1182.62 93.6965 1190.23 83.3918C1190.4 83.2403 1190.32 83.013 1190.15 82.8614C1189.98 82.7099 1189.73 82.7856 1189.56 82.9372C1181.86 93.3934 1178.39 108.093 1175.01 122.262L1174.24 125.293C1171.03 138.855 1166.8 153.934 1157.92 161.814C1157.75 161.965 1157.75 162.193 1157.92 162.344C1157.92 162.42 1158 162.496 1158.09 162.496Z" fill="#E4CB66"/>
<path d="M1186.68 62.8565C1184.31 53.4611 1185.16 43.3837 1191.59 35.7309C1198.01 28.0781 1210.96 23.6077 1222.89 26.8658C1236.59 30.5785 1244.88 43.4594 1243.11 54.0672C1241.33 64.5235 1231.52 72.7824 1219.76 77.0255C1209.77 80.5867 1198.44 81.799 1186.85 81.8748C1184.82 81.8748 1184.31 83.8448 1186.09 84.754C1192.18 87.7091 1199.11 90.5126 1195.82 83.466C1192.43 76.6467 1188.79 70.1304 1186.68 62.8565Z" fill="#E4CB66"/>
<path d="M1190.99 80.8882C1198.01 76.1147 1203.09 69.447 1203.51 61.7942C1203.93 54.0657 1198.86 45.3521 1189.72 40.8059C1178.3 35.1232 1163.24 37.169 1155.21 44.1398C1147.17 51.1106 1145.9 61.5669 1149.11 71.1139C1151.82 79.3728 1157.57 86.9498 1164.17 93.9206C1165.02 94.8299 1163.92 95.8907 1162.57 95.5118L1156.39 93.8449C1154.19 93.2387 1153.85 90.9656 1155.97 90.511C1157.32 90.1321 1158.76 89.8291 1160.2 89.7533C1163.33 89.8291 1165.95 90.5868 1169.08 90.1321C1176.86 88.9956 1185.32 84.7525 1190.99 80.8882Z" fill="#5F977F"/>
<path d="M1165.36 37.2459C1167.64 32.7755 1169.34 27.9262 1169 22.7739C1168.66 17.0154 1165.95 11.6357 1161.38 7.61989C1153.85 1.0279 1141.76 -1.16942 1132.11 0.573284C1117.39 3.22523 1108 14.1361 1108 26.2593C1108 38.0794 1116.38 50.2784 1128.39 58.7646C1132.62 61.7954 1137.44 64.4473 1140.91 67.7812C1142.26 69.1451 1143.36 71.2666 1141.67 72.0243C1140.74 72.4789 1139.39 72.1759 1138.2 71.8728C1135.58 71.2666 1124.41 69.827 1126.27 67.3266C1127.04 66.2658 1130.67 65.6597 1132.11 65.1293C1134.14 64.3716 1136.17 63.4623 1138.12 62.4773C1145.73 58.8404 1152.5 53.8395 1157.91 47.7779C1160.79 44.5956 1163.33 41.0344 1165.36 37.2459Z" fill="#E4CB66"/>
<path d="M1166.46 149.466C1162.83 150.981 1160.2 153.936 1159.27 157.346C1156.82 155.754 1154.2 154.088 1151.24 153.557C1148.27 153.027 1144.64 154.012 1143.37 156.436C1142.18 158.558 1143.03 161.134 1144.64 163.028C1146.24 164.923 1148.53 166.135 1150.81 167.271C1148.87 168.105 1148.11 170.454 1149.04 172.197C1150.05 173.939 1151.91 175.076 1154.11 175.227C1161.47 175.985 1172.05 168.408 1175.77 162.953C1177.63 160.301 1177.88 157.194 1177.97 154.088C1178.05 150.981 1178.39 149.541 1174.75 148.632C1171.96 148.102 1169.09 148.405 1166.46 149.466Z" fill="white"/>
<path d="M1155.04 175.91C1162.65 175.91 1172.64 168.561 1176.28 163.332C1178.22 160.453 1178.48 157.271 1178.64 154.24V153.71C1178.73 150.982 1178.81 149.164 1174.92 148.179C1171.96 147.497 1168.92 147.8 1166.21 148.936C1162.74 150.376 1160.03 153.104 1158.85 156.437C1156.65 154.998 1154.11 153.558 1151.23 153.028C1148.1 152.497 1144.21 153.407 1142.69 156.21C1141.51 158.332 1142.1 161.135 1144.04 163.332C1145.57 164.924 1147.43 166.288 1149.54 167.273C1147.93 168.561 1147.51 170.682 1148.36 172.425C1149.46 174.319 1151.57 175.607 1153.94 175.759C1154.28 175.91 1154.62 175.91 1155.04 175.91ZM1171.88 148.936C1172.81 148.936 1173.65 149.012 1174.58 149.239C1177.46 149.997 1177.46 150.906 1177.38 153.634V154.164C1177.29 157.044 1177.04 160.15 1175.18 162.726C1171.54 168.03 1161.05 175.456 1154.11 174.774C1152.16 174.622 1150.39 173.637 1149.54 172.046C1148.78 170.531 1149.37 168.712 1151.06 167.879C1151.32 167.803 1151.4 167.576 1151.4 167.424C1151.4 167.197 1151.32 167.045 1151.06 166.894C1148.87 165.757 1146.67 164.545 1145.06 162.802C1143.79 161.362 1142.69 158.938 1143.87 156.816C1145.14 154.543 1148.44 153.785 1151.06 154.24C1153.94 154.77 1156.56 156.437 1158.85 157.877C1159.02 157.953 1159.27 158.029 1159.44 157.953C1159.61 157.877 1159.78 157.726 1159.86 157.574C1160.71 154.24 1163.25 151.512 1166.72 150.073C1168.32 149.315 1170.1 148.936 1171.88 148.936Z" fill="#121B43"/>
<path d="M1155.63 170.986C1155.8 170.986 1155.89 170.91 1155.97 170.834C1156.65 169.849 1156.82 168.713 1156.48 167.576C1157.83 168.258 1159.27 168.637 1160.79 168.713H1160.88C1162.82 168.713 1165.02 167.652 1165.28 165.833C1165.45 164.621 1164.85 163.409 1163.84 162.575C1162.91 161.817 1161.81 161.211 1160.62 160.832C1160.45 160.757 1160.2 160.832 1160.12 160.984C1160.03 161.136 1160.12 161.363 1160.29 161.439C1161.39 161.817 1162.4 162.424 1163.33 163.106C1164.18 163.787 1164.6 164.697 1164.52 165.758C1164.26 167.197 1162.4 168.106 1160.79 168.106C1159.02 168.106 1157.32 167.273 1155.89 166.591C1155.72 166.515 1155.55 166.515 1155.38 166.667C1155.29 166.818 1155.21 166.97 1155.29 167.121C1156.06 168.182 1156.06 169.546 1155.29 170.607C1155.21 170.758 1155.21 170.986 1155.38 171.061C1155.55 170.986 1155.63 170.986 1155.63 170.986Z" fill="#121B43"/>
<path d="M1178.22 172.045C1179.66 169.469 1180 166.59 1180.67 163.786C1182.2 157.497 1185.33 151.208 1191.25 147.571C1197.17 143.934 1206.22 144.086 1210.71 149.087C1213.16 151.89 1213.92 155.679 1213.33 159.24C1212.74 162.801 1211.13 166.135 1209.27 169.317C1205.04 176.591 1199.79 183.335 1193.7 189.472C1190.4 192.73 1186.77 195.837 1182.37 197.731C1177.97 199.625 1172.55 200.08 1168.15 198.11C1164.35 196.443 1161.72 193.109 1160.37 189.472C1159.02 185.835 1158.68 182.047 1158.59 178.258C1158.51 173.257 1160.29 167.953 1164.85 173.106C1169.25 177.728 1175.01 178.031 1178.22 172.045Z" fill="white"/>
<path d="M1174.5 199.926C1177.37 199.926 1180.17 199.319 1182.7 198.183C1187.44 196.137 1191.25 192.803 1194.29 189.848C1200.47 183.711 1205.8 176.892 1210.03 169.542C1211.72 166.587 1213.58 163.101 1214.09 159.313C1214.68 155.221 1213.67 151.433 1211.3 148.705C1206.48 143.25 1196.92 143.477 1190.99 147.038C1184.31 151.13 1181.35 158.328 1180.17 163.632C1180 164.238 1179.91 164.844 1179.74 165.375C1179.4 167.572 1178.73 169.693 1177.71 171.739C1176.36 174.24 1174.5 175.679 1172.3 175.907C1170.1 176.134 1167.56 174.997 1165.53 172.724C1163.84 170.83 1162.23 170.072 1160.96 170.527C1158.76 171.209 1158.08 174.997 1158.17 178.255C1158.25 181.968 1158.51 185.984 1159.95 189.621C1161.55 193.788 1164.43 196.895 1168.07 198.562C1170.01 199.471 1172.3 199.926 1174.5 199.926ZM1200.55 145.674C1204.28 145.523 1207.83 146.962 1210.2 149.463C1212.4 151.887 1213.24 155.449 1212.74 159.237C1212.23 162.798 1210.45 166.208 1208.76 169.087C1204.61 176.361 1199.37 183.029 1193.28 189.091C1190.32 192.046 1186.68 195.304 1182.11 197.198C1177.54 199.092 1172.3 199.319 1168.49 197.577C1165.19 196.061 1162.48 193.106 1160.96 189.318C1159.61 185.757 1159.35 181.892 1159.27 178.255C1159.18 174.846 1160.03 172.042 1161.3 171.588C1162.06 171.36 1163.16 171.967 1164.51 173.406C1166.88 175.982 1169.76 177.346 1172.47 177.043C1174.24 176.892 1176.87 175.907 1178.81 172.27C1179.83 170.148 1180.59 167.875 1180.93 165.602C1181.01 164.996 1181.18 164.465 1181.35 163.859C1182.53 158.783 1185.33 151.887 1191.67 148.023C1194.29 146.432 1197.42 145.599 1200.55 145.674Z" fill="#121B43"/>
<path d="M1223.48 134.01C1221.71 135.753 1219.59 137.571 1216.89 137.495C1213.08 137.344 1211.05 133.479 1210.12 130.146C1206.39 116.734 1207.33 102.565 1210.96 89.1541C1211.64 86.7294 1212.74 83.9259 1215.36 83.0925C1217.48 82.4105 1219.85 83.3198 1221.79 84.3048C1228.98 87.7144 1239.98 93.7003 1243.62 100.595C1245.23 103.702 1242.94 106.884 1241.5 109.688C1236.94 118.553 1230.84 126.736 1223.48 134.01Z" fill="white"/>
<path d="M1217.14 138.023C1219.93 138.023 1222.13 136.204 1223.99 134.386C1227.88 130.522 1231.44 126.354 1234.65 122.035C1237.44 118.171 1239.98 114.155 1242.18 109.988C1242.35 109.609 1242.6 109.23 1242.77 108.851C1244.21 106.275 1245.82 103.32 1244.3 100.441C1241.5 95.137 1234.06 89.53 1222.21 83.8473C1220.1 82.8623 1217.56 81.8773 1215.19 82.635C1212.23 83.5442 1211.05 86.575 1210.37 89.0754C1206.39 103.926 1206.06 117.868 1209.53 130.37C1210.88 135.219 1213.59 138.023 1216.89 138.099L1217.14 138.023ZM1216.97 83.3927C1218.58 83.5442 1220.18 83.9988 1221.54 84.7565C1233.13 90.2877 1240.4 95.7432 1243.03 100.82C1244.3 103.244 1242.94 105.821 1241.5 108.245C1241.25 108.624 1241.08 109.003 1240.83 109.382C1238.63 113.473 1236.17 117.489 1233.38 121.278C1230.25 125.597 1226.7 129.688 1222.89 133.477C1221.2 135.144 1219.17 136.81 1216.8 136.735C1212.91 136.583 1211.22 131.885 1210.62 129.84C1207.24 117.489 1207.49 103.851 1211.47 89.0754C1212.06 86.8781 1213.08 84.2261 1215.45 83.4684C1216.04 83.4684 1216.55 83.3927 1216.97 83.3927Z" fill="#121B43"/>
<path d="M1224.58 103.091C1224.84 102.864 1225.34 102.637 1225.6 102.864C1225.77 103.016 1225.85 103.167 1225.85 103.319C1225.85 103.47 1225.77 103.698 1225.68 103.849C1225.43 104.455 1224.5 107.183 1223.48 106.274C1222.47 105.365 1223.91 103.698 1224.58 103.091Z" fill="#121B43"/>
<path d="M1215.36 105.14C1215.19 105.292 1215.02 105.368 1214.77 105.368C1214.6 105.292 1214.51 105.14 1214.43 104.989C1214.18 104.383 1214.01 101.049 1215.36 101.503C1216.88 101.882 1216.12 104.383 1215.36 105.14Z" fill="#121B43"/>
<path d="M1210.03 92.4105C1206.39 91.9559 1202.93 90.2889 1201.4 87.8643C1200.05 85.5912 1200.98 82.7119 1203.6 81.4996C1203.86 81.3481 1204.11 81.2723 1204.45 81.1965C1196.92 79.075 1192.44 72.4072 1194.64 66.9518C1196.83 61.4964 1205.55 58.0109 1213.33 59.4506C1213.5 54.374 1219.42 49.9036 1226.44 49.6005C1233.47 49.2974 1240.57 53.0859 1242.18 58.0109C1247 54.9801 1254.87 54.7528 1260.28 57.4048C1265.7 60.0567 1268.41 65.5122 1266.38 69.9068C1270.01 72.7861 1271.79 76.8019 1271.2 80.5904C1270.61 84.3789 1267.56 87.8643 1263.16 89.8343C1265.28 87.5612 1270.52 87.637 1273.57 89.5312C1276.61 91.4255 1277.97 94.3047 1278.56 97.1082C1279.4 101.2 1278.9 105.67 1275.6 109.004C1272.3 112.338 1265.61 114.005 1260.54 111.959C1263.41 114.156 1263.84 117.945 1261.47 120.597C1259.1 123.097 1254.28 124.234 1250.22 123.097C1246.58 125.825 1239.39 125.295 1236.26 122.037C1233.13 118.854 1234.99 113.853 1239.81 112.338C1240.66 111.429 1241.93 110.974 1243.2 111.05C1241.67 109.913 1241.5 107.868 1242.77 106.579C1243.11 106.276 1243.53 105.973 1243.96 105.746C1239.9 104.988 1237.53 101.124 1239.64 98.5478C1238.71 99.6844 1233.38 97.9417 1232.37 97.4113C1230.25 96.4263 1228.64 94.6836 1227.97 92.6378C1225.09 94.0017 1223.23 92.6378 1220.44 92.3347C1216.88 91.9559 1213.59 92.8651 1210.03 92.4105Z" fill="#121B43"/>
<path d="M1237.53 107.411C1238.71 106.653 1240.07 105.895 1241.59 106.047C1242.77 106.198 1243.79 106.805 1244.47 107.638C1245.74 109.229 1245.82 111.351 1244.64 112.942C1243.96 113.775 1242.86 114.382 1241.67 114.533C1239.9 114.76 1238.12 114.078 1236.51 113.321" fill="#121B43"/>
<path d="M1240.91 112.49C1242.35 112.415 1243.45 111.354 1243.36 110.142C1243.28 108.929 1242.09 107.868 1240.74 107.944C1240.49 107.944 1240.4 108.096 1240.4 108.323C1240.4 108.55 1240.57 108.626 1240.83 108.626C1241.84 108.55 1242.69 109.157 1242.77 110.066C1242.86 110.975 1242.18 111.733 1241.16 111.809C1240.83 111.809 1240.57 111.809 1240.23 111.657C1239.98 111.581 1239.81 111.733 1239.73 111.884C1239.64 112.036 1239.73 112.187 1239.9 112.263C1240.23 112.415 1240.57 112.415 1240.91 112.49Z" fill="#121B43"/>
<path d="M1237.27 153.254L1263.41 194.245C1267.56 200.686 1271.62 209.021 1266.88 215.082C1264.34 218.416 1259.78 219.931 1255.55 221.22C1241.25 225.387 1226.44 227.887 1211.38 228.797C1205.72 229.175 1199.88 229.251 1194.38 227.887C1188.88 226.523 1183.55 223.72 1180.67 219.325C1177.12 213.794 1177.71 206.975 1178.73 200.686C1180.34 190.836 1182.62 180.986 1187.61 172.121C1195.06 158.861 1223.4 131.432 1237.27 153.254Z" fill="white"/>
<path d="M1205.12 229.555C1207.24 229.555 1209.35 229.48 1211.47 229.328C1226.53 228.419 1241.42 225.843 1255.71 221.675C1259.94 220.463 1264.68 218.872 1267.39 215.311C1272.47 208.794 1267.81 199.929 1263.92 193.868L1237.78 152.876C1234.14 147.118 1229.24 144.314 1223.23 144.466C1215.19 144.617 1207.15 150.073 1201.74 154.619C1195.82 159.696 1189.98 166.363 1186.94 171.743C1181.52 181.366 1179.32 192.125 1177.97 200.536C1176.95 206.673 1176.19 213.795 1180 219.554C1182.71 223.721 1187.87 226.903 1194.04 228.419C1197.76 229.252 1201.4 229.631 1205.12 229.555ZM1237.27 153.255L1236.76 153.558L1262.91 194.55C1266.63 200.384 1271.03 208.794 1266.37 214.78C1263.84 217.963 1259.35 219.554 1255.38 220.69C1241.08 224.858 1226.36 227.358 1211.38 228.267C1205.89 228.57 1200.05 228.722 1194.55 227.434C1188.63 226.07 1183.81 222.963 1181.27 219.099C1177.71 213.644 1178.39 206.749 1179.41 200.763C1180.76 192.504 1182.96 181.82 1188.29 172.349C1193.62 162.878 1209.86 145.981 1223.4 145.678C1228.9 145.527 1233.38 148.179 1236.85 153.558L1237.27 153.255Z" fill="#121B43"/>
<path d="M1178.73 227.433C1182.2 230.161 1186.6 231.601 1191.16 232.359C1193.7 249.634 1198.36 266.531 1205.04 282.821C1205.29 283.731 1205.88 284.564 1206.65 285.246C1207.41 285.928 1208.68 286.004 1209.52 285.397C1207.83 274.79 1209.18 264.03 1213.5 254.105C1215.78 248.876 1219.84 243.269 1226.1 242.739C1230.84 242.284 1235.24 245.012 1238.88 247.816C1242.52 250.619 1246.07 253.877 1250.64 254.938C1256.48 256.302 1262.74 253.801 1267.05 249.937C1271.37 246.073 1273.9 241.072 1276.36 236.147L1272.89 233.874C1267.73 238.344 1259.94 239.178 1253.68 235.996C1249.88 233.95 1248.44 230.767 1247.25 227.433C1250.38 226.752 1253.51 225.994 1256.64 225.16C1262.57 223.645 1269.08 221.448 1271.87 216.523C1274.83 211.37 1272.72 205.081 1269.5 200.005C1266.29 194.928 1261.97 190.382 1260.28 184.851C1254.02 188.488 1245.22 187.654 1239.3 183.563C1227.8 175.607 1230.67 164.09 1231.26 152.952C1231.35 150.679 1232.2 145.375 1228.64 146.739C1224.5 148.33 1224.67 163.332 1221.79 163.559L1204.36 164.62C1203.01 164.696 1201.91 163.787 1201.82 162.574C1201.82 162.044 1201.91 161.589 1202.25 161.135L1212.31 148.784C1201.91 149.618 1194.46 157.877 1188.71 165.681C1179.41 178.41 1171.03 192.579 1170.69 207.885C1170.78 214.931 1172.72 222.66 1178.73 227.433Z" fill="#E4CB66"/>
<path d="M1315.02 235.085C1319.92 233.115 1325.17 229.933 1330.25 231.675C1335.66 233.494 1337.01 240.54 1333.97 244.935C1330.92 249.33 1325 251.603 1319.33 252.588C1303.43 255.24 1286.93 250.012 1275.85 239.555C1273.82 237.661 1267.3 231.903 1270.6 229.023C1274.33 225.765 1285.15 234.782 1289.13 235.994C1297.59 238.646 1306.81 238.343 1315.02 235.085Z" fill="#121B43"/>
<path d="M1195.56 302.673C1193.19 304.87 1190.74 307.143 1187.61 308.507C1183.97 310.098 1179.74 310.325 1175.6 310.325C1171.11 310.325 1166.55 310.022 1162.06 309.568C1158.85 309.189 1155.21 308.507 1153.69 305.931C1151.66 302.673 1154.79 298.43 1158.68 297.066C1162.57 295.702 1166.88 296.232 1171.03 296.232C1178.31 296.156 1185.41 294.49 1191.76 291.383C1196.83 288.883 1200.72 285.246 1206.56 284.109C1209.44 283.503 1214.01 282.669 1213.24 286.079C1212.74 288.276 1206.56 292.368 1204.78 294.035L1195.56 302.673Z" fill="#121B43"/>
<path d="M1287.1 121.733C1288.54 121.051 1290.14 120.596 1291.75 120.596C1293.36 120.672 1295.05 121.657 1295.22 123.097C1295.22 124.157 1294.8 125.142 1294.12 125.9C1284.14 140.145 1274.15 154.39 1262.4 167.422C1259.18 170.983 1255.37 174.696 1250.38 175.378C1244.54 176.136 1239.05 172.423 1235.58 168.18C1233.55 165.831 1232.19 163.027 1231.6 160.072C1229.99 149.465 1244.12 143.858 1252.33 139.084C1263.41 132.568 1275.08 126.809 1287.1 121.733Z" fill="white"/>
<path d="M1248.77 176.06C1249.28 176.06 1249.87 176.06 1250.38 175.984C1255.71 175.302 1259.6 171.438 1262.82 167.877C1274.58 154.769 1284.81 140.296 1294.54 126.279C1295.3 125.37 1295.73 124.233 1295.73 123.097C1295.56 121.278 1293.53 120.142 1291.67 120.066C1289.89 120.066 1288.2 120.521 1286.76 121.278C1274.66 126.355 1262.99 132.113 1251.82 138.63C1250.64 139.311 1249.28 140.069 1247.84 140.827C1239.64 145.297 1229.4 150.753 1230.84 160.224C1231.43 163.255 1232.79 166.134 1234.98 168.559C1238.88 173.332 1243.95 176.06 1248.77 176.06ZM1291.5 121.127H1291.75C1293.02 121.202 1294.46 121.96 1294.63 123.097C1294.63 124.006 1294.2 124.839 1293.61 125.521C1283.8 139.463 1273.65 153.935 1261.89 167.043C1258.84 170.453 1255.12 174.166 1250.21 174.772C1245.31 175.378 1240.06 172.802 1236 167.801C1233.97 165.528 1232.7 162.8 1232.11 159.997C1230.84 151.359 1240.65 146.055 1248.52 141.736C1249.96 140.978 1251.31 140.221 1252.5 139.539C1263.66 133.023 1275.25 127.264 1287.27 122.263C1288.62 121.581 1290.06 121.202 1291.5 121.127Z" fill="#121B43"/>
<path d="M1315.95 114.233C1314.6 114.839 1313.16 115.218 1311.64 115.369C1320.27 117.566 1328.05 121.885 1334.14 127.72C1336.85 130.296 1339.22 133.251 1339.39 136.888C1339.47 138.555 1338.96 140.146 1337.95 141.51C1334.56 145.677 1327.97 144.465 1322.89 142.57C1317.48 140.525 1312.31 138.024 1307.49 135.069C1304.19 133.023 1295.31 128.477 1294.38 124.765C1293.45 120.825 1300.81 116.354 1304.02 114.687C1307.32 112.944 1310.96 111.808 1314.77 111.353C1315.78 111.202 1316.63 111.808 1316.8 112.717C1316.88 113.248 1316.54 113.854 1315.95 114.233Z" fill="white"/>
<path d="M1331.09 144.844C1334.31 144.844 1336.85 143.783 1338.45 141.813C1339.55 140.373 1340.15 138.631 1339.98 136.812C1339.72 132.721 1336.93 129.614 1334.56 127.265C1328.98 121.886 1321.96 117.87 1314.17 115.445C1314.85 115.218 1315.53 114.99 1316.2 114.687C1317.22 114.233 1317.73 113.096 1317.3 112.111C1316.97 111.05 1315.87 110.444 1314.68 110.596C1310.79 111.126 1307.07 112.263 1303.68 114.081C1300.3 115.824 1292.69 120.37 1293.7 124.765C1294.55 128.174 1300.98 131.887 1305.21 134.312C1305.88 134.766 1306.56 135.069 1307.07 135.373C1311.97 138.328 1317.13 140.904 1322.63 142.95C1325.34 144.086 1328.22 144.692 1331.09 144.844ZM1315.02 111.732C1315.53 111.732 1315.95 112.035 1316.12 112.49C1316.29 112.945 1316.03 113.475 1315.61 113.702C1314.34 114.309 1312.99 114.612 1311.55 114.687C1311.21 114.687 1310.96 114.915 1310.96 115.218C1310.96 115.521 1311.13 115.748 1311.38 115.824C1319.93 118.021 1327.62 122.189 1333.63 128.023C1335.92 130.22 1338.54 133.175 1338.71 136.888C1338.79 138.403 1338.37 139.919 1337.35 141.131C1333.97 145.298 1326.95 143.48 1323.06 142.04C1317.73 139.995 1312.57 137.494 1307.74 134.539C1307.24 134.236 1306.56 133.857 1305.88 133.403C1302.08 131.205 1295.65 127.492 1294.88 124.537C1294.12 121.582 1299.2 117.718 1304.19 115.066C1307.41 113.399 1310.96 112.263 1314.68 111.732H1315.02Z" fill="#121B43"/>
<path d="M1214.94 105.443C1217.39 106.201 1219.42 107.792 1220.69 109.837C1221.71 111.353 1222.04 113.171 1221.71 114.838C1221.03 117.793 1217.65 119.915 1214.26 119.763C1210.88 119.536 1207.92 117.566 1206.65 114.687C1205.63 112.414 1205.46 108.928 1206.99 106.731C1208.51 104.534 1212.57 104.685 1214.94 105.443Z" fill="#FFB0CC"/>
<path d="M1222.3 121.278C1223.4 121.278 1224.41 121.581 1225.34 122.112C1226.02 122.718 1226.36 123.476 1226.27 124.309C1226.19 125.142 1226.02 125.9 1225.6 126.658C1224.67 128.779 1223.06 130.522 1220.86 131.659C1218.66 132.719 1215.7 132.644 1213.92 131.204C1212.74 130.143 1211.98 128.779 1211.72 127.34C1211.3 125.521 1211.13 123.627 1211.38 121.809C1211.47 121.051 1211.72 120.066 1212.82 120.066C1213.5 120.066 1214.09 120.521 1214.77 120.672C1217.31 120.975 1219.76 121.202 1222.3 121.278Z" fill="white"/>
<path d="M1217.73 133.023C1218.91 133.023 1220.18 132.796 1221.2 132.265C1223.48 131.053 1225.26 129.159 1226.19 126.962C1226.61 126.128 1226.87 125.295 1226.95 124.385C1227.04 123.4 1226.61 122.415 1225.77 121.733C1224.75 121.052 1223.57 120.748 1222.38 120.748C1221.54 120.673 1220.69 120.673 1219.84 120.597C1218.15 120.521 1216.55 120.37 1214.94 120.142C1214.68 120.067 1214.52 119.991 1214.26 119.915C1213.84 119.688 1213.33 119.536 1212.91 119.536C1212.23 119.536 1211.05 119.839 1210.79 121.809C1210.62 123.703 1210.71 125.674 1211.13 127.568C1211.38 129.159 1212.23 130.599 1213.5 131.811C1214.68 132.644 1216.21 133.099 1217.73 133.023ZM1222.21 121.885C1223.14 121.885 1224.07 122.112 1224.84 122.567C1225.34 123.022 1225.68 123.703 1225.6 124.385C1225.51 125.143 1225.34 125.901 1224.92 126.583C1224.07 128.553 1222.55 130.22 1220.52 131.28C1218.58 132.265 1216.04 132.114 1214.26 130.902C1213.16 129.917 1212.48 128.629 1212.32 127.265C1211.89 125.522 1211.81 123.703 1211.98 121.885C1212.15 120.673 1212.65 120.673 1212.82 120.673C1213.08 120.673 1213.42 120.824 1213.58 120.9C1213.92 121.052 1214.26 121.203 1214.6 121.279C1216.29 121.506 1217.98 121.733 1219.68 121.733C1220.61 121.733 1221.45 121.809 1222.21 121.885Z" fill="#121B43"/>
<path d="M1214.09 126.13C1214.43 127.418 1215.19 128.555 1216.38 129.388C1217.56 130.222 1219.17 130.298 1220.52 129.691C1221.45 129.085 1222.21 128.176 1222.64 127.191C1223.06 126.509 1223.4 125.6 1222.97 124.918C1222.55 124.388 1221.96 124.084 1221.28 123.933C1219.59 123.403 1216.71 122.342 1214.94 122.569C1212.99 122.721 1213.67 124.615 1214.09 126.13Z" fill="#121B43"/>
<path d="M1259.61 220.613C1263.08 210.233 1261.22 199.019 1254.45 190.078L1253.77 190.533C1260.37 199.322 1262.23 210.233 1258.85 220.386L1259.61 220.613Z" fill="#121B43"/>
<path d="M1242.01 223.945C1244.97 210.534 1243.62 196.668 1238.12 183.939L1237.36 184.242C1242.77 196.82 1244.13 210.534 1241.17 223.794L1242.01 223.945Z" fill="#121B43"/>
<path d="M1219.66 165.739L1225.79 226.408L1224.94 226.476L1218.81 165.807L1219.66 165.739Z" fill="#121B43"/>
<path d="M1208 228.191L1208.84 228.04C1204.7 207.734 1203.77 186.973 1206.22 166.515L1205.38 166.439C1203.01 187.048 1203.85 207.809 1208 228.191Z" fill="#121B43"/>
<path d="M1187.36 225.917L1188.2 225.765C1183.21 204.398 1185.84 182.122 1195.65 162.194L1194.89 161.891C1184.99 181.97 1182.37 204.398 1187.36 225.917Z" fill="#121B43"/>
<path d="M1177.12 220.762L1177.97 220.611C1175.68 209.851 1175.94 198.713 1178.65 188.029L1177.8 187.878C1175.01 198.637 1174.75 209.851 1177.12 220.762Z" fill="#121B43"/>
<path d="M1257.24 243.799C1262.91 243.799 1268.24 241.526 1271.79 237.662L1271.11 237.207C1265.11 243.951 1254.02 245.087 1246.49 239.632C1243.2 237.283 1241 233.873 1240.23 230.161L1239.39 230.312C1240.74 236.601 1245.99 241.678 1252.92 243.345C1254.36 243.723 1255.8 243.875 1257.24 243.799Z" fill="#121B43"/>
<path d="M1253.43 250.239C1258.93 250.239 1264.18 247.587 1266.38 243.571L1265.61 243.268C1263.41 247.208 1258.09 249.784 1252.59 249.481C1247.85 249.254 1242.86 247.057 1238.63 243.42C1234.74 240.086 1231.77 235.994 1228.98 231.979L1228.31 232.357C1231.18 236.373 1234.14 240.541 1238.12 243.95C1242.52 247.739 1247.68 250.012 1252.59 250.239C1252.84 250.239 1253.09 250.239 1253.43 250.239Z" fill="#121B43"/>
<path d="M1206.23 277.213C1206.56 262.362 1210.12 247.663 1216.72 234.024L1215.95 233.721C1209.27 247.436 1205.63 262.211 1205.38 277.213H1206.23Z" fill="#121B43"/>
<path d="M1200.39 259.861L1201.23 259.785C1200.73 251.148 1202.33 242.51 1206.14 234.554L1205.38 234.251C1201.57 242.358 1199.88 251.148 1200.39 259.861Z" fill="#121B43"/>
<path d="M1197.57 235.921L1198.42 235.943L1198.11 245.259L1197.26 245.237L1197.57 235.921Z" fill="#121B43"/>
<path d="M1335.58 141.738C1335.66 141.738 1335.75 141.663 1335.83 141.663C1336 141.511 1336 141.284 1335.83 141.132C1329.49 135.071 1321.87 130.297 1313.41 126.963C1313.24 126.888 1312.99 126.963 1312.9 127.115C1312.82 127.266 1312.9 127.494 1313.07 127.569C1321.45 130.828 1328.98 135.601 1335.15 141.587C1335.41 141.738 1335.49 141.738 1335.58 141.738Z" fill="#121B43"/>
<path d="M1306.9 129.689C1312.48 129.158 1317.05 125.521 1318.24 120.596C1318.24 120.369 1318.07 120.217 1317.9 120.217C1317.73 120.217 1317.56 120.293 1317.47 120.445C1316.37 125.067 1312.06 128.476 1306.9 129.007C1306.65 129.007 1306.56 129.158 1306.56 129.385C1306.48 129.613 1306.73 129.689 1306.9 129.689Z" fill="#121B43"/>
<path d="M1300.97 54.7511C1301.74 52.3264 1303.43 49.9776 1306.05 48.7652C1309.6 47.1741 1314.26 48.3864 1317.05 50.9626C1319.84 53.5387 1320.86 57.3272 1320.94 60.8884C1321.11 63.2373 1320.43 65.5104 1319.16 67.5562C1317.05 70.5112 1313.07 71.9508 1309.27 72.6328C1307.07 73.0874 1304.61 73.3147 1302.67 72.2539C1301.06 71.2689 1300.04 69.7535 1299.79 68.0866C1298.86 64.3738 1299.79 58.3122 1300.97 54.7511Z" fill="white"/>
<path d="M1305.97 73.6183C1307.07 73.6183 1308.17 73.4668 1309.27 73.2395C1314.26 72.2545 1317.73 70.5118 1319.59 67.9356C1320.94 65.814 1321.62 63.3894 1321.45 60.9647C1321.45 56.7216 1319.93 53.0847 1317.39 50.66C1314.26 47.705 1309.35 46.72 1305.71 48.3112C1303.01 49.675 1301.06 51.9481 1300.38 54.6001C1299.11 58.3886 1298.27 64.5259 1299.03 68.2387C1299.37 70.0571 1300.55 71.7241 1302.24 72.7849C1303.34 73.391 1304.61 73.6941 1305.97 73.6183ZM1309.52 48.6142C1312.14 48.69 1314.68 49.675 1316.46 51.4177C1318.83 53.6908 1320.18 57.0247 1320.18 60.9647C1320.35 63.1621 1319.76 65.4352 1318.49 67.3294C1316.8 69.6783 1313.58 71.2695 1309.01 72.1787C1307.15 72.5575 1304.7 72.8606 1302.84 71.8756C1301.4 70.9664 1300.47 69.6025 1300.21 68.0871C1299.45 64.5259 1300.3 58.6159 1301.48 54.9789C1302.16 52.63 1303.85 50.5843 1306.22 49.3719C1307.32 48.8416 1308.42 48.6142 1309.52 48.6142Z" fill="#121B43"/>
<path d="M1297.34 56.644C1295.14 55.3559 1292.6 54.4466 1289.98 54.8255C1286.09 55.2801 1283.13 58.7655 1282.87 62.2509C1282.62 65.7364 1284.73 69.2218 1287.61 71.5706C1291.84 74.9045 1301.23 76.8745 1304.36 71.116C1307.07 65.9637 1301.82 59.2201 1297.34 56.644Z" fill="#E4CB66"/>
<path d="M1320.01 71.5714C1323.39 72.6322 1326.44 74.8295 1327.62 77.8603C1328.81 80.8911 1327.79 84.6796 1324.75 86.3466C1322.38 87.6347 1319.25 87.4831 1316.71 86.5739C1314.17 85.6646 1311.97 83.9977 1309.86 82.3308C1311.04 84.7554 1312.23 87.3316 1311.97 89.9835C1311.72 92.6355 1309.27 95.2874 1306.31 95.0601C1303.34 94.8328 1301.57 92.2566 1300.72 89.7562C1298.86 84.1492 1300.38 76.9511 1304.95 72.6322C1308.76 69.1468 1315.19 70.056 1320.01 71.5714Z" fill="#E4CB66"/>
<path d="M1305.88 77.2565C1305.55 79.7569 1304.45 82.1058 1302.84 84.1515C1299.62 88.3947 1295.31 91.8043 1290.23 94.1532C1287.27 95.517 1283.72 96.4263 1280.84 94.9866C1278.31 93.7743 1277.12 90.9708 1277.29 88.4704C1277.46 85.97 1278.81 83.5454 1280.5 81.4238C1283.72 77.2565 1288.88 72.5588 1294.21 70.6645C1300.05 68.3914 1306.48 70.9676 1305.88 77.2565Z" fill="white"/>
<path d="M1284.14 96.1957C1286.42 96.1199 1288.62 95.5896 1290.57 94.6045C1295.73 92.2557 1300.13 88.7703 1303.34 84.4514C1305.12 82.3298 1306.14 79.9052 1306.56 77.2532C1306.9 74.7528 1305.8 72.2524 1303.51 70.6613C1300.97 68.9943 1297.34 68.767 1293.95 70.0551C1288.28 72.1009 1282.95 77.1017 1279.99 81.0417C1277.96 83.7694 1276.86 86.0425 1276.69 88.3914C1276.53 91.4222 1278.05 94.2257 1280.59 95.5138C1281.69 95.9684 1282.87 96.2715 1284.14 96.1957ZM1298.27 70.4339C1299.87 70.4339 1301.4 70.8128 1302.75 71.6463C1304.61 72.9343 1305.63 75.0559 1305.29 77.2532C1304.95 79.6779 1303.94 81.951 1302.33 83.8452C1299.2 88.0126 1294.97 91.3464 1289.98 93.6195C1287.44 94.7561 1283.89 95.8169 1281.18 94.5288C1278.72 93.3165 1277.79 90.6645 1277.96 88.543C1278.13 86.4214 1279.06 84.2998 1281.01 81.7994C1283.97 78.0109 1288.96 73.2374 1294.46 71.1916C1295.64 70.5855 1296.91 70.3582 1298.27 70.4339Z" fill="#121B43"/>
<path d="M1298.19 91.7265C1301.4 94.3027 1301.23 99.6066 1297.76 101.955C1294.29 104.304 1288.54 103.168 1286.6 99.6066C1287.36 102.334 1287.1 105.289 1285.75 107.865C1285.33 108.85 1284.48 109.684 1283.38 110.214C1281.1 111.048 1278.73 109.078 1277.8 107.032C1276.02 103.016 1277.04 98.47 1278.64 94.4542C1279.15 92.863 1280.08 91.4234 1281.35 90.2869C1284.48 87.8622 1295.22 89.3776 1298.19 91.7265Z" fill="#E4CB66"/>
<path d="M1275.34 82.3334C1272.72 81.1968 1269.25 80.7422 1267.22 82.6364C1265.19 84.5307 1265.87 87.8646 1267.39 90.1377C1269.59 93.32 1280.67 101.2 1285.15 96.957C1289.47 92.8654 1278.89 83.9245 1275.34 82.3334Z" fill="#E4CB66"/>
<path d="M1652.68 763.967C915.559 880.921 1159.57 805.81 862.5 675.5C683.322 437.852 1040.94 244.904 1315.5 331.5C1366.5 347.585 1542.26 428.856 1493.5 480.5C1306.93 578.777 1979.23 712.156 1652.68 763.967Z" fill="#E4CB66"/>
<path d="M361 417.289C475.57 775.144 308.416 510.635 168.843 584.342C-71.3766 598.261 -59.8603 467.446 -46 400C-28.1647 313.211 46.2607 291.381 94.9998 317.5C184.043 398.371 323.071 298.819 361 417.289Z" fill="#121B43"/>
</svg>
