<svg width="30" height="29" viewBox="0 0 30 29" fill="none" xmlns="http://www.w3.org/2000/svg">
<path fill-rule="evenodd" clip-rule="evenodd" d="M27.4806 9.50277C29.0143 10.664 30 12.4707 30 14.5C30 16.5293 29.0143 18.3362 27.4804 19.4974C27.7155 21.3668 27.0909 23.3182 25.6065 24.7531C24.1221 26.1881 22.1034 26.7918 20.1696 26.5645C18.9683 28.0472 17.0993 29 15 29C12.9007 29 11.0316 28.0472 9.8304 26.5644C7.89639 26.7918 5.87777 26.1879 4.39335 24.753C2.90893 23.3182 2.28431 21.3668 2.51947 19.4972C0.985684 18.336 0 16.5293 0 14.5C0 12.4707 0.985716 10.6639 2.51955 9.50272C2.28439 7.63318 2.90901 5.68184 4.39342 4.24691C5.87784 2.81197 7.89647 2.20817 9.83046 2.43549C11.0317 0.952828 12.9008 0 15 0C17.0993 0 18.9684 0.952889 20.1698 2.43564C22.1036 2.20831 24.1223 2.81213 25.6067 4.24705C27.0911 5.68197 27.7157 7.63327 27.4806 9.50277ZM22.8883 11.2504L20.2367 8.68711L13.125 15.5617L9.76333 12.3121L7.11167 14.8754L13.125 20.6882L22.8883 11.2504Z" fill="#E4CB66"/>
</svg>
