<svg width="29" height="29" viewBox="0 0 29 29" fill="none" xmlns="http://www.w3.org/2000/svg">
<g opacity="0.9">
<path d="M1.52226 12.9468L3.33103 11.9258L3.74392 0.0724674L2.17095 0.00138636C1.33854 -0.0363082 0.637758 0.699273 0.605559 1.64594L0.272215 11.1977C0.256116 11.6522 0.40006 12.0949 0.670903 12.4287C0.897236 12.7066 1.19838 12.8832 1.52226 12.9468Z" fill="#121B43"/>
<path d="M9.83652 8.05198L8.17075 6.05525C8.1054 5.97663 8.08457 5.86139 8.11771 5.75908C8.15086 5.65676 8.23135 5.58461 8.327 5.57384L10.7324 5.2852C10.8148 5.27551 10.8877 5.21951 10.9265 5.13766L12.0847 2.71982C12.1311 2.62397 12.2211 2.56581 12.3158 2.57012C12.4114 2.57443 12.4957 2.64012 12.5355 2.73921L13.5194 5.25397C13.5535 5.34013 13.6207 5.40152 13.7031 5.41875L14.5469 5.59753L19.1181 3.01922L19.1967 0.767246L5.58259 0.155518L5.20947 10.8672L9.89713 8.22214C9.8905 8.15968 9.8744 8.09937 9.83652 8.05198Z" fill="#121B43"/>
<path d="M22.5747 1.50995C23.0284 1.50995 23.463 1.61657 23.8598 1.80396C23.6117 1.29993 23.1515 0.946682 22.6069 0.921911L21.0349 0.85083L20.9961 1.96013L21.0889 1.90843C21.5472 1.64888 22.0624 1.50995 22.5747 1.50995Z" fill="#121B43"/>
<path d="M0.837241 15.6702C0.479274 15.8727 0.206538 16.2303 0.0786928 16.6578C-0.0491524 17.0876 -0.0197954 17.5593 0.156347 17.9664L4.55612 28.0481C4.81749 28.6512 5.35254 29.0001 5.90654 29.0001C6.13193 29.0001 6.36015 28.942 6.57512 28.8203L8.45397 27.7627L2.71609 14.6116L0.837241 15.6702Z" fill="#121B43"/>
<path d="M28.326 14.6371L23.9262 4.55435C23.6658 3.95124 23.1288 3.60229 22.5748 3.60229C22.3513 3.60229 22.1212 3.65937 21.9062 3.78215L20.0283 4.84191L25.7672 17.993L27.6451 16.9343C28.003 16.7318 28.2767 16.3754 28.4036 15.9467C28.5314 15.5159 28.504 15.0442 28.326 14.6371Z" fill="#121B43"/>
<path d="M4.36572 13.6792L10.1046 26.8292L24.1192 18.9219L18.3804 5.76978L4.36572 13.6792ZM18.8037 19.3883C18.7592 19.4852 18.6692 19.5455 18.5764 19.5444L15.7553 19.4701C15.6729 19.468 15.5953 19.5121 15.546 19.5875L13.8926 22.1852C13.8357 22.2724 13.741 22.3166 13.6463 22.2972C13.5516 22.2789 13.474 22.2024 13.4465 22.0958L12.6387 19.0221C12.616 18.9327 12.5544 18.8616 12.4758 18.8325L9.79204 17.8471C9.70113 17.8137 9.63389 17.7243 9.61969 17.6166C9.60548 17.5068 9.64715 17.4012 9.72575 17.3388L12.044 15.5165C12.1122 15.4637 12.1529 15.3754 12.1529 15.2806L12.1463 12.0734C12.1463 11.9646 12.2003 11.8644 12.2864 11.816C12.3717 11.7675 12.474 11.7783 12.5497 11.844L14.7922 13.7901C14.8576 13.8472 14.9437 13.8644 15.0223 13.8342L17.7042 12.837C17.7952 12.8036 17.8936 12.8316 17.9609 12.9091C18.0272 12.9867 18.0508 13.1019 18.0196 13.2042L17.0423 16.3705L18.7819 19.0813C18.8397 19.1739 18.8463 19.2924 18.8037 19.3883Z" fill="#121B43"/>
</g>
</svg>
