<svg width="72" height="62" viewBox="0 0 72 62" fill="none" xmlns="http://www.w3.org/2000/svg">
<path d="M52.5158 58.3703C53.6446 59.5751 54.9884 60.8324 56.7085 60.78C59.1274 60.6753 60.4175 58.0036 61.0088 55.6986C63.374 46.4262 62.7827 36.63 60.4713 27.3577C60.0413 25.6813 59.3425 23.743 57.6761 23.1668C56.3323 22.6953 54.8272 23.3239 53.5909 24.005C49.0218 26.3623 42.0339 30.5008 39.7225 35.268C38.7012 37.4158 40.1525 39.616 41.0663 41.5543C43.969 47.6835 47.8393 53.3412 52.5158 58.3703Z" fill="white"/>
<path d="M56.5486 61.1456C54.7747 61.1456 53.3771 59.8883 52.1945 58.6311C49.7219 55.9594 47.4642 53.0781 45.4216 50.0921C43.6478 47.4204 42.0352 44.644 40.6376 41.7627C40.5301 41.5008 40.3688 41.2389 40.2613 40.9769C39.3475 39.1958 38.3262 37.1528 39.2938 35.1621C41.0676 31.4951 45.7979 27.6185 53.3234 23.6895C54.6672 23.0085 56.2798 22.3275 57.7849 22.8513C59.6662 23.48 60.4188 25.5754 60.8488 27.3042C63.3752 37.5718 63.5902 47.2109 61.3864 55.8546C60.5263 59.2073 58.8062 61.1456 56.7098 61.198L56.5486 61.1456ZM56.6561 23.3752C55.6347 23.48 54.6134 23.7943 53.7534 24.3182C46.3892 28.1423 41.7664 31.9141 40.1001 35.424C39.2938 37.1004 40.1538 38.8815 41.0676 40.5579C41.2289 40.8198 41.3364 41.0817 41.4976 41.3437C42.8952 44.1725 44.4541 46.949 46.2279 49.5683C48.2168 52.5543 50.4744 55.3831 52.8933 58.0024C53.9684 59.1549 55.2585 60.3074 56.7636 60.2551C59.2362 60.1503 60.3113 56.9023 60.6876 55.4879C62.8377 46.949 62.6764 37.5195 60.15 27.3042C59.7738 25.785 59.1287 23.9515 57.6236 23.4276C57.2473 23.4276 56.9248 23.3752 56.6561 23.3752Z" fill="#121B43"/>
<path d="M51.817 36.9942C51.6558 36.8371 51.3333 36.6799 51.172 36.8371C51.0645 36.9418 51.0107 37.0466 51.0107 37.1514C51.0107 37.2562 51.0645 37.4133 51.1182 37.5181C51.2795 37.9372 51.8708 39.8231 52.5158 39.1944C53.1609 38.5658 52.2471 37.4133 51.817 36.9942Z" fill="#121B43"/>
<path d="M57.6775 38.4111C57.785 38.5158 57.8925 38.5682 58.0538 38.5682C58.1613 38.5158 58.2151 38.4111 58.2688 38.3063C58.4301 37.8872 58.5376 35.5822 57.6775 35.8965C56.71 36.1585 57.1937 37.8872 57.6775 38.4111Z" fill="#121B43"/>
<path d="M61.0627 29.6099C63.3741 29.2956 65.578 28.1431 66.5456 26.4668C67.4056 24.8952 66.8143 22.9045 65.148 22.0663C64.9867 21.9615 64.8255 21.9092 64.6105 21.8568C69.3945 20.39 72.2434 15.78 70.8458 12.0082C69.4482 8.23637 63.9117 5.82661 58.9664 6.82195C58.8588 3.31207 55.0961 0.221292 50.6346 0.0117473C46.1731 -0.197797 41.6578 2.42151 40.6365 5.82661C37.5725 3.73116 32.5735 3.57401 29.1333 5.40752C25.6931 7.24104 23.973 11.0128 25.263 14.0512C22.9516 16.0419 21.8228 18.8184 22.1991 21.4377C22.5754 24.057 24.5105 26.4667 27.3057 27.8288C25.9618 26.2572 22.6291 26.3096 20.694 27.6192C18.7589 28.9289 17.8988 30.9196 17.5226 32.8579C16.985 35.6867 17.3075 38.7775 19.4039 41.0825C21.5003 43.3875 25.7468 44.54 28.972 43.1255C27.1444 44.6447 26.8756 47.264 28.3807 49.0976C29.8858 50.8263 32.9498 51.6121 35.5299 50.8263C37.8413 52.7122 42.4103 52.3455 44.3992 50.0929C46.3881 47.8927 45.2055 44.4352 42.1416 43.3875C41.604 42.7588 40.7977 42.4445 39.9914 42.4969C40.959 41.7111 41.0665 40.2967 40.2602 39.4061C40.0452 39.1966 39.7764 38.987 39.5077 38.8299C42.0878 38.306 43.5929 35.6343 42.2491 33.8532C42.8404 34.639 46.2268 33.4341 46.8719 33.0674C48.2157 32.3864 49.237 31.1815 49.667 29.7671C51.4946 30.71 52.6772 29.7671 54.4511 29.5575C56.7087 29.2956 58.8051 29.9242 61.0627 29.6099Z" fill="#121B43"/>
<path d="M57.9446 38.6189C56.3858 39.1428 55.0957 40.2429 54.2894 41.6573C53.6443 42.705 53.4293 43.9623 53.6444 45.1148C54.0744 47.1579 56.2245 48.6247 58.3746 48.5199C60.5248 48.3627 62.4061 47.0007 63.2124 45.01C63.8575 43.4385 63.965 41.0287 62.9974 39.5095C62.0299 37.9903 59.4497 38.0951 57.9446 38.6189Z" fill="#FFB0CC"/>
<path d="M56.1723 57.688C55.4197 57.688 54.6134 57.5309 53.9684 57.1642C52.517 56.326 51.3882 55.0163 50.7969 53.4971C50.5282 52.9209 50.3669 52.3446 50.3131 51.716C50.2594 51.035 50.5282 50.354 51.0657 49.8825C51.7107 49.411 52.4633 49.2015 53.2158 49.2015C53.7534 49.1491 54.2909 49.1491 54.8284 49.0967C55.9035 49.0443 56.9248 48.9395 57.9461 48.7824C58.1074 48.73 58.2149 48.6776 58.3761 48.6252C58.6449 48.4681 58.9674 48.3633 59.2362 48.3633C59.6662 48.3633 60.4188 48.5728 60.58 49.9349C60.6875 51.2445 60.6338 52.6066 60.365 53.9162C60.2037 55.0163 59.6662 56.0117 58.8599 56.8498C58.1074 57.4261 57.1398 57.7404 56.1723 57.688ZM53.3233 49.9873C52.732 49.9873 52.1408 50.1444 51.657 50.4587C51.3345 50.773 51.1194 51.2445 51.1732 51.716C51.227 52.2399 51.3345 52.7637 51.6032 53.2352C52.1408 54.5972 53.1083 55.7497 54.3984 56.4831C55.6347 57.1642 57.2473 57.0594 58.3761 56.2212C59.0749 55.5402 59.505 54.6496 59.6125 53.7067C59.8812 52.5018 59.935 51.2445 59.8275 49.9873C59.72 49.1491 59.3975 49.1491 59.2899 49.1491C59.1287 49.1491 58.9137 49.2538 58.8062 49.3062C58.5912 49.411 58.3761 49.5158 58.1611 49.5682C57.0861 49.7253 56.011 49.8825 54.9359 49.8825C54.3446 49.8825 53.8071 49.9349 53.3233 49.9873Z" fill="#121B43"/>
<path d="M58.482 52.9224C58.2669 53.813 57.7832 54.5987 57.0306 55.175C56.2781 55.7512 55.2568 55.8036 54.3967 55.3845C53.8054 54.9654 53.3217 54.3368 53.0529 53.6558C52.7841 53.1843 52.5691 52.5557 52.8379 52.0842C53.1066 51.7175 53.4829 51.508 53.9129 51.4032C54.988 51.0365 56.8156 50.3031 57.9444 50.4602C59.1808 50.565 58.7507 51.8747 58.482 52.9224Z" fill="#121B43"/>
<path d="M14.3354 5.7853C13.9331 4.10894 13.0391 2.48497 11.6535 1.64679C9.77613 0.546685 7.3177 1.38486 5.84264 3.16599C4.36758 4.94712 3.83119 7.56643 3.7865 10.0286C3.6971 11.6525 4.05469 13.2241 4.72517 14.6386C5.84264 16.6816 7.94348 17.677 9.95492 18.1484C11.1171 18.4627 12.4134 18.6199 13.4414 17.8865C14.2907 17.2055 14.8271 16.1578 14.9612 15.0053C15.4529 12.4383 14.9612 8.24745 14.3354 5.7853Z" fill="white"/>
<path d="M11.6978 18.8302C11.1167 18.8302 10.5356 18.7254 9.95451 18.5683C7.31729 17.8872 5.48464 16.6824 4.50127 14.9012C3.78609 13.4344 3.4285 11.7581 3.51789 10.0817C3.51789 7.14809 4.32247 4.63355 5.66343 2.9572C7.31729 0.914136 9.90981 0.233117 11.8319 1.33323C13.2622 2.27618 14.2903 3.84776 14.6479 5.68127C15.3184 8.30058 15.7653 12.5439 15.3631 15.1108C15.1843 16.368 14.5585 17.5205 13.6645 18.2539C13.0834 18.673 12.4129 18.8826 11.6978 18.8302ZM9.82042 1.54277C8.43476 1.59516 7.09379 2.27618 6.15512 3.48106C4.90356 5.05264 4.18838 7.35763 4.18838 10.0817C4.09898 11.6009 4.41187 13.1725 5.08235 14.4821C5.97633 16.1061 7.67488 17.2062 10.0886 17.8349C11.072 18.0968 12.3682 18.3063 13.3516 17.6253C14.1115 16.9967 14.6032 16.0537 14.7373 15.006C15.1396 12.5439 14.6926 8.45774 14.0668 5.9432C13.7092 4.31923 12.8152 2.90481 11.5637 2.06663C10.9826 1.69993 10.4015 1.54277 9.82042 1.54277Z" fill="#121B43"/>
<path d="M16.2574 7.09408C17.4195 6.20351 18.7605 5.57488 20.1461 5.83681C22.2023 6.15112 23.7667 8.56089 23.9008 10.9707C24.0349 13.3804 22.9175 15.7902 21.3977 17.4141C19.1628 19.7191 14.2012 21.0812 12.5474 17.0998C11.117 13.5376 13.8883 8.8752 16.2574 7.09408Z" fill="#5F977F"/>
<path d="M4.27738 17.414C2.48943 18.1474 0.880274 19.6666 0.254492 21.7621C-0.37129 23.8575 0.165094 26.4768 1.77425 27.6293C3.02581 28.5199 4.67967 28.4151 6.02063 27.7865C7.36159 27.1579 8.52376 26.0054 9.64122 24.8529C9.01544 26.5292 8.38966 28.3104 8.52376 30.1439C8.65785 31.9774 9.95411 33.8109 11.5186 33.6537C13.083 33.4966 14.0217 31.7155 14.4687 29.9867C15.4521 26.1101 14.6475 21.1335 12.2337 18.1474C10.2223 15.7377 6.8252 16.3663 4.27738 17.414Z" fill="#5F977F"/>
<path d="M11.7413 21.3448C11.9201 23.0735 12.5012 24.6975 13.3504 26.1119C15.049 29.0455 17.3286 31.4029 20.0106 33.0269C21.575 33.9698 23.4524 34.5985 24.9721 33.6031C26.3131 32.765 26.9389 30.8267 26.8495 29.0979C26.7601 27.3692 26.0449 25.6928 25.1509 24.226C23.4524 21.3448 20.7257 18.0968 17.9097 16.7872C14.8255 15.2156 11.4284 16.9967 11.7413 21.3448Z" fill="white"/>
<path d="M23.2302 34.439C22.0233 34.3866 20.8612 34.0199 19.8331 33.3389C17.1065 31.7149 14.7821 29.3051 13.0836 26.3191C12.1449 24.8523 11.6085 23.176 11.385 21.3425C11.2063 19.6137 11.7873 17.885 12.9942 16.7849C14.3352 15.6324 16.2572 15.4752 18.0452 16.3658C21.04 17.7802 23.856 21.2377 25.4204 23.9618C26.4932 25.8477 27.0743 27.4192 27.1637 29.0432C27.2531 31.1387 26.4485 33.0769 25.1076 33.9675C24.5265 34.2818 23.9007 34.4914 23.2302 34.439ZM15.7655 16.6277C14.9162 16.6277 14.1117 16.8896 13.3965 17.4659C12.4131 18.3564 11.8767 19.8233 12.0555 21.3425C12.2343 23.0188 12.7707 24.5904 13.62 25.9C15.2738 28.7813 17.5088 31.0863 20.146 32.6579C21.487 33.4436 23.3643 34.1771 24.7947 33.2865C26.0909 32.4483 26.5826 30.6148 26.4932 29.148C26.4038 27.6812 25.9121 26.2144 24.8841 24.4856C23.3196 21.8663 20.6824 18.566 17.777 17.1516C17.1512 16.7325 16.4807 16.5753 15.7655 16.6277Z" fill="#121B43"/>
<path d="M15.8098 31.3493C14.1112 33.1305 14.2006 36.7975 16.0333 38.4215C17.8659 40.0454 20.9054 39.2597 21.9335 36.7975C21.5312 38.6834 21.6653 40.7265 22.3805 42.5076C22.604 43.1886 23.051 43.7649 23.6321 44.1316C24.8389 44.7078 26.0905 43.3458 26.5822 41.9313C27.5208 39.1549 26.9845 36.0117 26.1352 33.2352C25.867 32.1351 25.3753 31.1398 24.7048 30.354C23.051 28.6777 17.3742 29.7254 15.8098 31.3493Z" fill="#5F977F"/>
<path d="M27.8794 24.8558C29.2651 24.07 31.0977 23.7557 32.1705 25.0654C33.2433 26.375 32.8857 28.68 32.0811 30.2516C30.9189 32.4518 25.0634 37.9 22.6944 34.9664C20.4147 32.1375 26.0021 25.9559 27.8794 24.8558Z" fill="#5F977F"/>
</svg>
