<svg width="53" height="46" viewBox="0 0 53 46" fill="none" xmlns="http://www.w3.org/2000/svg">
<path d="M6.92637 31.6903C6.92637 31.6903 2.67136 30.1234 3.28803 24.796C1.49969 23.0411 0.389684 20.7221 0.0813499 18.2151C-0.411985 14.0159 1.49969 12.3863 1.49969 12.3863C1.49969 12.3863 2.48636 7.05897 6.80304 6.55757C6.80304 6.55757 10.2564 -0.0859883 20.3698 2.17031C20.3698 2.17031 26.9681 -3.03171 35.0465 2.67172C38.9932 1.85694 43.0632 3.73719 45.0982 7.30967C45.0982 7.30967 53.9782 8.31247 52.2515 17.8391C52.2515 17.8391 54.4715 21.0355 51.2649 24.796C51.2649 24.796 51.9432 31.2515 45.5298 31.4396C39.1165 31.6276 13.8947 33.5705 13.8947 33.5705L6.92637 31.6903Z" fill="#A04040"/>
<path d="M40.1058 35.3869C40.0441 35.9509 39.9208 36.4523 39.7358 36.9537C38.8724 39.7741 36.1591 45.4775 27.6491 45.8536C19.7557 46.2296 15.624 41.4037 13.774 38.2699C13.2807 37.4551 12.849 36.5777 12.5407 35.7002C12.5407 35.7002 9.27232 37.5805 7.60731 35.7002C5.94231 33.82 6.18897 27.9912 11.8623 30.4982L12.4173 32.0024C13.4657 30.3729 14.0823 28.4926 14.144 26.5497C14.144 26.5497 15.624 25.4842 16.9807 22.0371C16.9807 22.0371 20.3107 22.3505 24.6274 17.1484C24.6274 17.1484 28.389 22.7892 38.3791 23.98C38.3791 23.98 39.6741 29.7461 40.2908 28.806C40.2908 28.806 41.7091 25.8603 44.5458 27.1764C47.3825 28.4926 45.9024 38.0192 40.1058 35.3869Z" fill="white"/>
<path d="M35.9735 24.984C34.8635 24.984 33.8151 24.984 32.8284 25.0467C32.3351 25.1094 31.7801 25.1094 31.2868 25.1721C30.7934 25.2347 30.2384 25.2974 29.6834 25.3601C29.5601 25.3601 29.4368 25.2974 29.4368 25.1721C29.4368 25.1094 29.4368 25.0467 29.4984 24.984C29.9301 24.608 30.4851 24.2946 31.0401 24.1066C31.5951 23.9186 32.1501 23.7932 32.7668 23.7932C33.3218 23.7932 33.9384 23.7932 34.4935 23.9186C35.0485 24.0439 35.6035 24.2319 36.0968 24.5453C36.2201 24.608 36.2201 24.7333 36.1585 24.8587C36.0968 24.9214 36.0351 24.984 35.9735 24.984Z" fill="#732A09"/>
<path d="M18.0895 25.6102C18.5212 25.2341 19.0762 24.9834 19.6312 24.7954C20.1862 24.6074 20.7412 24.482 21.3578 24.4194C21.9745 24.3567 22.5295 24.4194 23.0845 24.5447C23.6395 24.6701 24.1945 24.8581 24.6879 25.2341C24.8112 25.2968 24.8112 25.4222 24.7495 25.5475C24.6879 25.6102 24.6262 25.6729 24.5645 25.6729C24.0095 25.6729 23.4545 25.6729 22.9612 25.6729C22.4678 25.6729 21.9128 25.6729 21.4195 25.7355C20.3712 25.7982 19.3845 25.9236 18.2745 26.0489C18.1512 26.0489 18.0278 25.9862 18.0278 25.8609C18.0278 25.7355 18.0895 25.6102 18.0895 25.6102Z" fill="#732A09"/>
<path d="M32.458 29.433C32.3347 30.3731 32.7663 31.2506 33.4447 31.3132C34.123 31.3759 34.8013 30.7492 34.9863 29.809C35.048 29.5583 35.048 29.245 34.9863 28.9943L33.6913 29.433L34.493 28.1168C34.3697 27.9915 34.1847 27.9288 34.0613 27.9288C33.2597 27.8034 32.5813 28.4929 32.458 29.433Z" fill="#732A09"/>
<path d="M20.3123 29.8095C20.1889 30.7496 20.6206 31.627 21.2989 31.6897C21.9773 31.7524 22.6556 31.1256 22.8406 30.1855C22.9023 29.9348 22.9023 29.6214 22.8406 29.3707L21.5456 29.8095L22.3473 28.4933C22.2239 28.3679 22.0389 28.3053 21.8539 28.3053C21.1756 28.1799 20.4973 28.8693 20.3123 29.8095Z" fill="#732A09"/>
<path d="M11.1272 32.0028C9.58556 30.8747 8.22889 31.5014 7.85889 33.0056L11.1272 32.0028Z" fill="white"/>
<path d="M7.85594 33.3192H7.79428C7.60928 33.2565 7.54761 33.1312 7.54761 32.9432C7.73261 32.1284 8.22595 31.5016 8.84262 31.2509C9.58262 31.0002 10.446 31.1256 11.2476 31.7523C11.371 31.8777 11.4326 32.0657 11.3093 32.1911C11.186 32.3164 11.001 32.3791 10.8776 32.2537C10.261 31.7523 9.58262 31.627 9.02761 31.815C8.53428 32.003 8.22594 32.4418 8.10261 33.0058C8.16428 33.1939 8.04094 33.3192 7.85594 33.3192Z" fill="#732A09"/>
<path d="M9.82812 34.76C8.34812 34.0706 8.77978 31.689 8.77978 31.689L9.82812 34.76Z" fill="white"/>
<path d="M9.82766 35.0737C9.76599 35.0737 9.76599 35.0737 9.70432 35.0737C8.03932 34.3216 8.47099 31.752 8.47099 31.6266C8.47099 31.4386 8.65599 31.3132 8.84099 31.3759C9.02599 31.3759 9.14932 31.5639 9.08765 31.752C9.08765 31.752 8.71765 33.9456 9.95099 34.5097C10.136 34.5724 10.1977 34.7604 10.0743 34.9484C10.0743 35.0111 9.95099 35.0737 9.82766 35.0737Z" fill="#732A09"/>
<path d="M41.2783 30.2486C41.71 29.1204 43.005 28.4937 44.115 28.9951C44.4233 29.1204 44.7317 29.3084 44.9783 29.5591" fill="white"/>
<path d="M41.2777 30.5611C41.2161 30.5611 41.2161 30.5611 41.1544 30.5611C40.9694 30.4984 40.9077 30.3104 40.9694 30.185C41.2161 29.5583 41.7094 29.0569 42.3261 28.7435C42.9428 28.4928 43.6211 28.4301 44.2378 28.6808C44.6078 28.8062 44.9161 29.0569 45.2244 29.3703C45.3478 29.4956 45.3478 29.6836 45.2244 29.809C45.1011 29.9343 44.9161 29.9343 44.7928 29.809C44.6078 29.5583 44.3611 29.4329 44.0528 29.3076C43.5594 29.1196 43.0661 29.1196 42.5728 29.3703C42.0794 29.5583 41.7711 29.9343 41.5861 30.4357C41.5244 30.4984 41.4011 30.5611 41.2777 30.5611Z" fill="#732A09"/>
<path d="M42.574 33.9443C44.1773 33.5056 44.609 30.4346 43.6223 28.8677L42.574 33.9443Z" fill="white"/>
<path d="M42.5736 34.2582C42.4503 34.2582 42.327 34.1956 42.2653 34.0075C42.2036 33.8195 42.327 33.6942 42.512 33.6315C43.067 33.5061 43.3753 32.9421 43.5603 32.5033C43.992 31.4379 43.9303 29.9337 43.3753 28.9935C43.3136 28.8682 43.3136 28.6802 43.4986 28.5548C43.622 28.4921 43.807 28.4921 43.9303 28.6802C44.547 29.7456 44.6703 31.4379 44.177 32.754C43.8687 33.5688 43.3136 34.0702 42.697 34.2582C42.6353 34.1956 42.5736 34.2582 42.5736 34.2582Z" fill="#732A09"/>
<path d="M23.4562 32.0021C23.5795 29.7458 25.4295 28.0535 27.6495 28.1789C27.8345 28.1789 28.0195 28.2416 28.2045 28.2416C29.5612 28.555 30.6712 29.5578 31.1028 30.9366C32.0278 33.6316 29.9928 36.1386 26.7862 35.7626C24.8128 35.6372 23.3328 33.945 23.4562 32.0021Z" fill="#E4CB66"/>
<path d="M39.7982 36.9541C38.9349 39.7745 36.2215 45.4779 27.7115 45.854C19.8181 46.23 15.6864 41.4041 13.8364 38.2703C13.8364 38.2703 15.1314 35.1365 17.7831 34.4471C20.4348 33.7577 23.7648 37.0795 27.7731 36.8288C31.7815 36.5781 33.5082 32.8803 36.0365 32.9429C38.5648 33.0056 39.7982 36.9541 39.7982 36.9541Z" fill="#E4CB66"/>
<path d="M24.1344 38.8356C26.1078 40.0264 29.1911 39.3997 30.6711 38.5849C31.0411 38.3969 31.5344 38.5222 31.7194 38.8983C31.9661 39.2743 31.8428 39.7757 31.4728 39.9638C30.1778 40.5905 28.8211 40.9666 27.4028 41.0919C25.2444 41.2799 24.0111 40.7159 23.3328 40.2145C22.9628 39.9638 22.9011 39.4624 23.1478 39.0863L23.2094 39.0236L23.2711 38.961C23.3944 38.7103 23.8261 38.6476 24.1344 38.8356Z" fill="#732A09"/>
<path d="M26.541 41.4054C24.8143 41.4054 23.7043 40.904 23.0876 40.4653C22.8409 40.2772 22.7176 40.0265 22.6559 39.7758C22.5943 39.4625 22.6559 39.2118 22.8409 38.9611C22.8409 38.8984 22.9026 38.8984 22.9026 38.8357L22.9643 38.773C23.3343 38.397 23.8893 38.2716 24.3826 38.585C26.2326 39.6505 29.131 39.1491 30.611 38.3343C31.1043 38.0209 31.7826 38.209 32.091 38.773C32.2143 39.0237 32.276 39.3371 32.2143 39.5878C32.1526 39.9012 31.9676 40.0892 31.721 40.2772C30.3643 40.9667 28.946 41.3427 27.466 41.4054C27.096 41.4054 26.7876 41.4054 26.541 41.4054ZM23.7043 39.0237C23.5809 39.0237 23.4576 39.0864 23.3343 39.2118L23.2726 39.2744C23.1493 39.3998 23.1493 39.5878 23.1493 39.7132C23.1493 39.8385 23.2726 39.9639 23.3343 40.0265C24.0126 40.4653 25.1843 41.0293 27.2193 40.8413C28.6376 40.7786 29.9326 40.4026 31.166 39.7758C31.2893 39.7132 31.351 39.5878 31.351 39.4625C31.4126 39.3371 31.351 39.2118 31.2893 39.0864C31.166 38.8357 30.8576 38.773 30.6726 38.8984C29.1926 39.7758 25.986 40.4026 23.8276 39.1491C23.8893 39.0237 23.8276 39.0237 23.7043 39.0237Z" fill="#732A09"/>
</svg>
