<svg width="25" height="25" viewBox="0 0 33 34" fill="none" xmlns="http://www.w3.org/2000/svg">
<path fill-rule="evenodd" clip-rule="evenodd" d="M22.9181 2.63647C27.3347 2.63647 30.9147 6.3313 30.9147 10.8829V23.8543C30.9147 28.4089 27.3318 32.1008 22.9181 32.1008H10.3398C5.92326 32.1008 2.34326 28.4059 2.34326 23.8543V10.8829C2.34326 6.32835 5.92612 2.63647 10.3398 2.63647H22.9181ZM16.629 9.7079C12.5261 9.7079 9.20041 13.1375 9.20041 17.3686C9.20041 21.5997 12.5261 25.0293 16.629 25.0293C20.7318 25.0293 24.0575 21.5997 24.0575 17.3686C24.0575 13.1375 20.7318 9.7079 16.629 9.7079ZM16.629 12.065C17.3043 12.065 17.9731 12.2022 18.5971 12.4688C19.221 12.7353 19.788 13.1259 20.2655 13.6184C20.7431 14.1109 21.1219 14.6956 21.3804 15.339C21.6388 15.9825 21.7718 16.6721 21.7718 17.3686C21.7718 18.0651 21.6388 18.7547 21.3804 19.3982C21.1219 20.0417 20.7431 20.6263 20.2655 21.1188C19.788 21.6113 19.221 22.0019 18.5971 22.2685C17.9731 22.535 17.3043 22.6722 16.629 22.6722C15.265 22.6722 13.9569 22.1134 12.9924 21.1188C12.028 20.1242 11.4861 18.7752 11.4861 17.3686C11.4861 15.962 12.028 14.613 12.9924 13.6184C13.9569 12.6238 15.265 12.065 16.629 12.065ZM24.9147 6.76147C24.3843 6.76147 23.8756 6.97877 23.5005 7.36557C23.1254 7.75236 22.9147 8.27697 22.9147 8.82397C22.9147 9.37098 23.1254 9.89559 23.5005 10.2824C23.8756 10.6692 24.3843 10.8865 24.9147 10.8865C25.4451 10.8865 25.9538 10.6692 26.3289 10.2824C26.704 9.89559 26.9147 9.37098 26.9147 8.82397C26.9147 8.27697 26.704 7.75236 26.3289 7.36557C25.9538 6.97877 25.4451 6.76147 24.9147 6.76147Z" fill="white"/>
</svg>
