<svg width="1440" height="813" viewBox="0 0 1440 813" fill="none" xmlns="http://www.w3.org/2000/svg">
<path d="M730.687 84.5354C898.143 121.663 993.118 277.171 1124.08 292.238C1255.05 307.305 1440 240.581 1440 240.581V813.109H-2.11975V14.109C147.757 -29.9416 125.164 48.1586 276.807 84.5352C418.548 118.537 563.231 47.4075 730.687 84.5354Z" fill="#192657"/>
<path d="M-2.11975 14.109C147.757 -29.9416 125.164 48.1586 276.807 84.5352C418.548 118.537 563.231 47.4075 730.687 84.5354C898.143 121.663 993.118 277.171 1124.08 292.238C1255.05 307.305 1440 240.581 1440 240.581V813.109H-2.11975V14.109ZM-2.11975 14.109C-21.9137 19.9267 16.1434 4.04152 -2.11975 14.109Z" stroke="#121B43"/>
</svg>
