<svg width="25" height="25" viewBox="0 0 36 36" fill="none" xmlns="http://www.w3.org/2000/svg">
<path d="M34.8968 9.88979C34.6986 9.14525 34.3084 8.46574 33.7654 7.91914C33.2224 7.37253 32.5455 6.97795 31.8022 6.77479C29.0737 6.03833 18.1289 6.03833 18.1289 6.03833C18.1289 6.03833 7.18411 6.03833 4.45411 6.77479C3.71116 6.97817 3.03454 7.37285 2.49179 7.91944C1.94903 8.46604 1.55913 9.14542 1.36099 9.88979C0.628906 12.6373 0.628906 18.3685 0.628906 18.3685C0.628906 18.3685 0.628906 24.0998 1.36099 26.8473C1.55926 27.5918 1.94938 28.2713 2.49241 28.8179C3.03543 29.3645 3.71235 29.7591 4.45557 29.9623C7.18411 30.6987 18.1289 30.6987 18.1289 30.6987C18.1289 30.6987 29.0737 30.6987 31.8037 29.9623C32.5469 29.7591 33.2238 29.3645 33.7669 28.8179C34.3099 28.2713 34.7 27.5918 34.8983 26.8473C35.6289 24.0998 35.6289 18.3685 35.6289 18.3685C35.6289 18.3685 35.6289 12.6373 34.8968 9.88979ZM14.5487 23.5719V13.1652L23.6968 18.3685L14.5487 23.5719Z" fill="white"/>
</svg>
