<svg width="95" height="193" viewBox="0 0 95 193" fill="none" xmlns="http://www.w3.org/2000/svg">
<path d="M24.6248 192.914C24.7169 192.889 24.8781 192.753 24.9703 192.729C32.3821 180.949 32.439 162.362 31.7829 145.907L31.6883 142.236C31.0549 125.128 30.3751 107.478 35.5273 93.5317C35.6654 93.3099 35.504 93.076 35.2735 92.953C35.043 92.8299 34.7896 92.9902 34.6515 93.212C29.4533 107.355 30.1563 125.092 30.7897 142.2L30.8843 145.87C31.5172 162.239 31.5062 180.629 24.2326 192.187C24.0945 192.409 24.1638 192.668 24.3943 192.791C24.4174 192.877 24.5326 192.938 24.6248 192.914Z" fill="#E4CB66"/>
<path d="M24.247 66.783C18.2669 54.6976 15.5102 40.7551 19.6668 28.4924C23.8234 16.2298 36.1743 6.40763 50.2436 7.38434C66.3972 8.46487 80.0424 23.5741 81.9872 38.5069C83.8768 53.2337 76.2863 67.2996 65.1318 76.47C55.6476 84.1994 43.846 89.1277 31.3565 92.5847C29.1637 93.1723 29.333 95.9969 31.5828 96.7187C39.2374 98.9727 47.7505 100.776 41.6208 92.1525C35.4825 83.8626 29.1804 76.0581 24.247 66.783Z" fill="#E9DED0"/>
<g clip-path="url(#clip0_2066_2935)">
<path d="M60.5593 57.0741L58.8439 54.9725L57.1277 52.8691L55.4123 50.7684V50.7675L53.7271 48.7022V48.7013C51.2622 47.2737 50.0821 49.4095 48.9048 49.5918L49.3026 50.7596L52.5498 53.8687L54.4897 55.727H54.4905L56.4304 57.5863H56.4313L58.3704 59.4446H58.3712L60.2237 61.2198L61.7118 60.9856L62.1972 59.082L60.5593 57.0741Z" fill="#F4EDE4"/>
<path d="M49.3027 40.2708C49.1713 40.4619 49.0537 40.6626 48.9475 40.8714C47.7188 43.2773 48.0502 46.7278 47.8273 48.4243L46.3822 48.8656L44.8783 48.7011C44.3614 48.3747 43.834 48.0058 43.3024 47.5973C42.1586 46.718 40.9959 45.6575 39.8724 44.4404C35.2831 39.4686 33.0925 33.7802 34.981 31.7343C35.261 31.4309 35.6145 31.2249 36.0293 31.1098C36.0326 31.1098 36.0351 31.109 36.0383 31.1081C38.4224 30.4545 42.8052 32.8037 46.7096 37.0335C47.1881 37.5509 47.6404 38.0772 48.0641 38.6062C48.0674 38.6106 48.0706 38.6141 48.0739 38.6186C48.5156 39.1678 48.9247 39.7206 49.3027 40.2708Z" fill="#121B43"/>
<path d="M49.685 41.6703C48.3297 43.7993 48.0445 46.7756 47.8273 48.4243L46.3822 48.8657L45.5469 49.4554C45.5437 49.4527 45.3346 49.0862 45.3313 49.0844L44.8783 48.7011C44.3614 48.3747 43.834 48.0059 43.3024 47.5973C42.1586 46.7181 40.9959 45.6576 39.8724 44.4405C35.2831 39.4687 33.0925 33.7803 34.981 31.7344C35.261 31.431 35.6145 31.225 36.0293 31.1099C36.0326 31.1099 36.0351 31.109 36.0383 31.1082C35.4349 33.691 37.6027 38.439 41.507 42.6696C42.4361 43.6762 43.3923 44.574 44.3427 45.3524C44.8023 43.7726 45.7037 41.9576 46.9709 40.1134C47.3122 39.6154 47.6804 39.1157 48.074 38.6186C48.5157 39.1678 48.9247 39.7207 49.3027 40.2709C49.1713 40.4619 49.7912 41.4616 49.685 41.6703Z" fill="#121B43"/>
<path d="M50.3871 48.848L53.8048 52.5099L52.5499 53.8694L50.6426 52.0429L48.9419 50.4136L50.3871 48.848Z" fill="#F4EDE4"/>
<path d="M63.9991 59.0244C64.4032 59.4622 64.4032 60.1734 63.9991 60.6112L61.6362 63.171C61.2312 63.6097 60.5755 63.6097 60.1706 63.171L60.0293 63.0179C59.6243 62.5792 59.6243 61.869 60.0293 61.4303L60.2236 61.2198L62.1971 59.0819L62.3922 58.8705C62.7964 58.4326 63.4528 58.4326 63.857 58.8705L63.9991 59.0244Z" fill="#121B43"/>
<path d="M46.3821 46.8588L44.8781 48.7012L43.1921 50.7674L41.4767 52.869L39.7613 54.9724L38.045 57.074L36.4072 59.0819L36.9196 61.0427L38.3806 61.2197L40.234 59.4445L42.174 57.5861L44.1147 55.7278L46.0555 53.8694L49.3026 50.7595L49.6635 50.4136L49.0716 48.6448L46.3821 46.8588Z" fill="#F4EDE4"/>
<path d="M58.8438 54.9724L60.5592 57.074L58.3711 59.4445H58.3703L56.4312 57.5861L58.8438 54.9724Z" fill="#121B43"/>
<path d="M55.4123 50.7683L57.1278 52.8691L54.4905 55.7269H54.4897L52.5498 53.8686L55.4123 50.7683Z" fill="#121B43"/>
<path d="M58.3711 59.4455L59.3182 58.4194L61.0728 60.3008L60.2245 61.2198L58.3711 59.4455Z" fill="#F4EDE4"/>
<path d="M54.4897 55.7278L55.6426 54.4797L57.4805 56.4495L56.4314 57.5862L54.4897 55.7278Z" fill="#F4EDE4"/>
<path d="M60.2249 61.2197L61.0732 60.3007L62.6882 62.0317L61.6366 63.1709C61.2324 63.6097 60.576 63.6097 60.1718 63.1709L60.0297 63.0179C59.6255 62.5792 59.6255 61.8689 60.0297 61.4302L60.2249 61.2197Z" fill="#121B43"/>
<path d="M56.4312 57.5861L57.4803 56.4495L59.3182 58.4193L58.3711 59.4454L56.4312 57.5861Z" fill="#121B43"/>
<path d="M53.8047 52.5099L55.6426 54.4797L54.4897 55.7278L52.5498 53.8694L53.8047 52.5099Z" fill="#121B43"/>
<path d="M38.045 57.074L38.9921 58.1L37.2555 60.0008L36.4072 59.0819L38.045 57.074Z" fill="#F4EDE4"/>
<path d="M41.4766 52.869L42.6287 54.1179L40.8104 56.109L39.7612 54.9724L41.4766 52.869Z" fill="#F4EDE4"/>
<path d="M47.8271 48.4244L44.4469 52.1269L43.1919 50.7674L44.8779 48.7012L46.3819 46.8588L47.8271 48.4244Z" fill="#F4EDE4"/>
<path d="M38.5749 63.0179L38.4336 63.171C38.0295 63.6097 37.373 63.6097 36.9688 63.171L34.606 60.6112C34.201 60.1733 34.201 59.4622 34.606 59.0243L34.7473 58.8704C35.1523 58.4325 35.8079 58.4325 36.2128 58.8704L36.4071 59.0818L38.5748 61.4301C38.9798 61.869 38.9798 62.5793 38.5749 63.0179Z" fill="#121B43"/>
<path d="M42.1738 57.5861L40.2339 59.4445L38.992 58.1L38.0449 57.074L39.7612 54.9724L40.8103 56.109L42.1738 57.5861Z" fill="#121B43"/>
<path d="M46.0554 53.8694L44.1146 55.7278L42.6286 54.118L41.4766 52.8691L43.192 50.7675L44.4469 52.1269L46.0554 53.8694Z" fill="#121B43"/>
<path d="M36.4072 59.0819L37.2555 60.0009L35.6576 61.7504L34.606 60.6112C34.201 60.1733 34.201 59.4622 34.606 59.0243L34.7473 58.8704C35.1523 58.4325 35.8079 58.4325 36.2128 58.8704L36.4072 59.0819Z" fill="#121B43"/>
<path d="M39.7612 54.9724L40.8103 56.109L38.992 58.1L38.0449 57.074L39.7612 54.9724Z" fill="#121B43"/>
<path d="M44.4469 52.1269L42.6286 54.118L41.4766 52.8691L43.192 50.7675L44.4469 52.1269Z" fill="#121B43"/>
<path d="M63.6245 31.7354C65.5122 33.7804 63.3224 39.4687 58.733 44.4405C57.0878 46.2228 55.3569 47.6717 53.7272 48.7013C52.242 49.6398 50.841 50.2315 49.6636 50.4137L46.3822 46.8588H46.3813C46.6239 45.0154 47.6567 42.667 49.3027 40.2709C50.0465 39.1874 50.9169 38.0941 51.8958 37.0336C56.4852 32.0618 61.736 29.6886 63.6245 31.7354Z" fill="#121B43"/>
<path d="M51.0946 42.2121C51.8384 41.1286 52.7088 40.0353 53.6877 38.9748C57.5306 34.8118 61.8366 32.4714 64.2446 33.0215C64.1461 32.5149 63.9476 32.0854 63.6406 31.7528C61.7521 29.7061 56.5014 32.0792 51.912 37.0511C50.933 38.1116 50.0626 39.2049 49.3188 40.2884C47.6728 42.6846 46.64 45.0329 46.3975 46.8762H46.3983L48.1733 48.7992C48.416 46.956 49.4487 44.6079 51.0946 42.2121Z" fill="#121B43"/>
</g>
<defs>
<clipPath id="clip0_2066_2935">
<rect width="30" height="32.5" fill="white" transform="translate(34.3022 31)"/>
</clipPath>
</defs>
</svg>
