<svg width="95" height="193" viewBox="0 0 95 193" fill="none" xmlns="http://www.w3.org/2000/svg">
<path d="M24.6248 192.914C24.7169 192.889 24.8781 192.753 24.9703 192.729C32.3821 180.949 32.439 162.362 31.7829 145.907L31.6883 142.236C31.0549 125.128 30.3751 107.478 35.5273 93.5317C35.6654 93.3099 35.504 93.076 35.2735 92.953C35.043 92.8299 34.7896 92.9902 34.6515 93.212C29.4533 107.355 30.1563 125.092 30.7897 142.2L30.8843 145.87C31.5172 162.239 31.5062 180.629 24.2326 192.187C24.0945 192.409 24.1638 192.668 24.3943 192.791C24.4174 192.877 24.5326 192.938 24.6248 192.914Z" fill="#E4CB66"/>
<path d="M24.247 66.783C18.2669 54.6976 15.5102 40.7551 19.6668 28.4924C23.8234 16.2298 36.1743 6.40763 50.2436 7.38434C66.3972 8.46487 80.0424 23.5741 81.9872 38.5069C83.8768 53.2337 76.2863 67.2996 65.1318 76.47C55.6476 84.1994 43.846 89.1277 31.3565 92.5847C29.1637 93.1723 29.333 95.9969 31.5828 96.7187C39.2374 98.9727 47.7505 100.776 41.6208 92.1525C35.4825 83.8626 29.1804 76.0581 24.247 66.783Z" fill="#E9DED0"/>
<path d="M48.0204 30.8334C42.0444 30.8392 38.9524 30.9461 36.9908 32.9077C35.0292 34.8693 34.9223 37.9613 34.9165 43.9373H41.8773C41.3801 43.3162 41.0086 42.5836 40.806 41.7733C40.0435 38.7232 42.8063 35.9604 45.8564 36.7229C46.6668 36.9255 47.3993 37.297 48.0204 37.7942V30.8334Z" fill="#121B43"/>
<path d="M34.9165 46.0623C34.9223 52.0382 35.0292 55.1301 36.9908 57.0917C38.9524 59.0532 42.0444 59.1602 48.0204 59.166V48.0082C46.9158 50.2144 44.6346 51.7289 41.9995 51.7289C41.4127 51.7289 40.937 51.2532 40.937 50.6664C40.937 50.0796 41.4127 49.6039 41.9995 49.6039C44.1766 49.6039 46.0008 48.0928 46.4805 46.0623H34.9165Z" fill="#121B43"/>
<path d="M50.145 59.166C56.1209 59.1602 59.2128 59.0532 61.1745 57.0917C63.136 55.1301 63.243 52.0382 63.2488 46.0623H51.6848C52.1645 48.0928 53.9887 49.6039 56.1659 49.6039C56.7526 49.6039 57.2284 50.0796 57.2284 50.6664C57.2284 51.2532 56.7526 51.7289 56.1659 51.7289C53.5307 51.7289 51.2495 50.2144 50.145 48.0082V59.166Z" fill="#121B43"/>
<path d="M63.2488 43.9373C63.243 37.9613 63.136 34.8693 61.1745 32.9077C59.2128 30.9461 56.1209 30.8392 50.145 30.8334V37.7942C50.7661 37.297 51.4986 36.9255 52.3088 36.7229C55.3591 35.9604 58.1218 38.7232 57.3593 41.7733C57.1567 42.5836 56.7852 43.3162 56.288 43.9373H63.2488Z" fill="#121B43"/>
<path d="M45.3409 38.7844C46.9155 39.1781 48.0203 40.5929 48.0203 42.216V43.9372H46.299C44.6759 43.9372 43.2611 42.8325 42.8674 41.2579C42.494 39.7641 43.8471 38.411 45.3409 38.7844Z" fill="#121B43"/>
<path d="M50.145 42.216V43.9372H51.8661C53.4892 43.9372 54.904 42.8325 55.2977 41.2579C55.6712 39.7641 54.3181 38.411 52.8244 38.7844C51.2496 39.1781 50.145 40.5929 50.145 42.216Z" fill="#121B43"/>
</svg>
