<svg width="95" height="193" viewBox="0 0 95 193" fill="none" xmlns="http://www.w3.org/2000/svg">
<path d="M24.6248 192.914C24.7169 192.889 24.8781 192.753 24.9703 192.729C32.3821 180.949 32.439 162.362 31.7829 145.907L31.6883 142.236C31.0549 125.128 30.3751 107.478 35.5273 93.5317C35.6654 93.3099 35.504 93.076 35.2735 92.953C35.043 92.8299 34.7896 92.9902 34.6515 93.212C29.4533 107.355 30.1563 125.092 30.7897 142.2L30.8843 145.87C31.5172 162.239 31.5062 180.629 24.2326 192.187C24.0945 192.409 24.1638 192.668 24.3943 192.791C24.4174 192.877 24.5326 192.938 24.6248 192.914Z" fill="#E4CB66"/>
<path d="M24.247 66.783C18.2669 54.6976 15.5102 40.7551 19.6668 28.4924C23.8234 16.2298 36.1743 6.40763 50.2436 7.38434C66.3972 8.46487 80.0424 23.5741 81.9872 38.5069C83.8768 53.2337 76.2863 67.2996 65.1318 76.47C55.6476 84.1994 43.846 89.1277 31.3565 92.5847C29.1637 93.1723 29.333 95.9969 31.5828 96.7187C39.2374 98.9727 47.7505 100.776 41.6208 92.1525C35.4825 83.8626 29.1804 76.0581 24.247 66.783Z" fill="#E9DED0"/>
<g opacity="0.9">
<path d="M33.8715 47.8843L36.0942 46.6317L36.6015 32.0889L34.6687 32.0017C33.6458 31.9555 32.7847 32.8579 32.7451 34.0194L32.3355 45.7385C32.3157 46.2961 32.4926 46.8392 32.8254 47.2488C33.1035 47.5897 33.4736 47.8064 33.8715 47.8843Z" fill="#121B43"/>
<path d="M44.0876 41.8789L42.0407 39.4292C41.9604 39.3327 41.9348 39.1913 41.9755 39.0658C42.0162 38.9403 42.1151 38.8517 42.2327 38.8385L45.1884 38.4844C45.2897 38.4725 45.3793 38.4038 45.427 38.3034L46.8501 35.3369C46.9072 35.2193 47.0177 35.148 47.1341 35.1533C47.2516 35.1585 47.3552 35.2392 47.4041 35.3607L48.6131 38.4461C48.655 38.5518 48.7376 38.6271 48.8389 38.6482L49.8757 38.8676L55.4928 35.7043L55.5894 32.9413L38.8603 32.1908L38.4019 45.3329L44.1621 42.0877C44.1539 42.0111 44.1341 41.9371 44.0876 41.8789Z" fill="#121B43"/>
<path d="M59.7401 33.8526C60.2975 33.8526 60.8317 33.9834 61.3193 34.2133C61.0144 33.5949 60.4488 33.1615 59.7797 33.1312L57.848 33.0439L57.8003 34.4049L57.9143 34.3415C58.4776 34.0231 59.1106 33.8526 59.7401 33.8526Z" fill="#121B43"/>
<path d="M33.0288 51.2258C32.5889 51.4742 32.2538 51.9129 32.0967 52.4374C31.9396 52.9647 31.9757 53.5434 32.1921 54.0429L37.5986 66.4121C37.9197 67.152 38.5772 67.5801 39.258 67.5801C39.5349 67.5801 39.8154 67.5088 40.0795 67.3595L42.3883 66.0619L35.3375 49.9269L33.0288 51.2258Z" fill="#121B43"/>
<path d="M66.807 49.9584L61.4005 37.5879C61.0805 36.8479 60.4207 36.4198 59.74 36.4198C59.4653 36.4198 59.1826 36.4898 58.9184 36.6405L56.6108 37.9407L63.6627 54.0757L65.9703 52.7768C66.4102 52.5284 66.7465 52.091 66.9024 51.5651C67.0595 51.0366 67.0257 50.4578 66.807 49.9584Z" fill="#121B43"/>
<path d="M37.3647 48.783L44.4166 64.9167L61.6379 55.2153L54.586 39.079L37.3647 48.783ZM55.1062 55.7875C55.0515 55.9064 54.9409 55.9804 54.8269 55.9791L51.3603 55.8879C51.259 55.8852 51.1636 55.9394 51.1031 56.0319L49.0713 59.219C49.0015 59.326 48.8851 59.3802 48.7688 59.3564C48.6524 59.334 48.557 59.2401 48.5232 59.1093L47.5306 55.3382C47.5027 55.2285 47.4271 55.1413 47.3305 55.1056L44.0326 53.8966C43.9209 53.8556 43.8383 53.746 43.8208 53.6138C43.8034 53.4791 43.8546 53.3496 43.9512 53.2729L46.7998 51.0372C46.8836 50.9725 46.9337 50.8641 46.9337 50.7478L46.9255 46.8128C46.9255 46.6794 46.9918 46.5565 47.0977 46.497C47.2025 46.4376 47.3281 46.4508 47.4212 46.5314L50.1768 48.9191C50.2571 48.9891 50.363 49.0103 50.4596 48.9733L53.7551 47.7497C53.8668 47.7087 53.9879 47.7431 54.0705 47.8382C54.1519 47.9333 54.181 48.0747 54.1426 48.2003L52.9417 52.085L55.0794 55.4109C55.1504 55.5245 55.1585 55.6699 55.1062 55.7875Z" fill="#121B43"/>
</g>
</svg>
