<svg width="95" height="193" viewBox="0 0 95 193" fill="none" xmlns="http://www.w3.org/2000/svg">
<path d="M69.9358 192.914C69.8436 192.889 69.6824 192.753 69.5903 192.729C62.1785 180.949 62.1216 162.362 62.7776 145.907L62.8722 142.236C63.5056 125.128 64.1854 107.478 59.0332 93.5317C58.8951 93.3099 59.0566 93.076 59.2871 92.953C59.5176 92.8299 59.7709 92.9902 59.909 93.212C65.1072 107.355 64.4043 125.092 63.7709 142.2L63.6763 145.87C63.0434 162.239 63.0543 180.629 70.328 192.187C70.4661 192.409 70.3968 192.668 70.1663 192.791C70.1432 192.877 70.0279 192.938 69.9358 192.914Z" fill="#E4CB66"/>
<path d="M70.3135 66.783C76.2937 54.6976 79.0503 40.7551 74.8937 28.4924C70.7371 16.2298 58.3862 6.40763 44.3169 7.38434C28.1634 8.46487 14.5181 23.5741 12.5733 38.5069C10.6837 53.2337 18.2742 67.2996 29.4288 76.47C38.913 84.1994 50.7145 89.1277 63.2041 92.5847C65.3969 93.1723 65.2276 95.9969 62.9777 96.7187C55.3231 98.9727 46.81 100.776 52.9397 92.1525C59.0781 83.8626 65.3801 76.0581 70.3135 66.783Z" fill="#E9DED0"/>
<path d="M41.5039 29H28.0879V41.2166H35.0629C38.2624 39.4547 41.5039 32.3553 41.5039 29Z" fill="#121B43"/>
<path d="M28.0879 43.0154V59.5025C30.6566 59.5025 31.5131 57.8541 34.3683 58.9035C37.2236 59.953 39.0784 58.6032 39.0784 58.6032C39.0784 58.6032 36.901 48.3767 35.3194 43.0154H28.0879Z" fill="#121B43"/>
<path d="M49.6719 29C49.6719 32.3553 52.9133 39.4547 56.1129 41.2166H63.0879V29H49.6719Z" fill="#121B43"/>
<path d="M52.0972 58.6032C52.0972 58.6032 53.952 59.9529 56.8073 58.9035C59.6624 57.8541 60.519 59.5025 63.0877 59.5025V43.0154H55.8562C54.2746 48.3767 52.0972 58.6032 52.0972 58.6032Z" fill="#121B43"/>
<path d="M42.2337 36.1383L41.5398 39.5302L38.1489 40.2231L41.5398 40.9159L42.2337 44.3073L42.9266 40.9159L46.3175 40.2231L42.9266 39.5302L42.2337 36.1383Z" fill="#121B43"/>
<path d="M51.141 46.0258L50.6287 43.5226L50.1175 46.0258L47.6138 46.5367L50.1175 47.0487L50.6287 49.5524L51.141 47.0487L53.6439 46.5367L51.141 46.0258Z" fill="#121B43"/>
<path d="M41.7809 51.6694L41.3838 53.6118L39.4404 54.0092L41.3838 54.4065L41.7809 56.3495L42.1778 54.4065L44.1218 54.0092L42.1778 53.6118L41.7809 51.6694Z" fill="#121B43"/>
</svg>
