<svg width="95" height="193" viewBox="0 0 95 193" fill="none" xmlns="http://www.w3.org/2000/svg">
<path d="M69.9358 192.914C69.8436 192.889 69.6824 192.753 69.5903 192.729C62.1785 180.949 62.1216 162.362 62.7776 145.907L62.8722 142.236C63.5056 125.128 64.1854 107.478 59.0332 93.5317C58.8951 93.3099 59.0566 93.076 59.2871 92.953C59.5176 92.8299 59.7709 92.9902 59.909 93.212C65.1072 107.355 64.4043 125.092 63.7709 142.2L63.6763 145.87C63.0434 162.239 63.0543 180.629 70.328 192.187C70.4661 192.409 70.3968 192.668 70.1663 192.791C70.1432 192.877 70.0279 192.938 69.9358 192.914Z" fill="#E4CB66"/>
<path d="M70.3135 66.783C76.2937 54.6976 79.0503 40.7551 74.8937 28.4924C70.7371 16.2298 58.3862 6.40763 44.3169 7.38434C28.1634 8.46487 14.5181 23.5741 12.5733 38.5069C10.6837 53.2337 18.2742 67.2996 29.4288 76.47C38.913 84.1994 50.7145 89.1277 63.2041 92.5847C65.3969 93.1723 65.2276 95.9969 62.9777 96.7187C55.3231 98.9727 46.81 100.776 52.9397 92.1525C59.0781 83.8626 65.3801 76.0581 70.3135 66.783Z" fill="#E9DED0"/>
<g clip-path="url(#clip0_2066_2938)">
<path d="M57.0208 30.762H33.0208C32.6672 30.762 32.3281 30.9075 32.078 31.1664C31.828 31.4254 31.6875 31.7767 31.6875 32.1429V57.0001C31.6875 57.3663 31.828 57.7176 32.078 57.9765C32.3281 58.2355 32.6672 58.381 33.0208 58.381H57.0208C57.3745 58.381 57.7136 58.2355 57.9636 57.9765C58.2137 57.7176 58.3542 57.3663 58.3542 57.0001V32.1429C58.3542 31.7767 58.2137 31.4254 57.9636 31.1664C57.7136 30.9075 57.3745 30.762 57.0208 30.762ZM37.0208 39.0477C37.0208 38.6814 37.1613 38.3302 37.4114 38.0712C37.6614 37.8122 38.0005 37.6667 38.3542 37.6667H42.3542C42.7078 37.6667 43.0469 37.8122 43.297 38.0712C43.547 38.3302 43.6875 38.6814 43.6875 39.0477V44.5715C43.6875 44.9377 43.547 45.289 43.297 45.548C43.0469 45.8069 42.7078 45.9524 42.3542 45.9524H38.3542C38.0005 45.9524 37.6614 45.8069 37.4114 45.548C37.1613 45.289 37.0208 44.9377 37.0208 44.5715V39.0477ZM51.6875 51.4762H38.3542C38.0005 51.4762 37.6614 51.3308 37.4114 51.0718C37.1613 50.8128 37.0208 50.4615 37.0208 50.0953C37.0208 49.729 37.1613 49.3778 37.4114 49.1188C37.6614 48.8598 38.0005 48.7143 38.3542 48.7143H51.6875C52.0411 48.7143 52.3803 48.8598 52.6303 49.1188C52.8804 49.3778 53.0208 49.729 53.0208 50.0953C53.0208 50.4615 52.8804 50.8128 52.6303 51.0718C52.3803 51.3308 52.0411 51.4762 51.6875 51.4762ZM51.6875 45.9524H47.6875C47.3339 45.9524 46.9947 45.8069 46.7447 45.548C46.4946 45.289 46.3542 44.9377 46.3542 44.5715C46.3542 44.2052 46.4946 43.854 46.7447 43.595C46.9947 43.336 47.3339 43.1905 47.6875 43.1905H51.6875C52.0411 43.1905 52.3803 43.336 52.6303 43.595C52.8804 43.854 53.0208 44.2052 53.0208 44.5715C53.0208 44.9377 52.8804 45.289 52.6303 45.548C52.3803 45.8069 52.0411 45.9524 51.6875 45.9524ZM51.6875 40.4286H47.6875C47.3339 40.4286 46.9947 40.2831 46.7447 40.0242C46.4946 39.7652 46.3542 39.4139 46.3542 39.0477C46.3542 38.6814 46.4946 38.3302 46.7447 38.0712C46.9947 37.8122 47.3339 37.6667 47.6875 37.6667H51.6875C52.0411 37.6667 52.3803 37.8122 52.6303 38.0712C52.8804 38.3302 53.0208 38.6814 53.0208 39.0477C53.0208 39.4139 52.8804 39.7652 52.6303 40.0242C52.3803 40.2831 52.0411 40.4286 51.6875 40.4286Z" fill="#121B43"/>
</g>
<defs>
<clipPath id="clip0_2066_2938">
<rect width="32" height="33.1429" fill="white" transform="translate(29.021 28)"/>
</clipPath>
</defs>
</svg>
