<svg width="60" height="60" viewBox="0 0 60 60" fill="none" xmlns="http://www.w3.org/2000/svg">
<rect width="60" height="60" rx="30" fill="#E63946"/>
<path d="M38.2636 42.5H40.5273C41.6727 42.5 42.6136 41.6136 42.75 40.4955L45 18.0227H38.1818V12.5H35.4955V18.0227H28.7182L29.1273 21.2136C31.4591 21.8545 33.6409 23.0136 34.95 24.2955C36.9136 26.2318 38.2636 28.2364 38.2636 31.5091V42.5ZM15 41.1364V39.7727H35.4955V41.1364C35.4955 41.8727 34.8818 42.5 34.0909 42.5H16.3636C15.6136 42.5 15 41.8727 15 41.1364ZM35.4955 31.5909C35.4955 20.6818 15 20.6818 15 31.5909H35.4955ZM15 34.3182H35.4545V37.0455H15V34.3182Z" fill="white"/>
</svg>
