<svg width="60" height="60" viewBox="0 0 60 60" fill="none" xmlns="http://www.w3.org/2000/svg">
<rect width="60" height="60" rx="30" fill="#E63946"/>
<path d="M29.4058 15.9166C23.254 15.9226 20.0711 16.0327 18.0518 18.052C16.0326 20.0712 15.9225 23.2542 15.9165 29.4059H23.0821C22.5702 28.7666 22.1878 28.0125 21.9792 27.1783C21.1943 24.0385 24.0383 21.1944 27.1782 21.9794C28.0124 22.1879 28.7665 22.5703 29.4058 23.0822V15.9166Z" fill="white"/>
<path d="M15.9165 31.5935C15.9225 37.7452 16.0326 40.928 18.0518 42.9474C20.0711 44.9666 23.254 45.0767 29.4058 45.0827V33.5967C28.2687 35.8677 25.9204 37.4268 23.2078 37.4268C22.6038 37.4268 22.1141 36.9371 22.1141 36.3331C22.1141 35.729 22.6038 35.2393 23.2078 35.2393C25.449 35.2393 27.3268 33.6837 27.8206 31.5935H15.9165Z" fill="white"/>
<path d="M31.5933 45.0827C37.7449 45.0767 40.9278 44.9666 42.9471 42.9474C44.9663 40.928 45.0764 37.7452 45.0824 31.5935H33.1783C33.6721 33.6837 35.55 35.2393 37.7912 35.2393C38.3952 35.2393 38.8849 35.729 38.8849 36.3331C38.8849 36.9371 38.3952 37.4268 37.7912 37.4268C35.0785 37.4268 32.7302 35.8677 31.5933 33.5967V45.0827Z" fill="white"/>
<path d="M45.0824 29.4059C45.0764 23.2542 44.9663 20.0712 42.9471 18.052C40.9278 16.0327 37.7449 15.9226 31.5933 15.9166V23.0822C32.2326 22.5703 32.9867 22.1879 33.8207 21.9794C36.9607 21.1944 39.8047 24.0385 39.0197 27.1783C38.8111 28.0125 38.4288 28.7666 37.9169 29.4059H45.0824Z" fill="white"/>
<path d="M26.6479 24.1016C28.2689 24.5068 29.4061 25.9633 29.4061 27.6341V29.406H27.6342C25.9634 29.406 24.507 28.2687 24.1017 26.6478C23.7173 25.11 25.1102 23.7172 26.6479 24.1016Z" fill="white"/>
<path d="M31.5933 27.6341V29.406H33.365C35.0358 29.406 36.4922 28.2687 36.8975 26.6478C37.2819 25.11 35.8891 23.7172 34.3514 24.1016C32.7303 24.5068 31.5933 25.9633 31.5933 27.6341Z" fill="white"/>
</svg>
