<svg width="262" height="330" viewBox="0 0 262 382" fill="none" xmlns="http://www.w3.org/2000/svg">
<path d="M149.774 339.444C149.484 339.444 149.195 339.284 149.05 338.805C144.124 320.764 145.863 298.412 147.456 283.085C148.181 276.54 149.05 269.994 149.774 263.607C151.512 250.037 153.251 236.147 153.83 222.097C154.844 197.51 151.223 177.394 143.834 165.26C143.545 164.941 143.545 164.462 143.834 164.142C144.124 163.823 144.559 163.823 144.849 164.142C144.849 164.142 144.849 164.302 144.993 164.302C152.671 176.755 156.293 197.191 155.279 222.097C154.7 236.147 152.961 250.196 151.223 263.767C150.354 270.153 149.484 276.859 148.905 283.245C147.311 298.412 145.718 320.604 150.498 338.326C150.643 338.805 150.354 339.124 150.064 339.284C149.774 339.284 149.774 339.284 149.774 339.444Z" fill="#E4CB66"/>
<path d="M186.871 348.806C186.439 348.85 186.101 348.402 186.05 347.926C186.514 326.051 189.044 304.45 193.516 283.296C194.864 276.74 196.39 270.487 197.789 264.408C200.287 253.564 202.88 242.228 205.238 228.669C208.436 209.248 211.847 176.644 210.665 148.836C210.615 148.36 211.014 147.999 211.302 147.97C211.735 147.926 212.073 148.373 212.106 148.691C213.304 176.658 209.91 209.42 206.585 229.015C204.244 242.733 201.651 254.068 199.152 264.913C197.754 270.992 196.228 277.245 195.007 283.627C190.536 304.782 187.988 326.224 187.508 347.94C187.558 348.416 187.159 348.777 186.871 348.806Z" fill="#E4CB66"/>
<path d="M59.8411 381.656C59.9771 381.607 60.1925 381.359 60.3285 381.31C68.8934 360.193 64.485 327.583 59.4942 298.755L58.4607 292.322C53.3468 262.348 48.0304 231.426 52.5915 206.645C52.7505 206.248 52.4453 205.847 52.0606 205.646C51.6758 205.444 51.3244 205.74 51.1654 206.138C46.5812 231.267 51.9541 262.339 57.0679 292.313L58.1014 298.746C63.0358 327.424 67.4673 359.685 59.0614 380.405C58.9024 380.803 59.0716 381.252 59.4564 381.454C59.5128 381.604 59.7052 381.705 59.8411 381.656Z" fill="#E4CB66"/>
<path d="M31.5912 168.096C20.7879 150.889 14.6427 130.473 19.2755 111.622C23.9083 92.7703 41.3787 76.443 62.9732 75.9847C87.7611 75.3976 110.676 96.0711 115.721 118.074C120.653 139.777 111.034 161.784 95.2972 176.977C81.9077 189.794 64.594 198.749 46.026 205.603C42.7633 206.778 43.4147 210.967 46.9466 211.737C58.9353 214.056 72.1705 215.587 61.621 203.562C51.1049 192.036 40.4067 181.255 31.5912 168.096Z" fill="#121B43"/>
<path d="M99.6484 169.888C87.6244 159.83 78.9323 145.78 78.2079 129.655C77.4836 113.37 86.1757 95.0098 101.821 85.4305C121.379 73.4563 147.165 77.767 160.927 92.4553C174.69 107.144 176.863 129.176 171.358 149.292C166.722 166.695 156.871 182.66 145.571 197.349C144.123 199.265 146.006 201.5 148.324 200.701L158.899 197.189C162.666 195.912 163.245 191.122 159.624 190.164C157.306 189.366 154.843 188.727 152.38 188.568C147.02 188.727 142.529 190.324 137.169 189.366C123.841 186.971 109.355 178.03 99.6484 169.888Z" fill="#5F977F"/>
<path d="M155.899 87.9043C151.021 78.9259 147.068 69.0519 146.507 58.1944C145.812 46.0664 149.236 34.3263 156.131 25.1256C167.502 10.0175 187.624 3.33728 204.436 5.33616C230.096 8.37037 248.501 29.6294 251.177 55.0399C253.786 79.8151 242.213 106.821 223.623 126.668C217.087 133.746 209.458 140.132 204.286 147.714C202.281 150.805 200.876 155.44 203.926 156.738C205.611 157.532 207.85 156.664 209.801 155.826C214.134 154.106 232.838 149.173 229.116 144.251C227.585 142.159 221.255 141.512 218.688 140.647C215.062 139.407 211.403 137.849 207.871 136.118C194.098 129.801 181.466 120.48 170.905 108.703C165.303 102.526 160.193 95.4969 155.899 87.9043Z" fill="#192657"/>
</svg>
