<svg width="239" height="552" viewBox="0 0 239 552" fill="none" xmlns="http://www.w3.org/2000/svg">
<path d="M62.8415 343.897C60.2619 339.096 59.6886 335.227 60.4768 331.931C61.2651 328.634 63.2715 325.123 62.2683 323.977C61.2651 322.83 57.1806 325.697 55.6758 329.279C55.6758 329.279 53.9561 325.983 52.7379 322.974C51.5197 319.964 48.0802 309.86 46.5037 310.219C44.9273 310.577 45.6438 313.73 46.5037 317.814C47.3636 321.899 47.9368 324.478 47.9368 324.478C47.9368 324.478 41.9893 316.166 39.9829 314.303C37.9765 312.44 37.1883 315.736 39.123 318.961C41.0578 322.185 43.6374 327.13 43.6374 327.13C43.6374 327.13 39.0514 325.41 36.4717 324.765C33.8921 324.12 32.6739 324.622 32.6739 326.055C32.6739 327.488 40.1262 330.139 40.1262 330.139L38.8364 331.142C38.8364 331.142 32.1723 331.429 31.3124 332.504C30.4525 333.579 38.7647 334.725 38.7647 334.725C38.7647 334.725 42.4909 341.533 48.7967 342.178L51.2331 348.77L62.8415 343.897Z" fill="white"/>
<path d="M51.2336 349.057C51.162 349.057 51.162 349.057 51.0903 349.057C51.0187 348.986 50.947 348.914 50.8753 348.842L48.5107 342.465C42.6348 341.748 39.1236 336.087 38.4787 335.012C36.1856 334.654 31.3129 333.866 30.883 332.791C30.8113 332.576 30.8113 332.361 30.9547 332.218C31.8862 331.071 37.2605 330.785 38.622 330.713L39.3385 330.14C37.1172 329.351 32.2445 327.417 32.2445 325.984C32.2445 325.339 32.4595 324.837 32.8894 324.479C33.5343 323.977 34.7525 323.906 36.4723 324.335C38.407 324.837 41.3449 325.84 42.7781 326.342C41.9899 324.837 40.1268 321.398 38.6936 319.033C37.2605 316.668 37.2605 314.303 38.1204 313.515C38.3353 313.3 39.0519 312.942 40.1268 313.945C41.7032 315.378 45.3577 320.394 47.1492 322.831C46.9342 321.684 46.5043 319.964 46.0743 317.815L46.0027 317.456C45.0711 313.3 44.4262 310.219 46.3609 309.789C47.7224 309.502 49.3705 313.085 52.0935 320.323C52.4518 321.326 52.8101 322.186 53.0251 322.759C53.8849 324.909 55.1031 327.273 55.6764 328.42C57.0379 325.769 59.6892 323.619 61.3373 323.332C61.9822 323.261 62.4121 323.476 62.5555 323.691C63.3437 324.622 62.6988 326.414 61.9105 328.707C61.5523 329.781 61.1223 330.928 60.8357 332.003C59.9758 335.442 60.764 339.24 63.2004 343.683C63.272 343.755 63.272 343.898 63.2004 343.97C63.2004 344.041 63.1287 344.113 62.9854 344.184L51.3769 349.057C51.3769 349.057 51.3053 349.057 51.2336 349.057ZM31.5996 332.576C32.1012 333.078 35.684 333.866 38.7653 334.296C38.9086 334.296 38.9803 334.367 39.0519 334.511C39.1236 334.582 42.7064 341.175 48.8689 341.82C49.0123 341.82 49.1556 341.891 49.1556 342.035L51.5203 348.269L62.4121 343.683C60.0475 339.24 59.3309 335.371 60.1908 331.859C60.4774 330.713 60.9073 329.566 61.2656 328.492C61.9105 326.7 62.6271 324.837 62.0539 324.192C61.9822 324.049 61.7672 324.049 61.4806 324.049C59.9758 324.264 57.1812 326.7 56.1063 329.351C56.0347 329.495 55.963 329.566 55.8197 329.566C55.6764 329.566 55.5331 329.495 55.4614 329.351C55.4614 329.351 53.67 325.984 52.4518 323.046C52.2368 322.472 51.8785 321.612 51.5203 320.609C50.5887 318.03 47.5791 310.291 46.6476 310.506C45.4294 310.792 46.0743 313.802 46.8625 317.313L46.9342 317.671C47.7941 321.756 48.3673 324.335 48.3673 324.335C48.3673 324.479 48.2957 324.694 48.1524 324.765C48.0091 324.837 47.7941 324.765 47.7224 324.622C47.6508 324.55 41.7749 316.31 39.7685 314.447C39.5535 314.232 39.0519 313.802 38.6936 314.088C38.1204 314.518 38.192 316.597 39.4102 318.675C41.3449 321.827 43.9246 326.772 43.9246 326.843C43.9963 326.987 43.9963 327.13 43.8529 327.273C43.7813 327.417 43.5663 327.417 43.4947 327.345C43.423 327.345 38.9086 325.625 36.4006 324.98C34.5375 324.55 33.7493 324.765 33.4627 324.98C33.2477 325.195 33.1044 325.482 33.1044 325.912C33.1044 326.628 36.8305 328.42 40.3417 329.638C40.4851 329.71 40.5567 329.781 40.5567 329.925C40.5567 330.068 40.5567 330.211 40.4134 330.283L39.1236 331.286C39.0519 331.358 38.9803 331.358 38.9086 331.358C36.1856 331.501 32.3161 332.003 31.5996 332.576Z" fill="#732A09"/>
<path d="M131.057 351.209C124.679 359.664 117.012 351.281 117.012 351.281C117.227 350.707 117.442 350.062 117.513 349.417C118.087 346.838 118.23 344.187 117.943 341.607C117.943 341.607 129.337 336.519 128.907 340.532C128.62 343.327 129.767 347.411 130.483 349.632C130.842 350.564 131.057 351.209 131.057 351.209Z" fill="white"/>
<path d="M124.538 355.365C120.311 355.365 116.871 351.71 116.728 351.567C116.656 351.496 116.584 351.352 116.656 351.209C116.871 350.636 117.014 349.991 117.158 349.417C117.659 346.838 117.803 344.258 117.588 341.678C117.588 341.535 117.659 341.392 117.803 341.32C118.663 340.89 126.545 337.522 128.695 339.099C128.981 339.314 129.339 339.744 129.268 340.604C128.981 343.327 130.128 347.339 130.844 349.561C131.131 350.492 131.418 351.137 131.418 351.137C131.489 351.281 131.418 351.352 131.346 351.495C129.483 354.003 127.261 355.293 124.825 355.365C124.753 355.365 124.61 355.365 124.538 355.365ZM117.444 351.209C118.161 351.925 121.314 354.792 124.897 354.577C127.046 354.505 128.981 353.287 130.701 351.137C130.629 350.851 130.414 350.421 130.199 349.704C129.483 347.483 128.336 343.327 128.623 340.46C128.695 339.959 128.48 339.744 128.336 339.6C126.831 338.526 120.884 340.747 118.376 341.822C118.591 344.401 118.448 346.981 117.946 349.489C117.731 350.134 117.588 350.636 117.444 351.209Z" fill="#732A09"/>
<path d="M92.5047 383.24C92.3546 382.763 92.3546 382.763 92.3545 382.763L92.3539 382.763L92.3512 382.764L92.3399 382.768L92.294 382.782C92.2532 382.795 92.1922 382.813 92.1121 382.838C91.9518 382.886 91.7151 382.957 91.4108 383.046C90.8021 383.224 89.9231 383.472 88.8442 383.755C86.6856 384.322 83.7308 385.026 80.5422 385.578C77.3509 386.131 73.9404 386.528 70.8662 386.489C67.7762 386.449 65.1031 385.967 63.3249 384.827C61.7976 383.829 60.1956 381.552 58.6225 378.483C57.0619 375.438 55.5725 371.703 54.2369 367.892C51.5671 360.276 49.5298 352.414 48.7789 349.303C48.6064 348.552 48.8329 347.817 49.4687 347.297C51.3605 345.749 54.0416 344.661 56.6864 343.916C59.3218 343.173 61.8731 342.783 63.4671 342.606L63.4749 342.605L63.4826 342.604C64.2555 342.493 65.052 342.938 65.3943 343.68L65.3986 343.689L65.4034 343.699L75.2921 362.974L75.4944 363.369L75.9101 363.215C80.5844 361.489 85.1911 359.474 89.5852 357.098C94.2612 354.689 100.803 352.482 108.645 351.056L108.648 351.056C109.211 350.95 109.793 350.862 110.394 350.772L110.52 350.754C111.075 350.671 111.644 350.586 112.213 350.486C113.716 350.298 115.267 350.111 116.87 349.972C116.775 350.354 116.67 350.725 116.537 351.123L116.444 351.403L116.644 351.62L117.011 351.281C116.644 351.62 116.644 351.62 116.644 351.62L116.645 351.621L116.647 351.623L116.652 351.629L116.671 351.649C116.688 351.666 116.711 351.691 116.742 351.722C116.804 351.785 116.893 351.875 117.009 351.984C117.24 352.204 117.576 352.506 117.999 352.841C118.841 353.508 120.044 354.317 121.465 354.857C122.888 355.397 124.551 355.674 126.291 355.243C128.037 354.811 129.804 353.681 131.454 351.512L131.614 351.302L131.531 351.051L131.056 351.209L131.531 351.051L131.531 351.051L131.53 351.051L131.53 351.049L131.528 351.043L131.52 351.02L131.49 350.932C131.464 350.855 131.425 350.744 131.375 350.603C131.333 350.485 131.284 350.347 131.227 350.192C132.924 350.331 134.512 350.525 135.99 350.771L135.996 350.772C136.106 350.789 136.215 350.806 136.323 350.823C137.123 350.947 137.903 351.068 138.737 351.133C145.289 352.167 150.363 353.746 154.233 356.268C158.092 358.783 160.786 362.255 162.545 367.143C164.889 373.678 166.174 381.871 166.871 388.452C167.22 391.738 167.42 394.614 167.534 396.668C167.591 397.694 167.626 398.515 167.647 399.079C167.658 399.361 167.665 399.579 167.669 399.725C167.671 399.799 167.672 399.855 167.673 399.892L167.674 399.934L167.675 399.944L167.675 399.946L167.675 399.947L167.675 399.973L167.679 400C169.749 416.166 168.251 438.436 166.227 456.696C165.215 465.82 164.074 473.93 163.186 479.76C162.742 482.674 162.361 485.018 162.091 486.634C161.956 487.441 161.849 488.066 161.776 488.49C161.742 488.685 161.715 488.837 161.697 488.945C158.259 491.586 153.962 492.361 150.462 492.456C148.692 492.505 147.141 492.379 146.034 492.242C145.48 492.173 145.039 492.101 144.737 492.047C144.646 492.031 144.567 492.016 144.503 492.003C140.15 483.608 136.812 470.577 134.556 459.562C133.42 454.018 132.561 449.001 131.987 445.369C131.699 443.554 131.483 442.085 131.339 441.071C131.267 440.564 131.212 440.17 131.176 439.904C131.158 439.77 131.145 439.669 131.136 439.601L131.125 439.524L131.123 439.505L131.122 439.5L131.122 439.499C131.122 439.499 131.122 439.499 131.101 439.501C131.065 439.506 130.968 439.518 130.707 439.552L131.122 439.498L131.061 439.023L130.583 439.064C128.962 439.205 127.353 439.204 125.821 438.996L125.359 438.933L125.264 439.389C123.509 447.808 120.678 461.171 118.287 472.43C117.091 478.059 116.005 483.163 115.218 486.859C114.824 488.706 114.506 490.203 114.285 491.237L114.031 492.428L114 492.574C109.939 494.051 105.276 494.051 101.568 493.659C99.6817 493.46 98.0561 493.161 96.9029 492.912C96.3266 492.787 95.8689 492.676 95.5563 492.595C95.4772 492.575 95.4074 492.557 95.3474 492.54C95.3035 492.38 95.2412 492.148 95.1629 491.85C94.9972 491.22 94.7602 490.291 94.4756 489.103C93.9063 486.727 93.1469 483.312 92.3874 479.162C90.868 470.859 89.3502 459.622 89.3502 447.875C89.3502 436.106 90.2627 419.962 91.1763 406.751C91.6329 400.148 92.0896 394.281 92.432 390.064C92.6033 387.956 92.746 386.261 92.8459 385.093C92.8958 384.509 92.935 384.057 92.9618 383.75L92.9923 383.403L93.0001 383.314L93.0021 383.292L93.0026 383.286L93.0027 383.285C93.0027 383.285 93.0027 383.284 92.5047 383.24ZM92.5047 383.24L92.3546 382.763L93.0691 382.538L93.0027 383.284L92.5047 383.24Z" fill="white" stroke="black"/>
<path d="M162.157 489.22C154.991 494.881 144.171 492.445 144.171 492.445C135.285 475.534 130.628 439.562 130.628 439.562C128.98 439.705 127.331 439.705 125.755 439.49C122.244 456.33 114.433 492.947 114.433 492.947C105.978 496.171 94.9424 492.947 94.9424 492.947C94.9424 492.947 88.8516 471.449 88.8516 447.874C88.8516 424.299 92.5061 383.239 92.5061 383.239C92.5061 383.239 98.0237 381.018 102.251 374.282C106.479 367.547 108.557 350.564 108.557 350.564L112.14 349.991C112.14 349.991 110.922 363.319 112.14 365.254C113.358 367.188 128.12 367.045 134.211 365.397L136.145 350.134L138.868 350.492C138.868 350.492 135.429 365.397 140.373 369.051C140.373 369.051 141.735 410.326 153.916 412.547C166.098 414.769 168.248 399.936 168.248 399.936C172.332 432.396 162.157 489.22 162.157 489.22Z" fill="#5F977F"/>
<path d="M98.8815 328.852C98.8815 328.852 93.9371 327.061 94.6537 320.97C92.5757 318.963 91.2858 316.312 90.9275 313.446C90.3543 308.645 92.5757 306.782 92.5757 306.782C92.5757 306.782 93.7222 300.691 98.7382 300.117C98.7382 300.117 102.751 292.522 114.503 295.101C114.503 295.101 122.17 289.154 131.557 295.675C136.143 294.743 140.873 296.893 143.237 300.977C143.237 300.977 153.556 302.124 151.549 313.016C151.549 313.016 154.129 316.67 150.403 320.97C150.403 320.97 151.191 328.35 143.739 328.565C136.287 328.78 106.979 331.002 106.979 331.002L98.8815 328.852Z" fill="#5F977F"/>
<path d="M137.435 333.078C137.364 333.723 137.22 334.297 137.005 334.87C136.002 338.094 132.849 344.615 122.96 345.045C113.788 345.475 108.987 339.958 106.838 336.375C106.264 335.443 105.763 334.44 105.404 333.437C105.404 333.437 101.607 335.586 99.6719 333.437C97.7372 331.287 98.0238 324.623 104.616 327.489L105.261 329.209C106.479 327.346 107.196 325.196 107.268 322.975C107.268 322.975 108.987 321.757 110.564 317.815C110.564 317.815 114.433 318.174 119.449 312.226C119.449 312.226 123.82 318.675 135.429 320.037C135.429 320.037 136.934 326.629 137.65 325.554C137.65 325.554 139.298 322.187 142.595 323.691C145.891 325.196 144.171 336.088 137.435 333.078Z" fill="white"/>
<path d="M132.633 321.185C131.343 321.185 130.125 321.185 128.978 321.256C128.405 321.328 127.76 321.328 127.187 321.4C126.614 321.471 125.969 321.543 125.324 321.615C125.18 321.615 125.037 321.543 125.037 321.4C125.037 321.328 125.037 321.256 125.109 321.185C125.61 320.755 126.255 320.396 126.9 320.181C127.545 319.966 128.19 319.823 128.907 319.823C129.552 319.823 130.268 319.823 130.913 319.966C131.558 320.11 132.203 320.325 132.776 320.683C132.919 320.755 132.919 320.898 132.848 321.041C132.776 321.113 132.704 321.185 132.633 321.185Z" fill="#732A09"/>
<path d="M111.852 321.901C112.354 321.471 112.998 321.184 113.643 320.969C114.288 320.754 114.933 320.611 115.65 320.539C116.366 320.467 117.011 320.539 117.656 320.682C118.301 320.826 118.946 321.041 119.519 321.471C119.663 321.542 119.663 321.686 119.591 321.829C119.519 321.901 119.448 321.972 119.376 321.972C118.731 321.972 118.086 321.972 117.513 321.972C116.94 321.972 116.295 321.972 115.721 322.044C114.503 322.116 113.357 322.259 112.067 322.402C111.924 322.402 111.78 322.331 111.78 322.187C111.78 322.044 111.852 321.901 111.852 321.901Z" fill="#732A09"/>
<path d="M128.548 326.271C128.405 327.346 128.906 328.35 129.694 328.421C130.483 328.493 131.271 327.776 131.486 326.701C131.557 326.415 131.557 326.057 131.486 325.77L129.981 326.271L130.913 324.767C130.769 324.623 130.554 324.552 130.411 324.552C129.479 324.408 128.691 325.197 128.548 326.271Z" fill="#732A09"/>
<path d="M114.436 326.701C114.293 327.776 114.794 328.779 115.583 328.851C116.371 328.922 117.159 328.206 117.374 327.131C117.446 326.844 117.446 326.486 117.374 326.199L115.869 326.701L116.801 325.196C116.657 325.053 116.442 324.981 116.227 324.981C115.439 324.838 114.651 325.626 114.436 326.701Z" fill="#732A09"/>
<path d="M103.763 329.209C101.971 327.919 100.395 328.635 99.9648 330.355L103.763 329.209Z" fill="white"/>
<path d="M99.9613 330.714H99.8897C99.6747 330.642 99.603 330.499 99.603 330.284C99.818 329.352 100.391 328.636 101.108 328.349C101.968 328.063 102.971 328.206 103.902 328.922C104.046 329.066 104.117 329.281 103.974 329.424C103.831 329.567 103.616 329.639 103.473 329.496C102.756 328.922 101.968 328.779 101.323 328.994C100.75 329.209 100.391 329.711 100.248 330.356C100.32 330.571 100.176 330.714 99.9613 330.714Z" fill="#732A09"/>
<path d="M102.255 332.362C100.535 331.574 101.036 328.851 101.036 328.851L102.255 332.362Z" fill="white"/>
<path d="M102.253 332.721C102.181 332.721 102.181 332.721 102.11 332.721C100.175 331.861 100.677 328.923 100.677 328.779C100.677 328.564 100.892 328.421 101.107 328.493C101.322 328.493 101.465 328.708 101.393 328.923C101.393 328.923 100.963 331.431 102.396 332.076C102.611 332.147 102.683 332.362 102.54 332.577C102.54 332.649 102.396 332.721 102.253 332.721Z" fill="#732A09"/>
<path d="M138.795 327.203C139.297 325.914 140.802 325.197 142.092 325.77C142.45 325.914 142.808 326.129 143.095 326.415" fill="white"/>
<path d="M138.795 327.561C138.724 327.561 138.724 327.561 138.652 327.561C138.437 327.489 138.365 327.274 138.437 327.131C138.724 326.414 139.297 325.841 140.013 325.483C140.73 325.196 141.518 325.124 142.235 325.411C142.665 325.554 143.023 325.841 143.381 326.199C143.525 326.342 143.525 326.557 143.381 326.701C143.238 326.844 143.023 326.844 142.88 326.701C142.665 326.414 142.378 326.271 142.02 326.127C141.447 325.913 140.873 325.913 140.3 326.199C139.727 326.414 139.369 326.844 139.154 327.417C139.082 327.489 138.939 327.561 138.795 327.561Z" fill="#732A09"/>
<path d="M140.301 331.43C142.164 330.928 142.666 327.417 141.519 325.625L140.301 331.43Z" fill="white"/>
<path d="M140.302 331.789C140.158 331.789 140.015 331.717 139.943 331.502C139.872 331.287 140.015 331.144 140.23 331.072C140.875 330.929 141.233 330.284 141.448 329.782C141.95 328.564 141.878 326.844 141.233 325.769C141.162 325.626 141.162 325.411 141.377 325.268C141.52 325.196 141.735 325.196 141.878 325.411C142.595 326.629 142.738 328.564 142.165 330.069C141.807 331 141.162 331.574 140.445 331.789C140.373 331.717 140.302 331.789 140.302 331.789Z" fill="#732A09"/>
<path d="M118.087 329.208C118.231 326.628 120.38 324.694 122.96 324.837C123.175 324.837 123.39 324.909 123.605 324.909C125.181 325.267 126.471 326.413 126.973 327.99C128.048 331.071 125.683 333.937 121.957 333.508C119.664 333.364 117.944 331.429 118.087 329.208Z" fill="#FFB0CC"/>
<path d="M137.079 334.87C136.076 338.095 132.923 344.615 123.034 345.045C113.862 345.475 109.061 339.958 106.911 336.375C106.911 336.375 108.416 332.792 111.497 332.004C114.578 331.215 118.448 335.013 123.106 334.727C127.763 334.44 129.77 330.212 132.708 330.284C135.646 330.356 137.079 334.87 137.079 334.87Z" fill="#E4CB66"/>
<path d="M118.874 337.021C121.167 338.383 124.75 337.666 126.47 336.735C126.9 336.52 127.473 336.663 127.688 337.093C127.975 337.523 127.831 338.096 127.401 338.311C125.897 339.028 124.32 339.458 122.672 339.601C120.164 339.816 118.731 339.171 117.943 338.598C117.513 338.311 117.441 337.738 117.728 337.308L117.799 337.236L117.871 337.164C118.014 336.878 118.516 336.806 118.874 337.021Z" fill="#732A09"/>
<path d="M121.671 339.959C119.665 339.959 118.375 339.386 117.658 338.884C117.372 338.669 117.228 338.383 117.157 338.096C117.085 337.738 117.157 337.451 117.372 337.165C117.372 337.093 117.443 337.093 117.443 337.021L117.515 336.95C117.945 336.52 118.59 336.376 119.163 336.735C121.313 337.953 124.681 337.38 126.401 336.448C126.974 336.09 127.762 336.305 128.12 336.95C128.264 337.236 128.335 337.595 128.264 337.881C128.192 338.24 127.977 338.454 127.69 338.669C126.114 339.458 124.466 339.888 122.746 339.959C122.316 339.959 121.958 339.959 121.671 339.959ZM118.375 337.236C118.232 337.236 118.088 337.308 117.945 337.451L117.873 337.523C117.73 337.666 117.73 337.881 117.73 338.025C117.73 338.168 117.873 338.311 117.945 338.383C118.733 338.884 120.095 339.529 122.459 339.314C124.108 339.243 125.612 338.813 127.045 338.096C127.189 338.025 127.26 337.881 127.26 337.738C127.332 337.595 127.26 337.451 127.189 337.308C127.045 337.021 126.687 336.95 126.472 337.093C124.752 338.096 121.026 338.813 118.518 337.38C118.59 337.236 118.518 337.236 118.375 337.236Z" fill="#732A09"/>
<path d="M143.312 346.836C143.241 346.836 143.169 346.836 143.097 346.764C140.733 345.116 136.576 345.474 136.505 345.474C136.29 345.474 136.146 345.331 136.146 345.116C136.146 344.901 136.29 344.758 136.505 344.758C136.72 344.758 141.019 344.328 143.599 346.191C143.742 346.334 143.814 346.549 143.67 346.693C143.527 346.764 143.384 346.836 143.312 346.836Z" fill="#732A09"/>
<path d="M141.233 349.99C141.162 349.99 141.162 349.99 141.09 349.99C139.442 349.345 137.651 349.202 135.859 349.489C135.644 349.489 135.501 349.417 135.429 349.202C135.429 348.987 135.501 348.844 135.716 348.772C137.579 348.486 139.514 348.701 141.305 349.345C141.52 349.417 141.592 349.632 141.52 349.775C141.52 349.919 141.377 349.99 141.233 349.99Z" fill="#732A09"/>
<path d="M145.916 494.735C144 499.143 140.676 501.661 140.733 503.251C140.79 504.841 147.335 512.068 148.367 512.586C149.4 513.105 151.332 510.605 152.424 511.163C153.516 511.722 152.14 514.164 155.394 517.29C158.647 520.416 179.931 542.338 183.249 542.92C186.567 543.503 199.916 536.055 193.478 524.933C187.04 513.812 167.332 510.018 162.446 508.042C157.561 506.065 155.957 502.922 156.777 500.539C152.943 499.18 149.25 497.225 145.916 494.735Z" fill="#5F977F"/>
<path d="M112.534 495.459C115.021 499.512 118.687 501.573 118.836 503.177C118.985 504.78 113.496 512.803 112.588 513.503C111.679 514.202 109.372 511.909 108.406 512.652C107.441 513.395 109.146 515.61 106.281 519.171C103.416 522.733 85.4497 547.323 82.1951 548.382C78.9405 549.44 64.7394 543.913 69.5633 531.971C74.3871 520.029 93.3684 513.557 97.9506 510.934C102.533 508.311 103.681 504.986 102.492 502.736C106.209 500.869 109.647 498.404 112.534 495.459Z" fill="#5F977F"/>
<path d="M144.134 358.612C143.835 358.612 143.537 358.443 143.387 357.938C138.308 338.909 140.101 315.334 141.744 299.167C142.491 292.263 143.387 285.359 144.134 278.623C145.927 264.309 147.72 249.659 148.317 234.84C149.363 208.907 145.628 187.689 138.009 174.89C137.71 174.554 137.71 174.048 138.009 173.712C138.308 173.375 138.756 173.375 139.055 173.712C139.055 173.712 139.055 173.88 139.204 173.88C147.122 187.015 150.857 208.57 149.811 234.84C149.214 249.659 147.421 264.478 145.628 278.791C144.732 285.527 143.835 292.6 143.238 299.336C141.595 315.333 139.951 338.741 144.881 357.433C145.031 357.938 144.732 358.275 144.433 358.443C144.134 358.443 144.134 358.443 144.134 358.612Z" fill="#E4CB66"/>
<path d="M141.296 359.789C140.848 359.789 140.549 359.284 140.549 358.779C143.387 335.877 148.317 313.48 155.189 291.757C157.281 285.021 159.521 278.622 161.613 272.391C165.348 261.277 169.232 249.657 173.116 235.681C178.494 215.641 185.515 181.793 187.308 152.492C187.308 151.987 187.756 151.65 188.055 151.65C188.503 151.65 188.802 152.156 188.802 152.492C187.009 181.962 179.988 215.978 174.46 236.186C170.576 250.331 166.692 261.95 162.957 273.065C160.866 279.295 158.625 285.694 156.683 292.262C149.811 313.985 144.881 336.214 142.043 358.947C142.043 359.452 141.595 359.789 141.296 359.789Z" fill="#E4CB66"/>
<path d="M150.558 361.144C150.409 361.144 150.11 360.975 149.961 360.975C133.976 343.125 126.357 309.277 120.68 278.966L119.336 272.23C113.36 240.74 107.235 208.239 93.7898 185.337C93.491 185 93.6404 184.495 93.9392 184.158C94.238 183.821 94.6862 183.99 94.9849 184.327C108.579 207.565 114.704 240.234 120.68 271.725L122.025 278.461C127.701 308.604 135.171 342.115 150.857 359.628C151.156 359.965 151.156 360.47 150.857 360.807C150.857 360.975 150.708 361.144 150.558 361.144Z" fill="#E4CB66"/>
<path d="M100.064 139.697C104.247 118.816 102.753 96.4192 91.3998 79.4111C80.0461 62.403 57.1894 52.4675 36.1253 59.7086C11.9241 67.9601 -2.71616 96.5876 0.421042 120.163C3.55824 143.402 20.8875 161.757 41.6528 171.187C59.2808 179.102 79.2991 181.796 99.7656 181.965C103.351 181.965 104.247 186.343 101.11 188.364C90.354 194.931 78.104 201.162 83.9303 185.501C89.9059 170.345 96.3297 155.863 100.064 139.697Z" fill="#E4CB66"/>
<path d="M92.4499 179.771C80.0505 169.162 71.0871 154.343 70.3401 137.335C69.5932 120.159 78.5566 100.793 94.6907 90.6894C114.858 78.0596 141.45 82.6063 155.642 98.0988C169.834 113.591 172.075 136.83 166.398 158.048C161.618 176.403 151.459 193.243 139.807 208.736C138.313 210.756 140.255 213.114 142.645 212.272L153.551 208.567C157.435 207.22 158.032 202.168 154.297 201.158C151.907 200.316 149.368 199.642 146.828 199.474C141.301 199.642 136.669 201.326 131.142 200.316C117.398 197.79 102.459 188.36 92.4499 179.771Z" fill="#5F977F"/>
<path d="M137.713 82.7783C133.679 72.8429 130.692 62.0655 131.289 50.6145C131.887 37.8163 136.667 25.8601 144.734 16.935C158.03 2.2845 179.393 -2.59902 196.423 1.27411C222.417 7.16801 239 31.4172 239 58.3607C239 84.6307 224.21 111.743 202.997 130.603C195.527 137.339 187.012 143.233 180.887 150.642C178.496 153.673 176.554 158.389 179.542 160.073C181.186 161.083 183.576 160.409 185.667 159.736C190.298 158.389 210.018 155.189 206.731 149.632C205.387 147.274 198.963 145.927 196.423 144.748C192.838 143.064 189.253 141.044 185.817 138.855C172.371 130.771 160.42 119.657 150.859 106.186C145.78 99.1128 141.298 91.1982 137.713 82.7783Z" fill="#E4CB66"/>
<path d="M150.16 386.662C149.874 383.174 149.802 379.685 149.874 376.197C150.089 373.123 149.73 370.133 148.727 367.226C148.082 365.648 145.288 360.249 143.926 360.498C142.565 360.747 143.926 369.635 143.926 369.635C143.926 369.635 138.982 367.974 136.832 368.389C134.682 368.804 135.184 371.96 135.184 371.96C135.184 371.96 132.891 374.12 134.611 376.612C133.823 377.359 133.823 378.771 134.467 379.602C134.539 379.685 134.611 379.768 134.682 379.851C134.682 379.851 133.106 382.177 134.897 383.423C136.689 384.669 139.913 384.503 140.917 386.662H150.16Z" fill="white"/>
<path d="M150.157 387.076H140.985C140.842 387.076 140.77 386.993 140.698 386.827C140.125 385.664 138.764 385.249 137.33 384.834C136.399 384.584 135.539 384.252 134.751 383.754C134.178 383.339 133.819 382.84 133.748 382.176C133.604 381.262 134.034 380.348 134.249 379.85C133.533 378.936 133.533 377.441 134.178 376.528C133.031 374.534 134.034 372.707 134.894 371.793C134.822 371.295 134.751 369.966 135.324 369.052C135.682 368.471 136.184 368.138 136.829 367.972C138.62 367.64 142.131 368.637 143.493 369.052C142.991 365.564 142.49 360.414 143.851 360.082C145.786 359.666 149.011 366.976 149.011 366.976C150.014 369.883 150.372 373.039 150.157 376.112C150.085 379.601 150.157 383.089 150.444 386.578C150.444 386.661 150.444 386.827 150.372 386.91C150.3 386.993 150.229 387.076 150.157 387.076ZM141.2 386.163H149.799C149.584 382.84 149.512 379.435 149.584 376.029C149.799 373.039 149.44 370.049 148.509 367.225C147.577 364.982 144.998 360.58 144.138 360.746C143.636 360.995 143.78 365.148 144.424 369.384C144.424 369.55 144.424 369.633 144.281 369.8C144.21 369.883 144.066 369.966 143.923 369.883C143.851 369.883 139.05 368.221 136.972 368.637C136.542 368.72 136.184 368.969 135.969 369.301C135.396 370.215 135.682 371.71 135.682 371.71C135.682 371.876 135.682 372.042 135.539 372.125C135.467 372.208 133.604 374.036 134.966 376.195C135.109 376.361 135.037 376.611 134.894 376.777C134.321 377.441 134.249 378.521 134.751 379.185C134.822 379.269 134.822 379.352 134.894 379.352C135.037 379.518 135.037 379.767 134.966 379.933C134.966 379.933 134.249 381.013 134.392 381.926C134.464 382.342 134.679 382.674 135.037 382.923C135.682 383.339 136.542 383.588 137.402 383.92C138.907 384.418 140.412 384.917 141.2 386.163Z" fill="#732A09"/>
</svg>
