<svg width="60" height="60" viewBox="0 0 60 60" fill="none" xmlns="http://www.w3.org/2000/svg">
<rect width="60" height="60" rx="30" fill="#E63946"/>
<path d="M49.5 27.2288C40.6912 27.2288 33.305 19.5212 31.2575 13.2231V10.4738C33.0619 8.52063 34.8638 11.1537 36.6638 9.20062C34.8631 10.305 33.0613 6.82187 31.2575 7.92562V7.575C31.5281 7.42375 31.7094 7.15812 31.7094 6.85375C31.7094 6.38187 31.28 6 30.75 6C30.2188 6 29.7894 6.38188 29.7894 6.85312C29.7894 7.16562 29.98 7.43562 30.2619 7.58437V13.1631C28.2419 19.4725 20.8356 27.2288 12 27.2288C12 28.5275 13.3319 29.6012 15.0712 29.7987L12 43.5H17.1087L19.2294 27.7094C19.27 27.5531 19.2944 27.3925 19.2944 27.2281C25.5494 27.2281 29.51 16.3544 30.5025 13.2881H30.7306C30.5169 22.9831 26.575 27.2281 26.575 27.2281H19.2944C19.2944 28.6675 20.9269 29.8344 22.9412 29.8344C24.9556 29.8344 26.5875 28.6675 26.5875 27.2281L25.9675 36.4625C22.8362 40.2369 21.5312 40.4137 21.5312 40.4137C22.5763 43.5 24.1069 43.5 24.1069 43.5C27.4625 43.5 30.735 29.835 30.735 29.8337L30.7013 29.8856L30.7406 29.8031L30.77 29.8625C30.9163 30.4662 34.1125 43.5 37.3919 43.5C37.3919 43.5 38.9225 43.5 39.9675 40.4137C39.9675 40.4137 38.6631 40.2369 35.5319 36.4638L34.9125 27.2288C34.9125 28.6681 36.5431 29.835 38.5575 29.835C40.5719 29.835 42.205 28.6681 42.205 27.2288H34.925C34.925 27.2288 30.9838 22.9837 30.7706 13.2887H30.9987C31.9912 16.3544 35.95 27.2288 42.205 27.2288C42.205 27.3931 42.2294 27.5537 42.2706 27.71L44.3913 43.5H49.5L46.4275 29.7987C48.1681 29.6012 49.5 28.5275 49.5 27.2288Z" fill="white"/>
</svg>
