<svg width="60" height="60" viewBox="0 0 60 60" fill="none" xmlns="http://www.w3.org/2000/svg">
<rect width="60" height="60" rx="30" fill="#E63946"/>
<path d="M15.4252 29.5717L17.7113 28.3043L18.2332 13.59L16.2451 13.5017C15.193 13.4549 14.3073 14.3681 14.2666 15.5432L13.8453 27.4005C13.8249 27.9647 14.0069 28.5142 14.3492 28.9286C14.6353 29.2736 15.0159 29.4928 15.4252 29.5717Z" fill="white"/>
<path d="M25.9336 23.4958L23.8282 21.0171C23.7456 20.9195 23.7193 20.7765 23.7612 20.6494C23.8031 20.5224 23.9048 20.4329 24.0257 20.4195L27.0659 20.0612C27.17 20.0492 27.2621 19.9796 27.3112 19.878L28.775 16.8766C28.8337 16.7576 28.9474 16.6854 29.0671 16.6908C29.188 16.6961 29.2945 16.7777 29.3448 16.9007L30.5884 20.0224C30.6315 20.1294 30.7164 20.2056 30.8206 20.227L31.887 20.4489L37.6645 17.2483L37.7639 14.4527L20.557 13.6934L20.0854 26.9905L26.0102 23.707C26.0018 23.6295 25.9815 23.5546 25.9336 23.4958Z" fill="white"/>
<path d="M42.0329 15.3744C42.6062 15.3744 43.1556 15.5067 43.6571 15.7393C43.3435 15.1137 42.7618 14.6751 42.0735 14.6444L40.0867 14.5562L40.0376 15.9332L40.1549 15.869C40.7342 15.5468 41.3853 15.3744 42.0329 15.3744Z" fill="white"/>
<path d="M14.5582 32.9526C14.1058 33.204 13.761 33.6478 13.5995 34.1786C13.4379 34.712 13.475 35.2976 13.6976 35.803L19.2585 48.3181C19.5888 49.0667 20.2651 49.4999 20.9653 49.4999C21.2501 49.4999 21.5386 49.4277 21.8103 49.2766L24.185 47.9638L16.9329 31.6384L14.5582 32.9526Z" fill="white"/>
<path d="M49.3018 31.6702L43.741 19.1538C43.4118 18.4051 42.7332 17.9719 42.033 17.9719C41.7505 17.9719 41.4596 18.0428 41.1879 18.1952L38.8145 19.5107L46.0678 35.8361L48.4412 34.5219C48.8937 34.2705 49.2396 33.828 49.4 33.2959C49.5616 32.7611 49.5268 32.1755 49.3018 31.6702Z" fill="white"/>
<path d="M19.0186 30.4813L26.2719 46.8053L43.985 36.9895L36.7317 20.6628L19.0186 30.4813ZM37.2667 37.5684C37.2105 37.6887 37.0968 37.7636 36.9795 37.7623L33.4139 37.67C33.3097 37.6673 33.2116 37.7222 33.1493 37.8157L31.0595 41.0404C30.9877 41.1487 30.868 41.2035 30.7483 41.1795C30.6286 41.1568 30.5305 41.0618 30.4958 40.9295L29.4748 37.1139C29.4461 37.0029 29.3683 36.9147 29.2689 36.8786L25.8769 35.6553C25.762 35.6138 25.677 35.5028 25.659 35.3692C25.6411 35.2328 25.6938 35.1018 25.7931 35.0242L28.7231 32.7621C28.8093 32.6966 28.8608 32.587 28.8608 32.4693L28.8524 28.4879C28.8524 28.3529 28.9206 28.2286 29.0296 28.1684C29.1373 28.1082 29.2665 28.1216 29.3623 28.2032L32.1966 30.619C32.2792 30.6899 32.3881 30.7113 32.4874 30.6738L35.8771 29.4358C35.992 29.3944 36.1165 29.4291 36.2015 29.5254C36.2853 29.6217 36.3152 29.7647 36.2757 29.8917L35.0405 33.8223L37.2392 37.1874C37.3122 37.3024 37.3206 37.4494 37.2667 37.5684Z" fill="white"/>
</svg>
