<svg width="34" height="32" viewBox="0 0 34 32" fill="none" xmlns="http://www.w3.org/2000/svg">
<path d="M31.9261 30.2644C32.1889 30.2644 32.4375 30.146 32.6029 29.9418C32.7684 29.7377 32.8329 29.4699 32.7786 29.2129L32.2299 26.6164C32.5424 26.3141 32.7388 25.892 32.7388 25.4228C32.7388 24.9288 32.5188 24.4906 32.1773 24.1862V15.1693L29.9778 16.5304V24.1862C29.6363 24.4906 29.4163 24.9288 29.4163 25.4228C29.4163 25.8921 29.6127 26.3142 29.9252 26.6164L29.3765 29.2129C29.3222 29.47 29.3868 29.7377 29.5522 29.9418C29.7176 30.1459 29.9662 30.2644 30.229 30.2644H31.9261ZM32.6717 9.90759L18.3629 1.05006C17.9439 0.791934 17.4715 0.662354 16.9991 0.662354C16.5267 0.662354 16.0539 0.791825 15.6374 1.05006L1.32849 9.90759C0.946411 10.144 0.714355 10.5616 0.714355 11.011C0.714355 11.4605 0.946411 11.8782 1.32849 12.115L15.6374 20.9726C16.0539 21.231 16.5266 21.3603 16.999 21.3603C17.4714 21.3603 17.9439 21.2308 18.3629 20.9726L32.6717 12.115C33.0537 11.8783 33.2858 11.4605 33.2858 11.011C33.2858 10.5616 33.0537 10.1439 32.6717 9.90759ZM16.999 23.5596C16.1077 23.5596 15.2378 23.3121 14.4795 22.8427L6.13306 17.6756V26.5729C6.13306 29.2062 11.0002 31.3379 16.999 31.3379C22.9999 31.3379 27.8667 29.2062 27.8667 26.5729V17.6756L19.5206 22.8427C18.7623 23.3121 17.8903 23.5596 16.999 23.5596Z" fill="#121B43"/>
</svg>
