<svg width="38" height="38" viewBox="0 0 38 38" fill="none" xmlns="http://www.w3.org/2000/svg">
<path d="M12.0175 0.118652C11.7503 0.118652 11.492 0.180996 11.2575 0.284902C8.33919 1.60006 10.5331 10.0194 13.3475 16.9337C13.6236 14.0658 16.0609 11.8037 19 11.8037C20.232 11.8037 21.369 12.2252 22.3012 12.8962C22.3072 12.8991 22.319 12.8932 22.325 12.8962C19.3889 6.95865 14.9684 0.118652 12.0175 0.118652ZM22.325 12.8962C23.7411 13.9263 24.6762 15.5977 24.6762 17.4799C24.6762 19.7777 23.2957 21.7668 21.3275 22.6574C22.8564 22.7554 24.3615 22.8237 25.7925 22.8237C29.2956 22.8237 37.4745 22.4763 37.7862 19.3799C38.1068 16.2004 29.7172 13.9174 22.325 12.8962ZM21.3275 22.6574C21.3126 22.6633 21.2948 22.6515 21.28 22.6574C20.5793 22.9691 19.8134 23.1562 19 23.1562C15.8739 23.1562 13.3237 20.606 13.3237 17.4799C13.3237 17.2929 13.3534 17.1147 13.3712 16.9337C9.23278 23.1443 5.36153 30.9551 7.95622 32.8224C8.27981 33.054 8.67466 33.1787 9.11997 33.1787C12.1125 33.1787 17.5304 27.541 21.3275 22.6574ZM19 13.2999C16.6962 13.2999 14.82 15.1762 14.82 17.4799C14.82 19.7837 16.6962 21.6599 19 21.6599C21.3037 21.6599 23.18 19.7837 23.18 17.4799C23.18 15.1762 21.3037 13.2999 19 13.2999ZM19 15.5799C20.0479 15.5799 20.9 16.429 20.9 17.4799C20.9 18.5308 20.0479 19.3799 19 19.3799C17.949 19.3799 17.1 18.5308 17.1 17.4799C17.1 16.429 17.949 15.5799 19 15.5799ZM21.66 24.7949C20.1964 26.6088 18.142 29.0046 15.96 30.9937L15.4375 37.1687C15.4197 37.3794 15.482 37.5813 15.6275 37.7387C15.7729 37.896 15.9837 37.9999 16.1975 37.9999H21.8025C22.0132 37.9999 22.2062 37.893 22.3487 37.7387C22.4912 37.5843 22.5773 37.3794 22.5625 37.1687L21.66 24.7949Z" fill="#121B43"/>
</svg>
