<svg width="60" height="60" viewBox="0 0 60 60" fill="none" xmlns="http://www.w3.org/2000/svg">
<rect width="60" height="60" rx="30" fill="#E63946"/>
<g clip-path="url(#clip0_2080_3666)">
<path d="M42.2571 39.6526L40.5417 37.8268L38.8255 35.9994L37.1101 34.1744V34.1736L35.4249 32.3793V32.3785C32.9599 31.1382 31.7799 32.9938 30.6025 33.1521L31.0004 34.1667L34.2475 36.8678L36.1875 38.4823H36.1883L38.1282 40.0975H38.129L40.0681 41.712H40.0689L41.9215 43.2543L43.4095 43.0508L43.8949 41.397L42.2571 39.6526Z" fill="#E63946"/>
<path d="M31.001 25.0542C30.8695 25.2202 30.752 25.3947 30.6458 25.576C29.417 27.6662 29.7485 30.6639 29.5256 32.1378L28.0804 32.5213L26.5765 32.3783C26.0596 32.0948 25.5322 31.7743 25.0007 31.4193C23.8568 30.6555 22.6941 29.7341 21.5707 28.6767C16.9813 24.3573 14.7907 19.4154 16.6792 17.638C16.9593 17.3744 17.3128 17.1953 17.7276 17.0954C17.7308 17.0954 17.7333 17.0946 17.7365 17.0939C20.1206 16.526 24.5035 18.567 28.4079 22.2417C28.8863 22.6913 29.3386 23.1485 29.7624 23.6081C29.7656 23.6119 29.7689 23.615 29.7721 23.6188C30.2139 24.096 30.623 24.5763 31.001 25.0542Z" fill="white"/>
<path d="M31.3828 26.2702C30.0274 28.1198 29.7423 30.7055 29.5251 32.1379L28.0799 32.5213L27.2447 33.0336C27.2414 33.0313 27.0323 32.7129 27.0291 32.7114L26.576 32.3784C26.0592 32.0948 25.5318 31.7744 25.0002 31.4194C23.8563 30.6555 22.6937 29.7342 21.5702 28.6768C16.9808 24.3574 14.7902 19.4155 16.6787 17.6381C16.9588 17.3745 17.3123 17.1955 17.7271 17.0955C17.7304 17.0955 17.7328 17.0948 17.736 17.094C17.1326 19.3379 19.3004 23.4629 23.2048 27.1384C24.1339 28.0128 25.09 28.7928 26.0404 29.469C26.5001 28.0966 27.4015 26.5197 28.6686 24.9175C29.0099 24.4849 29.3781 24.0507 29.7717 23.6189C30.2135 24.0961 30.6225 24.5763 31.0005 25.0544C30.8691 25.2204 31.4889 26.0889 31.3828 26.2702Z" fill="white"/>
<path d="M32.0848 32.506L35.5026 35.6874L34.2477 36.8684L32.3404 35.2816L30.6396 33.8661L32.0848 32.506Z" fill="#E63946"/>
<path d="M45.6968 41.347C46.101 41.7274 46.101 42.3452 45.6968 42.7256L43.3339 44.9494C42.929 45.3306 42.2733 45.3306 41.8684 44.9494L41.7271 44.8165C41.3221 44.4353 41.3221 43.8183 41.7271 43.4371L41.9214 43.2543L43.8948 41.3969L44.0899 41.2133C44.4941 40.8329 45.1505 40.8329 45.5547 41.2133L45.6968 41.347Z" fill="white"/>
<path d="M28.0799 30.7778L26.5759 32.3785L24.8898 34.1736L23.1745 35.9994L21.4591 37.8268L19.7428 39.6526L18.105 41.397L18.6173 43.1005L20.0784 43.2543L21.9318 41.7121L23.8717 40.0975L25.8125 38.483L27.7533 36.8685L31.0004 34.1667L31.3612 33.8662L30.7693 32.3295L28.0799 30.7778Z" fill="#E63946"/>
<path d="M40.5416 37.8268L42.257 39.6526L40.0688 41.7121H40.068L38.1289 40.0975L40.5416 37.8268Z" fill="white"/>
<path d="M37.1101 34.1743L38.8255 35.9994L36.1883 38.4822H36.1875L34.2476 36.8678L37.1101 34.1743Z" fill="white"/>
<path d="M40.0688 41.7128L41.016 40.8214L42.7705 42.4559L41.9222 43.2543L40.0688 41.7128Z" fill="#E63946"/>
<path d="M36.1875 38.483L37.3404 37.3987L39.1782 39.11L38.1291 40.0975L36.1875 38.483Z" fill="#E63946"/>
<path d="M41.9226 43.2542L42.7709 42.4558L44.3859 43.9597L43.3343 44.9494C42.9301 45.3306 42.2737 45.3306 41.8695 44.9494L41.7275 44.8165C41.3233 44.4353 41.3233 43.8183 41.7275 43.4372L41.9226 43.2542Z" fill="white"/>
<path d="M38.1289 40.0974L39.178 39.11L41.0159 40.8214L40.0688 41.7128L38.1289 40.0974Z" fill="white"/>
<path d="M35.5025 35.6874L37.3404 37.3987L36.1875 38.483L34.2476 36.8685L35.5025 35.6874Z" fill="white"/>
<path d="M19.7428 39.6526L20.6899 40.544L18.9533 42.1954L18.105 41.397L19.7428 39.6526Z" fill="#E63946"/>
<path d="M23.1744 35.9994L24.3264 37.0844L22.5081 38.8142L21.459 37.8267L23.1744 35.9994Z" fill="#E63946"/>
<path d="M29.5248 32.138L26.1446 35.3547L24.8896 34.1736L26.5757 32.3785L28.0797 30.7778L29.5248 32.138Z" fill="#E63946"/>
<path d="M20.2727 44.8165L20.1314 44.9494C19.7272 45.3306 19.0708 45.3306 18.6666 44.9494L16.3038 42.7255C15.8987 42.3451 15.8987 41.7273 16.3038 41.3469L16.445 41.2132C16.85 40.8328 17.5056 40.8328 17.9106 41.2132L18.1049 41.3968L20.2726 43.437C20.6776 43.8183 20.6776 44.4353 20.2727 44.8165Z" fill="white"/>
<path d="M23.8716 40.0974L21.9317 41.7119L20.6898 40.5439L19.7427 39.6525L21.4589 37.8267L22.5081 38.8141L23.8716 40.0974Z" fill="white"/>
<path d="M27.7531 36.8684L25.8123 38.4829L24.3264 37.0843L23.1743 35.9993L24.8897 34.1735L26.1447 35.3545L27.7531 36.8684Z" fill="white"/>
<path d="M18.1049 41.3969L18.9532 42.1953L17.3554 43.7153L16.3038 42.7255C15.8987 42.3451 15.8987 41.7273 16.3038 41.3469L16.445 41.2132C16.85 40.8328 17.5056 40.8328 17.9106 41.2132L18.1049 41.3969Z" fill="white"/>
<path d="M21.4589 37.8267L22.5081 38.8141L20.6898 40.5439L19.7427 39.6525L21.4589 37.8267Z" fill="white"/>
<path d="M26.1447 35.3545L24.3264 37.0843L23.1743 35.9993L24.8897 34.1735L26.1447 35.3545Z" fill="white"/>
<path d="M45.3222 17.6389C47.21 19.4156 45.0201 24.3574 40.4307 28.6768C38.7855 30.2253 37.0546 31.484 35.4249 32.3785C33.9398 33.1938 32.5387 33.7079 31.3613 33.8662L28.0799 30.7778H28.0791C28.3216 29.1763 29.3545 27.1361 31.0005 25.0544C31.7443 24.113 32.6147 23.1632 33.5936 22.2419C38.1829 17.9225 43.4337 15.8607 45.3222 17.6389Z" fill="white"/>
<path d="M32.7923 26.7408C33.5361 25.7995 34.4065 24.8497 35.3854 23.9283C39.2283 20.3116 43.5343 18.2783 45.9424 18.7562C45.8438 18.3161 45.6454 17.9429 45.3384 17.654C43.4498 15.8759 38.1991 17.9376 33.6097 22.257C32.6308 23.1784 31.7604 24.1282 31.0166 25.0695C29.3706 27.1513 28.3377 29.1915 28.0952 30.7929H28.096L29.8711 32.4635C30.1137 30.8622 31.1465 28.8222 32.7923 26.7408Z" fill="white"/>
</g>
<defs>
<clipPath id="clip0_2080_3666">
<rect width="30" height="28.2353" fill="white" transform="translate(16 17)"/>
</clipPath>
</defs>
</svg>
