<svg width="283" height="397" viewBox="0 0 283 397" fill="none" xmlns="http://www.w3.org/2000/svg">
<path d="M54.661 210.956C54.8332 210.956 55.0053 210.857 55.0914 210.56C58.0181 199.366 56.9851 185.497 56.0383 175.987C55.6079 171.926 55.0914 167.864 54.661 163.902C53.6281 155.482 52.5951 146.864 52.2508 138.146C51.6483 122.891 53.8002 110.409 58.1902 102.881C58.3624 102.682 58.3624 102.385 58.1902 102.187C58.0181 101.989 57.7598 101.989 57.5877 102.187C57.5877 102.187 57.5877 102.286 57.5016 102.286C52.9394 110.013 50.7875 122.693 51.39 138.146C51.7343 146.864 52.7673 155.581 53.8002 164.001C54.3167 167.963 54.8332 172.124 55.1775 176.086C56.1243 185.497 57.0712 199.267 54.2306 210.262C54.1445 210.56 54.3167 210.758 54.4888 210.857C54.661 210.857 54.661 210.857 54.661 210.956Z" fill="#E4CB66"/>
<path d="M56.2952 211.649C56.5534 211.649 56.7256 211.352 56.7256 211.055C55.0901 197.582 52.2495 184.407 48.2899 171.628C47.0848 167.666 45.7936 163.902 44.5885 160.236C42.4366 153.698 40.1985 146.863 37.9605 138.641C34.8617 126.853 30.816 106.942 29.7831 89.7053C29.7831 89.4081 29.5248 89.21 29.3527 89.21C29.0944 89.21 28.9223 89.5071 28.9223 89.7053C29.9552 107.041 34.0009 127.051 37.1858 138.938C39.4238 147.26 41.6619 154.095 43.8138 160.633C45.0189 164.298 46.3101 168.062 47.4291 171.926C51.3887 184.704 54.2293 197.781 55.8648 211.154C55.8648 211.451 56.123 211.649 56.2952 211.649Z" fill="#E4CB66"/>
<path d="M50.9571 212.444C51.0432 212.444 51.2153 212.345 51.3014 212.345C60.5118 201.845 64.9018 181.934 68.1728 164.103L68.9475 160.14C72.3906 141.616 75.9198 122.497 83.6669 109.025C83.8391 108.827 83.753 108.53 83.5808 108.332C83.4087 108.134 83.1504 108.233 82.9783 108.431C75.1451 122.101 71.6159 141.319 68.1728 159.843L67.3981 163.806C64.1271 181.538 59.8232 201.251 50.7849 211.553C50.6128 211.751 50.6128 212.048 50.7849 212.246C50.7849 212.345 50.871 212.444 50.9571 212.444Z" fill="#E4CB66"/>
<path d="M80.0531 82.178C77.6429 69.8945 78.5037 56.7194 85.0456 46.7143C91.5876 36.7092 104.758 30.8646 116.895 35.1242C130.839 39.9782 139.275 56.8185 137.467 70.687C135.66 84.3574 125.675 95.155 113.71 100.702C103.552 105.358 92.018 106.943 80.2252 107.042C78.1594 107.042 77.6429 109.618 79.4505 110.807C85.6482 114.67 92.7066 118.335 89.3495 109.123C85.9064 100.207 82.205 91.6879 80.0531 82.178Z" fill="#E4CB66"/>
<path d="M84.4435 105.752C91.588 99.5116 96.7527 90.7942 97.1831 80.7891C97.6135 70.6849 92.4488 59.2929 83.1523 53.3492C71.5317 45.9197 56.2098 48.5943 48.0323 57.7079C39.8549 66.8215 38.5637 80.4919 41.8347 92.9735C44.5892 103.771 50.4425 113.677 57.1566 122.791C58.0174 123.98 56.8984 125.366 55.5211 124.871L49.2374 122.692C46.9994 121.899 46.6551 118.927 48.807 118.333C50.1843 117.838 51.6476 117.442 53.111 117.342C56.2959 117.442 58.9643 118.432 62.1492 117.838C70.0684 116.352 78.6762 110.804 84.4435 105.752Z" fill="#5F977F"/>
<path d="M58.3611 48.6949C60.6853 42.8503 62.4068 36.5104 62.0625 29.7743C61.7182 22.2457 58.9637 15.2124 54.3155 9.96215C46.6545 1.34387 34.3453 -1.52889 24.5323 0.749505C9.5547 4.21663 -7.62939e-06 18.4814 -7.62939e-06 34.3311C-7.62939e-06 49.7846 8.52176 65.7333 20.7449 76.8281C25.0488 80.7906 29.9553 84.2577 33.4845 88.6164C34.8618 90.3995 35.9808 93.1732 34.2592 94.1638C33.3123 94.7581 31.9351 94.3619 30.73 93.9657C28.0616 93.1732 16.6992 91.291 18.5929 88.022C19.3676 86.6352 23.069 85.8427 24.5323 85.1492C26.5982 84.1586 28.6641 82.9699 30.6439 81.6821C38.391 76.9272 45.2772 70.3892 50.7862 62.4643C53.7129 58.3038 56.2953 53.6479 58.3611 48.6949Z" fill="#E4CB66"/>
<path d="M69.7356 186.693C65.2845 188.675 62.0755 192.538 60.9368 196.996C57.9349 194.915 54.7259 192.736 51.1029 192.043C47.4798 191.349 43.0287 192.637 41.476 195.807C40.0267 198.581 41.0619 201.949 43.0287 204.425C44.9955 206.902 47.7904 208.487 50.5853 209.973C48.2044 211.062 47.2728 214.133 48.4115 216.412C49.6537 218.69 51.931 220.176 54.6224 220.374C63.6282 221.365 76.5676 211.459 81.1223 204.326C83.3996 200.859 83.7102 196.798 83.8137 192.736C83.9172 188.675 84.3312 186.792 79.8801 185.604C76.4641 184.91 72.9446 185.307 69.7356 186.693Z" fill="white"/>
<path d="M55.7658 221.267C65.0822 221.267 77.297 211.658 81.7481 204.823C84.129 201.058 84.4395 196.898 84.6466 192.935V192.242C84.7501 188.676 84.8536 186.298 80.0919 185.011C76.4689 184.119 72.7423 184.515 69.4298 186.001C65.1857 187.883 61.8732 191.45 60.424 195.808C57.7326 193.926 54.6272 192.044 51.1076 191.35C47.2776 190.657 42.5159 191.846 40.6526 195.511C39.2034 198.285 39.928 201.95 42.3089 204.823C44.1721 206.903 46.4495 208.686 49.0373 209.974C47.0706 211.658 46.553 214.432 47.5881 216.71C48.9338 219.187 51.5217 220.871 54.4201 221.069C54.8342 221.267 55.2483 221.267 55.7658 221.267ZM76.3653 186.001C77.504 186.001 78.5392 186.1 79.6778 186.397C83.1974 187.388 83.1973 188.577 83.0938 192.143V192.836C82.9903 196.601 82.6798 200.662 80.4024 204.03C75.9513 210.964 63.1154 220.672 54.6272 219.781C52.2463 219.583 50.0725 218.295 49.0373 216.215C48.1057 214.233 48.8303 211.856 50.9006 210.766C51.2112 210.667 51.3147 210.37 51.3147 210.172C51.3147 209.875 51.2112 209.677 50.9006 209.479C48.2092 207.993 45.5178 206.408 43.551 204.129C41.9983 202.247 40.6526 199.077 42.1018 196.303C43.6546 193.332 47.6917 192.341 50.9006 192.935C54.4201 193.629 57.6291 195.808 60.424 197.69C60.631 197.789 60.9416 197.888 61.1486 197.789C61.3556 197.69 61.5627 197.492 61.6662 197.294C62.7013 192.935 65.8068 189.369 70.0509 187.487C72.0177 186.496 74.1915 186.001 76.3653 186.001Z" fill="#121B43"/>
<path d="M56.4894 214.828C56.6964 214.828 56.7999 214.729 56.9034 214.63C57.7316 213.342 57.9386 211.856 57.5245 210.37C59.1808 211.261 60.9405 211.757 62.8038 211.856H62.9073C65.2881 211.856 67.9796 210.469 68.2901 208.092C68.4971 206.507 67.7725 204.922 66.5303 203.832C65.3917 202.841 64.046 202.049 62.5968 201.554C62.3897 201.454 62.0792 201.554 61.9757 201.752C61.8722 201.95 61.9757 202.247 62.1827 202.346C63.5284 202.841 64.7706 203.634 65.9092 204.525C66.9444 205.417 67.462 206.606 67.3585 207.992C67.0479 209.875 64.7706 211.063 62.8038 211.063C60.63 211.063 58.5597 209.974 56.7999 209.082C56.5929 208.983 56.3858 208.983 56.1788 209.181C56.0753 209.379 55.9718 209.577 56.0753 209.776C57.0069 211.162 57.0069 212.946 56.0753 214.332C55.9718 214.53 55.9718 214.828 56.1788 214.927C56.3858 214.828 56.4894 214.828 56.4894 214.828Z" fill="#121B43"/>
<path d="M84.1269 216.214C85.8867 212.845 86.3008 209.081 87.1289 205.416C88.9922 197.194 92.8222 188.972 100.068 184.217C107.314 179.462 118.39 179.66 123.877 186.198C126.879 189.863 127.81 194.816 127.086 199.472C126.361 204.128 124.394 208.487 122.117 212.647C116.941 222.157 110.523 230.974 103.07 238.998C99.0331 243.257 94.582 247.319 89.1992 249.795C83.8164 252.272 77.1914 252.866 71.8086 250.29C67.1505 248.111 63.9415 243.752 62.2852 238.998C60.629 234.243 60.2149 229.29 60.1114 224.337C60.0079 217.799 62.1817 210.864 67.7716 217.6C73.1543 223.643 80.1934 224.039 84.1269 216.214Z" fill="white"/>
<path d="M79.5744 252.665C83.0939 252.665 86.5099 251.872 89.6153 250.386C95.4122 247.712 100.07 243.353 103.797 239.49C111.354 231.466 117.875 222.55 123.051 212.941C125.121 209.078 127.398 204.521 128.019 199.568C128.744 194.219 127.502 189.266 124.603 185.7C118.703 178.567 107.006 178.865 99.7598 183.52C91.5821 188.87 87.9591 198.28 86.5099 205.215C86.3029 206.007 86.1993 206.8 85.9923 207.493C85.5782 210.366 84.7501 213.14 83.5079 215.814C81.8517 219.083 79.5744 220.965 76.883 221.263C74.1916 221.56 71.0861 220.074 68.6018 217.102C66.5315 214.625 64.5647 213.635 63.0119 214.229C60.3205 215.121 59.4924 220.074 59.5959 224.333C59.6995 229.187 60.01 234.438 61.7698 239.193C63.7366 244.641 67.2561 248.702 71.7072 250.882C74.0881 252.07 76.883 252.665 79.5744 252.665ZM111.457 181.737C116.012 181.539 120.359 183.421 123.258 186.69C125.949 189.86 126.984 194.516 126.363 199.469C125.742 204.125 123.568 208.583 121.498 212.347C116.426 221.857 110.008 230.574 102.555 238.499C98.9317 242.363 94.4806 246.622 88.8907 249.099C83.3009 251.575 76.883 251.872 72.2248 249.594C68.1877 247.613 64.8752 243.749 63.0119 238.796C61.3557 234.14 61.0452 229.088 60.9416 224.333C60.8381 219.876 61.8733 216.21 63.426 215.616C64.3576 215.319 65.7033 216.111 67.3596 217.994C70.258 221.362 73.7775 223.145 77.09 222.748C79.2638 222.55 82.4728 221.263 84.8536 216.508C86.0958 213.734 87.0275 210.762 87.4415 207.79C87.545 206.998 87.7521 206.304 87.9591 205.512C89.4083 198.875 92.8243 189.86 100.588 184.808C103.797 182.728 107.627 181.638 111.457 181.737Z" fill="#121B43"/>
<path d="M139.507 166.487C137.333 168.765 134.746 171.142 131.433 171.043C126.775 170.845 124.291 165.793 123.152 161.434C118.597 143.901 119.736 125.376 124.187 107.843C125.015 104.673 126.361 101.007 129.57 99.9178C132.158 99.0262 135.056 100.215 137.437 101.503C146.236 105.96 159.693 113.786 164.144 122.801C166.111 126.862 163.316 131.023 161.556 134.688C155.966 146.278 148.513 156.977 139.507 166.487Z" fill="white"/>
<path d="M131.742 171.734C135.158 171.734 137.849 169.356 140.127 166.979C144.888 161.927 149.236 156.478 153.17 150.832C156.586 145.78 159.691 140.529 162.382 135.081C162.59 134.586 162.9 134.09 163.107 133.595C164.867 130.227 166.834 126.364 164.97 122.599C161.554 115.665 152.445 108.335 137.953 100.905C135.365 99.6173 132.26 98.3295 129.361 99.3201C125.738 100.509 124.289 104.471 123.461 107.74C118.596 127.156 118.181 145.383 122.426 161.728C124.082 168.068 127.394 171.734 131.431 171.833L131.742 171.734ZM131.535 100.311C133.502 100.509 135.469 101.103 137.125 102.094C151.306 109.325 160.209 116.458 163.418 123.095C164.97 126.265 163.314 129.633 161.554 132.803C161.244 133.298 161.037 133.793 160.726 134.289C158.035 139.638 155.033 144.888 151.617 149.841C147.787 155.488 143.439 160.837 138.781 165.79C136.711 167.969 134.226 170.149 131.328 170.049C126.566 169.851 124.496 163.71 123.771 161.035C119.631 144.888 119.941 127.057 124.806 107.74C125.531 104.868 126.773 101.4 129.672 100.41C130.396 100.41 131.017 100.311 131.535 100.311Z" fill="#121B43"/>
<path d="M140.854 126.065C141.165 125.768 141.786 125.471 142.097 125.768C142.304 125.966 142.407 126.164 142.407 126.362C142.407 126.561 142.304 126.858 142.2 127.056C141.89 127.848 140.751 131.415 139.509 130.226C138.267 129.037 140.026 126.858 140.854 126.065Z" fill="#121B43"/>
<path d="M129.568 128.743C129.361 128.941 129.154 129.04 128.843 129.04C128.636 128.941 128.533 128.743 128.429 128.545C128.119 127.752 127.912 123.394 129.568 123.988C131.431 124.483 130.499 127.752 129.568 128.743Z" fill="#121B43"/>
<path d="M123.048 112.1C118.597 111.506 114.353 109.327 112.489 106.157C110.833 103.185 111.972 99.4206 115.181 97.8357C115.491 97.6375 115.802 97.5385 116.216 97.4394C107.003 94.6657 101.517 85.9484 104.208 78.816C106.9 71.6836 117.562 67.1268 127.085 69.009C127.292 62.3719 134.538 56.5273 143.13 56.1311C151.722 55.7349 160.417 60.6879 162.384 67.1268C168.284 63.1644 177.911 62.8672 184.536 66.3344C191.161 69.8015 194.473 76.9339 191.989 82.6794C196.44 86.4437 198.614 91.6939 197.889 96.6469C197.165 101.6 193.438 106.157 188.055 108.732C190.643 105.761 197.061 105.86 200.788 108.336C204.514 110.813 206.171 114.577 206.895 118.242C207.93 123.591 207.309 129.436 203.272 133.795C199.235 138.153 191.057 140.333 184.847 137.658C188.366 140.531 188.884 145.484 185.985 148.951C183.087 152.22 177.186 153.706 172.218 152.22C167.767 155.786 158.968 155.093 155.138 150.833C151.308 146.673 153.585 140.135 159.485 138.153C160.52 136.965 162.073 136.37 163.626 136.469C161.763 134.983 161.556 132.309 163.108 130.625C163.522 130.229 164.04 129.832 164.558 129.535C159.589 128.544 156.69 123.492 159.278 120.124C158.14 121.61 151.618 119.332 150.376 118.638C147.788 117.351 145.821 115.072 144.993 112.398C141.474 114.181 139.196 112.398 135.78 112.001C131.433 111.506 127.396 112.695 123.048 112.1Z" fill="#121B43"/>
<path d="M156.691 131.712C158.14 130.721 159.796 129.731 161.659 129.929C163.109 130.127 164.351 130.919 165.179 132.009C166.732 134.089 166.835 136.863 165.386 138.943C164.558 140.033 163.212 140.825 161.763 141.024C159.589 141.321 157.415 140.429 155.448 139.439" fill="#121B43"/>
<path d="M160.831 138.352C162.591 138.253 163.937 136.867 163.833 135.282C163.73 133.697 162.281 132.31 160.624 132.409C160.314 132.409 160.21 132.607 160.21 132.904C160.21 133.201 160.417 133.3 160.728 133.3C161.97 133.201 163.005 133.994 163.109 135.182C163.212 136.371 162.384 137.362 161.142 137.461C160.728 137.461 160.417 137.461 160.003 137.263C159.693 137.164 159.486 137.362 159.382 137.56C159.279 137.758 159.382 137.956 159.589 138.055C160.003 138.253 160.417 138.253 160.831 138.352Z" fill="#121B43"/>
<path d="M156.38 191.646L188.366 245.238C193.439 253.658 198.407 264.555 192.611 272.479C189.505 276.838 183.915 278.819 178.74 280.503C161.246 285.952 143.13 289.221 124.705 290.409C117.769 290.905 110.627 291.004 103.898 289.221C97.1696 287.438 90.6482 283.772 87.1287 278.027C82.781 270.795 83.5056 261.88 84.7478 253.658C86.7146 240.78 89.5095 227.902 95.6169 216.312C104.726 198.976 139.404 163.116 156.38 191.646Z" fill="white"/>
<path d="M117.044 291.402C119.632 291.402 122.22 291.303 124.808 291.105C143.233 289.916 161.452 286.548 178.946 281.099C184.122 279.514 189.919 277.434 193.231 272.778C199.442 264.259 193.749 252.669 188.987 244.744L157.001 191.152C152.55 183.624 146.546 179.958 139.196 180.157C129.362 180.355 119.528 187.487 112.903 193.431C105.657 200.068 98.5147 208.785 94.7881 215.818C88.1632 228.399 85.4718 242.466 83.8155 253.461C82.5734 261.485 81.6417 270.797 86.2999 278.326C89.6124 283.774 95.9268 287.935 103.483 289.916C108.038 291.005 112.489 291.501 117.044 291.402ZM156.38 191.648L155.759 192.044L187.745 245.636C192.299 253.263 197.682 264.259 191.989 272.085C188.883 276.245 183.397 278.326 178.532 279.812C161.038 285.26 143.026 288.529 124.704 289.718C117.976 290.114 110.833 290.312 104.105 288.628C96.8584 286.845 90.9581 282.783 87.8526 277.731C83.505 270.599 84.3331 261.584 85.5753 253.759C87.2315 242.961 89.9229 228.993 96.4444 216.611C102.966 204.228 122.841 182.138 139.403 181.742C146.132 181.543 151.618 185.011 155.862 192.044L156.38 191.648Z" fill="#121B43"/>
<path d="M84.7456 288.628C88.9898 292.194 94.3725 294.076 99.9624 295.067C103.068 317.653 108.761 339.743 116.939 361.041C117.249 362.23 117.974 363.32 118.906 364.211C119.837 365.103 121.39 365.202 122.425 364.409C120.355 350.541 122.011 336.474 127.29 323.497C130.085 316.662 135.054 309.332 142.714 308.638C148.511 308.044 153.894 311.61 158.345 315.275C162.796 318.941 167.144 323.2 172.734 324.587C179.876 326.37 187.536 323.101 192.815 318.049C198.095 312.997 201.2 306.459 204.202 300.02L199.958 297.048C193.644 302.893 184.12 303.982 176.46 299.822C171.802 297.147 170.042 292.987 168.593 288.628C172.423 287.736 176.253 286.746 180.083 285.656C187.329 283.675 195.3 280.802 198.716 274.363C202.339 267.627 199.751 259.405 195.817 252.768C191.884 246.131 186.605 240.187 184.534 232.956C176.874 237.711 166.109 236.621 158.862 231.272C144.784 220.87 148.304 205.813 149.029 191.251C149.132 188.279 150.167 181.345 145.82 183.128C140.747 185.209 140.954 204.823 137.435 205.12L116.111 206.507C114.454 206.606 113.109 205.417 113.005 203.832C113.005 203.139 113.109 202.544 113.523 201.95L125.841 185.803C113.109 186.893 103.999 197.69 96.9604 207.893C85.5738 224.536 75.3258 243.06 74.9117 263.07C75.0152 272.283 77.3961 282.387 84.7456 288.628Z" fill="#E4CB66"/>
<path d="M251.512 298.631C257.515 296.056 263.933 291.895 270.144 294.174C276.769 296.551 278.425 305.764 274.699 311.509C270.972 317.255 263.726 320.227 256.791 321.514C237.33 324.981 217.144 318.146 203.584 304.476C201.1 301.999 193.129 294.471 197.166 290.706C201.721 286.447 214.971 298.235 219.836 299.82C230.187 303.287 241.471 302.891 251.512 298.631Z" fill="#121B43"/>
<path d="M105.349 386.995C102.451 389.867 99.4487 392.839 95.6186 394.622C91.1675 396.703 85.9917 397 80.9195 397C75.4332 397 69.8433 396.604 64.357 396.009C60.4235 395.514 55.9723 394.622 54.109 391.254C51.6247 386.995 55.4547 381.447 60.2164 379.664C64.9781 377.881 70.2574 378.574 75.3296 378.574C84.2319 378.475 92.9272 376.296 100.691 372.235C106.902 368.966 111.663 364.211 118.806 362.725C122.326 361.932 127.915 360.843 126.984 365.3C126.363 368.173 118.806 373.522 116.632 375.702L105.349 386.995Z" fill="#121B43"/>
<path d="M217.351 150.436C219.11 149.545 221.077 148.95 223.044 148.95C225.011 149.049 227.081 150.337 227.288 152.219C227.288 153.606 226.771 154.894 225.942 155.884C213.728 174.508 201.513 193.131 187.124 210.17C183.191 214.826 178.532 219.68 172.425 220.571C165.282 221.562 158.554 216.708 154.31 211.16C151.826 208.089 150.169 204.424 149.445 200.561C147.478 186.692 164.765 179.362 174.806 173.121C188.366 164.602 202.651 157.073 217.351 150.436Z" fill="white"/>
<path d="M170.456 221.463C171.077 221.463 171.802 221.463 172.423 221.364C178.945 220.472 183.706 215.42 187.64 210.764C202.028 193.627 214.554 174.706 226.458 156.38C227.39 155.191 227.907 153.705 227.907 152.219C227.7 149.842 225.216 148.356 222.938 148.257C220.765 148.257 218.694 148.851 216.935 149.842C202.132 156.479 187.847 164.007 174.183 172.527C172.734 173.418 171.077 174.409 169.318 175.399C159.277 181.244 146.751 188.376 148.511 200.759C149.236 204.721 150.892 208.486 153.583 211.656C158.345 217.897 164.556 221.463 170.456 221.463ZM222.731 149.644H223.042C224.595 149.743 226.354 150.733 226.562 152.219C226.562 153.408 226.044 154.498 225.319 155.389C213.312 173.616 200.89 192.537 186.501 209.674C182.775 214.132 178.22 218.986 172.216 219.779C166.212 220.571 159.794 217.203 154.826 210.665C152.341 207.693 150.788 204.127 150.064 200.462C148.511 189.169 160.519 182.235 170.146 176.588C171.906 175.598 173.562 174.607 175.011 173.715C188.675 165.196 202.857 157.668 217.556 151.13C219.212 150.238 220.972 149.743 222.731 149.644Z" fill="#121B43"/>
<path d="M252.65 140.63C250.994 141.423 249.234 141.918 247.371 142.116C257.929 144.989 267.453 150.635 274.906 158.263C278.218 161.631 281.117 165.494 281.324 170.249C281.427 172.429 280.806 174.509 279.564 176.292C275.423 181.74 267.349 180.155 261.138 177.679C254.513 175.004 248.199 171.735 242.299 167.872C238.262 165.197 227.392 159.254 226.254 154.4C225.115 149.248 234.121 143.404 238.054 141.224C242.092 138.946 246.543 137.46 251.201 136.866C252.443 136.668 253.478 137.46 253.685 138.649C253.789 139.342 253.375 140.135 252.65 140.63Z" fill="white"/>
<path d="M271.179 180.651C275.113 180.651 278.218 179.264 280.185 176.688C281.53 174.806 282.255 172.528 282.048 170.15C281.738 164.801 278.322 160.74 275.423 157.669C268.591 150.635 259.999 145.385 250.476 142.215C251.304 141.918 252.132 141.621 252.96 141.225C254.202 140.63 254.824 139.144 254.306 137.857C253.892 136.47 252.546 135.677 251.097 135.875C246.335 136.569 241.781 138.055 237.64 140.432C233.499 142.711 224.183 148.654 225.425 154.4C226.46 158.857 234.328 163.711 239.503 166.881C240.331 167.476 241.16 167.872 241.781 168.268C247.785 172.132 254.099 175.5 260.827 178.174C264.14 179.66 267.659 180.453 271.179 180.651ZM251.511 137.361C252.132 137.361 252.65 137.757 252.857 138.352C253.064 138.946 252.753 139.64 252.236 139.937C250.683 140.729 249.027 141.126 247.267 141.225C246.853 141.225 246.542 141.522 246.542 141.918C246.542 142.314 246.749 142.611 247.06 142.711C257.515 145.583 266.935 151.032 274.284 158.659C277.079 161.532 280.288 165.395 280.495 170.249C280.599 172.231 280.081 174.212 278.839 175.797C274.698 181.245 266.107 178.868 261.345 176.986C254.824 174.311 248.509 171.042 242.609 167.179C241.988 166.782 241.16 166.287 240.331 165.693C235.673 162.82 227.806 157.966 226.874 154.103C225.943 150.239 232.154 145.187 238.261 141.72C242.195 139.541 246.542 138.055 251.097 137.361H251.511Z" fill="#121B43"/>
<path d="M129.053 129.138C132.055 130.129 134.539 132.209 136.092 134.884C137.334 136.865 137.748 139.242 137.334 141.422C136.506 145.285 132.365 148.059 128.225 147.861C124.084 147.563 120.461 144.988 118.908 141.224C117.666 138.252 117.459 133.695 119.322 130.822C121.186 127.949 126.154 128.148 129.053 129.138Z" fill="#FFB0CC"/>
<path d="M138.058 149.842C139.403 149.842 140.646 150.238 141.784 150.931C142.612 151.724 143.026 152.715 142.923 153.804C142.819 154.894 142.612 155.885 142.095 156.875C140.956 159.649 138.989 161.927 136.298 163.413C133.606 164.8 129.983 164.701 127.81 162.819C126.36 161.432 125.429 159.649 125.118 157.767C124.601 155.389 124.394 152.913 124.704 150.535C124.808 149.545 125.118 148.257 126.464 148.257C127.292 148.257 128.017 148.851 128.845 149.049C131.95 149.446 134.952 149.743 138.058 149.842Z" fill="white"/>
<path d="M132.467 165.196C133.916 165.196 135.468 164.899 136.711 164.206C139.506 162.621 141.679 160.144 142.818 157.271C143.336 156.182 143.646 155.092 143.75 153.903C143.853 152.616 143.336 151.328 142.3 150.436C141.058 149.545 139.609 149.148 138.16 149.148C137.125 149.049 136.09 149.049 135.054 148.95C132.984 148.851 131.017 148.653 129.051 148.356C128.74 148.257 128.533 148.158 128.222 148.059C127.705 147.762 127.084 147.563 126.566 147.563C125.738 147.563 124.289 147.96 123.978 150.535C123.771 153.012 123.875 155.587 124.392 158.064C124.703 160.144 125.738 162.026 127.291 163.611C128.74 164.701 130.603 165.295 132.467 165.196ZM137.953 150.634C139.092 150.634 140.23 150.932 141.162 151.526C141.783 152.12 142.197 153.012 142.093 153.903C141.99 154.894 141.783 155.885 141.265 156.776C140.23 159.352 138.367 161.531 135.883 162.918C133.502 164.206 130.396 164.008 128.222 162.423C126.877 161.135 126.049 159.451 125.842 157.668C125.324 155.389 125.22 153.012 125.428 150.634C125.635 149.049 126.256 149.049 126.463 149.049C126.773 149.049 127.187 149.248 127.394 149.347C127.808 149.545 128.222 149.743 128.636 149.842C130.707 150.139 132.777 150.436 134.847 150.436C135.986 150.436 137.021 150.535 137.953 150.634Z" fill="#121B43"/>
<path d="M128.019 156.185C128.433 157.869 129.365 159.355 130.814 160.444C132.263 161.534 134.23 161.633 135.886 160.841C137.025 160.048 137.956 158.859 138.474 157.572C138.992 156.68 139.406 155.491 138.888 154.6C138.371 153.906 137.646 153.51 136.818 153.312C134.748 152.619 131.228 151.232 129.054 151.529C126.673 151.727 127.501 154.204 128.019 156.185Z" fill="#121B43"/>
<path d="M183.708 279.711C187.952 266.14 185.675 251.479 177.394 239.79L176.566 240.384C184.64 251.875 186.917 266.14 182.776 279.414L183.708 279.711Z" fill="#121B43"/>
<path d="M162.175 284.069C165.798 266.535 164.141 248.407 157.413 231.765L156.481 232.161C163.106 248.605 164.762 266.535 161.139 283.871L162.175 284.069Z" fill="#121B43"/>
<path d="M134.829 207.969L142.329 287.288L141.298 287.377L133.799 208.059L134.829 207.969Z" fill="#121B43"/>
<path d="M120.563 289.619L121.599 289.421C116.526 262.872 115.388 235.73 118.39 208.983L117.355 208.884C114.456 235.829 115.491 262.971 120.563 289.619Z" fill="#121B43"/>
<path d="M95.3038 286.645L96.3389 286.447C90.2315 258.512 93.4405 229.388 105.448 203.335L104.517 202.938C92.4053 229.19 89.1964 258.512 95.3038 286.645Z" fill="#121B43"/>
<path d="M82.7822 279.906L83.8174 279.708C81.0225 265.642 81.333 251.08 84.6455 237.112L83.6104 236.914C80.1944 250.981 79.8838 265.642 82.7822 279.906Z" fill="#121B43"/>
<path d="M180.808 310.025C187.743 310.025 194.265 307.053 198.612 302.001L197.784 301.407C190.435 310.223 176.874 311.709 167.661 304.576C163.624 301.506 160.933 297.048 160.001 292.194L158.966 292.392C160.622 300.614 167.04 307.251 175.528 309.43C177.288 309.926 179.048 310.124 180.808 310.025Z" fill="#121B43"/>
<path d="M176.151 318.444C182.88 318.444 189.298 314.977 191.989 309.727L191.058 309.33C188.366 314.482 181.845 317.85 175.116 317.453C169.319 317.156 163.212 314.283 158.036 309.528C153.275 305.17 149.652 299.821 146.236 294.57L145.407 295.066C148.927 300.316 152.55 305.764 157.415 310.222C162.798 315.175 169.112 318.147 175.116 318.444C175.427 318.444 175.737 318.444 176.151 318.444Z" fill="#121B43"/>
<path d="M118.39 353.709C118.804 334.293 123.151 315.075 131.226 297.244L130.294 296.848C122.116 314.778 117.665 334.095 117.355 353.709H118.39Z" fill="#121B43"/>
<path d="M111.249 331.024L112.284 330.925C111.663 319.632 113.63 308.339 118.288 297.938L117.356 297.542C112.698 308.141 110.628 319.632 111.249 331.024Z" fill="#121B43"/>
<path d="M107.808 299.723L108.843 299.753L108.461 311.933L107.426 311.903L107.808 299.723Z" fill="#121B43"/>
<path d="M276.664 176.592C276.768 176.592 276.871 176.492 276.975 176.492C277.182 176.294 277.182 175.997 276.975 175.799C269.211 167.874 259.895 161.633 249.543 157.275C249.336 157.176 249.026 157.275 248.922 157.473C248.818 157.671 248.922 157.968 249.129 158.067C259.377 162.327 268.59 168.568 276.146 176.393C276.457 176.592 276.561 176.592 276.664 176.592Z" fill="#121B43"/>
<path d="M241.573 160.838C248.405 160.144 253.995 155.389 255.444 148.95C255.444 148.653 255.237 148.455 255.03 148.455C254.823 148.455 254.616 148.554 254.513 148.752C253.167 154.795 247.888 159.253 241.573 159.946C241.263 159.946 241.159 160.144 241.159 160.441C241.056 160.739 241.366 160.838 241.573 160.838Z" fill="#121B43"/>
<path d="M213.031 67.0499C213.806 63.88 215.528 60.8091 218.196 59.2241C221.811 57.1438 226.546 58.7288 229.386 62.0969C232.227 65.4649 233.26 70.418 233.346 75.0738C233.518 78.1447 232.83 81.1165 231.538 83.7912C229.386 87.6545 225.341 89.5367 221.467 90.4282C219.229 91.0226 216.733 91.3198 214.753 89.9329C213.118 88.6451 212.085 86.6639 211.826 84.4846C210.88 79.6306 211.826 71.7058 213.031 67.0499Z" fill="white"/>
<path d="M218.111 91.7167C219.23 91.7167 220.349 91.5186 221.468 91.2214C226.547 89.9337 230.076 87.6553 231.97 84.2872C233.347 81.5135 234.036 78.3435 233.864 75.1736C233.864 69.6262 232.314 64.8713 229.732 61.7013C226.547 57.838 221.554 56.5502 217.853 58.6305C215.099 60.4136 213.119 63.3854 212.43 66.8525C211.139 71.8055 210.278 79.8295 211.053 84.6834C211.397 87.0609 212.602 89.2402 214.324 90.6271C215.443 91.4196 216.734 91.8158 218.111 91.7167ZM221.727 59.0267C224.395 59.1258 226.977 60.4136 228.785 62.692C231.195 65.6638 232.572 70.0224 232.572 75.1736C232.745 78.0464 232.142 81.0182 230.851 83.4947C229.129 86.5656 225.858 88.6459 221.21 89.8346C219.316 90.3299 216.82 90.7261 214.926 89.4383C213.463 88.2496 212.516 86.4665 212.258 84.4853C211.483 79.8295 212.344 72.1027 213.549 67.3478C214.238 64.2769 215.959 61.6023 218.37 60.0173C219.489 59.3239 220.608 59.0267 221.727 59.0267Z" fill="#121B43"/>
<path d="M209.33 69.5245C207.092 67.8405 204.51 66.6518 201.842 67.1471C197.882 67.7414 194.869 72.2982 194.611 76.855C194.353 81.4118 196.505 85.9686 199.431 89.0395C203.735 93.3981 213.29 95.9737 216.475 88.4451C219.229 81.709 213.893 72.8926 209.33 69.5245Z" fill="#E4CB66"/>
<path d="M232.401 89.0401C235.844 90.427 238.943 93.2998 240.148 97.2622C241.353 101.225 240.32 106.178 237.221 108.357C234.811 110.041 231.626 109.843 229.043 108.654C226.461 107.465 224.223 105.286 222.071 103.107C223.276 106.277 224.481 109.645 224.223 113.112C223.965 116.579 221.469 120.046 218.456 119.749C215.443 119.452 213.635 116.084 212.775 112.815C210.881 105.484 212.43 96.0735 217.079 90.427C220.952 85.8702 227.494 87.0589 232.401 89.0401Z" fill="#E4CB66"/>
<path d="M218.027 96.4731C217.682 99.7421 216.563 102.813 214.928 105.488C211.657 111.035 207.267 115.493 202.102 118.564C199.089 120.347 195.474 121.535 192.548 119.653C189.965 118.068 188.76 114.403 188.932 111.134C189.104 107.865 190.482 104.695 192.203 101.921C195.474 96.4731 200.725 90.3313 206.148 87.8548C212.087 84.883 218.629 88.251 218.027 96.4731Z" fill="white"/>
<path d="M195.902 121.234C198.227 121.135 200.465 120.442 202.444 119.154C207.695 116.083 212.171 111.526 215.442 105.88C217.25 103.106 218.283 99.9362 218.713 96.4691C219.058 93.2001 217.939 89.9311 215.614 87.8508C213.032 85.6715 209.331 85.3743 205.888 87.0583C200.12 89.733 194.697 96.271 191.685 101.422C189.619 104.988 188.5 107.96 188.328 111.031C188.155 114.993 189.705 118.659 192.287 120.343C193.406 120.937 194.611 121.333 195.902 121.234ZM210.278 87.5537C211.913 87.5537 213.462 88.049 214.84 89.1386C216.733 90.8227 217.766 93.5964 217.422 96.4691C217.078 99.6391 216.045 102.611 214.409 105.087C211.224 110.536 206.92 114.894 201.842 117.866C199.26 119.352 195.644 120.739 192.89 119.055C190.393 117.47 189.447 114.003 189.619 111.229C189.791 108.455 190.738 105.682 192.718 102.413C195.73 97.4597 200.809 91.2189 206.404 88.5443C207.609 87.7518 208.9 87.4546 210.278 87.5537Z" fill="#121B43"/>
<path d="M210.192 115.391C213.463 118.759 213.291 125.693 209.762 128.764C206.233 131.835 200.379 130.349 198.4 125.693C199.174 129.259 198.916 133.123 197.539 136.491C197.108 137.779 196.248 138.868 195.129 139.562C192.805 140.651 190.394 138.076 189.447 135.401C187.64 130.151 188.673 124.207 190.308 118.957C190.825 116.877 191.772 114.995 193.063 113.509C196.248 110.339 207.18 112.32 210.192 115.391Z" fill="#E4CB66"/>
<path d="M186.949 103.111C184.28 101.625 180.751 101.031 178.685 103.507C176.619 105.984 177.308 110.342 178.857 113.314C181.095 117.475 192.372 127.777 196.934 122.23C201.324 116.88 190.564 105.191 186.949 103.111Z" fill="#E4CB66"/>
</svg>
