<svg width="90" height="90" viewBox="0 0 90 90" fill="none" xmlns="http://www.w3.org/2000/svg">
<path d="M42.1988 19.7074C41.7423 19.8313 41.3244 20.0683 40.9838 20.3965C35.4151 25.7487 24.7641 32.2877 20.5763 34.8471L12.8335 39.5721C12.6723 39.6715 12.5242 39.784 12.3892 39.9096L12.3554 39.9321C11.6466 40.4496 11.2191 41.0937 11.2191 42.1906V45.9959H11.2276C11.2426 47.4957 11.7695 48.9454 12.721 50.1049C11.2641 60.0331 8.56977 80.2465 8.46571 81.6134C8.33071 83.3571 9.40509 84.3865 11.326 84.3865H73.1504V84.3302H79.1579C81.3348 84.3302 81.706 82.9521 81.5204 81.394L80.9973 77.1077L80.9945 77.074C80.6204 74.0112 80.1113 69.8684 79.6501 66.0434C79.141 61.8077 78.0863 54.8412 77.3523 50.119L77.4507 49.9952C78.3992 48.7846 78.8938 47.28 78.8485 45.7427V42.3649L78.8316 42.3481H78.8598V42.0387C78.8605 41.578 78.748 41.1242 78.5322 40.7171C78.3164 40.3101 78.004 39.9623 77.6223 39.7043C76.621 39.0321 74.9167 38.0056 72.9085 36.7934L72.8129 36.7371C69.9301 34.999 66.2795 32.7996 62.6204 30.4202C57.6423 27.1859 51.4435 22.2977 48.9629 20.2531C48.6164 19.9673 48.2066 19.7686 47.7676 19.6737C47.6888 19.0043 47.4413 18.5768 47.1995 18.1549C46.9238 17.6852 46.6595 17.2268 46.6595 16.4562V13.8209C49.1907 13.2668 55.066 11.1518 55.6707 10.8818C56.3682 10.5696 56.3823 9.75399 55.6707 9.42774C54.6394 8.98095 53.5976 8.55896 52.546 8.16212C48.5945 6.50555 46.5976 6.07524 45.931 6.05274C45.6626 5.8957 45.356 5.81589 45.0451 5.82212C44.1901 5.82212 43.4054 6.30587 43.4054 7.78243V16.4562C43.4054 17.3056 43.127 17.6937 42.8345 18.0931C42.4578 18.5507 42.2353 19.1158 42.1988 19.7074ZM16.487 40.6606V40.6381L16.4476 40.6634L16.487 40.6606ZM19.8001 81.5627C20.3541 77.0909 22.4438 60.6096 23.881 49.3231C25.0623 50.8418 26.9973 51.9415 29.731 51.9415C31.257 51.9337 32.7605 51.5732 34.1242 50.8882C35.4878 50.2032 36.6746 49.2123 37.592 47.9927L37.772 48.274L37.2601 58.5537C33.5251 61.009 30.9601 65.1237 30.9601 69.7784V81.5627H19.8001ZM52.5095 48.3921C52.5845 48.289 52.6566 48.184 52.726 48.0771C52.8666 48.2684 53.0195 48.4587 53.1845 48.6481C54.1004 49.6756 55.2217 50.4997 56.476 51.067C57.7302 51.6343 59.0895 51.9322 60.466 51.9415C62.4292 51.9415 64.0098 51.3677 65.1966 50.4227C65.6804 50.0383 66.1066 49.5865 66.4623 49.0812C67.8854 60.4943 70.0201 77.8024 70.4701 81.5627H59.0513V69.7784C59.0513 65.1743 56.6438 61.0962 53.0495 58.6324L52.5095 48.3921ZM26.3898 40.5959H16.5573L22.0416 37.249C24.9245 35.4856 31.1766 31.6577 36.6666 27.5909L39.8617 25.0793L43.2226 22.4552H43.4954C37.1392 31.4777 28.5976 38.7256 26.4179 40.5734L26.3898 40.5959ZM38.7366 40.5959C40.7391 35.4406 43.3717 26.6768 44.5782 22.4552H45.7032C46.9238 26.6909 49.5788 35.449 51.5926 40.5959H38.7366ZM64.0041 40.5959C61.8695 38.7846 53.297 31.5031 46.8817 22.4552H47.2163C49.7504 24.5449 56.0054 29.4752 61.0876 32.7771C64.7916 35.1846 68.4816 37.4093 71.3616 39.1446L73.7607 40.5959H64.0041ZM45.1407 58.9784C51.1763 58.9784 56.2388 63.9002 56.2388 69.7784V81.5515H33.7782V69.7784C33.7782 63.9677 39.0376 58.9784 45.1435 58.9784M75.4791 43.7346C75.9685 44.6684 76.562 46.5134 75.212 48.2993C74.672 49.0109 73.9098 49.2443 72.9591 49.1262C71.973 48.9807 71.0447 48.5705 70.2732 47.9393C68.9345 46.8143 67.7138 44.7781 67.1513 43.4759H74.7423C74.9898 43.4759 75.1304 43.4759 75.2513 43.4843L75.2935 43.4899L75.3273 43.4927C75.3861 43.5689 75.437 43.6481 75.4791 43.7346ZM14.6082 43.7431C14.6511 43.6554 14.7029 43.5725 14.7629 43.4956L14.8473 43.4871C14.9682 43.4787 15.1116 43.4787 15.362 43.4787H23.012C22.4495 44.7809 21.2176 46.8115 19.8704 47.9393C19.0891 48.5709 18.1529 48.9817 17.1591 49.129C16.1945 49.2471 15.421 49.0109 14.881 48.2965C13.5226 46.5162 14.116 44.674 14.6082 43.7431ZM44.9973 49.1515C41.1301 49.1515 38.9926 46.0465 39.2541 43.6024H51.0723C51.1988 45.3827 50.5013 46.7159 49.3988 47.644C48.2485 48.6087 46.6257 49.1515 44.9973 49.1515Z" fill="#121B43"/>
</svg>
