<svg width="375" height="650" viewBox="0 0 375 650" fill="none" xmlns="http://www.w3.org/2000/svg">
<path d="M374.79 11.0657V649.951C374.79 649.951 -69.1728 659.334 9.29925 417.948C41.8044 317.959 177.218 302.15 206.075 203.266C223.605 143.198 200.978 106.487 236.324 53.0977C276.772 -7.99933 374.79 -7.65753 374.79 11.0657Z" fill="#E4CB66"/>
<path d="M127.329 109.097C128.384 107.92 127.773 105.789 126.44 104.948C125.108 104.107 123.275 104.331 121.831 105.004C119.443 106.125 117.666 108.256 117.055 110.836C117.888 109.602 116.278 107.92 114.834 108.088C113.39 108.256 112.28 109.434 111.391 110.611C110.058 112.181 109.059 113.976 108.392 115.938C107.837 117.901 107.948 120.144 109.114 121.826C107.004 124.125 107.171 127.77 109.447 129.901C111.724 132.031 115.334 131.863 117.444 129.564C115.056 130.461 114.223 133.938 115.723 135.957C117.222 137.975 120.498 138.312 122.553 136.854C123.719 138.76 126.718 138.648 128.384 137.19C130.05 135.732 130.827 133.489 131.438 131.359C133.604 131.919 135.881 131.695 137.88 130.854C136.492 133.658 137.602 137.078 140.379 138.536C140.434 138.536 140.434 138.592 140.49 138.592C139.768 139.714 139.324 141.003 139.213 142.349C139.157 143.695 139.824 145.097 141.045 145.657C142.267 146.218 143.933 145.433 144.1 144.087C142.323 145.713 141.545 148.573 142.767 150.704C143.989 152.835 147.432 153.283 148.82 151.265C147.709 151.096 146.765 152.442 147.043 153.508C147.432 154.629 148.487 155.302 149.597 155.246C150.708 155.134 151.763 154.685 152.596 153.844C154.206 152.274 155.373 150.255 155.928 148.069C154.762 147.732 153.596 149.078 153.929 150.255C154.262 151.433 155.595 152.106 156.761 151.938C157.927 151.713 158.982 150.984 159.649 149.975C160.926 148.181 161.426 145.938 160.981 143.751C160.371 144.536 161.37 145.769 162.37 145.657C163.369 145.545 164.036 144.592 164.48 143.695C165.591 141.171 165.535 138.312 164.313 135.844C163.591 136.013 163.925 137.302 164.647 137.358C165.368 137.415 165.979 136.742 166.368 136.125C167.756 133.826 168.256 131.078 167.756 128.443C167.701 127.77 167.368 127.209 166.868 126.817C166.313 126.536 165.424 127.041 165.646 127.602C167.312 127.714 168.811 126.032 168.811 124.293C168.811 122.555 167.59 121.041 166.09 120.256C164.536 119.583 162.814 119.359 161.092 119.639C160.371 116.723 157.427 114.929 154.54 115.714C153.151 116.05 151.985 116.948 151.263 118.181C151.763 117.06 150.875 115.658 149.708 115.265C148.487 114.929 147.209 115.153 146.154 115.826C145.099 116.443 144.155 117.284 143.1 117.789C141.934 115.882 140.49 114.312 139.657 112.237C138.991 110.555 138.546 108.985 137.436 107.527C134.604 103.826 128.384 103.77 127.329 109.097Z" fill="#121B43"/>
<path d="M118.221 276.815C118.61 277.993 119.11 279.283 119.998 280.124C120.887 280.965 122.442 281.357 123.441 280.572C124.552 279.675 124.441 277.993 124.219 276.591C122.164 263.75 118.11 250.909 119.832 238.012C120.165 235.433 120.776 232.854 120.665 230.274C120.554 227.695 119.721 224.947 117.721 223.321C114.612 220.798 110.336 222.087 109.669 225.901C108.781 231.171 110.058 237.732 110.669 243.003C111.946 254.554 114.445 265.881 118.221 276.815Z" fill="white"/>
<path d="M122.11 281.414C121.222 281.414 120.333 281.077 119.723 280.404C118.779 279.507 118.279 278.217 117.835 276.928C114.114 265.937 111.559 254.554 110.227 243.003C110.116 241.938 109.949 240.76 109.782 239.639C109.171 235.153 108.505 230.05 109.227 225.789C109.505 223.994 110.671 222.48 112.337 221.863C114.28 221.19 116.391 221.583 117.946 222.929C119.834 224.443 120.944 227.078 121.055 230.218C121.055 232.181 120.889 234.144 120.5 236.05C120.389 236.723 120.278 237.396 120.222 238.013C118.945 247.545 120.889 257.302 122.777 266.666C123.443 269.862 124.11 273.171 124.609 276.479C124.832 277.993 124.943 279.844 123.665 280.853C123.221 281.245 122.666 281.414 122.11 281.414ZM114.225 222.424C113.67 222.424 113.17 222.536 112.67 222.704C111.282 223.265 110.282 224.499 110.06 225.957C109.338 230.05 110.004 235.097 110.615 239.527C110.782 240.704 110.893 241.826 111.06 242.947C112.337 254.442 114.891 265.713 118.612 276.647C119.056 277.881 119.445 279.002 120.278 279.788C121.111 280.573 122.333 280.853 123.166 280.18C124.11 279.451 123.999 277.881 123.776 276.591C123.277 273.339 122.61 270.031 121.944 266.834C120.056 257.358 118.057 247.601 119.389 237.9C119.5 237.228 119.612 236.555 119.667 235.882C120.056 234.031 120.222 232.125 120.222 230.218C120.111 227.359 119.112 224.947 117.446 223.602C116.557 222.873 115.391 222.48 114.225 222.424Z" fill="#121B43"/>
<path d="M117.557 247.937C117.279 249.003 117.168 250.124 117.223 251.246C117.334 252.367 118.001 253.376 119 253.881C120.278 254.386 121.777 253.657 122.61 252.535C123.443 251.414 123.721 249.956 123.943 248.61L126.942 231.9C127.941 226.405 122.277 227.414 121.055 231.508C119.445 236.779 118.723 242.498 117.557 247.937Z" fill="#121B43"/>
<path d="M101.118 252.423C93.8435 260.329 92.0109 272.329 96.6756 281.862C101.729 292.179 114.613 298.852 126.385 296.273C137.325 293.861 145.489 283.824 146.377 273.282C147.155 263.806 142.712 255.283 136.048 248.498C130.273 242.554 122.831 242.049 114.668 244.404C109.448 245.694 104.783 248.498 101.118 252.423Z" fill="#121B43"/>
<path d="M105.509 255.843C99.7895 262.067 98.3456 271.487 102.011 278.945C105.954 287.076 116.116 292.29 125.334 290.272C133.942 288.365 140.384 280.459 141.05 272.16C141.661 264.702 138.162 258.029 132.942 252.646C128.389 247.992 122.558 247.6 116.116 249.45C112.062 250.572 108.397 252.815 105.509 255.843Z" fill="white"/>
<path d="M107.56 282.085C107.449 282.085 107.283 282.029 107.227 281.973C107.005 281.749 106.949 281.412 107.171 281.188C114.502 272.216 122.776 264.142 131.939 257.133C132.161 256.908 132.55 256.964 132.716 257.189C132.883 257.413 132.883 257.805 132.661 257.974C132.661 257.974 132.661 257.974 132.605 258.03C123.553 265.039 115.279 273.057 108.004 281.917C107.838 281.973 107.671 282.085 107.56 282.085Z" fill="#E4CB66"/>
<path d="M130.826 283.207C130.66 283.207 130.549 283.151 130.438 283.039C122.608 274.46 115.444 265.32 108.947 255.675C108.78 255.395 108.836 255.058 109.058 254.89C109.335 254.722 109.669 254.778 109.835 255.002C116.333 264.591 123.441 273.731 131.215 282.254C131.437 282.478 131.382 282.815 131.16 283.039C131.104 283.207 130.993 283.207 130.826 283.207Z" fill="#E4CB66"/>
<path d="M133.216 269.526C122.998 269.526 112.78 268.91 102.618 267.732C102.285 267.676 102.118 267.396 102.118 267.115C102.173 266.779 102.451 266.611 102.729 266.611C114.057 267.956 125.441 268.517 136.881 268.349C137.214 268.349 137.436 268.573 137.436 268.91C137.436 269.246 137.214 269.47 136.881 269.47C135.659 269.526 134.438 269.526 133.216 269.526Z" fill="#E4CB66"/>
<path d="M119.609 288.085C119.331 288.085 119.053 287.861 119.053 287.525C118.387 274.964 118.609 262.348 119.831 249.787C119.886 249.507 120.108 249.226 120.442 249.282C120.719 249.338 120.997 249.563 120.941 249.899C119.72 262.404 119.498 274.964 120.164 287.469C120.164 287.805 119.942 288.029 119.609 288.085Z" fill="#E4CB66"/>
<path d="M103.065 229.376C102.732 231.283 103.676 233.245 105.397 234.086C108.063 235.264 110.95 233.47 113.783 232.741C117.337 231.787 121.057 232.628 124.611 233.47C128.165 234.311 131.831 235.264 135.44 234.535C139.05 233.806 142.493 231.002 142.659 227.301C142.77 224.498 140.938 221.862 138.55 220.404C136.162 218.946 133.274 218.554 130.498 218.442C124.945 218.274 119.447 219.227 114.282 221.302C111.117 222.647 103.898 225.451 103.065 229.376Z" fill="#121B43"/>
<path d="M98.4506 271.657C97.5621 272.778 96.9512 274.068 96.6735 275.47C96.3959 276.871 96.8401 278.329 97.7842 279.395C99.0614 280.628 101.172 280.628 102.727 279.787C104.281 278.946 105.448 277.544 106.447 276.086C107.447 274.629 108.335 273.002 109.557 271.769C110.723 270.591 112.112 269.75 113.222 268.516C114.333 267.283 115.166 265.601 114.61 264.031C112.945 258.479 100.228 269.189 98.4506 271.657Z" fill="white"/>
<path d="M100.507 280.798C99.3969 280.798 98.3417 280.461 97.5643 279.732C96.4536 278.611 96.0094 276.985 96.287 275.414C96.6202 273.957 97.2311 272.555 98.1751 271.433C99.4524 269.639 108.671 261.452 113.113 262.181C114.113 262.349 114.89 263.078 115.168 264.031C115.668 265.545 115.112 267.396 113.669 268.91C113.058 269.527 112.391 270.144 111.725 270.648C110.004 271.882 108.615 273.508 107.616 275.358C107.393 275.695 107.171 276.031 106.949 276.424C106.061 277.77 104.783 279.396 103.062 280.293C102.173 280.573 101.34 280.798 100.507 280.798ZM98.8415 271.882C98.0085 272.947 97.3977 274.181 97.12 275.527C96.8424 276.816 97.2311 278.162 98.1196 279.115C99.3413 280.293 101.34 280.125 102.618 279.452C104.173 278.667 105.283 277.209 106.172 275.863C106.394 275.527 106.616 275.19 106.838 274.854C107.56 273.62 108.393 272.499 109.337 271.489C109.892 270.929 110.503 270.424 111.114 269.919C111.781 269.415 112.391 268.854 113.002 268.237C113.946 267.228 114.779 265.658 114.335 264.2C114.168 263.527 113.613 263.022 112.947 262.91C109.115 262.293 100.23 269.863 98.8415 271.882Z" fill="#121B43"/>
<path d="M194.414 116.668C195.802 114.986 197.857 113.247 199.912 114.088C201.967 114.93 202.133 118.014 200.8 119.808C199.468 121.602 197.191 122.331 195.136 123.004C199.69 122.443 204.299 122.331 208.908 122.612C210.074 122.612 211.24 122.836 212.296 123.341C213.295 123.901 214.128 125.023 213.962 126.144C213.795 127.658 212.185 128.499 210.796 129.116C207.02 130.63 203.133 131.808 199.134 132.593C197.857 136.63 194.969 139.995 191.193 141.845C189.083 142.854 183.585 144.537 181.42 142.854C179.087 141.116 181.919 136.91 182.919 134.724C185.973 128.163 189.805 122.107 194.414 116.668Z" fill="white"/>
<path d="M184.14 143.922C183.085 143.978 182.085 143.698 181.196 143.137C178.975 141.455 180.697 138.146 181.974 135.735C182.196 135.286 182.418 134.838 182.585 134.501C185.584 127.941 189.471 121.829 194.136 116.39C196.246 113.866 198.3 112.969 200.077 113.642C201.022 114.035 201.688 114.876 201.966 115.885C202.354 117.287 202.077 118.801 201.188 120.034C200.411 120.988 199.467 121.773 198.356 122.277C201.91 121.997 205.464 121.997 208.963 122.165C210.184 122.165 211.406 122.446 212.517 122.95C213.572 123.511 214.627 124.745 214.405 126.203C214.183 127.997 212.35 128.95 210.962 129.511C207.241 131.025 203.409 132.146 199.467 132.987C198.134 137.025 195.191 140.389 191.359 142.24C189.082 143.249 186.639 143.81 184.14 143.922ZM198.856 114.259C197.356 114.259 195.801 115.661 194.746 116.894C190.137 122.333 186.305 128.333 183.307 134.838C183.14 135.23 182.918 135.623 182.696 136.128C181.585 138.258 180.03 141.174 181.696 142.464C183.584 143.922 188.804 142.464 191.026 141.398C194.746 139.604 197.523 136.352 198.745 132.427C198.8 132.258 198.911 132.146 199.078 132.146C203.021 131.361 206.908 130.184 210.629 128.67C212.517 127.941 213.405 127.1 213.516 126.034C213.627 124.969 212.85 124.072 212.017 123.623C211.017 123.175 209.907 122.95 208.796 122.95C204.242 122.67 199.633 122.782 195.135 123.343C194.913 123.343 194.746 123.231 194.691 123.006C194.635 122.782 194.746 122.558 194.969 122.502C197.245 121.773 199.244 121.044 200.466 119.474C201.133 118.52 201.41 117.287 201.077 116.109C200.91 115.38 200.411 114.707 199.689 114.427C199.467 114.315 199.189 114.259 198.856 114.259Z" fill="#121B43"/>
<path d="M188.861 138.089L188.306 137.977C188.917 135.173 190.583 132.706 192.971 131.08C192.748 131.024 192.526 130.912 192.36 130.799C191.638 130.351 191.194 129.566 191.138 128.725C191.138 127.155 192.471 125.977 193.693 125.528C195.025 125.136 196.414 125.08 197.746 125.248L197.691 125.809C196.414 125.641 195.081 125.697 193.859 126.033C192.804 126.426 191.693 127.379 191.638 128.669C191.693 129.341 192.027 129.902 192.582 130.295C192.971 130.575 193.47 130.631 193.915 130.407L194.192 130.912C191.471 132.426 189.528 135.061 188.861 138.089Z" fill="#121B43"/>
<path d="M181.583 147.901C175.641 163.097 165.034 175.994 151.262 184.63C149.207 185.975 146.931 187.041 144.598 187.77L145.209 189.844C147.264 196.91 148.985 204.928 145.431 211.377C142.543 216.76 136.657 219.788 130.882 221.526C120.886 224.554 110.224 224.666 100.172 221.919C95.6742 220.685 90.9539 218.498 89.1214 214.18C87.7331 210.872 88.3439 207.059 89.3435 203.582C90.6763 198.648 92.6199 193.826 95.0078 189.284C97.118 185.246 99.617 181.433 102.505 177.901C100.228 177.396 98.0621 176.499 96.1185 175.209C87.1778 169.546 82.5686 158.443 82.513 147.733C82.4575 137.023 86.4003 126.761 91.4537 117.397C93.5084 113.584 96.6738 109.435 100.95 109.939C96.0629 119.472 95.0078 130.518 98.0621 140.836C100.617 149.079 105.614 156.256 112.389 161.527C113.944 162.705 115.222 163.602 115.999 164.779C121.608 160.35 128.549 156.312 134.325 162.368C134.88 162.985 135.435 163.658 135.88 164.331C138.767 163.322 142.988 163.658 145.598 163.097C154.538 161.135 162.813 156.929 169.754 150.929C173.697 147.509 177.14 143.527 179.972 139.098C181.583 139.546 182.527 141.228 182.693 142.911C182.86 144.593 182.194 146.331 181.583 147.901Z" fill="white"/>
<path d="M114.779 224.331C109.782 224.331 104.839 223.658 100.063 222.368C94.0104 220.742 90.2897 218.107 88.7348 214.406C87.2355 210.873 87.9574 206.948 88.9014 203.528C90.2897 198.537 92.1778 193.715 94.5657 189.173C96.6204 185.304 99.0083 181.659 101.674 178.238C99.6192 177.678 97.62 176.836 95.7874 175.659C87.3465 170.276 82.071 159.622 82.0154 147.846C81.9599 138.594 84.9031 128.613 91.0117 117.286C94.0104 111.735 97.3423 109.155 100.896 109.66C101.007 109.66 101.174 109.772 101.23 109.884C101.285 109.997 101.285 110.165 101.23 110.277C96.3428 119.697 95.3432 130.688 98.3974 140.837C100.896 148.968 105.839 156.145 112.558 161.304L113.28 161.865C114.28 162.594 115.168 163.379 116.001 164.332C121.554 160.014 128.607 156.033 134.549 162.257C135.049 162.818 135.549 163.379 135.993 164.052C137.825 163.603 139.769 163.323 141.657 163.267C142.934 163.211 144.212 163.098 145.489 162.874C154.318 160.912 162.593 156.762 169.479 150.818C173.422 147.454 176.865 143.473 179.641 139.043C179.752 138.875 179.919 138.818 180.085 138.875C181.974 139.435 182.973 141.398 183.084 143.024C183.195 144.762 182.64 146.444 182.029 148.015C176.087 163.323 165.369 176.276 151.542 184.967C149.543 186.257 147.377 187.322 145.156 188.051L145.655 189.733C147.877 197.247 149.376 205.098 145.878 211.602C143.379 216.256 138.381 219.733 131.106 221.976C125.719 223.602 120.277 224.387 114.779 224.331ZM100.119 110.445C97.1757 110.445 94.3436 112.912 91.7891 117.735C85.7361 128.893 82.8484 138.762 82.9039 147.902C82.9595 159.398 88.0684 169.771 96.2872 174.986C98.2309 176.22 100.341 177.117 102.562 177.621C102.729 177.678 102.84 177.734 102.84 177.902C102.896 178.014 102.84 178.182 102.785 178.294C99.9524 181.827 97.4534 185.64 95.3432 189.621C92.9553 194.107 91.0672 198.873 89.7344 203.808C88.8459 207.06 88.124 210.873 89.5123 214.125C90.9561 217.546 94.5102 220.013 100.286 221.583C110.281 224.275 120.833 224.163 130.773 221.191C137.825 219.06 142.657 215.696 145.1 211.266C148.488 205.041 146.988 197.359 144.822 190.07L144.212 187.995C144.156 187.883 144.212 187.771 144.267 187.659C144.323 187.547 144.434 187.49 144.545 187.434C146.877 186.705 149.098 185.64 151.153 184.294C164.814 175.715 175.421 162.874 181.307 147.734C181.863 146.276 182.418 144.706 182.307 143.08C182.196 141.79 181.529 140.276 180.197 139.716C177.42 144.089 173.977 148.015 170.09 151.379C163.093 157.435 154.707 161.64 145.711 163.603C144.434 163.827 143.101 163.996 141.768 163.996C139.769 164.108 137.659 164.22 135.993 164.837C135.826 164.893 135.604 164.837 135.493 164.668C135.049 163.996 134.549 163.323 133.938 162.762C128.329 156.874 121.499 160.968 116.168 165.173C116.057 165.229 115.946 165.285 115.835 165.229C115.724 165.229 115.612 165.173 115.557 165.061C114.946 164.108 113.947 163.379 112.78 162.425C112.558 162.257 112.336 162.089 112.058 161.865C105.228 156.594 100.174 149.304 97.62 141.005C94.5657 130.856 95.5098 119.866 100.23 110.389L100.119 110.445Z" fill="#121B43"/>
<path d="M97.6202 97.716C99.2862 92.2208 102.34 86.9498 107.061 83.8097C108.449 82.8564 110.115 82.0714 111.781 82.2396C113.447 82.4079 115.168 83.6415 115.279 85.3798C115.391 86.8938 114.28 88.1834 113.28 89.3049L102.452 101.361C104.229 100.239 106.783 99.23 108.171 100.8C109.449 102.202 108.616 104.389 107.616 105.959C106.061 108.314 99.9525 116.332 96.7317 114.146C93.2887 111.734 96.7317 100.744 97.6202 97.716Z" fill="white"/>
<path d="M98.01 114.873C97.4547 114.873 96.9549 114.705 96.5106 114.424C93.2897 112.237 95.3444 103.882 97.177 97.8265L97.2325 97.6022C98.5653 93.2284 101.286 87.1725 106.84 83.4716C108.672 82.238 110.338 81.6773 111.838 81.7894C113.615 81.9016 115.614 83.3034 115.725 85.3221C115.836 86.9482 114.725 88.294 113.615 89.5276L104.23 99.9573C106.062 99.2844 107.506 99.4526 108.45 100.462C110.172 102.368 108.45 105.284 107.895 106.181C106.451 108.368 102.008 114.144 98.5653 114.873C98.4542 114.817 98.2321 114.873 98.01 114.873ZM98.01 97.8265L97.9544 98.0508C95.2334 107.079 94.9002 112.294 96.9549 113.751C97.3991 114.032 97.9544 114.144 98.5098 113.976C101.62 113.359 106.007 107.639 107.284 105.677C107.784 104.948 109.228 102.425 107.895 101.023C106.562 99.6208 104.063 100.798 102.675 101.696C102.508 101.808 102.23 101.752 102.119 101.583C102.008 101.415 102.008 101.191 102.175 101.079L113.004 89.0229C114.003 87.9014 114.947 86.7239 114.892 85.4342C114.781 83.8641 113.226 82.7987 111.782 82.6866C110.338 82.5744 109.005 83.0791 107.284 84.2006C101.953 87.7332 99.2872 93.5649 98.01 97.8265Z" fill="#121B43"/>
<path d="M198.412 105.229C188.639 80.3326 160.706 68.1086 136.05 77.9775C132.218 79.4915 128.553 81.5663 125.221 84.0335L124.888 83.5849C146.49 67.4918 176.921 72.1459 192.859 93.9586C195.358 97.3791 197.357 101.08 198.912 105.005L198.412 105.229Z" fill="#121B43"/>
<path d="M183.365 92.0518C164.429 80.1081 138.495 79.4352 119.003 90.4257L118.726 89.921C139.106 78.8184 163.818 79.4352 183.643 91.5471L183.365 92.0518Z" fill="#121B43"/>
<path d="M190.969 113.978C189.136 107.081 184.638 101.193 178.474 97.6043L178.752 97.0996C185.027 100.744 189.636 106.744 191.524 113.81L190.969 113.978Z" fill="#121B43"/>
<path d="M131.941 74.2207C131.274 75.3422 130.83 76.744 131.163 78.0337C131.663 79.3795 132.774 80.3888 134.162 80.6692C135.55 80.9496 136.938 80.9496 138.327 80.6692C143.547 79.8281 148.6 78.0337 153.154 75.3422C154.986 74.2768 156.93 72.7067 156.819 70.632C156.652 69.118 155.708 67.8283 154.32 67.2676C152.987 66.7069 151.543 66.4826 150.1 66.5386C143.713 66.5386 135.495 68.1087 131.941 74.2207Z" fill="#E4CB66"/>
<path d="M159.483 87.23C158.483 87.0618 157.428 87.23 156.484 87.6786C155.373 88.4636 154.818 89.7533 154.929 91.0991C155.096 92.3888 155.596 93.6785 156.373 94.7439C160.149 100.239 166.424 103.435 173.088 103.155C174.921 103.043 176.976 102.482 177.753 100.8C178.53 99.1176 177.586 97.2672 176.476 95.8654C172.7 90.9869 165.48 87.7347 159.483 87.23Z" fill="#E4CB66"/>
<path d="M199.021 95.3057C197.355 94.6328 195.301 94.7449 194.023 96.0346C192.469 97.4926 192.413 99.9037 192.802 101.978C193.746 106.52 196.467 110.502 200.465 112.913C201.243 113.474 202.187 113.754 203.131 113.698C205.019 113.474 206.018 111.343 206.241 109.492C206.851 104.502 203.853 97.3804 199.021 95.3057Z" fill="#E4CB66"/>
<path d="M129.497 161.191C127.775 162.368 126.554 164.163 125.443 165.957C119.335 175.938 115.281 187.097 113.504 198.704C108.506 199.265 103.452 198.816 98.6766 197.302C101.176 183.284 108.45 170.611 119.279 161.527C115.669 162.144 112.837 164.892 110.394 167.639C102.897 176.218 97.3438 186.312 94.1229 197.246L90.0135 196.629C88.5142 199.882 87.0148 203.134 86.3484 206.61C85.682 210.087 85.8486 213.9 87.6256 216.984C90.0135 221.19 94.8448 223.376 99.5095 224.61C110.505 227.47 122.333 226.573 132.884 222.423C137.66 220.573 142.325 217.993 145.435 213.9C148.545 209.807 149.877 204.031 147.712 199.377L119.945 196.91C118.89 196.797 126.221 176.274 127.109 174.536C128.831 171.004 130.83 167.639 133.107 164.443C133.94 163.209 135.994 161.639 134.717 160.35C133.551 159.284 130.552 160.462 129.497 161.191Z" fill="#5F977F"/>
<path d="M104.951 208.629C102.841 207.563 100.398 206.778 98.1763 207.62C94.5667 208.965 93.6782 213.675 93.6782 217.545C93.7338 230.89 97.8987 243.955 105.562 254.834L108.616 253.207C105.673 249.114 103.674 244.46 102.786 239.469C102.341 237.451 102.341 235.376 102.786 233.413C103.341 231.451 104.785 229.656 106.728 229.096C108.561 228.591 110.505 229.208 112.448 229.376C118.057 229.937 120.834 224.554 117.613 220.124C114.392 215.694 109.783 211.096 104.951 208.629Z" fill="white"/>
<path d="M105.673 255.228C105.562 255.228 105.395 255.172 105.34 255.06C97.6209 244.07 93.456 231.005 93.345 217.547C93.345 214.351 93.9558 208.799 98.0652 207.229C100.009 206.5 102.341 206.837 105.173 208.295C109.505 210.482 114.336 214.855 118.057 219.902C119.667 222.145 120 224.78 118.834 226.911C117.668 229.042 115.336 230.107 112.559 229.827C112.004 229.771 111.448 229.659 110.893 229.603C109.505 229.378 108.228 229.154 107.006 229.491C105.34 229.939 103.952 231.509 103.396 233.528C102.841 235.546 103.063 237.733 103.396 239.416C104.285 244.294 106.228 248.948 109.116 252.985C109.172 253.098 109.227 253.21 109.172 253.322C109.172 253.434 109.061 253.546 108.95 253.602L105.895 255.228C105.784 255.228 105.729 255.228 105.673 255.228ZM100.175 207.678C99.5646 207.678 98.9537 207.79 98.3429 208.014C94.6777 209.416 94.1224 214.575 94.1224 217.547C94.2335 230.724 98.2873 243.509 105.784 254.275L108.117 253.041C105.284 249.004 103.396 244.406 102.508 239.528C102.175 237.789 101.897 235.49 102.508 233.247C103.119 231.005 104.785 229.21 106.728 228.649C108.117 228.257 109.56 228.481 110.949 228.706C111.504 228.762 112.059 228.874 112.559 228.93C115.003 229.154 117.002 228.257 118.057 226.406C119.112 224.556 118.834 222.313 117.335 220.351C113.67 215.36 109.005 211.154 104.785 208.968C103.396 208.239 101.786 207.79 100.175 207.678Z" fill="#121B43"/>
<path d="M86.3458 278.385C85.7905 280.235 85.2907 282.254 85.6239 284.16C85.9571 286.067 87.2343 287.973 89.0669 288.534C90.7884 288.926 92.5654 288.478 93.7871 287.244C95.0088 286.067 95.9529 284.553 96.5082 282.927C98.3963 277.824 98.5629 271.824 102.284 267.899C104.505 265.6 107.559 264.422 110.169 262.572C112.779 260.721 115.056 257.581 114.167 254.497C113.446 251.806 109.447 249.17 106.671 250.011C104.005 250.796 101.117 255.394 99.3403 257.413C93.8426 263.525 88.8447 270.422 86.3458 278.385Z" fill="#192657"/>
<path d="M137.106 154.126C135.885 155.472 134.385 156.93 132.553 156.818C129.887 156.706 128.499 153.678 127.833 151.098C125.278 140.669 125.889 129.566 128.388 119.08C128.832 117.174 129.61 115.043 131.442 114.37C132.942 113.866 134.552 114.538 135.94 115.267C140.938 117.959 148.491 122.613 151.045 127.996C152.156 130.407 150.601 132.875 149.601 135.117C146.38 142.071 142.16 148.463 137.106 154.126Z" fill="white"/>
<path d="M132.714 157.266H132.547C129.271 157.154 127.882 153.005 127.494 151.21C125.106 141.454 125.272 130.631 128.049 119.024C128.493 117.061 129.326 114.762 131.325 114.033C132.936 113.473 134.657 114.202 136.157 114.987C144.32 119.417 149.484 123.734 151.428 127.94C152.483 130.239 151.373 132.482 150.373 134.5C150.206 134.781 150.095 135.117 149.929 135.398C146.708 142.351 142.487 148.799 137.378 154.463C136.157 155.808 134.602 157.266 132.714 157.266ZM132.603 114.65C132.269 114.65 131.936 114.706 131.659 114.819C129.993 115.379 129.326 117.51 128.882 119.248C126.161 130.743 125.939 141.454 128.327 151.042C128.715 152.612 129.937 156.313 132.658 156.425C134.269 156.481 135.712 155.192 136.879 153.846C139.544 150.874 141.988 147.678 144.153 144.313C146.097 141.341 147.763 138.201 149.262 135.005C149.373 134.725 149.54 134.388 149.707 134.108C150.651 132.201 151.65 130.183 150.762 128.276C148.874 124.295 143.876 120.089 135.824 115.716C134.824 115.099 133.713 114.762 132.603 114.65Z" fill="#121B43"/>
<path d="M137.883 130.014C138.105 129.845 138.383 129.677 138.605 129.789C138.716 129.901 138.772 130.014 138.772 130.126C138.772 130.294 138.716 130.406 138.661 130.518C138.494 130.967 137.828 133.098 137.106 132.425C136.384 131.752 137.384 130.462 137.883 130.014Z" fill="#121B43"/>
<path d="M131.494 131.585C131.383 131.697 131.272 131.753 131.106 131.753C130.995 131.697 130.884 131.585 130.884 131.473C130.717 130.968 130.606 128.389 131.494 128.725C132.494 129.117 131.994 131.024 131.494 131.585Z" fill="#121B43"/>
<path d="M146.824 133.378C147.657 132.761 148.601 132.201 149.601 132.313C150.434 132.425 151.156 132.873 151.6 133.546C152.488 134.78 152.544 136.462 151.711 137.696C151.211 138.369 150.489 138.817 149.656 138.929C148.435 139.098 147.213 138.537 146.047 138.032" fill="white"/>
<path d="M149.155 139.435C147.989 139.323 146.878 138.986 145.879 138.426C145.656 138.314 145.601 138.033 145.712 137.865C145.823 137.697 146.045 137.585 146.267 137.697C147.489 138.257 148.544 138.762 149.599 138.594C150.321 138.482 150.932 138.089 151.376 137.528C152.098 136.407 152.043 134.949 151.265 133.884C150.877 133.267 150.266 132.874 149.544 132.818C148.655 132.706 147.711 133.323 147.045 133.828C146.878 133.94 146.601 133.94 146.434 133.772C146.323 133.603 146.323 133.323 146.489 133.155C147.322 132.538 148.378 131.865 149.544 131.977C150.488 132.089 151.321 132.594 151.876 133.379C152.876 134.725 152.931 136.631 151.987 138.033C151.432 138.818 150.599 139.323 149.71 139.435C149.544 139.435 149.377 139.435 149.155 139.435Z" fill="#121B43"/>
<path d="M149.153 137.302C148.931 137.302 148.709 137.246 148.487 137.19C148.376 137.134 148.265 136.966 148.32 136.854C148.376 136.742 148.543 136.629 148.654 136.686C149.264 136.966 150.042 136.629 150.264 136.013C150.375 135.676 150.375 135.34 150.264 135.003C150.042 134.555 149.542 134.218 149.042 134.274C148.876 134.274 148.765 134.162 148.765 134.05C148.765 133.882 148.876 133.77 148.987 133.77C149.931 133.658 150.819 134.387 150.93 135.34C151.042 136.293 150.32 137.19 149.376 137.302C149.32 137.302 149.209 137.302 149.153 137.302Z" fill="#121B43"/>
<path d="M131.16 131.809C132.882 132.425 134.27 133.659 135.103 135.229C135.77 136.407 136.047 137.808 135.825 139.154C135.381 141.453 132.993 143.135 130.716 143.023C128.328 142.855 126.274 141.285 125.441 139.042C124.719 137.304 124.608 134.5 125.718 132.818C126.829 131.136 129.55 131.248 131.16 131.809Z" fill="#FFB0CC"/>
<path d="M136.271 144.2C137.049 144.2 137.77 144.424 138.381 144.873C138.826 145.321 139.103 145.938 139.048 146.611C138.992 147.228 138.826 147.901 138.548 148.462C137.937 150.088 136.771 151.489 135.271 152.387C133.772 153.172 131.717 153.172 130.44 151.994C129.663 151.153 129.107 150.088 128.941 148.966C128.608 147.564 128.552 146.106 128.719 144.648C128.774 144.032 128.996 143.303 129.718 143.303C130.163 143.303 130.607 143.695 131.051 143.807C132.828 143.976 134.55 144.144 136.271 144.2Z" fill="white"/>
<path d="M133.105 153.398C132.05 153.398 131.051 153.061 130.218 152.332C129.329 151.435 128.774 150.314 128.607 149.08C128.274 147.622 128.219 146.108 128.33 144.594C128.496 143.08 129.274 142.856 129.718 142.856C130.051 142.856 130.384 142.968 130.662 143.136C130.829 143.248 130.995 143.305 131.162 143.361C132.272 143.585 133.439 143.697 134.549 143.697C135.16 143.753 135.715 143.753 136.271 143.809C137.104 143.809 137.937 144.09 138.603 144.594C139.158 145.155 139.436 145.884 139.436 146.669C139.381 147.342 139.214 148.071 138.936 148.688C138.381 150.033 137.326 151.828 135.493 152.781C134.771 153.117 133.938 153.342 133.105 153.398ZM129.773 143.697C129.662 143.697 129.274 143.697 129.163 144.706C129.051 146.108 129.107 147.51 129.385 148.912C129.551 149.977 129.996 150.931 130.773 151.716C131.828 152.669 133.661 152.837 135.105 152.052C136.715 151.211 137.659 149.585 138.159 148.351C138.381 147.847 138.548 147.23 138.603 146.669C138.659 146.164 138.436 145.604 138.048 145.267C137.492 144.875 136.826 144.706 136.16 144.706C135.604 144.65 135.049 144.65 134.438 144.594C133.272 144.538 132.05 144.426 130.884 144.258C130.662 144.202 130.44 144.09 130.218 143.977C130.162 143.753 129.996 143.697 129.773 143.697Z" fill="#121B43"/>
<path d="M130.606 147.957C130.828 148.966 131.383 149.863 132.216 150.536C133.049 151.153 134.16 151.265 135.104 150.76C135.77 150.256 136.27 149.583 136.548 148.854C136.826 148.293 137.103 147.62 136.826 147.059C136.548 146.667 136.159 146.443 135.659 146.331C134.438 145.938 132.55 145.097 131.272 145.265C129.884 145.321 130.328 146.779 130.606 147.957Z" fill="#121B43"/>
<path d="M139.102 104.95C135.215 105.062 131.217 106.127 128.163 108.594C126.163 110.221 124.553 112.632 124.553 115.211C124.609 118.576 127.385 121.379 130.495 122.557C133.605 123.734 137.048 123.51 140.38 123.342C142.657 124.968 145.044 126.65 147.71 127.491C150.376 128.332 153.541 128.22 155.762 126.538C158.927 124.127 159.372 119.305 157.817 115.66C156.429 112.351 153.43 108.931 150.598 106.8C147.765 104.669 142.434 104.781 139.102 104.95Z" fill="#5F977F"/>
</svg>
