<svg width="375" height="650" viewBox="0 0 375 650" fill="none" xmlns="http://www.w3.org/2000/svg">
<path d="M6.10352e-05 11.0657V649.951C6.10352e-05 649.951 443.963 659.334 365.491 417.948C332.986 317.959 197.572 302.15 168.715 203.266C151.185 143.198 173.812 106.487 138.466 53.0977C98.0176 -7.99933 6.10352e-05 -7.65753 6.10352e-05 11.0657Z" fill="#E4CB66"/>
<path d="M247.461 109.097C246.406 107.92 247.017 105.789 248.35 104.948C249.682 104.107 251.515 104.331 252.959 105.004C255.347 106.125 257.124 108.256 257.735 110.836C256.902 109.602 258.512 107.92 259.956 108.088C261.4 108.256 262.51 109.434 263.399 110.611C264.732 112.181 265.731 113.976 266.398 115.938C266.953 117.901 266.842 120.144 265.676 121.826C267.786 124.125 267.619 127.77 265.343 129.901C263.066 132.031 259.456 131.863 257.346 129.564C259.734 130.461 260.567 133.938 259.067 135.957C257.568 137.975 254.292 138.312 252.237 136.854C251.071 138.76 248.072 138.648 246.406 137.19C244.74 135.732 243.963 133.489 243.352 131.359C241.186 131.919 238.909 131.695 236.91 130.854C238.298 133.658 237.188 137.078 234.411 138.536C234.356 138.536 234.356 138.592 234.3 138.592C235.022 139.714 235.466 141.003 235.577 142.349C235.633 143.695 234.966 145.097 233.745 145.657C232.523 146.218 230.857 145.433 230.69 144.087C232.467 145.713 233.245 148.573 232.023 150.704C230.801 152.835 227.358 153.283 225.97 151.265C227.081 151.096 228.025 152.442 227.747 153.508C227.358 154.629 226.303 155.302 225.193 155.246C224.082 155.134 223.027 154.685 222.194 153.844C220.584 152.274 219.417 150.255 218.862 148.069C220.028 147.732 221.194 149.078 220.861 150.255C220.528 151.433 219.195 152.106 218.029 151.938C216.863 151.713 215.808 150.984 215.141 149.975C213.864 148.181 213.364 145.938 213.809 143.751C214.419 144.536 213.42 145.769 212.42 145.657C211.421 145.545 210.754 144.592 210.31 143.695C209.199 141.171 209.255 138.312 210.477 135.844C211.199 136.013 210.865 137.302 210.143 137.358C209.422 137.415 208.811 136.742 208.422 136.125C207.034 133.826 206.534 131.078 207.034 128.443C207.089 127.77 207.422 127.209 207.922 126.817C208.478 126.536 209.366 127.041 209.144 127.602C207.478 127.714 205.979 126.032 205.979 124.293C205.979 122.555 207.2 121.041 208.7 120.256C210.255 119.583 211.976 119.359 213.698 119.639C214.419 116.723 217.363 114.929 220.25 115.714C221.639 116.05 222.805 116.948 223.527 118.181C223.027 117.06 223.915 115.658 225.082 115.265C226.303 114.929 227.581 115.153 228.636 115.826C229.691 116.443 230.635 117.284 231.69 117.789C232.856 115.882 234.3 114.312 235.133 112.237C235.799 110.555 236.244 108.985 237.354 107.527C240.186 103.826 246.406 103.77 247.461 109.097Z" fill="#121B43"/>
<path d="M256.569 276.815C256.18 277.993 255.68 279.283 254.792 280.124C253.903 280.965 252.348 281.357 251.349 280.572C250.238 279.675 250.349 277.993 250.571 276.591C252.626 263.75 256.68 250.909 254.958 238.012C254.625 235.433 254.014 232.854 254.125 230.274C254.236 227.695 255.069 224.947 257.068 223.321C260.178 220.798 264.454 222.087 265.121 225.901C266.009 231.171 264.732 237.732 264.121 243.003C262.844 254.554 260.345 265.881 256.569 276.815Z" fill="white"/>
<path d="M252.679 281.414C253.568 281.414 254.456 281.077 255.067 280.404C256.011 279.507 256.511 278.217 256.955 276.928C260.676 265.937 263.23 254.554 264.563 243.003C264.674 241.938 264.841 240.76 265.007 239.639C265.618 235.153 266.285 230.05 265.563 225.789C265.285 223.994 264.119 222.48 262.453 221.863C260.509 221.19 258.399 221.583 256.844 222.929C254.956 224.443 253.845 227.078 253.734 230.218C253.734 232.181 253.901 234.144 254.29 236.05C254.401 236.723 254.512 237.396 254.567 238.013C255.845 247.545 253.901 257.302 252.013 266.666C251.347 269.862 250.68 273.171 250.18 276.479C249.958 277.993 249.847 279.844 251.124 280.853C251.569 281.245 252.124 281.414 252.679 281.414ZM260.565 222.424C261.12 222.424 261.62 222.536 262.12 222.704C263.508 223.265 264.508 224.499 264.73 225.957C265.452 230.05 264.785 235.097 264.174 239.527C264.008 240.704 263.897 241.826 263.73 242.947C262.453 254.442 259.898 265.713 256.178 276.647C255.734 277.881 255.345 279.002 254.512 279.788C253.679 280.573 252.457 280.853 251.624 280.18C250.68 279.451 250.791 277.881 251.013 276.591C251.513 273.339 252.18 270.031 252.846 266.834C254.734 257.358 256.733 247.601 255.4 237.9C255.289 237.228 255.178 236.555 255.123 235.882C254.734 234.031 254.567 232.125 254.567 230.218C254.678 227.359 255.678 224.947 257.344 223.602C258.233 222.873 259.399 222.48 260.565 222.424Z" fill="#121B43"/>
<path d="M257.234 247.937C257.511 249.003 257.622 250.124 257.567 251.246C257.456 252.367 256.789 253.376 255.79 253.881C254.512 254.386 253.013 253.657 252.18 252.535C251.347 251.414 251.069 249.956 250.847 248.61L247.849 231.9C246.849 226.405 252.513 227.414 253.735 231.508C255.345 236.779 256.067 242.498 257.234 247.937Z" fill="#121B43"/>
<path d="M273.671 252.423C280.946 260.329 282.779 272.329 278.114 281.862C273.06 292.179 260.177 298.852 248.404 296.273C237.464 293.861 229.301 283.824 228.412 273.282C227.635 263.806 232.078 255.283 238.742 248.498C244.517 242.554 251.958 242.049 260.121 244.404C265.341 245.694 270.006 248.498 273.671 252.423Z" fill="#121B43"/>
<path d="M269.28 255.843C275 262.067 276.444 271.487 272.779 278.945C268.836 287.076 258.674 292.29 249.455 290.272C240.848 288.365 234.406 280.459 233.74 272.16C233.129 264.702 236.627 258.029 241.847 252.646C246.401 247.992 252.232 247.6 258.674 249.45C262.727 250.572 266.393 252.815 269.28 255.843Z" fill="white"/>
<path d="M267.229 282.085C267.34 282.085 267.507 282.029 267.562 281.973C267.784 281.749 267.84 281.412 267.618 281.188C260.288 272.216 252.013 264.142 242.85 257.133C242.628 256.908 242.24 256.964 242.073 257.189C241.906 257.413 241.906 257.805 242.129 257.974C242.129 257.974 242.129 257.974 242.184 258.03C251.236 265.039 259.51 273.057 266.785 281.917C266.951 281.973 267.118 282.085 267.229 282.085Z" fill="#E4CB66"/>
<path d="M243.963 283.207C244.13 283.207 244.241 283.151 244.352 283.039C252.182 274.46 259.346 265.32 265.843 255.675C266.01 255.395 265.954 255.058 265.732 254.89C265.454 254.722 265.121 254.778 264.955 255.002C258.457 264.591 251.349 273.731 243.575 282.254C243.352 282.478 243.408 282.815 243.63 283.039C243.686 283.207 243.797 283.207 243.963 283.207Z" fill="#E4CB66"/>
<path d="M241.574 269.526C251.792 269.526 262.01 268.91 272.172 267.732C272.505 267.676 272.672 267.396 272.672 267.115C272.616 266.779 272.339 266.611 272.061 266.611C260.732 267.956 249.348 268.517 237.909 268.349C237.575 268.349 237.353 268.573 237.353 268.91C237.353 269.246 237.575 269.47 237.909 269.47C239.13 269.526 240.352 269.526 241.574 269.526Z" fill="#E4CB66"/>
<path d="M255.181 288.085C255.459 288.085 255.737 287.861 255.737 287.525C256.403 274.964 256.181 262.348 254.959 249.787C254.904 249.507 254.682 249.226 254.348 249.282C254.071 249.338 253.793 249.563 253.849 249.899C255.07 262.404 255.293 274.964 254.626 287.469C254.626 287.805 254.848 288.029 255.181 288.085Z" fill="#E4CB66"/>
<path d="M271.725 229.376C272.058 231.283 271.114 233.245 269.392 234.086C266.727 235.264 263.839 233.47 261.007 232.741C257.453 231.787 253.732 232.628 250.178 233.47C246.624 234.311 242.959 235.264 239.349 234.535C235.74 233.806 232.297 231.002 232.13 227.301C232.019 224.498 233.852 221.862 236.24 220.404C238.627 218.946 241.515 218.554 244.292 218.442C249.845 218.274 255.343 219.227 260.507 221.302C263.672 222.647 270.892 225.451 271.725 229.376Z" fill="#121B43"/>
<path d="M276.339 271.657C277.227 272.778 277.838 274.068 278.116 275.47C278.394 276.871 277.949 278.329 277.005 279.395C275.728 280.628 273.618 280.628 272.063 279.787C270.508 278.946 269.342 277.544 268.342 276.086C267.343 274.629 266.454 273.002 265.233 271.769C264.066 270.591 262.678 269.75 261.567 268.516C260.457 267.283 259.624 265.601 260.179 264.031C261.845 258.479 274.562 269.189 276.339 271.657Z" fill="white"/>
<path d="M274.282 280.798C275.393 280.798 276.448 280.461 277.225 279.732C278.336 278.611 278.78 276.985 278.503 275.414C278.169 273.957 277.558 272.555 276.614 271.433C275.337 269.639 266.119 261.452 261.676 262.181C260.677 262.349 259.899 263.078 259.622 264.031C259.122 265.545 259.677 267.396 261.121 268.91C261.732 269.527 262.398 270.144 263.065 270.648C264.786 271.882 266.174 273.508 267.174 275.358C267.396 275.695 267.618 276.031 267.84 276.424C268.729 277.77 270.006 279.396 271.728 280.293C272.616 280.573 273.449 280.798 274.282 280.798ZM275.948 271.882C276.781 272.947 277.392 274.181 277.67 275.527C277.947 276.816 277.558 278.162 276.67 279.115C275.448 280.293 273.449 280.125 272.172 279.452C270.617 278.667 269.506 277.209 268.618 275.863C268.396 275.527 268.174 275.19 267.951 274.854C267.229 273.62 266.396 272.499 265.452 271.489C264.897 270.929 264.286 270.424 263.675 269.919C263.009 269.415 262.398 268.854 261.787 268.237C260.843 267.228 260.01 265.658 260.455 264.2C260.621 263.527 261.176 263.022 261.843 262.91C265.675 262.293 274.56 269.863 275.948 271.882Z" fill="#121B43"/>
<path d="M180.376 116.668C178.988 114.986 176.933 113.247 174.878 114.088C172.823 114.93 172.657 118.014 173.99 119.808C175.322 121.602 177.599 122.331 179.654 123.004C175.1 122.443 170.491 122.331 165.882 122.612C164.716 122.612 163.55 122.836 162.494 123.341C161.495 123.901 160.662 125.023 160.828 126.144C160.995 127.658 162.606 128.499 163.994 129.116C167.77 130.63 171.657 131.808 175.656 132.593C176.933 136.63 179.821 139.995 183.597 141.845C185.707 142.854 191.205 144.537 193.37 142.854C195.703 141.116 192.871 136.91 191.871 134.724C188.817 128.163 184.985 122.107 180.376 116.668Z" fill="white"/>
<path d="M190.65 143.922C191.705 143.978 192.705 143.698 193.594 143.137C195.815 141.455 194.093 138.146 192.816 135.735C192.594 135.286 192.372 134.838 192.205 134.501C189.207 127.941 185.319 121.829 180.655 116.39C178.544 113.866 176.49 112.969 174.713 113.642C173.769 114.035 173.102 114.876 172.824 115.885C172.436 117.287 172.713 118.801 173.602 120.034C174.379 120.988 175.323 121.773 176.434 122.277C172.88 121.997 169.326 121.997 165.827 122.165C164.606 122.165 163.384 122.446 162.273 122.95C161.218 123.511 160.163 124.745 160.385 126.203C160.607 127.997 162.44 128.95 163.828 129.511C167.549 131.025 171.381 132.146 175.323 132.987C176.656 137.025 179.599 140.389 183.431 142.24C185.708 143.249 188.151 143.81 190.65 143.922ZM175.934 114.259C177.434 114.259 178.989 115.661 180.044 116.894C184.653 122.333 188.485 128.333 191.483 134.838C191.65 135.23 191.872 135.623 192.094 136.128C193.205 138.258 194.76 141.174 193.094 142.464C191.206 143.922 185.986 142.464 183.764 141.398C180.044 139.604 177.267 136.352 176.045 132.427C175.99 132.258 175.879 132.146 175.712 132.146C171.769 131.361 167.882 130.184 164.161 128.67C162.273 127.941 161.385 127.1 161.274 126.034C161.163 124.969 161.94 124.072 162.773 123.623C163.773 123.175 164.883 122.95 165.994 122.95C170.548 122.67 175.157 122.782 179.655 123.343C179.877 123.343 180.044 123.231 180.099 123.006C180.155 122.782 180.044 122.558 179.822 122.502C177.545 121.773 175.546 121.044 174.324 119.474C173.657 118.52 173.38 117.287 173.713 116.109C173.88 115.38 174.379 114.707 175.101 114.427C175.323 114.315 175.601 114.259 175.934 114.259Z" fill="#121B43"/>
<path d="M185.929 138.089L186.484 137.977C185.873 135.173 184.207 132.706 181.819 131.08C182.041 131.024 182.263 130.912 182.43 130.799C183.152 130.351 183.596 129.566 183.652 128.725C183.652 127.155 182.319 125.977 181.097 125.528C179.764 125.136 178.376 125.08 177.043 125.248L177.099 125.809C178.376 125.641 179.709 125.697 180.931 126.033C181.986 126.426 183.096 127.379 183.152 128.669C183.096 129.341 182.763 129.902 182.208 130.295C181.819 130.575 181.319 130.631 180.875 130.407L180.597 130.912C183.319 132.426 185.262 135.061 185.929 138.089Z" fill="#121B43"/>
<path d="M193.207 147.901C199.149 163.097 209.755 175.994 223.527 184.63C225.582 185.975 227.859 187.041 230.191 187.77L229.58 189.844C227.526 196.91 225.804 204.928 229.358 211.377C232.246 216.76 238.132 219.788 243.908 221.526C253.903 224.554 264.566 224.666 274.617 221.919C279.115 220.685 283.835 218.498 285.668 214.18C287.056 210.872 286.445 207.059 285.446 203.582C284.113 198.648 282.169 193.826 279.781 189.284C277.671 185.246 275.172 181.433 272.285 177.901C274.561 177.396 276.727 176.499 278.671 175.209C287.612 169.546 292.221 158.443 292.276 147.733C292.332 137.023 288.389 126.761 283.336 117.397C281.281 113.584 278.116 109.435 273.84 109.939C278.726 119.472 279.781 130.518 276.727 140.836C274.173 149.079 269.175 156.256 262.4 161.527C260.845 162.705 259.568 163.602 258.79 164.779C253.182 160.35 246.24 156.312 240.465 162.368C239.909 162.985 239.354 163.658 238.91 164.331C236.022 163.322 231.802 163.658 229.192 163.097C220.251 161.135 211.977 156.929 205.035 150.929C201.092 147.509 197.649 143.527 194.817 139.098C193.207 139.546 192.263 141.228 192.096 142.911C191.929 144.593 192.596 146.331 193.207 147.901Z" fill="white"/>
<path d="M260.01 224.331C265.008 224.331 269.95 223.658 274.726 222.368C280.779 220.742 284.5 218.107 286.055 214.406C287.554 210.873 286.832 206.948 285.888 203.528C284.5 198.537 282.612 193.715 280.224 189.173C278.169 185.304 275.781 181.659 273.116 178.238C275.17 177.678 277.17 176.836 279.002 175.659C287.443 170.276 292.719 159.622 292.774 147.846C292.83 138.594 289.886 128.613 283.778 117.286C280.779 111.735 277.447 109.155 273.893 109.66C273.782 109.66 273.615 109.772 273.56 109.884C273.504 109.997 273.504 110.165 273.56 110.277C278.447 119.697 279.446 130.688 276.392 140.837C273.893 148.968 268.951 156.145 262.231 161.304L261.509 161.865C260.51 162.594 259.621 163.379 258.788 164.332C253.235 160.014 246.183 156.033 240.241 162.257C239.741 162.818 239.241 163.379 238.797 164.052C236.964 163.603 235.021 163.323 233.132 163.267C231.855 163.211 230.578 163.098 229.301 162.874C220.471 160.912 212.197 156.762 205.311 150.818C201.368 147.454 197.925 143.473 195.148 139.043C195.037 138.875 194.871 138.818 194.704 138.875C192.816 139.435 191.816 141.398 191.705 143.024C191.594 144.762 192.15 146.444 192.76 148.015C198.702 163.323 209.42 176.276 223.248 184.967C225.247 186.257 227.413 187.322 229.634 188.051L229.134 189.733C226.913 197.247 225.413 205.098 228.912 211.602C231.411 216.256 236.409 219.733 243.684 221.976C249.07 223.602 254.512 224.387 260.01 224.331ZM274.671 110.445C277.614 110.445 280.446 112.912 283 117.735C289.053 128.893 291.941 138.762 291.886 147.902C291.83 159.398 286.721 169.771 278.502 174.986C276.559 176.22 274.448 177.117 272.227 177.621C272.061 177.678 271.95 177.734 271.95 177.902C271.894 178.014 271.95 178.182 272.005 178.294C274.837 181.827 277.336 185.64 279.446 189.621C281.834 194.107 283.722 198.873 285.055 203.808C285.944 207.06 286.666 210.873 285.277 214.125C283.833 217.546 280.279 220.013 274.504 221.583C264.508 224.275 253.957 224.163 244.017 221.191C236.964 219.06 232.133 215.696 229.689 211.266C226.302 205.041 227.801 197.359 229.967 190.07L230.578 187.995C230.633 187.883 230.578 187.771 230.522 187.659C230.467 187.547 230.356 187.49 230.245 187.434C227.912 186.705 225.691 185.64 223.636 184.294C209.975 175.715 199.369 162.874 193.482 147.734C192.927 146.276 192.372 144.706 192.483 143.08C192.594 141.79 193.26 140.276 194.593 139.716C197.37 144.089 200.813 148.015 204.7 151.379C211.697 157.435 220.082 161.64 229.079 163.603C230.356 163.827 231.689 163.996 233.021 163.996C235.021 164.108 237.131 164.22 238.797 164.837C238.963 164.893 239.185 164.837 239.297 164.668C239.741 163.996 240.241 163.323 240.851 162.762C246.46 156.874 253.291 160.968 258.622 165.173C258.733 165.229 258.844 165.285 258.955 165.229C259.066 165.229 259.177 165.173 259.233 165.061C259.843 164.108 260.843 163.379 262.009 162.425C262.231 162.257 262.453 162.089 262.731 161.865C269.562 156.594 274.615 149.304 277.17 141.005C280.224 130.856 279.28 119.866 274.56 110.389L274.671 110.445Z" fill="#121B43"/>
<path d="M277.17 97.716C275.504 92.2208 272.45 86.9498 267.729 83.8097C266.341 82.8564 264.675 82.0714 263.009 82.2396C261.343 82.4079 259.622 83.6415 259.511 85.3798C259.4 86.8938 260.51 88.1834 261.51 89.3049L272.339 101.361C270.561 100.239 268.007 99.23 266.619 100.8C265.341 102.202 266.174 104.389 267.174 105.959C268.729 108.314 274.837 116.332 278.058 114.146C281.501 111.734 278.058 100.744 277.17 97.716Z" fill="white"/>
<path d="M276.78 114.873C277.335 114.873 277.835 114.705 278.279 114.424C281.5 112.237 279.445 103.882 277.613 97.8265L277.557 97.6022C276.224 93.2284 273.503 87.1725 267.95 83.4716C266.118 82.238 264.452 81.6773 262.952 81.7894C261.175 81.9016 259.176 83.3034 259.065 85.3221C258.954 86.9482 260.065 88.294 261.175 89.5276L270.56 99.9573C268.728 99.2844 267.284 99.4526 266.34 100.462C264.618 102.368 266.34 105.284 266.895 106.181C268.339 108.368 272.781 114.144 276.224 114.873C276.336 114.817 276.558 114.873 276.78 114.873ZM276.78 97.8265L276.835 98.0508C279.556 107.079 279.89 112.294 277.835 113.751C277.391 114.032 276.835 114.144 276.28 113.976C273.17 113.359 268.783 107.639 267.506 105.677C267.006 104.948 265.562 102.425 266.895 101.023C268.228 99.6208 270.727 100.798 272.115 101.696C272.282 101.808 272.559 101.752 272.67 101.583C272.781 101.415 272.781 101.191 272.615 101.079L261.786 89.0229C260.787 87.9014 259.842 86.7239 259.898 85.4342C260.009 83.8641 261.564 82.7987 263.008 82.6866C264.452 82.5744 265.784 83.0791 267.506 84.2006C272.837 87.7332 275.503 93.5649 276.78 97.8265Z" fill="#121B43"/>
<path d="M176.378 105.229C186.151 80.3326 214.084 68.1086 238.74 77.9775C242.572 79.4915 246.237 81.5663 249.569 84.0335L249.902 83.5849C228.3 67.4918 197.869 72.1459 181.931 93.9586C179.432 97.3791 177.433 101.08 175.878 105.005L176.378 105.229Z" fill="#121B43"/>
<path d="M191.425 92.0518C210.361 80.1081 236.295 79.4352 255.787 90.4257L256.064 89.921C235.684 78.8184 210.972 79.4352 191.147 91.5471L191.425 92.0518Z" fill="#121B43"/>
<path d="M183.821 113.978C185.654 107.081 190.152 101.193 196.316 97.6043L196.038 97.0996C189.763 100.744 185.154 106.744 183.266 113.81L183.821 113.978Z" fill="#121B43"/>
<path d="M242.849 74.2207C243.515 75.3422 243.96 76.744 243.626 78.0337C243.127 79.3795 242.016 80.3888 240.628 80.6692C239.239 80.9496 237.851 80.9496 236.463 80.6692C231.243 79.8281 226.189 78.0337 221.636 75.3422C219.803 74.2768 217.859 72.7067 217.971 70.632C218.137 69.118 219.081 67.8283 220.469 67.2676C221.802 66.7069 223.246 66.4826 224.69 66.5386C231.076 66.5386 239.295 68.1087 242.849 74.2207Z" fill="#E4CB66"/>
<path d="M215.306 87.23C216.306 87.0618 217.361 87.23 218.305 87.6786C219.416 88.4636 219.971 89.7533 219.86 91.0991C219.693 92.3888 219.194 93.6785 218.416 94.7439C214.64 100.239 208.365 103.435 201.701 103.155C199.868 103.043 197.814 102.482 197.036 100.8C196.259 99.1176 197.203 97.2672 198.314 95.8654C202.09 90.9869 209.309 87.7347 215.306 87.23Z" fill="#E4CB66"/>
<path d="M175.769 95.3057C177.435 94.6328 179.489 94.7449 180.767 96.0346C182.321 97.4926 182.377 99.9037 181.988 101.978C181.044 106.52 178.323 110.502 174.325 112.913C173.547 113.474 172.603 113.754 171.659 113.698C169.771 113.474 168.772 111.343 168.549 109.492C167.939 104.502 170.937 97.3804 175.769 95.3057Z" fill="#E4CB66"/>
<path d="M245.293 161.191C247.014 162.368 248.236 164.163 249.347 165.957C255.455 175.938 259.509 187.097 261.286 198.704C266.284 199.265 271.337 198.816 276.113 197.302C273.614 183.284 266.34 170.611 255.511 161.527C259.12 162.144 261.952 164.892 264.396 167.639C271.893 176.218 277.446 186.312 280.667 197.246L284.776 196.629C286.276 199.882 287.775 203.134 288.441 206.61C289.108 210.087 288.941 213.9 287.164 216.984C284.776 221.19 279.945 223.376 275.28 224.61C264.285 227.47 252.456 226.573 241.905 222.423C237.13 220.573 232.465 217.993 229.355 213.9C226.245 209.807 224.912 204.031 227.078 199.377L254.844 196.91C255.899 196.797 248.569 176.274 247.681 174.536C245.959 171.004 243.96 167.639 241.683 164.443C240.85 163.209 238.796 161.639 240.073 160.35C241.239 159.284 244.238 160.462 245.293 161.191Z" fill="#5F977F"/>
<path d="M269.839 208.629C271.949 207.563 274.392 206.778 276.614 207.62C280.223 208.965 281.112 213.675 281.112 217.545C281.056 230.89 276.891 243.955 269.228 254.834L266.174 253.207C269.117 249.114 271.116 244.46 272.005 239.469C272.449 237.451 272.449 235.376 272.005 233.413C271.449 231.451 270.005 229.656 268.062 229.096C266.229 228.591 264.286 229.208 262.342 229.376C256.733 229.937 253.957 224.554 257.177 220.124C260.398 215.694 265.007 211.096 269.839 208.629Z" fill="white"/>
<path d="M269.117 255.228C269.228 255.228 269.394 255.172 269.45 255.06C277.169 244.07 281.334 231.005 281.445 217.547C281.445 214.351 280.834 208.799 276.725 207.229C274.781 206.5 272.449 206.837 269.616 208.295C265.285 210.482 260.454 214.855 256.733 219.902C255.123 222.145 254.789 224.78 255.955 226.911C257.122 229.042 259.454 230.107 262.231 229.827C262.786 229.771 263.341 229.659 263.897 229.603C265.285 229.378 266.562 229.154 267.784 229.491C269.45 229.939 270.838 231.509 271.393 233.528C271.949 235.546 271.727 237.733 271.393 239.416C270.505 244.294 268.561 248.948 265.674 252.985C265.618 253.098 265.563 253.21 265.618 253.322C265.618 253.434 265.729 253.546 265.84 253.602L268.895 255.228C269.006 255.228 269.061 255.228 269.117 255.228ZM274.614 207.678C275.225 207.678 275.836 207.79 276.447 208.014C280.112 209.416 280.667 214.575 280.667 217.547C280.556 230.724 276.502 243.509 269.006 254.275L266.673 253.041C269.505 249.004 271.393 244.406 272.282 239.528C272.615 237.789 272.893 235.49 272.282 233.247C271.671 231.005 270.005 229.21 268.062 228.649C266.673 228.257 265.229 228.481 263.841 228.706C263.286 228.762 262.73 228.874 262.231 228.93C259.787 229.154 257.788 228.257 256.733 226.406C255.678 224.556 255.956 222.313 257.455 220.351C261.12 215.36 265.785 211.154 270.005 208.968C271.393 208.239 273.004 207.79 274.614 207.678Z" fill="#121B43"/>
<path d="M288.444 278.385C288.999 280.235 289.499 282.254 289.166 284.16C288.832 286.067 287.555 287.973 285.723 288.534C284.001 288.926 282.224 288.478 281.002 287.244C279.781 286.067 278.837 284.553 278.281 282.927C276.393 277.824 276.227 271.824 272.506 267.899C270.285 265.6 267.23 264.422 264.62 262.572C262.01 260.721 259.734 257.581 260.622 254.497C261.344 251.806 265.342 249.17 268.119 250.011C270.784 250.796 273.672 255.394 275.449 257.413C280.947 263.525 285.945 270.422 288.444 278.385Z" fill="#192657"/>
<path d="M237.683 154.126C238.905 155.472 240.404 156.93 242.237 156.818C244.903 156.706 246.291 153.678 246.957 151.098C249.512 140.669 248.901 129.566 246.402 119.08C245.958 117.174 245.18 115.043 243.348 114.37C241.848 113.866 240.238 114.538 238.85 115.267C233.852 117.959 226.299 122.613 223.745 127.996C222.634 130.407 224.189 132.875 225.189 135.117C228.409 142.071 232.63 148.463 237.683 154.126Z" fill="white"/>
<path d="M242.076 157.266H242.242C245.519 157.154 246.907 153.005 247.296 151.21C249.684 141.454 249.517 130.631 246.741 119.024C246.296 117.061 245.463 114.762 243.464 114.033C241.854 113.473 240.132 114.202 238.633 114.987C230.47 119.417 225.305 123.734 223.361 127.94C222.306 130.239 223.417 132.482 224.417 134.5C224.583 134.781 224.694 135.117 224.861 135.398C228.082 142.351 232.302 148.799 237.411 154.463C238.633 155.808 240.188 157.266 242.076 157.266ZM242.187 114.65C242.52 114.65 242.853 114.706 243.131 114.819C244.797 115.379 245.463 117.51 245.908 119.248C248.629 130.743 248.851 141.454 246.463 151.042C246.074 152.612 244.852 156.313 242.131 156.425C240.521 156.481 239.077 155.192 237.911 153.846C235.245 150.874 232.802 147.678 230.636 144.313C228.693 141.341 227.027 138.201 225.527 135.005C225.416 134.725 225.25 134.388 225.083 134.108C224.139 132.201 223.139 130.183 224.028 128.276C225.916 124.295 230.914 120.089 238.966 115.716C239.966 115.099 241.076 114.762 242.187 114.65Z" fill="#121B43"/>
<path d="M236.907 130.014C236.685 129.845 236.407 129.677 236.185 129.789C236.074 129.901 236.018 130.014 236.018 130.126C236.018 130.294 236.074 130.406 236.129 130.518C236.296 130.967 236.962 133.098 237.684 132.425C238.406 131.752 237.406 130.462 236.907 130.014Z" fill="#121B43"/>
<path d="M243.295 131.585C243.406 131.697 243.517 131.753 243.684 131.753C243.795 131.697 243.906 131.585 243.906 131.473C244.072 130.968 244.183 128.389 243.295 128.725C242.295 129.117 242.795 131.024 243.295 131.585Z" fill="#121B43"/>
<path d="M227.966 133.378C227.133 132.761 226.189 132.201 225.189 132.313C224.356 132.425 223.634 132.873 223.19 133.546C222.301 134.78 222.246 136.462 223.079 137.696C223.579 138.369 224.301 138.817 225.134 138.929C226.355 139.098 227.577 138.537 228.743 138.032" fill="white"/>
<path d="M225.635 139.435C226.801 139.323 227.912 138.986 228.911 138.426C229.133 138.314 229.189 138.033 229.078 137.865C228.967 137.697 228.745 137.585 228.522 137.697C227.301 138.257 226.246 138.762 225.191 138.594C224.469 138.482 223.858 138.089 223.413 137.528C222.692 136.407 222.747 134.949 223.525 133.884C223.913 133.267 224.524 132.874 225.246 132.818C226.135 132.706 227.079 133.323 227.745 133.828C227.912 133.94 228.189 133.94 228.356 133.772C228.467 133.603 228.467 133.323 228.3 133.155C227.467 132.538 226.412 131.865 225.246 131.977C224.302 132.089 223.469 132.594 222.914 133.379C221.914 134.725 221.859 136.631 222.803 138.033C223.358 138.818 224.191 139.323 225.079 139.435C225.246 139.435 225.413 139.435 225.635 139.435Z" fill="#121B43"/>
<path d="M225.637 137.302C225.859 137.302 226.081 137.246 226.303 137.19C226.414 137.134 226.525 136.966 226.47 136.854C226.414 136.742 226.247 136.629 226.136 136.686C225.526 136.966 224.748 136.629 224.526 136.013C224.415 135.676 224.415 135.34 224.526 135.003C224.748 134.555 225.248 134.218 225.748 134.274C225.914 134.274 226.025 134.162 226.025 134.05C226.025 133.882 225.914 133.77 225.803 133.77C224.859 133.658 223.971 134.387 223.86 135.34C223.749 136.293 224.47 137.19 225.414 137.302C225.47 137.302 225.581 137.302 225.637 137.302Z" fill="#121B43"/>
<path d="M243.629 131.809C241.908 132.425 240.519 133.659 239.687 135.229C239.02 136.407 238.742 137.808 238.965 139.154C239.409 141.453 241.797 143.135 244.074 143.023C246.461 142.855 248.516 141.285 249.349 139.042C250.071 137.304 250.182 134.5 249.071 132.818C247.961 131.136 245.24 131.248 243.629 131.809Z" fill="#FFB0CC"/>
<path d="M238.519 144.2C237.741 144.2 237.019 144.424 236.409 144.873C235.964 145.321 235.687 145.938 235.742 146.611C235.798 147.228 235.964 147.901 236.242 148.462C236.853 150.088 238.019 151.489 239.518 152.387C241.018 153.172 243.072 153.172 244.35 151.994C245.127 151.153 245.682 150.088 245.849 148.966C246.182 147.564 246.238 146.106 246.071 144.648C246.016 144.032 245.793 143.303 245.072 143.303C244.627 143.303 244.183 143.695 243.739 143.807C241.962 143.976 240.24 144.144 238.519 144.2Z" fill="white"/>
<path d="M241.684 153.398C242.74 153.398 243.739 153.061 244.572 152.332C245.461 151.435 246.016 150.314 246.183 149.08C246.516 147.622 246.571 146.108 246.46 144.594C246.294 143.08 245.516 142.856 245.072 142.856C244.739 142.856 244.406 142.968 244.128 143.136C243.961 143.248 243.795 143.305 243.628 143.361C242.517 143.585 241.351 143.697 240.241 143.697C239.63 143.753 239.074 143.753 238.519 143.809C237.686 143.809 236.853 144.09 236.187 144.594C235.631 145.155 235.354 145.884 235.354 146.669C235.409 147.342 235.576 148.071 235.854 148.688C236.409 150.033 237.464 151.828 239.297 152.781C240.018 153.117 240.851 153.342 241.684 153.398ZM245.016 143.697C245.127 143.697 245.516 143.697 245.627 144.706C245.738 146.108 245.683 147.51 245.405 148.912C245.239 149.977 244.794 150.931 244.017 151.716C242.962 152.669 241.129 152.837 239.685 152.052C238.075 151.211 237.131 149.585 236.631 148.351C236.409 147.847 236.242 147.23 236.187 146.669C236.131 146.164 236.353 145.604 236.742 145.267C237.297 144.875 237.964 144.706 238.63 144.706C239.186 144.65 239.741 144.65 240.352 144.594C241.518 144.538 242.74 144.426 243.906 144.258C244.128 144.202 244.35 144.09 244.572 143.977C244.628 143.753 244.794 143.697 245.016 143.697Z" fill="#121B43"/>
<path d="M244.184 147.957C243.962 148.966 243.406 149.863 242.573 150.536C241.74 151.153 240.63 151.265 239.686 150.76C239.019 150.256 238.519 149.583 238.242 148.854C237.964 148.293 237.686 147.62 237.964 147.059C238.242 146.667 238.63 146.443 239.13 146.331C240.352 145.938 242.24 145.097 243.517 145.265C244.906 145.321 244.461 146.779 244.184 147.957Z" fill="#121B43"/>
<path d="M235.688 104.95C239.575 105.062 243.573 106.127 246.628 108.594C248.627 110.221 250.237 112.632 250.237 115.211C250.182 118.576 247.405 121.379 244.295 122.557C241.186 123.734 237.743 123.51 234.411 123.342C232.134 124.968 229.746 126.65 227.08 127.491C224.415 128.332 221.249 128.22 219.028 126.538C215.863 124.127 215.419 119.305 216.973 115.66C218.362 112.351 221.361 108.931 224.193 106.8C227.025 104.669 232.356 104.781 235.688 104.95Z" fill="#5F977F"/>
</svg>
