<svg width="71" height="71" viewBox="0 0 71 71" fill="none" xmlns="http://www.w3.org/2000/svg">
<path d="M63.0016 30.47L57.6259 23.2664L60.5123 14.754C60.796 13.9175 60.5801 12.9923 59.9555 12.3677C59.331 11.7432 58.4059 11.5273 57.5693 11.811L49.057 14.6974L41.8529 9.32168C41.1453 8.79348 40.1987 8.71264 39.4116 9.11381C38.6245 9.51499 38.1334 10.3279 38.1447 11.2112L38.2596 20.1992L30.9207 25.3892C30.1995 25.8992 29.8303 26.7744 29.9684 27.647C30.1066 28.5194 30.7282 29.2377 31.5716 29.5001L37.6516 31.3902L2.00291 67.0384C1.09669 67.9445 1.09669 69.414 2.00291 70.3202C2.90913 71.2265 4.3785 71.2265 5.28472 70.3202L40.9335 34.6716L42.8235 40.7514C43.1247 41.7201 44.0213 42.3833 45.04 42.3833C45.7854 42.3833 46.4952 42.0234 46.9343 41.4026L52.1242 34.0637L61.1122 34.1785C61.9889 34.1855 62.8086 33.6984 63.2096 32.9116C63.6107 32.1247 63.53 31.178 63.0016 30.47Z" fill="#121B43"/>
<path d="M24.0418 9.32909L22.1893 5.94189L20.3369 9.32909L16.9497 11.1815L20.3369 13.0341L22.1893 16.4212L24.0418 13.0341L27.429 11.1815L24.0418 9.32909Z" fill="#121B43"/>
<path d="M50.3305 53.318L48.832 50.5781L47.3336 53.318L44.5938 54.8164L47.3336 56.3148L48.832 59.0544L50.3305 56.3148L53.0702 54.8164L50.3305 53.318Z" fill="#121B43"/>
<path d="M52.4378 2.73974L50.9394 0L49.4409 2.73974L46.7012 4.23823L49.4409 5.73672L50.9394 8.47646L52.4378 5.73672L55.1776 4.23823L52.4378 2.73974Z" fill="#121B43"/>
<path d="M68.0374 19.7627L67.1404 18.123L66.2438 19.7627L64.604 20.6594L66.2438 21.5561L67.1404 23.1958L68.0374 21.5561L69.6769 20.6594L68.0374 19.7627Z" fill="#121B43"/>
<path d="M68.3132 40.7856L64.6037 41.872L60.8945 40.7856L61.9809 44.4948L60.8945 48.2043L64.6037 47.118L68.3132 48.2043L67.2267 44.4948L68.3132 40.7856Z" fill="#121B43"/>
</svg>
