<svg width="81" height="81" viewBox="0 0 81 81" fill="none" xmlns="http://www.w3.org/2000/svg">
<path d="M40.8406 0.140137C18.6668 0.140137 0.701172 18.1058 0.701172 40.2796C0.701172 62.4534 18.6668 80.419 40.8406 80.419C63.0144 80.419 80.98 62.4534 80.98 40.2796C80.98 18.1058 63.0144 0.140137 40.8406 0.140137ZM44.7251 32.4135C45.2592 25.5995 49.9367 20.8573 53.7888 20.8573C57.6409 20.8573 62.3184 25.5995 62.8525 32.4135C62.9658 33.8055 61.1045 34.3396 60.4409 33.1419L58.9033 30.3904C57.6571 28.173 55.7958 26.8944 53.805 26.8944C51.8142 26.8944 49.9529 28.173 48.7066 30.3904L47.169 33.1419C46.4893 34.3396 44.6118 33.8055 44.7251 32.4135ZM18.8287 32.4135C19.3628 25.5995 24.0403 20.8573 27.8924 20.8573C31.7445 20.8573 36.422 25.5995 36.9561 32.4135C37.0694 33.8055 35.2081 34.3396 34.5445 33.1419L33.0069 30.3904C31.7607 28.173 29.8994 26.8944 27.9086 26.8944C25.9178 26.8944 24.0565 28.173 22.8102 30.3904L21.2726 33.1419C20.5767 34.3396 18.7154 33.7893 18.8287 32.4135ZM65.2641 48.3722C63.8237 59.8637 54.0154 68.7656 42.1354 68.7656H39.5458C27.6658 68.7656 17.8575 59.8637 16.4171 48.3722C16.2228 46.8346 17.4367 45.4588 18.9905 45.4588H62.6907C64.2445 45.4588 65.4584 46.8184 65.2641 48.3722Z" fill="#121B43"/>
</svg>
