<svg width="25" height="24" viewBox="0 0 25 24" fill="none" xmlns="http://www.w3.org/2000/svg">
<path d="M9.62502 22.0832C10.1543 22.0832 10.5834 21.6541 10.5834 21.1248C10.5834 20.5956 10.1543 20.1665 9.62502 20.1665C9.09575 20.1665 8.66669 20.5956 8.66669 21.1248C8.66669 21.6541 9.09575 22.0832 9.62502 22.0832Z" stroke="white" stroke-width="2" stroke-linecap="round" stroke-linejoin="round"/>
<path d="M20.1666 22.0832C20.6959 22.0832 21.125 21.6541 21.125 21.1248C21.125 20.5956 20.6959 20.1665 20.1666 20.1665C19.6374 20.1665 19.2083 20.5956 19.2083 21.1248C19.2083 21.6541 19.6374 22.0832 20.1666 22.0832Z" stroke="white" stroke-width="2" stroke-linecap="round" stroke-linejoin="round"/>
<path d="M1.95831 1.9585H5.79165L8.35998 14.7906C8.44761 15.2318 8.68764 15.6281 9.03804 15.9102C9.38845 16.1923 9.8269 16.3421 10.2766 16.3335H19.5916C20.0414 16.3421 20.4798 16.1923 20.8302 15.9102C21.1807 15.6281 21.4207 15.2318 21.5083 14.7906L23.0416 6.75016H6.74998" stroke="white" stroke-width="2" stroke-linecap="round" stroke-linejoin="round"/>
</svg>
