<svg width="21" height="24" viewBox="0 0 21 24" fill="none" xmlns="http://www.w3.org/2000/svg">
<path d="M9.00812 4.28496C9.1742 4.10368 9.39598 4.00428 9.62562 4.00822C9.85525 4.01216 10.0743 4.11912 10.2356 4.30602C10.3968 4.49292 10.4873 4.74478 10.4875 5.00724C10.4877 5.26971 10.3976 5.52174 10.2366 5.70896L5.53787 11.001L17.4991 11.001C17.7312 11.001 17.9537 11.1063 18.1178 11.2939C18.2819 11.4814 18.3741 11.7357 18.3741 12.001C18.3741 12.2662 18.2819 12.5205 18.1178 12.7081C17.9537 12.8956 17.7312 13.001 17.4991 13.001L5.544 13.001L10.2375 18.286C10.3985 18.4732 10.4886 18.7252 10.4884 18.9877C10.4882 19.2501 10.3977 19.502 10.2364 19.6889C10.0752 19.8758 9.85612 19.9828 9.62649 19.9867C9.39686 19.9906 9.17508 19.8912 9.009 19.71L2.94875 12.888C2.84557 12.7717 2.76364 12.6331 2.70772 12.4803C2.65181 12.3275 2.62301 12.1636 2.62301 11.998C2.62301 11.8323 2.65181 11.6684 2.70772 11.5156C2.76364 11.3628 2.84557 11.2243 2.94875 11.108L9.00812 4.28496Z" fill="white"/>
</svg>
