<svg width="243" height="39" viewBox="0 0 243 39" fill="none" xmlns="http://www.w3.org/2000/svg">
<path d="M51.75 19.55C50.6667 19.55 49.9583 20.1833 49.625 21.45C49.2917 22.7 49.125 24.225 49.125 26.025C49.125 27.9583 49.375 29.4917 49.875 30.625C50.3917 31.7583 51.3333 32.325 52.7 32.325C53.5167 32.325 54.2167 32.1167 54.8 31.7C55.3833 31.2833 55.8417 30.6833 56.175 29.9C56.825 30.2167 57.15 30.7667 57.15 31.55C57.15 32.35 56.8917 33.0333 56.375 33.6C55.8583 34.1667 55.1917 34.5917 54.375 34.875C53.575 35.1583 52.7333 35.3 51.85 35.3C49.3667 35.3 47.55 34.5083 46.4 32.925C45.25 31.3417 44.675 29.2333 44.675 26.6C44.675 23.85 45.275 21.6917 46.475 20.125C47.675 18.5417 49.525 17.75 52.025 17.75C53.5417 17.75 54.7917 18.025 55.775 18.575C56.7583 19.125 57.25 20.0167 57.25 21.25C57.25 21.9833 57.0083 22.575 56.525 23.025C56.0583 23.475 55.4583 23.7 54.725 23.7C54.175 23.7 53.7417 23.6083 53.425 23.425C53.5417 22.8917 53.6 22.45 53.6 22.1C53.6 20.4 52.9833 19.55 51.75 19.55ZM61.1451 16.35C61.8285 16.35 62.3701 16.5083 62.7701 16.825C63.1868 17.1417 63.3951 17.5833 63.3951 18.15C63.3951 18.7333 63.1785 19.1833 62.7451 19.5C62.3118 19.8 61.7535 19.95 61.0701 19.95C60.4035 19.95 59.8535 19.8 59.4201 19.5C59.0035 19.1833 58.7951 18.75 58.7951 18.2C58.7951 17.6167 59.0118 17.1667 59.4451 16.85C59.8951 16.5167 60.4618 16.35 61.1451 16.35ZM62.9451 32.25C62.9451 32.7167 63.0035 33.125 63.1201 33.475C63.2368 33.825 63.4368 34.1333 63.7201 34.4C63.5368 34.6333 63.2535 34.8083 62.8701 34.925C62.5035 35.0583 62.1368 35.125 61.7701 35.125C60.9035 35.125 60.2451 34.9083 59.7951 34.475C59.3451 34.025 59.1201 33.3667 59.1201 32.5V22H62.9451V32.25ZM71.1084 23.55C70.5084 23.55 70.1251 23.925 69.9584 24.675C69.7917 25.4083 69.7084 26.3583 69.7084 27.525V34.75H65.8834V22L69.0084 21.7L69.1834 23.95C69.4501 23.1833 69.8834 22.5833 70.4834 22.15C71.0834 21.7167 71.7917 21.5 72.6084 21.5C73.5584 21.5 74.3084 21.775 74.8584 22.325C75.4251 22.8583 75.7084 23.5917 75.7084 24.525C75.7084 25.3083 75.5001 25.9083 75.0834 26.325C74.6667 26.7417 74.0751 26.95 73.3084 26.95C73.1251 26.95 72.9084 26.925 72.6584 26.875C72.4084 26.825 72.2251 26.7583 72.1084 26.675C72.2251 26.3083 72.2834 25.875 72.2834 25.375C72.2834 24.1583 71.8917 23.55 71.1084 23.55ZM82.293 23C80.9263 23 80.243 24.7583 80.243 28.275C80.243 29.675 80.4346 30.7833 80.818 31.6C81.2013 32.4167 81.9263 32.825 82.993 32.825C83.693 32.825 84.2846 32.6417 84.768 32.275C85.268 31.9083 85.6346 31.3917 85.868 30.725C86.1513 30.825 86.368 30.9917 86.518 31.225C86.668 31.4417 86.743 31.7 86.743 32C86.743 32.7 86.5346 33.3 86.118 33.8C85.7013 34.2833 85.1596 34.65 84.493 34.9C83.8263 35.1667 83.118 35.3 82.368 35.3C80.368 35.3 78.8513 34.6917 77.818 33.475C76.8013 32.2583 76.293 30.5917 76.293 28.475C76.293 26.3083 76.8346 24.6083 77.918 23.375C79.0013 22.125 80.5846 21.5 82.668 21.5C83.9346 21.5 84.9763 21.7417 85.793 22.225C86.6263 22.6917 87.043 23.45 87.043 24.5C87.043 25.1333 86.818 25.6083 86.368 25.925C85.918 26.2417 85.343 26.4 84.643 26.4C84.443 26.4 84.2263 26.3833 83.993 26.35C83.7763 26.3 83.6096 26.2333 83.493 26.15C83.593 25.65 83.643 25.2583 83.643 24.975C83.643 23.6583 83.193 23 82.293 23ZM94.2326 21.5C96.2326 21.5 97.7326 22.0917 98.7326 23.275C99.7493 24.4583 100.258 26.1 100.258 28.2C100.258 30.3667 99.7493 32.0917 98.7326 33.375C97.716 34.6583 96.216 35.3 94.2326 35.3C92.266 35.3 90.766 34.6833 89.7326 33.45C88.6993 32.2167 88.1826 30.55 88.1826 28.45C88.1826 26.3167 88.691 24.625 89.7076 23.375C90.741 22.125 92.2493 21.5 94.2326 21.5ZM94.2326 33.8C95.0993 33.8 95.6576 33.2917 95.9076 32.275C96.1576 31.2583 96.2826 29.9417 96.2826 28.325C96.2826 26.7917 96.1493 25.525 95.8826 24.525C95.616 23.5083 95.066 23 94.2326 23C93.3993 23 92.8493 23.5083 92.5826 24.525C92.316 25.5417 92.1826 26.8083 92.1826 28.325C92.1826 29.9417 92.3076 31.2583 92.5576 32.275C92.8076 33.2917 93.366 33.8 94.2326 33.8ZM110.902 18.25V34.75H106.752V18.25H110.902ZM117.512 16.85V32.25C117.512 32.7167 117.57 33.125 117.687 33.475C117.803 33.825 118.003 34.1333 118.287 34.4C118.103 34.6333 117.82 34.8083 117.437 34.925C117.07 35.0583 116.703 35.125 116.337 35.125C115.47 35.125 114.812 34.9083 114.362 34.475C113.912 34.025 113.687 33.3667 113.687 32.5V17.25L117.512 16.85ZM124.372 16.85V32.25C124.372 32.7167 124.43 33.125 124.547 33.475C124.664 33.825 124.864 34.1333 125.147 34.4C124.964 34.6333 124.68 34.8083 124.297 34.925C123.93 35.0583 123.564 35.125 123.197 35.125C122.33 35.125 121.672 34.9083 121.222 34.475C120.772 34.025 120.547 33.3667 120.547 32.5V17.25L124.372 16.85ZM138.657 32.25C138.657 32.7167 138.716 33.125 138.832 33.475C138.949 33.825 139.149 34.1333 139.432 34.4C139.232 34.6333 138.949 34.8083 138.582 34.925C138.232 35.0583 137.874 35.125 137.507 35.125C136.907 35.125 136.399 35 135.982 34.75C135.566 34.4833 135.282 34.1083 135.132 33.625C134.799 34.1917 134.332 34.6083 133.732 34.875C133.149 35.1583 132.491 35.3 131.757 35.3C130.541 35.3 129.607 35.0417 128.957 34.525C128.324 34.0083 127.899 33.2917 127.682 32.375C127.466 31.4583 127.357 30.2833 127.357 28.85V22H131.232V28.725C131.232 29.775 131.257 30.625 131.307 31.275C131.374 31.9083 131.532 32.4417 131.782 32.875C132.049 33.2917 132.457 33.5 133.007 33.5C133.641 33.5 134.099 33.2333 134.382 32.7C134.682 32.1667 134.832 31.5 134.832 30.7V22H138.657V32.25ZM146.216 22.875C145.783 22.875 145.433 23 145.166 23.25C144.916 23.5 144.791 23.8333 144.791 24.25C144.791 24.8833 145.025 25.4083 145.491 25.825C145.958 26.2417 146.666 26.7 147.616 27.2C148.366 27.6167 148.966 27.9833 149.416 28.3C149.866 28.6 150.25 28.9917 150.566 29.475C150.883 29.9417 151.041 30.5083 151.041 31.175C151.041 32.5583 150.541 33.5917 149.541 34.275C148.541 34.9583 147.25 35.3 145.666 35.3C144.366 35.3 143.25 35.0917 142.316 34.675C141.383 34.2583 140.916 33.5583 140.916 32.575C140.916 31.9417 141.133 31.4667 141.566 31.15C142.016 30.8333 142.591 30.675 143.291 30.675C143.841 30.675 144.233 30.7583 144.466 30.925C144.366 31.2917 144.316 31.6833 144.316 32.1C144.316 32.6667 144.45 33.1167 144.716 33.45C144.983 33.7667 145.375 33.925 145.891 33.925C146.425 33.925 146.833 33.775 147.116 33.475C147.4 33.1583 147.541 32.725 147.541 32.175C147.541 31.5417 147.308 31.0167 146.841 30.6C146.375 30.1833 145.675 29.725 144.741 29.225C143.991 28.825 143.383 28.4667 142.916 28.15C142.466 27.8333 142.083 27.4333 141.766 26.95C141.45 26.4667 141.291 25.8917 141.291 25.225C141.291 23.975 141.791 23.0417 142.791 22.425C143.791 21.8083 145.025 21.5 146.491 21.5C147.708 21.5 148.766 21.7 149.666 22.1C150.566 22.5 151.016 23.1583 151.016 24.075C151.016 24.675 150.783 25.1417 150.316 25.475C149.866 25.7917 149.3 25.95 148.616 25.95C148.416 25.95 148.2 25.9333 147.966 25.9C147.75 25.8667 147.583 25.8083 147.466 25.725C147.566 25.2917 147.616 24.8917 147.616 24.525C147.616 24.025 147.491 23.625 147.241 23.325C147.008 23.025 146.666 22.875 146.216 22.875ZM155.188 16.35C155.871 16.35 156.413 16.5083 156.813 16.825C157.23 17.1417 157.438 17.5833 157.438 18.15C157.438 18.7333 157.221 19.1833 156.788 19.5C156.355 19.8 155.796 19.95 155.113 19.95C154.446 19.95 153.896 19.8 153.463 19.5C153.046 19.1833 152.838 18.75 152.838 18.2C152.838 17.6167 153.055 17.1667 153.488 16.85C153.938 16.5167 154.505 16.35 155.188 16.35ZM156.988 32.25C156.988 32.7167 157.046 33.125 157.163 33.475C157.28 33.825 157.48 34.1333 157.763 34.4C157.58 34.6333 157.296 34.8083 156.913 34.925C156.546 35.0583 156.18 35.125 155.813 35.125C154.946 35.125 154.288 34.9083 153.838 34.475C153.388 34.025 153.163 33.3667 153.163 32.5V22H156.988V32.25ZM165.326 21.5C167.326 21.5 168.826 22.0917 169.826 23.275C170.843 24.4583 171.351 26.1 171.351 28.2C171.351 30.3667 170.843 32.0917 169.826 33.375C168.81 34.6583 167.31 35.3 165.326 35.3C163.36 35.3 161.86 34.6833 160.826 33.45C159.793 32.2167 159.276 30.55 159.276 28.45C159.276 26.3167 159.785 24.625 160.801 23.375C161.835 22.125 163.343 21.5 165.326 21.5ZM165.326 33.8C166.193 33.8 166.751 33.2917 167.001 32.275C167.251 31.2583 167.376 29.9417 167.376 28.325C167.376 26.7917 167.243 25.525 166.976 24.525C166.71 23.5083 166.16 23 165.326 23C164.493 23 163.943 23.5083 163.676 24.525C163.41 25.5417 163.276 26.8083 163.276 28.325C163.276 29.9417 163.401 31.2583 163.651 32.275C163.901 33.2917 164.46 33.8 165.326 33.8ZM173.501 22L176.626 21.7L176.801 23.95C177.434 22.3167 178.742 21.5 180.726 21.5C182.176 21.5 183.201 21.8917 183.801 22.675C184.417 23.4583 184.726 24.6333 184.726 26.2V32.25C184.726 32.7167 184.784 33.125 184.901 33.475C185.017 33.825 185.217 34.1333 185.501 34.4C185.317 34.6333 185.034 34.8083 184.651 34.925C184.284 35.0583 183.917 35.125 183.551 35.125C182.684 35.125 182.026 34.9083 181.576 34.475C181.126 34.025 180.901 33.3667 180.901 32.5V26.4C180.901 25.4167 180.809 24.675 180.626 24.175C180.442 23.6583 180.009 23.4 179.326 23.4C178.509 23.4 177.967 23.775 177.701 24.525C177.451 25.275 177.326 26.2667 177.326 27.5V34.75H173.501V22ZM187.514 22L190.639 21.7L190.814 23.95C191.448 22.3167 192.756 21.5 194.739 21.5C196.189 21.5 197.214 21.8917 197.814 22.675C198.431 23.4583 198.739 24.6333 198.739 26.2V32.25C198.739 32.7167 198.798 33.125 198.914 33.475C199.031 33.825 199.231 34.1333 199.514 34.4C199.331 34.6333 199.048 34.8083 198.664 34.925C198.298 35.0583 197.931 35.125 197.564 35.125C196.698 35.125 196.039 34.9083 195.589 34.475C195.139 34.025 194.914 33.3667 194.914 32.5V26.4C194.914 25.4167 194.823 24.675 194.639 24.175C194.456 23.6583 194.023 23.4 193.339 23.4C192.523 23.4 191.981 23.775 191.714 24.525C191.464 25.275 191.339 26.2667 191.339 27.5V34.75H187.514V22ZM203.528 16.35C204.211 16.35 204.753 16.5083 205.153 16.825C205.57 17.1417 205.778 17.5833 205.778 18.15C205.778 18.7333 205.561 19.1833 205.128 19.5C204.695 19.8 204.136 19.95 203.453 19.95C202.786 19.95 202.236 19.8 201.803 19.5C201.386 19.1833 201.178 18.75 201.178 18.2C201.178 17.6167 201.395 17.1667 201.828 16.85C202.278 16.5167 202.845 16.35 203.528 16.35ZM205.328 32.25C205.328 32.7167 205.386 33.125 205.503 33.475C205.62 33.825 205.82 34.1333 206.103 34.4C205.92 34.6333 205.636 34.8083 205.253 34.925C204.886 35.0583 204.52 35.125 204.153 35.125C203.286 35.125 202.628 34.9083 202.178 34.475C201.728 34.025 201.503 33.3667 201.503 32.5V22H205.328V32.25Z" fill="#192657"/>
<path d="M34 19.9974C26.0134 19.9974 19.3165 13.0093 17.4601 7.29897V4.8062C19.0961 3.03537 20.7298 5.42273 22.3618 3.6519C20.7292 4.6532 19.0955 1.49517 17.4601 2.4959V2.178C17.7055 2.04087 17.8698 1.80003 17.8698 1.52407C17.8698 1.09623 17.4805 0.75 17 0.75C16.5183 0.75 16.129 1.09623 16.129 1.5235C16.129 1.80683 16.3019 2.05163 16.5574 2.1865V7.24457C14.726 12.9651 8.01097 19.9974 0 19.9974C0 21.1749 1.20757 22.1485 2.7846 22.3275L0 34.75H4.63193L6.55463 20.4332C6.59147 20.2915 6.61357 20.1459 6.61357 19.9968C12.2848 19.9968 15.8757 10.138 16.7756 7.3579H16.9824C16.7886 16.148 13.2147 19.9968 13.2147 19.9968H6.61357C6.61357 21.3019 8.0937 22.3598 9.92007 22.3598C11.7464 22.3598 13.226 21.3019 13.226 19.9968L12.6639 28.3693C9.82487 31.7914 8.64167 31.9518 8.64167 31.9518C9.58913 34.75 10.9769 34.75 10.9769 34.75C14.0193 34.75 16.9864 22.3604 16.9864 22.3593L16.9558 22.4063L16.9915 22.3315L17.0181 22.3853C17.1507 22.9327 20.0487 34.75 23.022 34.75C23.022 34.75 24.4097 34.75 25.3572 31.9518C25.3572 31.9518 24.1746 31.7914 21.3356 28.3705L20.774 19.9974C20.774 21.3024 22.2524 22.3604 24.0788 22.3604C25.9052 22.3604 27.3859 21.3024 27.3859 19.9974H20.7853C20.7853 19.9974 17.2119 16.1486 17.0187 7.35847H17.2255C18.1254 10.138 21.7147 19.9974 27.3859 19.9974C27.3859 20.1464 27.408 20.2921 27.4454 20.4337L29.3681 34.75H34L31.2143 22.3275C32.7924 22.1485 34 21.1749 34 19.9974Z" fill="#121B43"/>
</svg>
