<svg width="120" height="167" viewBox="0 0 120 167" fill="none" xmlns="http://www.w3.org/2000/svg">
<path d="M70.5697 6.20684C70.5697 6.20684 71.0872 2.52194 74.8975 3.9959L78.7079 5.46986C78.7079 5.46986 77.2966 0.802314 82.5652 2.17801C87.8339 3.55371 86.4226 8.17212 86.4226 8.17212C86.4226 8.17212 90.7504 3.89764 96.5365 9.25303C102.323 14.6084 96.2072 19.6199 90.327 19.5216C84.4469 19.4234 93.4788 22.0765 89.2921 22.6661C86.9871 23.01 84.6821 23.01 82.3771 22.6661C82.3771 22.6661 82.9416 30.3798 76.0265 27.7267C69.1115 25.0735 70.5697 6.20684 70.5697 6.20684Z" fill="#E63946"/>
<path d="M65.9639 5.32291C65.9639 5.32291 63.0003 -2.0469 59.6134 0.557103L56.2735 3.11197C56.2735 3.11197 48.5117 0.065783 46.5359 4.19288C44.5602 8.31997 47.1004 10.9731 47.1004 10.9731C47.1004 10.9731 38.7741 11.2188 40.9851 15.6898C40.9851 15.6898 34.3052 16.0828 37.8333 19.7677C41.3614 23.4526 60.4601 27.2358 61.2598 23.4035C62.0595 19.5712 65.9639 5.32291 65.9639 5.32291Z" fill="#E4CB66"/>
<path d="M77.0636 21.0447C77.0636 21.0447 78.5689 17.802 80.2624 19.0303C81.9558 20.2586 78.5689 27.5792 77.0636 26.3509C75.5582 25.1226 77.0636 21.0447 77.0636 21.0447Z" fill="#EA8383"/>
<path d="M58.2528 21.5854C58.2528 21.5854 54.4425 16.6722 53.878 19.8167C53.3135 22.9611 57.359 26.4986 58.3469 25.4669C59.3347 24.4351 58.2528 21.5854 58.2528 21.5854Z" fill="#EA8383"/>
<path d="M62.3442 77.7928C62.3442 77.7928 58.8632 83.8851 53.0301 83.1481C47.197 82.4112 35.6719 57.2064 35.6719 57.2064L37.8828 51.3106L51.76 63.8884C51.76 63.8884 57.2167 40.2559 63.4262 40.4524C69.6356 40.6489 62.3442 77.7928 62.3442 77.7928Z" fill="#000001"/>
<path d="M103.085 87.0785C103.085 87.0785 121.242 71.0614 118.796 62.3159C116.35 53.5704 82.3394 36.669 78.5761 36.8164C74.8128 36.9638 88.4077 60.0067 93.1118 62.3159C97.8159 64.6251 105.013 65.4604 105.013 65.4604C105.013 65.4604 100.121 75.6307 100.121 76.4168C100.121 77.2029 103.085 87.0785 103.085 87.0785Z" fill="#000001"/>
<path d="M58.762 88.0608C58.762 88.0608 53.6345 51.8996 59.6558 43.105C65.6771 34.3104 76.8729 34.556 80.7773 38.1427C84.6817 41.7293 96.7713 79.8067 96.7713 79.8067C96.7713 79.8067 74.9912 94.448 58.762 88.0608Z" fill="#000001"/>
<path d="M34.0718 31.5596C37.5528 36.2763 39.2933 42.1721 38.9641 48.1171C38.6818 54.6025 37.5058 62.5619 33.4132 62.0215C29.4147 61.481 25.8396 59.2701 23.4875 55.8799C23.4875 55.8799 17.0429 66.8364 10.9745 64.7237C4.90622 62.611 -2.24404 49.0015 0.672514 44.5796C3.58907 40.1577 13.6088 37.4554 13.6088 37.4554C13.6088 37.4554 5.89409 23.6493 11.5861 20.3575C16.1961 17.7535 26.4981 21.3401 34.0718 31.5596Z" fill="#5F977F"/>
<path d="M21.7499 29.3489C22.8789 28.9067 24.149 29.0541 25.184 29.6928C27.3008 30.9703 31.4404 34.1147 32.3813 39.6175C33.6984 47.1347 28.2416 49.3457 24.6665 45.4642C21.5147 41.9758 16.7636 31.3633 21.7499 29.3489Z" fill="#000001"/>
<path d="M65.9679 3.11184C65.9679 3.11184 72.6948 3.2101 76.5992 10.5799C80.5036 17.9497 77.5871 38.6834 67.0028 36.3251C56.4185 33.9668 50.8676 1.93267 65.9679 3.11184Z" fill="#F2EBEB"/>
<path d="M71.6138 11.022C70.9552 10.9238 70.2496 11.2186 69.8733 11.8082C69.0265 13.1347 67.6153 15.9352 68.9324 18.834C70.72 22.8629 72.5546 25.0247 73.9188 21.9785C75.236 19.1288 75.8005 11.5625 71.6138 11.022Z" fill="#E4CB66"/>
<path d="M63.3754 10.5311C63.3754 10.5311 66.2919 11.5629 65.4452 16.2304C64.5984 20.898 63.5165 23.502 61.2585 21.5367C59.0005 19.5714 58.436 8.17276 63.3754 10.5311Z" fill="#E63946"/>
<path d="M65.5402 20.7011C65.5402 20.7011 62.5296 21.1433 63.8938 24.6317C65.258 28.1201 69.1153 26.1056 69.4446 24.6317C69.7739 23.1577 68.3156 19.8659 65.5402 20.7011Z" fill="#EA8383"/>
<path d="M73.164 24.7793C72.9288 26.4007 72.2232 27.8746 71.1882 29.1029C70.6238 29.7416 70.0122 30.233 69.2596 30.5769L68.6951 30.8225L68.1306 31.0191L67.8483 31.1173L67.5661 31.1665L66.9545 31.2647C66.1548 31.3139 65.3081 31.1665 64.5554 30.8717C63.8028 30.5278 63.1442 30.0364 62.6267 29.3486C61.6859 28.0711 61.1214 26.4989 61.0273 24.8776C61.4507 26.3515 62.1563 27.7272 63.1442 28.8573C64.1321 29.889 65.4963 30.4295 66.8605 30.3312C68.2717 30.233 69.5888 29.6434 70.6708 28.6607C71.7527 27.4816 72.5995 26.2041 73.164 24.7793Z" fill="#000001"/>
<path d="M72.4098 15.6898C71.9865 15.9355 71.6101 16.3285 71.3279 16.7216C71.2338 16.9181 71.0927 17.1147 70.9986 17.3603C70.9515 17.4586 70.8575 17.606 70.8104 17.7534C70.7163 17.9008 70.6693 18.0482 70.5752 18.1956C70.4811 18.0482 70.4341 17.9008 70.34 17.7534C70.293 17.606 70.293 17.4094 70.293 17.262C70.293 16.9181 70.3871 16.5251 70.5752 16.2303C70.7634 15.9355 71.0927 15.6898 71.469 15.5916C71.7983 15.4442 72.1276 15.4933 72.4098 15.6898Z" fill="#000001"/>
<path d="M61.2148 15.6888C61.4971 15.5414 61.8264 15.4922 62.1557 15.5414C62.485 15.5905 62.8142 15.7379 63.0494 15.9836C63.3317 16.2292 63.5199 16.524 63.6139 16.8679C63.708 17.2119 63.661 17.5558 63.5199 17.8997C63.2847 17.6541 63.1435 17.4084 62.9554 17.2119C62.8142 17.0153 62.6261 16.8679 62.4379 16.7205C62.1557 16.4258 61.7323 16.131 61.2148 15.6888Z" fill="#000001"/>
<path d="M100.21 73.9111C100.21 73.9111 109.9 104.619 98.7046 126.04C87.5088 147.462 74.5725 163.233 72.4556 163.233H65.8228C65.8228 163.233 65.6346 111.939 56.2734 87.0294C56.2734 87.0785 89.6727 86.8329 100.21 73.9111Z" fill="#F5D94A"/>
<mask id="mask0_1397_20195" style="mask-type:luminance" maskUnits="userSpaceOnUse" x="56" y="73" width="49" height="91">
<path d="M100.21 73.9121C100.21 73.9121 109.9 104.62 98.7046 126.041C87.5088 147.463 74.5725 163.234 72.4556 163.234H65.8228C65.8228 163.234 65.6346 111.94 56.2734 87.0304C56.2734 87.0795 89.6727 86.8338 100.21 73.9121Z" fill="white"/>
</mask>
<g mask="url(#mask0_1397_20195)">
</g>
<path d="M83.9368 105.11C83.3253 106.093 82.5256 106.928 81.6318 107.616C80.691 108.353 79.609 108.795 78.433 108.943C77.8215 108.992 77.2099 108.943 76.6454 108.795C76.0809 108.599 75.5635 108.353 75.046 107.96C74.1523 107.223 73.4466 106.24 73.0703 105.159C73.7759 105.995 74.5756 106.732 75.4694 107.37C76.3162 107.911 77.3511 108.107 78.3389 108.009C79.3738 107.862 80.3617 107.567 81.2555 107.026C82.1963 106.437 83.0901 105.798 83.9368 105.11Z" fill="#000001"/>
<path d="M68.832 163.282C69.5376 161.071 70.2433 158.86 70.9018 156.6C71.5604 154.34 72.172 152.129 72.7835 149.869C74.0066 145.349 75.0885 140.829 75.9823 136.26C76.4527 134 76.829 131.69 77.2054 129.381C77.5817 127.072 77.8169 124.763 78.0051 122.453C78.1932 120.144 78.2873 117.786 78.2403 115.477C78.2403 113.118 78.0051 110.809 77.6287 108.5C78.7577 113.02 78.9929 117.835 78.7577 122.503C78.4755 127.219 77.8639 131.887 76.9231 136.456C76.4527 138.765 75.9353 141.025 75.3708 143.335C74.8063 145.644 74.1947 147.855 73.4891 150.115C72.1249 154.586 70.5726 158.959 68.832 163.282Z" fill="#000001"/>
<path d="M68.8398 166.329C68.8398 166.329 96.7353 166.525 99.7459 166.329C102.757 166.132 103.133 158.222 100.875 154.684C98.6169 151.147 82.0114 163.233 82.0114 163.233H69.7336L68.8398 166.329Z" fill="#000001"/>
<path d="M39.9016 166.427C39.9016 166.427 36.3265 156.895 40.8424 155.127C45.3584 153.358 57.448 162.398 60.6468 163.283C63.8456 164.167 65.7743 163.283 65.7743 163.283H69.6787L68.7849 166.378L39.9016 166.427Z" fill="#000001"/>
<path d="M73.9171 9.74502C73.4466 9.5485 72.9762 9.45023 72.4588 9.49936C72.2706 9.49936 72.0354 9.54849 71.7532 9.59763C71.612 9.64676 71.4709 9.64675 71.3298 9.64675C71.1887 9.69589 71.0005 9.69589 70.8594 9.69589C70.9064 9.49936 71.0005 9.35197 71.0946 9.20457C71.1887 9.05717 71.3298 8.95891 71.4239 8.81151C71.7061 8.61498 72.0354 8.46759 72.3647 8.41846C72.741 8.41846 73.0703 8.51672 73.3996 8.76238C73.7289 9.00804 73.9171 9.35197 73.9171 9.74502Z" fill="#000001"/>
<path d="M60.8867 9.74496C60.9338 9.40104 61.0749 9.10625 61.3101 8.86059C61.5453 8.61493 61.8275 8.46753 62.1568 8.36927C62.4861 8.271 62.8625 8.271 63.1917 8.4184C63.521 8.51666 63.7562 8.76232 63.9444 9.10625C63.6151 9.15538 63.3329 9.15538 63.0977 9.20451C62.8625 9.25364 62.6743 9.30277 62.4391 9.35191C61.9687 9.35191 61.5453 9.54844 60.8867 9.74496Z" fill="#000001"/>
<path d="M98.8488 80.0031C98.8488 80.0031 88.6409 41.7292 76.4102 35.9316C76.4102 35.9316 92.7805 61.0381 96.732 81.2805C96.732 81.2805 99.4604 82.214 98.8488 80.0031Z" fill="#E4CB66"/>
<path d="M61.2129 39.3223C61.2129 39.3223 54.2038 66.0501 61.2129 88.8965C61.2129 88.8965 60.0839 90.567 58.7198 88.1104C57.3556 85.6538 54.2508 45.2181 61.2129 39.3223Z" fill="#E4CB66"/>
<path d="M69.1638 39.1255C69.1638 39.1255 75.8436 45.8566 77.3489 42.7122C78.8543 39.5677 79.1835 32.8366 76.5492 32.7875C73.9149 32.7384 69.1167 37.3077 69.1167 37.3077C69.1167 37.3077 61.3549 32.6401 59.8496 36.2759C58.3443 39.9117 57.1212 43.8422 60.4141 43.5474C63.707 43.2526 69.1638 39.1255 69.1638 39.1255Z" fill="#5F977F"/>
<path d="M68.644 36.2269C68.644 36.2269 66.6212 36.5217 67.562 38.8801C68.5028 41.2384 71.0431 39.8627 71.2783 38.8801C71.5135 37.8974 70.4786 35.6865 68.644 36.2269Z" fill="#F2EBEB"/>
</svg>
