<svg width="471" height="887" viewBox="0 0 471 887" fill="none" xmlns="http://www.w3.org/2000/svg">
<path d="M78.1645 249.316C-49.1122 414.619 -14.555 764 135.443 848.757C285.441 933.513 493.52 848.757 493.52 848.757C493.52 668 518.5 210 493.52 191.128C493.52 191.128 205.441 84.0135 78.1645 249.316Z" fill="#E4CB66"/>
<path d="M292.57 6.58624C292.57 6.58624 293.087 2.90133 296.898 4.37529L300.708 5.84926C300.708 5.84926 299.297 1.18171 304.565 2.55741C309.834 3.9331 308.423 8.55152 308.423 8.55152C308.423 8.55152 312.75 4.27703 318.536 9.63243C324.323 14.9878 318.207 19.9993 312.327 19.901C306.447 19.8028 315.479 22.4559 311.292 23.0455C308.987 23.3894 306.682 23.3894 304.377 23.0455C304.377 23.0455 304.942 30.7592 298.027 28.1061C291.111 25.4529 292.57 6.58624 292.57 6.58624Z" fill="#E63946"/>
<path d="M287.964 5.7023C287.964 5.7023 285 -1.6675 281.613 0.936497L278.273 3.49136C278.273 3.49136 270.512 0.445178 268.536 4.57227C266.56 8.69936 269.1 11.3525 269.1 11.3525C269.1 11.3525 260.774 11.5981 262.985 16.0692C262.985 16.0692 256.305 16.4622 259.833 20.1471C263.361 23.832 282.46 27.6152 283.26 23.7829C284.06 19.9506 287.964 5.7023 287.964 5.7023Z" fill="#E4CB66"/>
<path d="M299.064 21.4241C299.064 21.4241 300.569 18.1813 302.262 19.4096C303.956 20.6379 300.569 27.9586 299.064 26.7303C297.558 25.502 299.064 21.4241 299.064 21.4241Z" fill="#EA8383"/>
<path d="M280.253 21.9648C280.253 21.9648 276.442 17.0516 275.878 20.1961C275.313 23.3405 279.359 26.878 280.347 25.8462C281.335 24.8145 280.253 21.9648 280.253 21.9648Z" fill="#EA8383"/>
<path d="M284.344 78.1721C284.344 78.1721 280.863 84.2645 275.03 83.5275C269.197 82.7906 257.672 57.5858 257.672 57.5858L259.883 51.69L273.76 64.2678C273.76 64.2678 279.217 40.6353 285.426 40.8318C291.636 41.0283 284.344 78.1721 284.344 78.1721Z" fill="#000001"/>
<path d="M325.085 87.4579C325.085 87.4579 343.242 71.4408 340.796 62.6953C338.35 53.9498 304.339 37.0484 300.576 37.1958C296.813 37.3432 310.408 60.3861 315.112 62.6953C319.816 65.0045 327.013 65.8398 327.013 65.8398C327.013 65.8398 322.121 76.0101 322.121 76.7962C322.121 77.5823 325.085 87.4579 325.085 87.4579Z" fill="#000001"/>
<path d="M280.762 88.4402C280.762 88.4402 275.635 52.279 281.656 43.4844C287.677 34.6898 298.873 34.9354 302.777 38.5221C306.682 42.1087 318.771 80.1861 318.771 80.1861C318.771 80.1861 296.991 94.8274 280.762 88.4402Z" fill="#000001"/>
<path d="M256.072 31.939C259.553 36.6557 261.293 42.5515 260.964 48.4965C260.682 54.9819 259.506 62.9413 255.413 62.4008C251.415 61.8604 247.84 59.6495 245.487 56.2593C245.487 56.2593 239.043 67.2158 232.975 65.1031C226.906 62.9904 219.756 49.3809 222.673 44.959C225.589 40.5371 235.609 37.8348 235.609 37.8348C235.609 37.8348 227.894 24.0287 233.586 20.7369C238.196 18.1329 248.498 21.7195 256.072 31.939Z" fill="#5F977F"/>
<path d="M243.75 29.7283C244.879 29.2861 246.149 29.4335 247.184 30.0722C249.301 31.3497 253.44 34.4941 254.381 39.9969C255.698 47.5141 250.242 49.725 246.666 45.8436C243.515 42.3552 238.764 31.7427 243.75 29.7283Z" fill="#000001"/>
<path d="M287.968 3.49123C287.968 3.49123 294.695 3.5895 298.599 10.9593C302.504 18.3291 299.587 39.0628 289.003 36.7045C278.419 34.3462 272.868 2.31206 287.968 3.49123Z" fill="#F2EBEB"/>
<path d="M293.614 11.4014C292.955 11.3032 292.25 11.598 291.873 12.1875C291.027 13.5141 289.615 16.3146 290.932 19.2134C292.72 23.2423 294.555 25.4041 295.919 22.3579C297.236 19.5082 297.8 11.9419 293.614 11.4014Z" fill="#E4CB66"/>
<path d="M285.375 10.9105C285.375 10.9105 288.292 11.9423 287.445 16.6098C286.598 21.2774 285.516 23.8814 283.259 21.9161C281.001 19.9508 280.436 8.55216 285.375 10.9105Z" fill="#E63946"/>
<path d="M287.54 21.0805C287.54 21.0805 284.53 21.5227 285.894 25.0111C287.258 28.4994 291.115 26.485 291.445 25.0111C291.774 23.5371 290.316 20.2453 287.54 21.0805Z" fill="#EA8383"/>
<path d="M295.164 25.1587C294.929 26.78 294.223 28.254 293.188 29.4823C292.624 30.121 292.012 30.6124 291.26 30.9563L290.695 31.2019L290.131 31.3985L289.848 31.4967L289.566 31.5459L288.955 31.6441C288.155 31.6933 287.308 31.5459 286.555 31.2511C285.803 30.9071 285.144 30.4158 284.627 29.728C283.686 28.4505 283.121 26.8783 283.027 25.257C283.451 26.7309 284.156 28.1066 285.144 29.2367C286.132 30.2684 287.496 30.8089 288.86 30.7106C290.272 30.6124 291.589 30.0228 292.671 29.0401C293.753 27.861 294.599 26.5835 295.164 25.1587Z" fill="#000001"/>
<path d="M294.41 16.0692C293.986 16.3149 293.61 16.7079 293.328 17.101C293.234 17.2975 293.093 17.4941 292.999 17.7397C292.952 17.838 292.857 17.9854 292.81 18.1328C292.716 18.2802 292.669 18.4276 292.575 18.575C292.481 18.4276 292.434 18.2802 292.34 18.1328C292.293 17.9854 292.293 17.7888 292.293 17.6414C292.293 17.2975 292.387 16.9045 292.575 16.6097C292.763 16.3149 293.093 16.0692 293.469 15.971C293.798 15.8236 294.128 15.8727 294.41 16.0692Z" fill="#000001"/>
<path d="M283.215 16.0682C283.497 15.9208 283.826 15.8716 284.156 15.9208C284.485 15.9699 284.814 16.1173 285.049 16.363C285.332 16.6086 285.52 16.9034 285.614 17.2473C285.708 17.5913 285.661 17.9352 285.52 18.2791C285.285 18.0334 285.144 17.7878 284.955 17.5913C284.814 17.3947 284.626 17.2473 284.438 17.0999C284.156 16.8051 283.732 16.5104 283.215 16.0682Z" fill="#000001"/>
<path d="M322.21 74.2905C322.21 74.2905 331.9 104.998 320.705 126.42C309.509 147.841 296.572 163.613 294.456 163.613H287.823C287.823 163.613 287.635 112.319 278.273 87.4088C278.273 87.4579 311.673 87.2123 322.21 74.2905Z" fill="#F5D94A"/>
<mask id="mask0_2118_3795" style="mask-type:luminance" maskUnits="userSpaceOnUse" x="278" y="74" width="49" height="90">
<path d="M322.21 74.2915C322.21 74.2915 331.9 104.999 320.705 126.421C309.509 147.842 296.572 163.614 294.456 163.614H287.823C287.823 163.614 287.635 112.32 278.273 87.4098C278.273 87.4589 311.673 87.2132 322.21 74.2915Z" fill="white"/>
</mask>
<g mask="url(#mask0_2118_3795)">
</g>
<path d="M305.937 105.49C305.325 106.472 304.526 107.308 303.632 107.995C302.691 108.732 301.609 109.175 300.433 109.322C299.821 109.371 299.21 109.322 298.645 109.175C298.081 108.978 297.563 108.732 297.046 108.339C296.152 107.602 295.447 106.62 295.07 105.539C295.776 106.374 296.576 107.111 297.469 107.75C298.316 108.29 299.351 108.487 300.339 108.389C301.374 108.241 302.362 107.946 303.255 107.406C304.196 106.816 305.09 106.178 305.937 105.49Z" fill="#000001"/>
<path d="M290.832 163.662C291.538 161.451 292.243 159.24 292.902 156.98C293.56 154.72 294.172 152.509 294.783 150.249C296.007 145.728 297.089 141.208 297.982 136.639C298.453 134.379 298.829 132.07 299.205 129.761C299.582 127.451 299.817 125.142 300.005 122.833C300.193 120.524 300.287 118.165 300.24 115.856C300.24 113.498 300.005 111.189 299.629 108.879C300.758 113.4 300.993 118.214 300.758 122.882C300.475 127.599 299.864 132.266 298.923 136.836C298.453 139.145 297.935 141.405 297.371 143.714C296.806 146.023 296.195 148.234 295.489 150.494C294.125 154.965 292.573 159.338 290.832 163.662Z" fill="#000001"/>
<path d="M290.84 166.708C290.84 166.708 318.735 166.904 321.746 166.708C324.757 166.511 325.133 158.601 322.875 155.064C320.617 151.526 304.011 163.613 304.011 163.613H291.734L290.84 166.708Z" fill="#000001"/>
<path d="M261.902 166.806C261.902 166.806 258.326 157.275 262.842 155.506C267.358 153.737 279.448 162.778 282.647 163.662C285.846 164.546 287.774 163.662 287.774 163.662H291.679L290.785 166.757L261.902 166.806Z" fill="#000001"/>
<path d="M295.917 10.1244C295.447 9.92789 294.976 9.82963 294.459 9.87876C294.271 9.87876 294.035 9.92789 293.753 9.97702C293.612 10.0262 293.471 10.0261 293.33 10.0261C293.189 10.0753 293 10.0753 292.859 10.0753C292.906 9.87876 293 9.73136 293.095 9.58396C293.189 9.43657 293.33 9.3383 293.424 9.19091C293.706 8.99438 294.035 8.84698 294.365 8.79785C294.741 8.79785 295.07 8.89611 295.4 9.14177C295.729 9.38743 295.917 9.73136 295.917 10.1244Z" fill="#000001"/>
<path d="M282.887 10.1244C282.934 9.78043 283.075 9.48564 283.31 9.23998C283.545 8.99432 283.828 8.84692 284.157 8.74866C284.486 8.6504 284.862 8.6504 285.192 8.79779C285.521 8.89606 285.756 9.14172 285.944 9.48564C285.615 9.53477 285.333 9.53477 285.098 9.5839C284.862 9.63304 284.674 9.68217 284.439 9.7313C283.969 9.7313 283.545 9.92783 282.887 10.1244Z" fill="#000001"/>
<path d="M320.849 80.3825C320.849 80.3825 310.641 42.1086 298.41 36.311C298.41 36.311 314.781 61.4175 318.732 81.6599C318.732 81.6599 321.46 82.5934 320.849 80.3825Z" fill="#E4CB66"/>
<path d="M283.213 39.7017C283.213 39.7017 276.204 66.4295 283.213 89.2759C283.213 89.2759 282.084 90.9464 280.72 88.4898C279.356 86.0332 276.251 45.5975 283.213 39.7017Z" fill="#E4CB66"/>
<path d="M291.164 39.5049C291.164 39.5049 297.844 46.236 299.349 43.0916C300.854 39.9471 301.184 33.216 298.549 33.1669C295.915 33.1178 291.117 37.687 291.117 37.687C291.117 37.687 283.355 33.0195 281.85 36.6553C280.344 40.291 279.121 44.2216 282.414 43.9268C285.707 43.632 291.164 39.5049 291.164 39.5049Z" fill="#5F977F"/>
<path d="M290.644 36.6063C290.644 36.6063 288.621 36.9011 289.562 39.2595C290.503 41.6178 293.043 40.2421 293.278 39.2595C293.513 38.2768 292.479 36.0659 290.644 36.6063Z" fill="#F2EBEB"/>
</svg>
