<svg width="30" height="29" viewBox="0 0 30 29" fill="none" xmlns="http://www.w3.org/2000/svg">
<g clip-path="url(#clip0_2080_3667)">
<path d="M26.2571 22.6526L24.5417 20.8268L22.8255 18.9994L21.1101 17.1744V17.1736L19.4249 15.3793V15.3785C16.9599 14.1382 15.7799 15.9938 14.6025 16.1521L15.0004 17.1667L18.2475 19.8678L20.1875 21.4823H20.1883L22.1282 23.0975H22.129L24.0681 24.712H24.0689L25.9215 26.2543L27.4095 26.0508L27.8949 24.397L26.2571 22.6526Z" fill="#F4EDE4"/>
<path d="M15.001 8.05436C14.8695 8.22036 14.752 8.39479 14.6458 8.57617C13.417 10.6663 13.7485 13.664 13.5256 15.1379L12.0804 15.5214L10.5765 15.3784C10.0596 15.0949 9.53225 14.7744 9.00068 14.4194C7.85682 13.6556 6.69414 12.7343 5.57066 11.6769C0.981308 7.35742 -1.20928 2.41552 0.679198 0.638078C0.959276 0.374475 1.31277 0.195468 1.72756 0.095541C1.73084 0.095541 1.7333 0.094769 1.73652 0.0939969C4.12064 -0.473852 8.50346 1.56714 12.4079 5.24186C12.8863 5.69142 13.3386 6.14865 13.7624 6.60819C13.7656 6.61205 13.7689 6.61508 13.7721 6.61894C14.2139 7.09613 14.623 7.5764 15.001 8.05436Z" fill="#121B43"/>
<path d="M15.3828 9.27019C14.0274 11.1198 13.7423 13.7055 13.5251 15.1379L12.0799 15.5213L11.2447 16.0336C11.2414 16.0313 11.0323 15.7129 11.0291 15.7114L10.576 15.3784C10.0592 15.0948 9.53176 14.7744 9.0002 14.4194C7.85633 13.6555 6.69365 12.7342 5.57018 11.6768C0.98082 7.35741 -1.20977 2.41552 0.67871 0.638075C0.958788 0.374472 1.31228 0.195465 1.72707 0.0955383C1.73035 0.0955383 1.73281 0.0947662 1.73603 0.0939941C1.13264 2.33787 3.30043 6.46287 7.20477 10.1384C8.13389 11.0128 9.09002 11.7928 10.0404 12.469C10.5001 11.0966 11.4015 9.51973 12.6686 7.91754C13.0099 7.48491 13.3781 7.05074 13.7717 6.61888C14.2135 7.09607 14.6225 7.57635 15.0005 8.05436C14.8691 8.22035 15.4889 9.08887 15.3828 9.27019Z" fill="#121B43"/>
<path d="M16.0848 15.5059L19.5026 18.6872L18.2477 19.8683L16.3404 18.2815L14.6396 16.866L16.0848 15.5059Z" fill="#F4EDE4"/>
<path d="M29.6968 24.347C30.101 24.7274 30.101 25.3452 29.6968 25.7256L27.3339 27.9494C26.929 28.3306 26.2733 28.3306 25.8684 27.9494L25.7271 27.8165C25.3221 27.4353 25.3221 26.8183 25.7271 26.4371L25.9214 26.2543L27.8948 24.3969L28.0899 24.2133C28.4941 23.8329 29.1505 23.8329 29.5547 24.2133L29.6968 24.347Z" fill="#121B43"/>
<path d="M12.0799 13.7778L10.5759 15.3785L8.88984 17.1736L7.17445 18.9994L5.45906 20.8268L3.74279 22.6526L2.10498 24.397L2.61732 26.1005L4.07836 26.2543L5.9318 24.7121L7.87172 23.0975L9.81246 21.483L11.7533 19.8685L15.0004 17.1667L15.3612 16.8662L14.7693 15.3295L12.0799 13.7778Z" fill="#F4EDE4"/>
<path d="M24.5416 20.8267L26.257 22.6525L24.0688 24.7119H24.068L22.1289 23.0974L24.5416 20.8267Z" fill="#121B43"/>
<path d="M21.1101 17.1743L22.8255 18.9994L20.1883 21.4822H20.1875L18.2476 19.8678L21.1101 17.1743Z" fill="#121B43"/>
<path d="M24.0688 24.7127L25.016 23.8213L26.7705 25.4557L25.9222 26.2542L24.0688 24.7127Z" fill="#F4EDE4"/>
<path d="M20.1875 21.483L21.3404 20.3987L23.1782 22.11L22.1291 23.0975L20.1875 21.483Z" fill="#F4EDE4"/>
<path d="M25.9226 26.2542L26.7709 25.4558L28.3859 26.9597L27.3343 27.9494C26.9301 28.3306 26.2737 28.3306 25.8695 27.9494L25.7275 27.8165C25.3233 27.4353 25.3233 26.8183 25.7275 26.4372L25.9226 26.2542Z" fill="#121B43"/>
<path d="M22.1289 23.0973L23.178 22.1099L25.0159 23.8212L24.0688 24.7126L22.1289 23.0973Z" fill="#121B43"/>
<path d="M19.5025 18.6873L21.3404 20.3986L20.1875 21.4829L18.2476 19.8683L19.5025 18.6873Z" fill="#121B43"/>
<path d="M3.74279 22.6526L4.6899 23.544L2.9533 25.1954L2.10498 24.397L3.74279 22.6526Z" fill="#F4EDE4"/>
<path d="M7.17438 18.9995L8.32645 20.0845L6.50811 21.8143L5.45898 20.8269L7.17438 18.9995Z" fill="#F4EDE4"/>
<path d="M13.5248 15.138L10.1446 18.3547L8.88965 17.1736L10.5757 15.3785L12.0797 13.7778L13.5248 15.138Z" fill="#F4EDE4"/>
<path d="M4.27266 27.8166L4.13139 27.9495C3.72721 28.3307 3.07078 28.3307 2.6666 27.9495L0.30375 25.7256C-0.10125 25.3452 -0.10125 24.7274 0.30375 24.347L0.44502 24.2133C0.85002 23.8329 1.50563 23.8329 1.91057 24.2133L2.10486 24.3969L4.2726 26.4371C4.6776 26.8184 4.6776 27.4355 4.27266 27.8166Z" fill="#121B43"/>
<path d="M7.8716 23.0976L5.93168 24.7122L4.68979 23.5441L3.74268 22.6527L5.45895 20.8269L6.50807 21.8144L7.8716 23.0976Z" fill="#121B43"/>
<path d="M11.7531 19.8685L9.81232 21.4831L8.32639 20.0845L7.17432 18.9994L8.88971 17.1736L10.1447 18.3547L11.7531 19.8685Z" fill="#121B43"/>
<path d="M2.10492 24.397L2.95324 25.1955L1.35539 26.7154L0.30375 25.7256C-0.10125 25.3452 -0.10125 24.7274 0.30375 24.347L0.44502 24.2133C0.85002 23.8329 1.50562 23.8329 1.91057 24.2133L2.10492 24.397Z" fill="#121B43"/>
<path d="M5.45895 20.8269L6.50807 21.8144L4.68979 23.5441L3.74268 22.6527L5.45895 20.8269Z" fill="#121B43"/>
<path d="M10.1447 18.3547L8.32639 20.0845L7.17432 18.9994L8.88971 17.1736L10.1447 18.3547Z" fill="#121B43"/>
<path d="M29.3222 0.638764C31.21 2.41544 29.0201 7.35728 24.4307 11.6767C22.7855 13.2251 21.0546 14.4839 19.4249 15.3784C17.9398 16.1937 16.5387 16.7078 15.3613 16.8661L12.0799 13.7777H12.0791C12.3216 12.1762 13.3545 10.136 15.0005 8.05428C15.7443 7.11292 16.6147 6.16312 17.5936 5.24178C22.1829 0.92233 27.4337 -1.1394 29.3222 0.638764Z" fill="#121B43"/>
<path d="M16.7923 9.74095C17.5361 8.79959 18.4065 7.84979 19.3854 6.92845C23.2283 3.31168 27.5343 1.27846 29.9424 1.75631C29.8438 1.31624 29.6454 0.94306 29.3384 0.654144C27.4498 -1.12402 22.1991 0.937711 17.6097 5.25716C16.6308 6.1785 15.7604 7.12835 15.0166 8.06966C13.3706 10.1514 12.3377 12.1916 12.0952 13.793H12.096L13.8711 15.4637C14.1137 13.8623 15.1465 11.8224 16.7923 9.74095Z" fill="#121B43"/>
</g>
<defs>
<clipPath id="clip0_2080_3667">
<rect width="30" height="28.2353" fill="white"/>
</clipPath>
</defs>
</svg>
