<svg width="50" height="50" viewBox="0 0 50 50" fill="none" xmlns="http://www.w3.org/2000/svg">
<g clip-path="url(#clip0_2706_579)">
<path d="M2.67077 22.6017L5.84617 21.0257L6.57102 2.72808L3.80959 2.61835C2.34825 2.56016 1.11799 3.69566 1.06146 5.157L0.476261 19.9018C0.447998 20.6034 0.7007 21.2867 1.17618 21.8021C1.57352 22.231 2.1022 22.5036 2.67077 22.6017Z" fill="#121B43"/>
<path d="M17.269 15.0474L14.3447 11.9651C14.23 11.8438 14.1934 11.6659 14.2516 11.508C14.3098 11.35 14.4511 11.2386 14.619 11.222L18.8418 10.7764C18.9864 10.7615 19.1144 10.675 19.1826 10.5487L21.2158 6.81635C21.2973 6.66838 21.4552 6.57861 21.6215 6.58526C21.7894 6.59191 21.9374 6.69332 22.0072 6.84627L23.7345 10.7282C23.7944 10.8612 23.9124 10.956 24.0571 10.9826L25.5383 11.2586L33.5633 7.27852L33.7013 3.80222L9.80103 2.85791L9.146 19.3932L17.3754 15.3101C17.3638 15.2137 17.3355 15.1206 17.269 15.0474Z" fill="#121B43"/>
<path d="M39.6318 4.94568C40.4281 4.94568 41.1912 5.11027 41.8878 5.39954C41.4522 4.62149 40.6442 4.07619 39.6883 4.03795L36.9285 3.92822L36.8604 5.64061L37.0233 5.56081C37.8279 5.16014 38.7323 4.94568 39.6318 4.94568Z" fill="#121B43"/>
<path d="M1.47031 26.8047C0.841879 27.1172 0.363076 27.6692 0.138638 28.3292C-0.0858013 28.9925 -0.0342635 29.7207 0.274963 30.3491L7.99899 45.9119C8.45784 46.8429 9.39716 47.3815 10.3697 47.3815C10.7654 47.3815 11.1661 47.2918 11.5435 47.1039L14.8419 45.4713L4.76873 25.1704L1.47031 26.8047Z" fill="#121B43"/>
<path d="M49.7246 25.2118L42.0006 9.64739C41.5434 8.71639 40.6008 8.17773 39.6282 8.17773C39.2359 8.17773 38.8319 8.26585 38.4545 8.45537L35.1577 10.0913L45.2325 30.3922L48.5293 28.7579C49.1577 28.4454 49.6382 27.8951 49.861 27.2334C50.0854 26.5684 50.0372 25.8402 49.7246 25.2118Z" fill="#121B43"/>
<path d="M7.66162 23.7339L17.7364 44.0331L42.3399 31.827L32.2651 11.5244L7.66162 23.7339ZM33.0083 32.5469C32.9301 32.6965 32.7722 32.7896 32.6093 32.7879L27.6566 32.6732C27.512 32.6699 27.3757 32.738 27.2892 32.8544L24.3865 36.8644C24.2867 36.9991 24.1205 37.0672 23.9542 37.0373C23.788 37.009 23.6516 36.891 23.6034 36.7264L22.1853 31.9816C22.1454 31.8436 22.0373 31.7339 21.8994 31.689L17.1878 30.1678C17.0282 30.1163 16.9102 29.9783 16.8852 29.812C16.8603 29.6425 16.9334 29.4795 17.0714 29.3831L21.1413 26.5701C21.261 26.4887 21.3324 26.3523 21.3324 26.206L21.3208 21.2551C21.3208 21.0872 21.4156 20.9326 21.5669 20.8577C21.7165 20.7829 21.896 20.7996 22.029 20.901L25.9659 23.9051C26.0806 23.9932 26.2319 24.0198 26.3699 23.9733L31.0781 22.4338C31.2377 22.3823 31.4106 22.4255 31.5286 22.5452C31.645 22.6649 31.6866 22.8428 31.6317 23.0007L29.916 27.8885L32.97 32.073C33.0714 32.216 33.0831 32.3989 33.0083 32.5469Z" fill="#121B43"/>
</g>
<defs>
<clipPath id="clip0_2706_579">
<rect width="50" height="50" fill="white"/>
</clipPath>
</defs>
</svg>
